0
SECTION
2
HEADER
9
$INSUNITS
70
4
9
$ACADVER
1
AC1014
9
$HANDSEED
5
FFFF
0
ENDSEC
0
SECTION
2
TABLES
0
TABLE
2
VPORT
5
8
100
AcDbSymbolTable
0
ENDTAB
0
TABLE
2
LTYPE
5
5
100
AcDbSymbolTable
0
LTYPE
5
14
100
AcDbSymbolTableRecord
100
AcDbLinetypeTableRecord
2
BYBLOCK
70
0
0
LTYPE
5
15
100
AcDbSymbolTableRecord
100
AcDbLinetypeTableRecord
2
BYLAYER
70
0
0
ENDTAB
0
TABLE
2
LAYER
5
2
100
AcDbSymbolTable
70
2
0
LAYER
5
50
100
AcDbSymbolTableRecord
100
AcDbLayerTableRecord
2
0
70
0
6
CONTINUOUS
0
ENDTAB
0
TABLE
2
STYLE
5
3
100
AcDbSymbolTable
70
1
0
STYLE
5
11
100
AcDbSymbolTableRecord
100
AcDbTextStyleTableRecord
2
STANDARD
70
0
0
ENDTAB
0
TABLE
2
VIEW
5
6
100
AcDbSymbolTable
70
0
0
ENDTAB
0
TABLE
2
UCS
5
7
100
AcDbSymbolTable
70
0
0
ENDTAB
0
TABLE
2
APPID
5
9
100
AcDbSymbolTable
70
2
0
APPID
5
12
100
AcDbSymbolTableRecord
100
AcDbRegAppTableRecord
2
ACAD
70
0
0
ENDTAB
0
TABLE
2
DIMSTYLE
5
A
100
AcDbSymbolTable
70
1
0
ENDTAB
0
TABLE
2
BLOCK_RECORD
5
1
100
AcDbSymbolTable
70
1
0
BLOCK_RECORD
5
1F
100
AcDbSymbolTableRecord
100
AcDbBlockTableRecord
2
*MODEL_SPACE
0
BLOCK_RECORD
5
1B
100
AcDbSymbolTableRecord
100
AcDbBlockTableRecord
2
*PAPER_SPACE
0
ENDTAB
0
ENDSEC
0
SECTION
2
BLOCKS
0
BLOCK
5
20
100
AcDbEntity
100
AcDbBlockBegin
2
*MODEL_SPACE
0
ENDBLK
5
21
100
AcDbEntity
100
AcDbBlockEnd
0
BLOCK
5
1C
100
AcDbEntity
100
AcDbBlockBegin
2
*PAPER_SPACE
0
ENDBLK
5
1D
100
AcDbEntity
100
AcDbBlockEnd
0
ENDSEC
0
SECTION
2
ENTITIES
0
ARC
5
100
100
AcDbEntity
8
0
100
AcDbCircle
10
-25.82
20
8.0599999999999916
30
0
40
0.99999999999999645
210
0
220
-0
230
1
100
AcDbArc
50
89.999999999999588
51
180
0
LINE
5
101
100
AcDbEntity
8
0
100
AcDbLine
10
-25.819999999999993
20
9.0599999999999881
30
0
11
-25.419999999999998
21
9.0599999999999881
31
0
0
LINE
5
102
100
AcDbEntity
8
0
100
AcDbLine
10
-25.419999999999998
20
9.0599999999999881
30
0
11
-23.319999999999993
21
11.05999999999999
31
0
0
LINE
5
103
100
AcDbEntity
8
0
100
AcDbLine
10
-23.319999999999993
20
11.05999999999999
30
0
11
-13.519999999999994
21
11.05999999999999
31
0
0
LINE
5
104
100
AcDbEntity
8
0
100
AcDbLine
10
-13.519999999999994
20
11.05999999999999
30
0
11
-12.219999999999995
21
8.8599999999999923
31
0
0
LINE
5
105
100
AcDbEntity
8
0
100
AcDbLine
10
-12.219999999999995
20
8.8599999999999923
30
0
11
12.180000000000009
21
8.8599999999999923
31
0
0
LINE
5
106
100
AcDbEntity
8
0
100
AcDbLine
10
12.180000000000009
20
8.8599999999999923
30
0
11
14.030000000000014
21
11.05999999999999
31
0
0
LINE
5
107
100
AcDbEntity
8
0
100
AcDbLine
10
14.030000000000014
20
11.05999999999999
30
0
11
23.680000000000014
21
11.05999999999999
31
0
0
LINE
5
108
100
AcDbEntity
8
0
100
AcDbLine
10
23.680000000000014
20
11.05999999999999
30
0
11
24.930000000000014
21
9.5599999999999863
31
0
0
LINE
5
109
100
AcDbEntity
8
0
100
AcDbLine
10
24.930000000000014
20
9.5599999999999863
30
0
11
27.330000000000013
21
11.05999999999999
31
0
0
LINE
5
110
100
AcDbEntity
8
0
100
AcDbLine
10
27.330000000000013
20
11.05999999999999
30
0
11
44.980000000000004
21
11.05999999999999
31
0
0
LINE
5
111
100
AcDbEntity
8
0
100
AcDbLine
10
44.980000000000004
20
11.05999999999999
30
0
11
45.930000000000007
21
9.8599999999999888
31
0
0
LINE
5
112
100
AcDbEntity
8
0
100
AcDbLine
10
45.930000000000007
20
9.8599999999999888
30
0
11
48.314596306197267
21
9.8599999999999888
31
0
0
ARC
5
113
100
AcDbEntity
8
0
100
AcDbCircle
10
48.314596306197267
20
8.3599999999999675
30
0
40
1.5000000000000271
210
0
220
-0
230
1
100
AcDbArc
50
24.469135309477377
51
90
0
LINE
5
114
100
AcDbEntity
8
0
100
AcDbLine
10
49.679873101399494
20
8.9813044925657515
30
0
11
53.180000000000007
21
1.2899999999999867
31
0
0
ARC
5
115
100
AcDbEntity
8
0
100
AcDbCircle
10
52.631296275386525
20
-5.6182740986878876
30
0
40
6.9300307935828442
210
0
220
-0
230
1
100
AcDbArc
50
13.844528947716846
51
85.458699965564392
0
LINE
5
116
100
AcDbEntity
8
0
100
AcDbLine
10
59.360000000000007
20
-3.9600000000000124
30
0
11
62.560000000000009
21
-3.9600000000000124
31
0
0
ARC
5
117
100
AcDbEntity
8
0
100
AcDbCircle
10
62.560000000000009
20
-4.9600000000000133
30
0
40
0.99999999999999645
210
0
220
-0
230
1
100
AcDbArc
50
0
51
90
0
LINE
5
118
100
AcDbEntity
8
0
100
AcDbLine
10
63.560000000000009
20
-4.9600000000000133
30
0
11
63.560000000000009
21
-8.6900000000000119
31
0
0
LINE
5
119
100
AcDbEntity
8
0
100
AcDbLine
10
63.560000000000009
20
-8.6900000000000119
30
0
11
49.759999999999998
21
-28.240000000000009
31
0
0
LINE
5
120
100
AcDbEntity
8
0
100
AcDbLine
10
49.759999999999998
20
-28.240000000000009
30
0
11
37.050126000967516
21
-28.240000000000009
31
0
0
ARC
5
121
100
AcDbEntity
8
0
100
AcDbCircle
10
37.050126000967502
20
-26.740000000000034
30
0
40
1.5000000000006284
210
0
220
0
230
1
100
AcDbArc
50
178.37679135073753
51
270.00000000000051
0
ARC
5
122
100
AcDbEntity
8
0
100
AcDbCircle
10
19.707088158845814
20
-26.248534429732999
30
0
40
15.850000000000028
210
-0
220
0
230
1
100
AcDbArc
50
-1.6232086492624678
51
226.27309319377827
0
ARC
5
123
100
AcDbEntity
8
0
100
AcDbCircle
10
8.0600000000000005
20
-38.425062564635574
30
0
40
0.99999999999999645
210
0
220
-0
230
1
100
AcDbArc
50
0
51
46.273093193777832
0
LINE
5
124
100
AcDbEntity
8
0
100
AcDbLine
10
9.0599999999999969
20
-38.425062564635574
30
0
11
9.0599999999999969
21
-42.240000000000009
31
0
0
ARC
5
125
100
AcDbEntity
8
0
100
AcDbCircle
10
8.0600000000000005
20
-42.240000000000009
30
0
40
0.99999999999999645
210
-0
220
0
230
1
100
AcDbArc
50
-90
51
0
0
LINE
5
126
100
AcDbEntity
8
0
100
AcDbLine
10
8.0600000000000005
20
-43.240000000000009
30
0
11
-10.440000000000001
21
-43.240000000000009
31
0
0
ARC
5
127
100
AcDbEntity
8
0
100
AcDbCircle
10
-10.439999999999996
20
-42.240000000000002
30
0
40
1.0000000000000053
210
0
220
0
230
1
100
AcDbArc
50
180
51
269.99999999999972
0
LINE
5
128
100
AcDbEntity
8
0
100
AcDbLine
10
-11.440000000000001
20
-41.790000000000006
30
0
11
-11.440000000000001
21
-42.240000000000009
31
0
0
ARC
5
129
100
AcDbEntity
8
0
100
AcDbCircle
10
-13.740000000000002
20
-41.790000000000006
30
0
40
2.2999999999999998
210
-0
220
0
230
1
100
AcDbArc
50
0
51
180
0
LINE
5
130
100
AcDbEntity
8
0
100
AcDbLine
10
-16.039999999999999
20
-42.240000000000009
30
0
11
-16.039999999999999
21
-41.790000000000006
31
0
0
ARC
5
131
100
AcDbEntity
8
0
100
AcDbCircle
10
-17.040000000000006
20
-42.240000000000002
30
0
40
1.0000000000000053
210
-0
220
0
230
1
100
AcDbArc
50
270.00000000000023
51
360
0
LINE
5
132
100
AcDbEntity
8
0
100
AcDbLine
10
-17.040000000000003
20
-43.240000000000009
30
0
11
-40.390000000000008
21
-43.240000000000009
31
0
0
ARC
5
133
100
AcDbEntity
8
0
100
AcDbCircle
10
-40.390000000000008
20
-42.240000000000009
30
0
40
0.99999999999999645
210
0
220
0
230
1
100
AcDbArc
50
180
51
270
0
ARC
5
134
100
AcDbEntity
8
0
100
AcDbCircle
10
-42.390000000000008
20
-42.140000000000001
30
0
40
1.0000000000000053
210
0
220
-0
230
1
100
AcDbArc
50
0
51
90
0
LINE
5
135
100
AcDbEntity
8
0
100
AcDbLine
10
-41.390000000000001
20
-42.240000000000009
30
0
11
-41.390000000000001
21
-42.140000000000001
31
0
0
LINE
5
136
100
AcDbEntity
8
0
100
AcDbLine
10
-42.390000000000008
20
-41.140000000000008
30
0
11
-44.040000000000006
21
-41.140000000000008
31
0
0
ARC
5
137
100
AcDbEntity
8
0
100
AcDbCircle
10
-44.040000000000006
20
-40.140000000000015
30
0
40
0.99999999999999645
210
0
220
0
230
1
100
AcDbArc
50
180
51
270
0
LINE
5
138
100
AcDbEntity
8
0
100
AcDbLine
10
-45.040000000000006
20
-40.140000000000015
30
0
11
-45.040000000000006
21
-31.282147817412486
31
0
0
ARC
5
139
100
AcDbEntity
8
0
100
AcDbCircle
10
-45.270000000000003
20
-31.282147817412486
30
0
40
0.22999999999999687
210
0
220
-0
230
1
100
AcDbArc
50
0
51
63.434948822922799
0
LINE
5
140
100
AcDbEntity
8
0
100
AcDbLine
10
-45.167140873035017
20
-31.076429563482503
30
0
11
-45.712859126964993
21
-30.803570436517511
31
0
0
ARC
5
141
100
AcDbEntity
8
0
100
AcDbCircle
10
-45.610000000000007
20
-30.59785218258753
30
0
40
0.22999999999999687
210
0
220
0
230
1
100
AcDbArc
50
180
51
243.43494882292276
0
LINE
5
142
100
AcDbEntity
8
0
100
AcDbLine
10
-45.840000000000003
20
-30.59785218258753
30
0
11
-45.840000000000003
21
-22.240000000000006
31
0
0
ARC
5
143
100
AcDbEntity
8
0
100
AcDbCircle
10
-44.840000000000003
20
-22.240000000000009
30
0
40
1.0000000000000053
210
0
220
0
230
1
100
AcDbArc
50
90.000000000000398
51
180
0
LINE
5
144
100
AcDbEntity
8
0
100
AcDbLine
10
-44.840000000000011
20
-21.240000000000006
30
0
11
-41.340000000000003
21
-21.240000000000006
31
0
0
ARC
5
145
100
AcDbEntity
8
0
100
AcDbCircle
10
-41.340000000000003
20
-6.7183076923076879
30
0
40
14.521692307692318
210
0
220
0
230
1
100
AcDbArc
50
270
51
359.12527226495831
0
LINE
5
146
100
AcDbEntity
8
0
100
AcDbLine
10
-26.819999999999993
20
-6.9400000000000084
30
0
11
-26.819999999999993
21
8.0599999999999916
31
0
0
CIRCLE
5
147
100
AcDbEntity
8
0
100
AcDbCircle
10
0
20
0
30
0
40
1.6499999999999955
210
0
220
-0
230
1
0
CIRCLE
5
148
100
AcDbEntity
8
0
100
AcDbCircle
10
-4.7900000000000009
20
-26.990000000000009
30
0
40
1.2499999999999987
210
0
220
-0
230
1
0
ARC
5
149
100
AcDbEntity
8
0
100
AcDbCircle
10
0.059999999999993392
20
-27.150000000000006
30
0
40
1.9499999999999891
210
0
220
-0
230
1
100
AcDbArc
50
32.204227503971438
51
147.79577249602855
0
LINE
5
150
100
AcDbEntity
8
0
100
AcDbLine
10
-1.590000000000007
20
-26.110769515458703
30
0
11
-1.590000000000007
21
-28.18923048454133
31
0
0
ARC
5
151
100
AcDbEntity
8
0
100
AcDbCircle
10
0.059999999999993392
20
-27.150000000000006
30
0
40
1.9499999999999988
210
0
220
0
230
1
100
AcDbArc
50
212.20422750397196
51
327.79577249602806
0
LINE
5
152
100
AcDbEntity
8
0
100
AcDbLine
10
1.7099999999999937
20
-27.150000000000006
30
0
11
1.7099999999999937
21
-28.18923048454133
31
0
0
LINE
5
153
100
AcDbEntity
8
0
100
AcDbLine
10
1.7099999999999937
20
-27.150000000000006
30
0
11
1.7099999999999937
21
-26.110769515458703
31
0
0
CIRCLE
5
154
100
AcDbEntity
8
0
100
AcDbCircle
10
-21.869999999999997
20
-8.3400000000000105
30
0
40
1.2499999999999973
210
0
220
-0
230
1
0
CIRCLE
5
155
100
AcDbEntity
8
0
100
AcDbCircle
10
51.560000000000016
20
-18.040000000000006
30
0
40
1.1000000000000001
210
0
220
-0
230
1
0
LINE
5
156
100
AcDbEntity
8
0
100
AcDbLine
10
13.330000000000028
20
-3.6200000000000188
30
0
11
8.3300000000000285
21
-3.6200000000000188
31
0
0
LINE
5
157
100
AcDbEntity
8
0
100
AcDbLine
10
8.3300000000000285
20
-3.6200000000000188
30
0
11
8.3300000000000285
21
-8.2400000000000162
31
0
0
LINE
5
158
100
AcDbEntity
8
0
100
AcDbLine
10
8.3300000000000285
20
-8.2400000000000162
30
0
11
13.330000000000028
21
-8.2400000000000126
31
0
0
LINE
5
159
100
AcDbEntity
8
0
100
AcDbLine
10
13.330000000000028
20
-8.2400000000000126
30
0
11
13.330000000000028
21
-3.6200000000000188
31
0
0
LINE
5
160
100
AcDbEntity
8
0
100
AcDbLine
10
-8.3199999999999932
20
-3.6200000000000143
30
0
11
-13.31999999999999
21
-3.6200000000000143
31
0
0
LINE
5
161
100
AcDbEntity
8
0
100
AcDbLine
10
-8.3199999999999932
20
-8.2400000000000126
30
0
11
-8.3199999999999932
21
-3.6200000000000143
31
0
0
LINE
5
162
100
AcDbEntity
8
0
100
AcDbLine
10
-13.319999999999993
20
-8.2400000000000126
30
0
11
-8.3199999999999932
21
-8.2400000000000126
31
0
0
LINE
5
163
100
AcDbEntity
8
0
100
AcDbLine
10
-13.31999999999999
20
-3.6200000000000143
30
0
11
-13.319999999999993
21
-8.2400000000000126
31
0
0
LINE
5
164
100
AcDbEntity
8
0
100
AcDbLine
10
-21.219999999999985
20
3.2599999999999874
30
0
11
-16.219999999999992
21
3.2599999999999874
31
0
0
LINE
5
165
100
AcDbEntity
8
0
100
AcDbLine
10
-21.219999999999985
20
7.8799999999999848
30
0
11
-21.219999999999985
21
3.2599999999999874
31
0
0
LINE
5
166
100
AcDbEntity
8
0
100
AcDbLine
10
-16.219999999999992
20
7.8799999999999848
30
0
11
-21.219999999999985
21
7.8799999999999848
31
0
0
LINE
5
167
100
AcDbEntity
8
0
100
AcDbLine
10
-16.219999999999992
20
3.2599999999999874
30
0
11
-16.219999999999992
21
7.8799999999999848
31
0
0
CIRCLE
5
168
100
AcDbEntity
8
0
100
AcDbCircle
10
-23.390000000000004
20
-26.865000000000006
30
0
40
1.9999999999999996
210
0
220
-0
230
1
0
CIRCLE
5
169
100
AcDbEntity
8
0
100
AcDbCircle
10
-42.140000000000001
20
-27.030000000000001
30
0
40
1.1000000000000001
210
0
220
-0
230
1
0
LINE
5
170
100
AcDbEntity
8
0
100
AcDbLine
10
21.38000000000001
20
7.8799999999999848
30
0
11
16.38000000000001
21
7.8799999999999759
31
0
0
LINE
5
171
100
AcDbEntity
8
0
100
AcDbLine
10
21.38000000000001
20
3.2599999999999962
30
0
11
21.38000000000001
21
7.8799999999999848
31
0
0
LINE
5
172
100
AcDbEntity
8
0
100
AcDbLine
10
16.38000000000001
20
3.2599999999999785
30
0
11
21.38000000000001
21
3.2599999999999962
31
0
0
LINE
5
173
100
AcDbEntity
8
0
100
AcDbLine
10
16.38000000000001
20
7.8799999999999759
30
0
11
16.38000000000001
21
3.2599999999999785
31
0
0
CIRCLE
5
174
100
AcDbEntity
8
0
100
AcDbCircle
10
28.410000000000011
20
-5.7900000000000063
30
0
40
3.7499999999999929
210
0
220
-0
230
1
0
CIRCLE
5
175
100
AcDbEntity
8
0
100
AcDbCircle
10
40.310000000000016
20
4.4099999999999895
30
0
40
3.7499999999999973
210
0
220
-0
230
1
0
CIRCLE
5
176
100
AcDbEntity
8
0
100
AcDbCircle
10
52.210000000000008
20
-5.7900000000000063
30
0
40
3.75
210
0
220
-0
230
1
0
CIRCLE
5
177
100
AcDbEntity
8
0
100
AcDbCircle
10
40.310000000000016
20
-15.990000000000006
30
0
40
3.7499999999999982
210
0
220
-0
230
1
0
LWPOLYLINE
5
178
100
AcDbEntity
8
0
100
AcDbPolyline
90
4
70
1
43
0.0
10
27.252043685085951
20
-9.8737352079755834
10
29.502043685085951
20
-9.8737352079755834
10
29.502043685085951
20
-12.123735207975583
10
27.252043685085951
20
-12.123735207975583
0
LWPOLYLINE
5
179
100
AcDbEntity
8
0
100
AcDbPolyline
90
4
70
1
43
0.0
10
27.301211677995688
20
-12.123735207975583
10
27.301211677995688
20
-9.8737352079755834
10
29.551211677995688
20
-9.8737352079755834
10
29.551211677995688
20
-12.123735207975583
0
LWPOLYLINE
5
180
100
AcDbEntity
8
0
100
AcDbPolyline
90
4
70
1
43
0.0
10
39.205861383531342
20
-1.9355698785869224
10
39.205861383531342
20
0.31443012141307736
10
41.455861383531349
20
0.31443012141307736
10
41.455861383531349
20
-1.9355698785869224
0
LWPOLYLINE
5
181
100
AcDbEntity
8
0
100
AcDbPolyline
90
4
70
1
43
0.0
10
51.138196320940338
20
-12.123735207975583
10
51.138196320940338
20
-9.8737352079755834
10
53.388196320940331
20
-9.8737352079755834
10
53.388196320940331
20
-12.123735207975583
0
LWPOLYLINE
5
182
100
AcDbEntity
8
0
100
AcDbPolyline
90
4
70
1
43
0.0
10
39.205861383531342
20
-22.367271001110922
10
39.205861383531342
20
-20.117271001110922
10
41.455861383531349
20
-20.117271001110922
10
41.455861383531349
20
-22.367271001110922
0
LWPOLYLINE
5
183
100
AcDbEntity
8
0
100
AcDbPolyline
90
4
70
1
43
0.0
10
9.6866835842303072
20
-11.525377728821081
10
9.6866835842303072
20
-9.2753777288210806
10
11.936683584230307
20
-9.2753777288210806
10
11.936683584230307
20
-11.525377728821081
0
LWPOLYLINE
5
184
100
AcDbEntity
8
0
100
AcDbPolyline
90
4
70
1
43
0.0
10
17.764166673769775
20
-0.03594036653933097
10
17.764166673769775
20
2.2140596334606686
10
20.014166673769775
20
2.2140596334606686
10
20.014166673769775
20
-0.03594036653933097
0
LWPOLYLINE
5
185
100
AcDbEntity
8
0
100
AcDbPolyline
90
4
70
1
43
0.0
10
-11.923780859106587
20
-11.518191352718947
10
-11.923780859106587
20
-9.2681913527189472
10
-9.6737808591065857
20
-9.2681913527189472
10
-9.6737808591065857
20
-11.518191352718947
0
LWPOLYLINE
5
186
100
AcDbEntity
8
0
100
AcDbPolyline
90
4
70
1
43
0.0
10
-19.887934208654151
20
-0.0099204409050379638
10
-19.887934208654151
20
2.240079559094962
10
-17.637934208654151
20
2.240079559094962
10
-17.637934208654151
20
-0.0099204409050379638
0
LWPOLYLINE
5
187
100
AcDbEntity
8
0
100
AcDbPolyline
90
4
70
1
43
0.0
10
-24.563449751409095
20
-23.341142112340734
10
-24.563449751409095
20
-21.091142112340734
10
-22.313449751409095
20
-21.091142112340734
10
-22.313449751409095
20
-23.341142112340734
0
LWPOLYLINE
5
188
100
AcDbEntity
8
0
100
AcDbPolyline
90
4
70
1
43
0.0
10
-26.960579635530383
20
-28.025748850366227
10
-29.210579635530387
20
-28.025748850366227
10
-29.210579635530387
20
-25.775748850366224
10
-26.960579635530383
20
-25.775748850366224
0
LWPOLYLINE
5
189
100
AcDbEntity
8
0
100
AcDbPolyline
90
4
70
1
43
0.0
10
-17.6101045864315
20
-28.007010423414123
10
-19.8601045864315
20
-28.007010423414123
10
-19.8601045864315
20
-25.757010423414123
10
-17.6101045864315
20
-25.757010423414123
0
LWPOLYLINE
5
190
100
AcDbEntity
8
0
100
AcDbPolyline
90
4
70
1
43
0.0
10
-22.257234470552785
20
-32.635401880583309
10
-24.507234470552785
20
-32.635401880583309
10
-24.507234470552785
20
-30.385401880583309
10
-22.257234470552785
20
-30.385401880583309
0
CIRCLE
5
191
100
AcDbEntity
8
0
100
AcDbCircle
10
-32.390000000000008
20
-26.865000000000006
30
0
40
2.7750000000000004
210
0
220
-0
230
1
0
CIRCLE
5
192
100
AcDbEntity
8
0
100
AcDbCircle
10
-23.390000000000004
20
-17.990000000000002
30
0
40
2.7750000000000004
210
0
220
-0
230
1
0
CIRCLE
5
193
100
AcDbEntity
8
0
100
AcDbCircle
10
-14.390000000000004
20
-26.865000000000006
30
0
40
2.774999999999999
210
0
220
-0
230
1
0
CIRCLE
5
194
100
AcDbEntity
8
0
100
AcDbCircle
10
-23.390000000000004
20
-35.740000000000009
30
0
40
2.7750000000000021
210
0
220
-0
230
1
0
ENDSEC
0
SECTION
2
OBJECTS
0
DICTIONARY
5
C
100
AcDbDictionary
3
ACAD_GROUP
350
D
3
ACAD_MLINESTYLE
350
17
0
DICTIONARY
5
D
100
AcDbDictionary
0
DICTIONARY
5
1A
330
C
100
AcDbDictionary
0
DICTIONARY
5
17
100
AcDbDictionary
0
ENDSEC
0
EOF
