%TF.GenerationSoftware,KiCad,Pcbnew,8.0.2*%
%TF.CreationDate,2024-11-29T16:24:00-08:00*%
%TF.ProjectId,procon_trigger_pcb,70726f63-6f6e-45f7-9472-69676765725f,rev?*%
%TF.SameCoordinates,Original*%
%TF.FileFunction,Profile,NP*%
%FSLAX46Y46*%
G04 Gerber Fmt 4.6, Leading zero omitted, Abs format (unit mm)*
G04 Created by KiCad (PCBNEW 8.0.2) date 2024-11-29 16:24:00*
%MOMM*%
%LPD*%
G01*
G04 APERTURE LIST*
%TA.AperFunction,Profile*%
%ADD10C,0.100000*%
%TD*%
G04 APERTURE END LIST*
D10*
X173484990Y-140047120D02*
G75*
G02*
X172984980Y-139547120I10J500020D01*
G01*
X277163479Y-142547120D02*
G75*
G02*
X272913480Y-146550852I-4249979J253820D01*
G01*
X191601200Y-125024850D02*
X191601200Y-123244330D01*
X197013730Y-133343220D02*
X198697110Y-133343220D01*
X263880450Y-137560000D02*
G75*
G02*
X261519550Y-137560000I-1180450J0D01*
G01*
X261519550Y-137560000D02*
G75*
G02*
X263880450Y-137560000I1180450J0D01*
G01*
X191601200Y-123244330D02*
X195537460Y-123244330D01*
X178125000Y-160828775D02*
X178125000Y-157828775D01*
X196085230Y-122803740D02*
X197140300Y-122803740D01*
X261829980Y-119664730D02*
X264625100Y-119664730D01*
X199197110Y-132843220D02*
G75*
G02*
X198697110Y-133343210I-500010J20D01*
G01*
X193296650Y-144633790D02*
G75*
G02*
X192853940Y-144901433I-442750J232390D01*
G01*
X199697110Y-121639830D02*
X226113150Y-121639830D01*
X196513730Y-142269070D02*
G75*
G02*
X196013730Y-142769130I-500030J-30D01*
G01*
X172984990Y-138635000D02*
X172984980Y-139547120D01*
X265875100Y-126274850D02*
X273466330Y-126274850D01*
X225613150Y-133550000D02*
X226613150Y-132550000D01*
X283241310Y-139547120D02*
G75*
G02*
X282741310Y-140047110I-500110J120D01*
G01*
X194683350Y-137560000D02*
G75*
G02*
X192366650Y-137560000I-1158350J0D01*
G01*
X192366650Y-137560000D02*
G75*
G02*
X194683350Y-137560000I1158350J0D01*
G01*
X192593570Y-135135000D02*
X176484990Y-135135000D01*
X226113150Y-121639830D02*
G75*
G02*
X226613070Y-122139830I-50J-499970D01*
G01*
X279741310Y-135135000D02*
X263632730Y-135135000D01*
X265926050Y-146543280D02*
X272913480Y-146543280D01*
X276566330Y-117793040D02*
X271347720Y-114505880D01*
X260688840Y-123244330D02*
X264625100Y-123244330D01*
X276714610Y-141935000D02*
G75*
G02*
X273985390Y-141935000I-1364610J0D01*
G01*
X273985390Y-141935000D02*
G75*
G02*
X276714610Y-141935000I1364610J0D01*
G01*
X183312830Y-146543280D02*
X190300250Y-146543280D01*
X283241310Y-139547120D02*
X283241310Y-138635000D01*
X259031890Y-118928780D02*
X197194420Y-118928780D01*
X194135100Y-143036660D02*
G75*
G02*
X194577800Y-142769088I442700J-232440D01*
G01*
X265875100Y-126274850D02*
G75*
G02*
X264625050Y-125024850I-100J1249950D01*
G01*
X196513730Y-133843220D02*
G75*
G02*
X197013730Y-133343230I499970J20D01*
G01*
X202807372Y-140506638D02*
G75*
G02*
X202606286Y-141256808I-1499972J38D01*
G01*
X259031890Y-117505880D02*
X259031890Y-118928780D01*
X225613150Y-133550000D02*
X208481661Y-133550000D01*
X182759980Y-126274850D02*
G75*
G02*
X179659950Y-123174850I20J3100050D01*
G01*
X274800830Y-120689560D02*
G75*
G02*
X273415650Y-120689560I-692590J0D01*
G01*
X273415650Y-120689560D02*
G75*
G02*
X274800830Y-120689560I692590J0D01*
G01*
X262132730Y-130719650D02*
G75*
G02*
X263632750Y-132219650I-30J-1500050D01*
G01*
X184878580Y-114505880D02*
X179659980Y-117793040D01*
X263372360Y-144901390D02*
G75*
G02*
X262929615Y-144633822I-60J499990D01*
G01*
X263958370Y-144901390D02*
G75*
G02*
X265434069Y-146132820I-70J-1500010D01*
G01*
X263372360Y-144901390D02*
X263958370Y-144901390D01*
X230113150Y-121639830D02*
X256529200Y-121639830D01*
X199197110Y-122139830D02*
G75*
G02*
X199697110Y-121639810I499990J30D01*
G01*
X197140300Y-130719650D02*
X194093570Y-130719650D01*
X259031890Y-117505880D02*
G75*
G02*
X262031890Y-114505890I3000010J-20D01*
G01*
X264625100Y-119664730D02*
X264625100Y-121698590D01*
X206307373Y-138684823D02*
G75*
G02*
X208885180Y-136550007I2577827J-488977D01*
G01*
X205637150Y-143007242D02*
G75*
G02*
X200674620Y-147510862I-9508550J5491542D01*
G01*
X259086000Y-130719650D02*
X259086000Y-122803740D01*
X261829980Y-121698590D02*
X261829980Y-119664730D01*
X260141070Y-122803740D02*
X260688840Y-123244330D01*
X265926050Y-146543280D02*
G75*
G02*
X265434099Y-146132820I-50J499980D01*
G01*
X173484990Y-140047120D02*
X176562830Y-140047120D01*
X189637020Y-160828775D02*
X178125000Y-160828775D01*
X256529200Y-121639830D02*
G75*
G02*
X257029170Y-122139830I-100J-500070D01*
G01*
X183312830Y-146543280D02*
G75*
G02*
X179070379Y-142546669I-30J4249980D01*
G01*
X257529200Y-133343220D02*
X259212570Y-133343220D01*
X195537460Y-123244330D02*
X196085230Y-122803740D01*
X176880450Y-137585000D02*
G75*
G02*
X174519550Y-137585000I-1180450J0D01*
G01*
X174519550Y-137585000D02*
G75*
G02*
X176880450Y-137585000I1180450J0D01*
G01*
X196513730Y-142269070D02*
X196513730Y-133843220D01*
X265789610Y-141935000D02*
G75*
G02*
X263060390Y-141935000I-1364610J0D01*
G01*
X263060390Y-141935000D02*
G75*
G02*
X265789610Y-141935000I1364610J0D01*
G01*
X226613150Y-122139830D02*
X226613150Y-132550000D01*
X199197110Y-132843220D02*
X199197110Y-122139830D01*
X193296650Y-144633790D02*
X194135100Y-143036660D01*
X257529200Y-133343220D02*
G75*
G02*
X257029180Y-132843220I-100J499920D01*
G01*
X182810650Y-120689560D02*
G75*
G02*
X181425470Y-120689560I-692590J0D01*
G01*
X181425470Y-120689560D02*
G75*
G02*
X182810650Y-120689560I692590J0D01*
G01*
X206307372Y-138684823D02*
X206307372Y-140506638D01*
X194577800Y-142769070D02*
X196013730Y-142769070D01*
X190615203Y-160036568D02*
G75*
G02*
X189637020Y-160828745I-978203J207868D01*
G01*
X191601200Y-121698590D02*
X191601200Y-119664730D01*
X194194420Y-114505880D02*
G75*
G02*
X197194420Y-117505880I-20J-3000020D01*
G01*
X197140300Y-122803740D02*
X197140300Y-130719650D01*
X206307372Y-140506638D02*
G75*
G02*
X205637130Y-143007232I-4999972J38D01*
G01*
X197194420Y-118928780D02*
X197194420Y-117505880D01*
X178125000Y-157828775D02*
X187561904Y-157828775D01*
X263632730Y-135135000D02*
X263632730Y-132219650D01*
X264625100Y-121698590D02*
X261829980Y-121698590D01*
X260212570Y-142769070D02*
G75*
G02*
X259712530Y-142269070I-70J499970D01*
G01*
X262132730Y-130719650D02*
X259086000Y-130719650D01*
X279741310Y-135135000D02*
G75*
G02*
X283241300Y-138635000I-10J-3500000D01*
G01*
X194396320Y-119664730D02*
X194396320Y-121698590D01*
X192593570Y-132219650D02*
G75*
G02*
X194093570Y-130719570I1500030J50D01*
G01*
X191601200Y-119664730D02*
X194396320Y-119664730D01*
X202807374Y-137375294D02*
X202807372Y-140506638D01*
X260212570Y-142769070D02*
X261648500Y-142769070D01*
X259086000Y-122803740D02*
X260141070Y-122803740D01*
X229613150Y-122139830D02*
G75*
G02*
X230113150Y-121639750I500050J30D01*
G01*
X226613150Y-137550000D02*
X226613150Y-145428780D01*
X259712570Y-133843220D02*
X259712570Y-142269070D01*
X262091210Y-143036660D02*
X262929660Y-144633790D01*
X176562830Y-140047070D02*
G75*
G02*
X179062830Y-142547120I-30J-2500030D01*
G01*
X190615198Y-160036567D02*
G75*
G02*
X200674615Y-147510852I17441382J-3704973D01*
G01*
X202807374Y-137375294D02*
G75*
G02*
X208481661Y-133549994I5674326J-2295906D01*
G01*
X229613150Y-145428780D02*
X229613150Y-122139830D01*
X259212570Y-133343220D02*
G75*
G02*
X259712580Y-133843220I-70J-500080D01*
G01*
X192593570Y-132219650D02*
X192593570Y-135135000D01*
X193164610Y-141910000D02*
G75*
G02*
X190435390Y-141910000I-1364610J0D01*
G01*
X190435390Y-141910000D02*
G75*
G02*
X193164610Y-141910000I1364610J0D01*
G01*
X257029200Y-122139830D02*
X257029200Y-132843220D01*
X281683350Y-137535000D02*
G75*
G02*
X279366650Y-137535000I-1158350J0D01*
G01*
X279366650Y-137535000D02*
G75*
G02*
X281683350Y-137535000I1158350J0D01*
G01*
X225613150Y-136550000D02*
X208885180Y-136550002D01*
X264625100Y-123244330D02*
X264625100Y-125024850D01*
X182239610Y-141910000D02*
G75*
G02*
X179510390Y-141910000I-1364610J0D01*
G01*
X179510390Y-141910000D02*
G75*
G02*
X182239610Y-141910000I1364610J0D01*
G01*
X190792170Y-146132810D02*
G75*
G02*
X192267930Y-144901427I1475730J-268590D01*
G01*
X271347720Y-114505880D02*
X262031890Y-114505880D01*
X194396320Y-121698590D02*
X191601200Y-121698590D01*
X182759980Y-126274850D02*
X190351200Y-126274850D01*
X194194420Y-114505880D02*
X184878580Y-114505880D01*
X276566330Y-123174850D02*
X276566330Y-117793040D01*
X172984990Y-138635000D02*
G75*
G02*
X176484990Y-135134990I3500010J0D01*
G01*
X192267930Y-144901390D02*
X192853940Y-144901390D01*
X190792170Y-146132810D02*
G75*
G02*
X190300250Y-146543248I-491870J89510D01*
G01*
X191601200Y-125024850D02*
G75*
G02*
X190351200Y-126274800I-1250000J50D01*
G01*
X261648500Y-142769070D02*
G75*
G02*
X262091204Y-143036668I100J-499830D01*
G01*
X225613150Y-136550000D02*
X226613150Y-137550000D01*
X187561905Y-157828775D02*
G75*
G02*
X199225600Y-144324930I20494795J-5912925D01*
G01*
X179659980Y-117793040D02*
X179659980Y-123174850D01*
X276566330Y-123174850D02*
G75*
G02*
X273466330Y-126274830I-3099930J-50D01*
G01*
X279663480Y-140047120D02*
X282741310Y-140047120D01*
X202606305Y-141256819D02*
G75*
G02*
X199225585Y-144324895I-6477405J3740819D01*
G01*
X277163480Y-142547120D02*
G75*
G02*
X279663480Y-140047180I2499920J20D01*
G01*
X226613150Y-145428780D02*
X229613150Y-145428780D01*
M02*
