%TF.GenerationSoftware,KiCad,Pcbnew,8.0.2*%
%TF.CreationDate,2024-11-29T16:24:04-08:00*%
%TF.ProjectId,procon_trigger_pcb,70726f63-6f6e-45f7-9472-69676765725f,rev?*%
%TF.SameCoordinates,Original*%
%TF.FileFunction,Drillmap*%
%TF.FilePolarity,Positive*%
%FSLAX45Y45*%
G04 Gerber Fmt 4.5, Leading zero omitted, Abs format (unit mm)*
G04 Created by KiCad (PCBNEW 8.0.2) date 2024-11-29 16:24:04*
%MOMM*%
%LPD*%
G01*
G04 APERTURE LIST*
%ADD10C,0.100000*%
%ADD11C,0.200000*%
G04 APERTURE END LIST*
D10*
X17348499Y-14004712D02*
G75*
G02*
X17298498Y-13954712I1J50002D01*
G01*
X27716348Y-14254712D02*
G75*
G02*
X27291348Y-14655085I-424998J25382D01*
G01*
X19160120Y-12502485D02*
X19160120Y-12324433D01*
X19701373Y-13334322D02*
X19869711Y-13334322D01*
X26388045Y-13756000D02*
G75*
G02*
X26151955Y-13756000I-118045J0D01*
G01*
X26151955Y-13756000D02*
G75*
G02*
X26388045Y-13756000I118045J0D01*
G01*
X19160120Y-12324433D02*
X19553746Y-12324433D01*
X17812500Y-16082877D02*
X17812500Y-15782877D01*
X19608523Y-12280374D02*
X19714030Y-12280374D01*
X26182998Y-11966473D02*
X26462510Y-11966473D01*
X19919711Y-13284322D02*
G75*
G02*
X19869711Y-13334321I-50001J2D01*
G01*
X19329665Y-14463379D02*
G75*
G02*
X19285394Y-14490143I-44275J23239D01*
G01*
X19969711Y-12163983D02*
X22611315Y-12163983D01*
X19651373Y-14226907D02*
G75*
G02*
X19601373Y-14276913I-50003J-3D01*
G01*
X17298499Y-13863500D02*
X17298498Y-13954712D01*
X26587510Y-12627485D02*
X27346633Y-12627485D01*
X22561315Y-13355000D02*
X22661315Y-13255000D01*
X28324131Y-13954712D02*
G75*
G02*
X28274131Y-14004711I-50011J12D01*
G01*
X19468335Y-13756000D02*
G75*
G02*
X19236665Y-13756000I-115835J0D01*
G01*
X19236665Y-13756000D02*
G75*
G02*
X19468335Y-13756000I115835J0D01*
G01*
X19259357Y-13513500D02*
X17648499Y-13513500D01*
X22611315Y-12163983D02*
G75*
G02*
X22661307Y-12213983I-5J-49997D01*
G01*
X27974131Y-13513500D02*
X26363273Y-13513500D01*
X26592605Y-14654328D02*
X27291348Y-14654328D01*
X27656633Y-11779304D02*
X27134772Y-11450588D01*
X26068884Y-12324433D02*
X26462510Y-12324433D01*
X27671461Y-14193500D02*
G75*
G02*
X27398539Y-14193500I-136461J0D01*
G01*
X27398539Y-14193500D02*
G75*
G02*
X27671461Y-14193500I136461J0D01*
G01*
X18331283Y-14654328D02*
X19030025Y-14654328D01*
X28324131Y-13954712D02*
X28324131Y-13863500D01*
X25903189Y-11892878D02*
X19719442Y-11892878D01*
X19413510Y-14303666D02*
G75*
G02*
X19457780Y-14276909I44270J-23244D01*
G01*
X26587510Y-12627485D02*
G75*
G02*
X26462505Y-12502485I-10J124995D01*
G01*
X19651373Y-13384322D02*
G75*
G02*
X19701373Y-13334323I49997J2D01*
G01*
X20280737Y-14050664D02*
G75*
G02*
X20260629Y-14125681I-149997J4D01*
G01*
X25903189Y-11750588D02*
X25903189Y-11892878D01*
X22561315Y-13355000D02*
X20848166Y-13355000D01*
X18275998Y-12627485D02*
G75*
G02*
X17965995Y-12317485I2J310005D01*
G01*
X27480083Y-12068956D02*
G75*
G02*
X27341565Y-12068956I-69259J0D01*
G01*
X27341565Y-12068956D02*
G75*
G02*
X27480083Y-12068956I69259J0D01*
G01*
X26213273Y-13071965D02*
G75*
G02*
X26363275Y-13221965I-3J-150005D01*
G01*
X18487858Y-11450588D02*
X17965998Y-11779304D01*
X26337236Y-14490139D02*
G75*
G02*
X26292961Y-14463382I-6J49999D01*
G01*
X26395837Y-14490139D02*
G75*
G02*
X26543407Y-14613282I-7J-150001D01*
G01*
X26337236Y-14490139D02*
X26395837Y-14490139D01*
X23011315Y-12163983D02*
X25652920Y-12163983D01*
X19919711Y-12213983D02*
G75*
G02*
X19969711Y-12163981I49999J3D01*
G01*
X19714030Y-13071965D02*
X19409357Y-13071965D01*
X25903189Y-11750588D02*
G75*
G02*
X26203189Y-11450589I300001J-2D01*
G01*
X26462510Y-11966473D02*
X26462510Y-12169859D01*
X20630737Y-13868482D02*
G75*
G02*
X20888518Y-13655001I257783J-48898D01*
G01*
X20563715Y-14300724D02*
G75*
G02*
X20067462Y-14751086I-950855J549154D01*
G01*
X25908600Y-13071965D02*
X25908600Y-12280374D01*
X26182998Y-12169859D02*
X26182998Y-11966473D01*
X26014107Y-12280374D02*
X26068884Y-12324433D01*
X26592605Y-14654328D02*
G75*
G02*
X26543410Y-14613282I-5J49998D01*
G01*
X17348499Y-14004712D02*
X17656283Y-14004712D01*
X18963702Y-16082877D02*
X17812500Y-16082877D01*
X25652920Y-12163983D02*
G75*
G02*
X25702917Y-12213983I-10J-50007D01*
G01*
X18331283Y-14654328D02*
G75*
G02*
X17907038Y-14254667I-3J424998D01*
G01*
X25752920Y-13334322D02*
X25921257Y-13334322D01*
X19553746Y-12324433D02*
X19608523Y-12280374D01*
X17688045Y-13758500D02*
G75*
G02*
X17451955Y-13758500I-118045J0D01*
G01*
X17451955Y-13758500D02*
G75*
G02*
X17688045Y-13758500I118045J0D01*
G01*
X19651373Y-14226907D02*
X19651373Y-13384322D01*
X26578961Y-14193500D02*
G75*
G02*
X26306039Y-14193500I-136461J0D01*
G01*
X26306039Y-14193500D02*
G75*
G02*
X26578961Y-14193500I136461J0D01*
G01*
X22661315Y-12213983D02*
X22661315Y-13255000D01*
X19919711Y-13284322D02*
X19919711Y-12213983D01*
X19329665Y-14463379D02*
X19413510Y-14303666D01*
X25752920Y-13334322D02*
G75*
G02*
X25702918Y-13284322I-10J49992D01*
G01*
X18281065Y-12068956D02*
G75*
G02*
X18142547Y-12068956I-69259J0D01*
G01*
X18142547Y-12068956D02*
G75*
G02*
X18281065Y-12068956I69259J0D01*
G01*
X20630737Y-13868482D02*
X20630737Y-14050664D01*
X19457780Y-14276907D02*
X19601373Y-14276907D01*
X19061520Y-16003657D02*
G75*
G02*
X18963702Y-16082874I-97820J20787D01*
G01*
X19160120Y-12169859D02*
X19160120Y-11966473D01*
X19419442Y-11450588D02*
G75*
G02*
X19719442Y-11750588I-2J-300002D01*
G01*
X19714030Y-12280374D02*
X19714030Y-13071965D01*
X20630737Y-14050664D02*
G75*
G02*
X20563713Y-14300723I-499997J4D01*
G01*
X19719442Y-11892878D02*
X19719442Y-11750588D01*
X17812500Y-15782877D02*
X18756190Y-15782877D01*
X26363273Y-13513500D02*
X26363273Y-13221965D01*
X26462510Y-12169859D02*
X26182998Y-12169859D01*
X26021257Y-14276907D02*
G75*
G02*
X25971253Y-14226907I-7J49997D01*
G01*
X26213273Y-13071965D02*
X25908600Y-13071965D01*
X27974131Y-13513500D02*
G75*
G02*
X28324130Y-13863500I-1J-350000D01*
G01*
X19439632Y-11966473D02*
X19439632Y-12169859D01*
X19259357Y-13221965D02*
G75*
G02*
X19409357Y-13071957I150003J5D01*
G01*
X19160120Y-11966473D02*
X19439632Y-11966473D01*
X20280737Y-13737529D02*
X20280737Y-14050664D01*
X26021257Y-14276907D02*
X26164850Y-14276907D01*
X25908600Y-12280374D02*
X26014107Y-12280374D01*
X22961315Y-12213983D02*
G75*
G02*
X23011315Y-12163975I50005J3D01*
G01*
X22661315Y-13755000D02*
X22661315Y-14542878D01*
X25971257Y-13384322D02*
X25971257Y-14226907D01*
X26209121Y-14303666D02*
X26292966Y-14463379D01*
X17656283Y-14004707D02*
G75*
G02*
X17906283Y-14254712I-3J-250003D01*
G01*
X19061520Y-16003657D02*
G75*
G02*
X20067462Y-14751085I1744138J-370497D01*
G01*
X20280737Y-13737529D02*
G75*
G02*
X20848166Y-13354999I567433J-229591D01*
G01*
X22961315Y-14542878D02*
X22961315Y-12213983D01*
X25921257Y-13334322D02*
G75*
G02*
X25971258Y-13384322I-7J-50008D01*
G01*
X19259357Y-13221965D02*
X19259357Y-13513500D01*
X19316461Y-14191000D02*
G75*
G02*
X19043539Y-14191000I-136461J0D01*
G01*
X19043539Y-14191000D02*
G75*
G02*
X19316461Y-14191000I136461J0D01*
G01*
X25702920Y-12213983D02*
X25702920Y-13284322D01*
X28168335Y-13753500D02*
G75*
G02*
X27936665Y-13753500I-115835J0D01*
G01*
X27936665Y-13753500D02*
G75*
G02*
X28168335Y-13753500I115835J0D01*
G01*
X22561315Y-13655000D02*
X20888518Y-13655000D01*
X26462510Y-12324433D02*
X26462510Y-12502485D01*
X18223961Y-14191000D02*
G75*
G02*
X17951039Y-14191000I-136461J0D01*
G01*
X17951039Y-14191000D02*
G75*
G02*
X18223961Y-14191000I136461J0D01*
G01*
X19079217Y-14613281D02*
G75*
G02*
X19226793Y-14490143I147573J-26859D01*
G01*
X27134772Y-11450588D02*
X26203189Y-11450588D01*
X19439632Y-12169859D02*
X19160120Y-12169859D01*
X18275998Y-12627485D02*
X19035120Y-12627485D01*
X19419442Y-11450588D02*
X18487858Y-11450588D01*
X27656633Y-12317485D02*
X27656633Y-11779304D01*
X17298499Y-13863500D02*
G75*
G02*
X17648499Y-13513499I350001J0D01*
G01*
X19226793Y-14490139D02*
X19285394Y-14490139D01*
X19079217Y-14613281D02*
G75*
G02*
X19030025Y-14654325I-49187J8951D01*
G01*
X19160120Y-12502485D02*
G75*
G02*
X19035120Y-12627480I-125000J5D01*
G01*
X26164850Y-14276907D02*
G75*
G02*
X26209120Y-14303667I10J-49983D01*
G01*
X22561315Y-13655000D02*
X22661315Y-13755000D01*
X18756191Y-15782877D02*
G75*
G02*
X19922560Y-14432493I2049480J-591293D01*
G01*
X17965998Y-11779304D02*
X17965998Y-12317485D01*
X27656633Y-12317485D02*
G75*
G02*
X27346633Y-12627483I-309993J-5D01*
G01*
X27966348Y-14004712D02*
X28274131Y-14004712D01*
X20260631Y-14125682D02*
G75*
G02*
X19922559Y-14432489I-647741J374082D01*
G01*
X27716348Y-14254712D02*
G75*
G02*
X27966348Y-14004718I249992J2D01*
G01*
X22661315Y-14542878D02*
X22961315Y-14542878D01*
D11*
X17554275Y-16399361D02*
X17554275Y-16199361D01*
X17554275Y-16199361D02*
X17601894Y-16199361D01*
X17601894Y-16199361D02*
X17630465Y-16208885D01*
X17630465Y-16208885D02*
X17649513Y-16227933D01*
X17649513Y-16227933D02*
X17659037Y-16246980D01*
X17659037Y-16246980D02*
X17668561Y-16285075D01*
X17668561Y-16285075D02*
X17668561Y-16313647D01*
X17668561Y-16313647D02*
X17659037Y-16351742D01*
X17659037Y-16351742D02*
X17649513Y-16370790D01*
X17649513Y-16370790D02*
X17630465Y-16389837D01*
X17630465Y-16389837D02*
X17601894Y-16399361D01*
X17601894Y-16399361D02*
X17554275Y-16399361D01*
X17754275Y-16399361D02*
X17754275Y-16266028D01*
X17754275Y-16304123D02*
X17763799Y-16285075D01*
X17763799Y-16285075D02*
X17773322Y-16275552D01*
X17773322Y-16275552D02*
X17792370Y-16266028D01*
X17792370Y-16266028D02*
X17811418Y-16266028D01*
X17878084Y-16399361D02*
X17878084Y-16266028D01*
X17878084Y-16199361D02*
X17868561Y-16208885D01*
X17868561Y-16208885D02*
X17878084Y-16218409D01*
X17878084Y-16218409D02*
X17887608Y-16208885D01*
X17887608Y-16208885D02*
X17878084Y-16199361D01*
X17878084Y-16199361D02*
X17878084Y-16218409D01*
X18001894Y-16399361D02*
X17982846Y-16389837D01*
X17982846Y-16389837D02*
X17973322Y-16370790D01*
X17973322Y-16370790D02*
X17973322Y-16199361D01*
X18106656Y-16399361D02*
X18087608Y-16389837D01*
X18087608Y-16389837D02*
X18078084Y-16370790D01*
X18078084Y-16370790D02*
X18078084Y-16199361D01*
X18335227Y-16399361D02*
X18335227Y-16199361D01*
X18335227Y-16199361D02*
X18401894Y-16342218D01*
X18401894Y-16342218D02*
X18468561Y-16199361D01*
X18468561Y-16199361D02*
X18468561Y-16399361D01*
X18649513Y-16399361D02*
X18649513Y-16294599D01*
X18649513Y-16294599D02*
X18639989Y-16275552D01*
X18639989Y-16275552D02*
X18620942Y-16266028D01*
X18620942Y-16266028D02*
X18582846Y-16266028D01*
X18582846Y-16266028D02*
X18563799Y-16275552D01*
X18649513Y-16389837D02*
X18630465Y-16399361D01*
X18630465Y-16399361D02*
X18582846Y-16399361D01*
X18582846Y-16399361D02*
X18563799Y-16389837D01*
X18563799Y-16389837D02*
X18554275Y-16370790D01*
X18554275Y-16370790D02*
X18554275Y-16351742D01*
X18554275Y-16351742D02*
X18563799Y-16332695D01*
X18563799Y-16332695D02*
X18582846Y-16323171D01*
X18582846Y-16323171D02*
X18630465Y-16323171D01*
X18630465Y-16323171D02*
X18649513Y-16313647D01*
X18744751Y-16266028D02*
X18744751Y-16466028D01*
X18744751Y-16275552D02*
X18763799Y-16266028D01*
X18763799Y-16266028D02*
X18801894Y-16266028D01*
X18801894Y-16266028D02*
X18820942Y-16275552D01*
X18820942Y-16275552D02*
X18830465Y-16285075D01*
X18830465Y-16285075D02*
X18839989Y-16304123D01*
X18839989Y-16304123D02*
X18839989Y-16361266D01*
X18839989Y-16361266D02*
X18830465Y-16380314D01*
X18830465Y-16380314D02*
X18820942Y-16389837D01*
X18820942Y-16389837D02*
X18801894Y-16399361D01*
X18801894Y-16399361D02*
X18763799Y-16399361D01*
X18763799Y-16399361D02*
X18744751Y-16389837D01*
X18925703Y-16380314D02*
X18935227Y-16389837D01*
X18935227Y-16389837D02*
X18925703Y-16399361D01*
X18925703Y-16399361D02*
X18916180Y-16389837D01*
X18916180Y-16389837D02*
X18925703Y-16380314D01*
X18925703Y-16380314D02*
X18925703Y-16399361D01*
X18925703Y-16275552D02*
X18935227Y-16285075D01*
X18935227Y-16285075D02*
X18925703Y-16294599D01*
X18925703Y-16294599D02*
X18916180Y-16285075D01*
X18916180Y-16285075D02*
X18925703Y-16275552D01*
X18925703Y-16275552D02*
X18925703Y-16294599D01*
M02*
