%TF.GenerationSoftware,KiCad,Pcbnew,8.0.2*%
%TF.CreationDate,2024-09-01T00:44:28-07:00*%
%TF.ProjectId,procon_trigger_pcb,70726f63-6f6e-45f7-9472-69676765725f,rev?*%
%TF.SameCoordinates,Original*%
%TF.FileFunction,Drillmap*%
%TF.FilePolarity,Positive*%
%FSLAX45Y45*%
G04 Gerber Fmt 4.5, Leading zero omitted, Abs format (unit mm)*
G04 Created by KiCad (PCBNEW 8.0.2) date 2024-09-01 00:44:28*
%MOMM*%
%LPD*%
G01*
G04 APERTURE LIST*
%ADD10C,0.100000*%
%ADD11C,0.200000*%
G04 APERTURE END LIST*
D10*
X17348499Y-14004712D02*
G75*
G02*
X17298498Y-13954712I1J50002D01*
G01*
X27716348Y-14254712D02*
G75*
G02*
X27291348Y-14655085I-424998J25382D01*
G01*
X19160120Y-12502485D02*
X19160120Y-12324433D01*
X19701373Y-13334322D02*
X19869711Y-13334322D01*
X26388045Y-13756000D02*
G75*
G02*
X26151955Y-13756000I-118045J0D01*
G01*
X26151955Y-13756000D02*
G75*
G02*
X26388045Y-13756000I118045J0D01*
G01*
X19160120Y-12324433D02*
X19553746Y-12324433D01*
X17812500Y-16082877D02*
X17812500Y-15782877D01*
X19608523Y-12280374D02*
X19714030Y-12280374D01*
X26182998Y-11966473D02*
X26462510Y-11966473D01*
X19919711Y-13284322D02*
G75*
G02*
X19869711Y-13334321I-50001J2D01*
G01*
X19329665Y-14463379D02*
G75*
G02*
X19285394Y-14490143I-44275J23239D01*
G01*
X19969711Y-12163983D02*
X22611315Y-12163983D01*
X19651373Y-14226907D02*
G75*
G02*
X19601373Y-14276913I-50003J-3D01*
G01*
X17298499Y-13863500D02*
X17298498Y-13954712D01*
X26587510Y-12627485D02*
X27346633Y-12627485D01*
X22561315Y-13355000D02*
X22661315Y-13255000D01*
X28324131Y-13954712D02*
G75*
G02*
X28274131Y-14004711I-50011J12D01*
G01*
X19468335Y-13756000D02*
G75*
G02*
X19236665Y-13756000I-115835J0D01*
G01*
X19236665Y-13756000D02*
G75*
G02*
X19468335Y-13756000I115835J0D01*
G01*
X19259357Y-13513500D02*
X17648499Y-13513500D01*
X22611315Y-12163983D02*
G75*
G02*
X22661307Y-12213983I-5J-49997D01*
G01*
X27974131Y-13513500D02*
X26363273Y-13513500D01*
X26592605Y-14654328D02*
X27291348Y-14654328D01*
X27656633Y-11779304D02*
X27134772Y-11450588D01*
X26068884Y-12324433D02*
X26462510Y-12324433D01*
X27671461Y-14193500D02*
G75*
G02*
X27398539Y-14193500I-136461J0D01*
G01*
X27398539Y-14193500D02*
G75*
G02*
X27671461Y-14193500I136461J0D01*
G01*
X18331283Y-14654328D02*
X19030025Y-14654328D01*
X28324131Y-13954712D02*
X28324131Y-13863500D01*
X25903189Y-11892878D02*
X19719442Y-11892878D01*
X19413510Y-14303666D02*
G75*
G02*
X19457780Y-14276909I44270J-23244D01*
G01*
X26587510Y-12627485D02*
G75*
G02*
X26462505Y-12502485I-10J124995D01*
G01*
X19651373Y-13384322D02*
G75*
G02*
X19701373Y-13334323I49997J2D01*
G01*
X20280737Y-14050664D02*
G75*
G02*
X20260629Y-14125681I-149997J4D01*
G01*
X25903189Y-11750588D02*
X25903189Y-11892878D01*
X22561315Y-13355000D02*
X20848166Y-13355000D01*
X18275998Y-12627485D02*
G75*
G02*
X17965995Y-12317485I2J310005D01*
G01*
X27480083Y-12068956D02*
G75*
G02*
X27341565Y-12068956I-69259J0D01*
G01*
X27341565Y-12068956D02*
G75*
G02*
X27480083Y-12068956I69259J0D01*
G01*
X26213273Y-13071965D02*
G75*
G02*
X26363275Y-13221965I-3J-150005D01*
G01*
X18487858Y-11450588D02*
X17965998Y-11779304D01*
X26337236Y-14490139D02*
G75*
G02*
X26292961Y-14463382I-6J49999D01*
G01*
X26395837Y-14490139D02*
G75*
G02*
X26543407Y-14613282I-7J-150001D01*
G01*
X26337236Y-14490139D02*
X26395837Y-14490139D01*
X23011315Y-12163983D02*
X25652920Y-12163983D01*
X19919711Y-12213983D02*
G75*
G02*
X19969711Y-12163981I49999J3D01*
G01*
X19714030Y-13071965D02*
X19409357Y-13071965D01*
X25903189Y-11750588D02*
G75*
G02*
X26203189Y-11450589I300001J-2D01*
G01*
X26462510Y-11966473D02*
X26462510Y-12169859D01*
X20630737Y-13868482D02*
G75*
G02*
X20888518Y-13655001I257783J-48898D01*
G01*
X20563715Y-14300724D02*
G75*
G02*
X20067462Y-14751086I-950855J549154D01*
G01*
X25908600Y-13071965D02*
X25908600Y-12280374D01*
X26182998Y-12169859D02*
X26182998Y-11966473D01*
X26014107Y-12280374D02*
X26068884Y-12324433D01*
X26592605Y-14654328D02*
G75*
G02*
X26543410Y-14613282I-5J49998D01*
G01*
X17348499Y-14004712D02*
X17656283Y-14004712D01*
X18963702Y-16082877D02*
X17812500Y-16082877D01*
X25652920Y-12163983D02*
G75*
G02*
X25702917Y-12213983I-10J-50007D01*
G01*
X18331283Y-14654328D02*
G75*
G02*
X17907038Y-14254667I-3J424998D01*
G01*
X25752920Y-13334322D02*
X25921257Y-13334322D01*
X19553746Y-12324433D02*
X19608523Y-12280374D01*
X17688045Y-13758500D02*
G75*
G02*
X17451955Y-13758500I-118045J0D01*
G01*
X17451955Y-13758500D02*
G75*
G02*
X17688045Y-13758500I118045J0D01*
G01*
X19651373Y-14226907D02*
X19651373Y-13384322D01*
X26578961Y-14193500D02*
G75*
G02*
X26306039Y-14193500I-136461J0D01*
G01*
X26306039Y-14193500D02*
G75*
G02*
X26578961Y-14193500I136461J0D01*
G01*
X22661315Y-12213983D02*
X22661315Y-13255000D01*
X19919711Y-13284322D02*
X19919711Y-12213983D01*
X19329665Y-14463379D02*
X19413510Y-14303666D01*
X25752920Y-13334322D02*
G75*
G02*
X25702918Y-13284322I-10J49992D01*
G01*
X18281065Y-12068956D02*
G75*
G02*
X18142547Y-12068956I-69259J0D01*
G01*
X18142547Y-12068956D02*
G75*
G02*
X18281065Y-12068956I69259J0D01*
G01*
X20630737Y-13868482D02*
X20630737Y-14050664D01*
X19457780Y-14276907D02*
X19601373Y-14276907D01*
X19061520Y-16003657D02*
G75*
G02*
X18963702Y-16082874I-97820J20787D01*
G01*
X19160120Y-12169859D02*
X19160120Y-11966473D01*
X19419442Y-11450588D02*
G75*
G02*
X19719442Y-11750588I-2J-300002D01*
G01*
X19714030Y-12280374D02*
X19714030Y-13071965D01*
X20630737Y-14050664D02*
G75*
G02*
X20563713Y-14300723I-499997J4D01*
G01*
X19719442Y-11892878D02*
X19719442Y-11750588D01*
X17812500Y-15782877D02*
X18756190Y-15782877D01*
X26363273Y-13513500D02*
X26363273Y-13221965D01*
X26462510Y-12169859D02*
X26182998Y-12169859D01*
X26021257Y-14276907D02*
G75*
G02*
X25971253Y-14226907I-7J49997D01*
G01*
X26213273Y-13071965D02*
X25908600Y-13071965D01*
X27974131Y-13513500D02*
G75*
G02*
X28324130Y-13863500I-1J-350000D01*
G01*
X19439632Y-11966473D02*
X19439632Y-12169859D01*
X19259357Y-13221965D02*
G75*
G02*
X19409357Y-13071957I150003J5D01*
G01*
X19160120Y-11966473D02*
X19439632Y-11966473D01*
X20280737Y-13737529D02*
X20280737Y-14050664D01*
X26021257Y-14276907D02*
X26164850Y-14276907D01*
X25908600Y-12280374D02*
X26014107Y-12280374D01*
X22961315Y-12213983D02*
G75*
G02*
X23011315Y-12163975I50005J3D01*
G01*
X22661315Y-13755000D02*
X22661315Y-14542878D01*
X25971257Y-13384322D02*
X25971257Y-14226907D01*
X26209121Y-14303666D02*
X26292966Y-14463379D01*
X17656283Y-14004707D02*
G75*
G02*
X17906283Y-14254712I-3J-250003D01*
G01*
X19061520Y-16003657D02*
G75*
G02*
X20067462Y-14751085I1744138J-370497D01*
G01*
X20280737Y-13737529D02*
G75*
G02*
X20848166Y-13354999I567433J-229591D01*
G01*
X22961315Y-14542878D02*
X22961315Y-12213983D01*
X25921257Y-13334322D02*
G75*
G02*
X25971258Y-13384322I-7J-50008D01*
G01*
X19259357Y-13221965D02*
X19259357Y-13513500D01*
X19316461Y-14191000D02*
G75*
G02*
X19043539Y-14191000I-136461J0D01*
G01*
X19043539Y-14191000D02*
G75*
G02*
X19316461Y-14191000I136461J0D01*
G01*
X25702920Y-12213983D02*
X25702920Y-13284322D01*
X28168335Y-13753500D02*
G75*
G02*
X27936665Y-13753500I-115835J0D01*
G01*
X27936665Y-13753500D02*
G75*
G02*
X28168335Y-13753500I115835J0D01*
G01*
X22561315Y-13655000D02*
X20888518Y-13655000D01*
X26462510Y-12324433D02*
X26462510Y-12502485D01*
X18223961Y-14191000D02*
G75*
G02*
X17951039Y-14191000I-136461J0D01*
G01*
X17951039Y-14191000D02*
G75*
G02*
X18223961Y-14191000I136461J0D01*
G01*
X19079217Y-14613281D02*
G75*
G02*
X19226793Y-14490143I147573J-26859D01*
G01*
X27134772Y-11450588D02*
X26203189Y-11450588D01*
X19439632Y-12169859D02*
X19160120Y-12169859D01*
X18275998Y-12627485D02*
X19035120Y-12627485D01*
X19419442Y-11450588D02*
X18487858Y-11450588D01*
X27656633Y-12317485D02*
X27656633Y-11779304D01*
X17298499Y-13863500D02*
G75*
G02*
X17648499Y-13513499I350001J0D01*
G01*
X19226793Y-14490139D02*
X19285394Y-14490139D01*
X19079217Y-14613281D02*
G75*
G02*
X19030025Y-14654325I-49187J8951D01*
G01*
X19160120Y-12502485D02*
G75*
G02*
X19035120Y-12627480I-125000J5D01*
G01*
X26164850Y-14276907D02*
G75*
G02*
X26209120Y-14303667I10J-49983D01*
G01*
X22561315Y-13655000D02*
X22661315Y-13755000D01*
X18756191Y-15782877D02*
G75*
G02*
X19922560Y-14432493I2049480J-591293D01*
G01*
X17965998Y-11779304D02*
X17965998Y-12317485D01*
X27656633Y-12317485D02*
G75*
G02*
X27346633Y-12627483I-309993J-5D01*
G01*
X27966348Y-14004712D02*
X28274131Y-14004712D01*
X20260631Y-14125682D02*
G75*
G02*
X19922559Y-14432489I-647741J374082D01*
G01*
X27716348Y-14254712D02*
G75*
G02*
X27966348Y-14004718I249992J2D01*
G01*
X22661315Y-14542878D02*
X22961315Y-14542878D01*
D11*
D10*
X18166000Y-12390000D02*
X18206000Y-12430000D01*
X18206000Y-12390000D02*
X18166000Y-12430000D01*
X18365000Y-13644000D02*
X18405000Y-13684000D01*
X18405000Y-13644000D02*
X18365000Y-13684000D01*
X18795000Y-13577000D02*
X18835000Y-13617000D01*
X18835000Y-13577000D02*
X18795000Y-13617000D01*
X18829000Y-12367000D02*
X18869000Y-12407000D01*
X18869000Y-12367000D02*
X18829000Y-12407000D01*
X18922000Y-13618000D02*
X18962000Y-13658000D01*
X18962000Y-13618000D02*
X18922000Y-13658000D01*
X18947000Y-11551000D02*
X18987000Y-11591000D01*
X18987000Y-11551000D02*
X18947000Y-11591000D01*
X18980000Y-13814000D02*
X19020000Y-13854000D01*
X19020000Y-13814000D02*
X18980000Y-13854000D01*
X19073000Y-11719000D02*
X19113000Y-11759000D01*
X19113000Y-11719000D02*
X19073000Y-11759000D01*
X19149000Y-13662000D02*
X19189000Y-13702000D01*
X19189000Y-13662000D02*
X19149000Y-13702000D01*
X19396000Y-15090000D02*
X19436000Y-15130000D01*
X19436000Y-15090000D02*
X19396000Y-15130000D01*
X19425637Y-11752882D02*
X19465637Y-11792882D01*
X19465637Y-11752882D02*
X19425637Y-11792882D01*
X19512984Y-11626901D02*
X19552984Y-11666901D01*
X19552984Y-11626901D02*
X19512984Y-11666901D01*
X19962000Y-14669000D02*
X20002000Y-14709000D01*
X20002000Y-14669000D02*
X19962000Y-14709000D01*
X21237000Y-13389000D02*
X21277000Y-13429000D01*
X21277000Y-13389000D02*
X21237000Y-13429000D01*
X22126000Y-13478000D02*
X22166000Y-13518000D01*
X22166000Y-13478000D02*
X22126000Y-13518000D01*
X22298000Y-13490000D02*
X22338000Y-13530000D01*
X22338000Y-13490000D02*
X22298000Y-13530000D01*
X22415000Y-13412000D02*
X22455000Y-13452000D01*
X22455000Y-13412000D02*
X22415000Y-13452000D01*
X22607000Y-13400000D02*
X22647000Y-13440000D01*
X22647000Y-13400000D02*
X22607000Y-13440000D01*
X26065000Y-11689000D02*
X26105000Y-11729000D01*
X26105000Y-11689000D02*
X26065000Y-11729000D01*
X26511000Y-11582000D02*
X26551000Y-11622000D01*
X26551000Y-11582000D02*
X26511000Y-11622000D01*
X26537000Y-13690000D02*
X26577000Y-13730000D01*
X26577000Y-13690000D02*
X26537000Y-13730000D01*
X26584000Y-13561000D02*
X26624000Y-13601000D01*
X26624000Y-13561000D02*
X26584000Y-13601000D01*
X26671000Y-11620000D02*
X26711000Y-11660000D01*
X26711000Y-11620000D02*
X26671000Y-11660000D01*
X27068000Y-11613000D02*
X27108000Y-11653000D01*
X27108000Y-11613000D02*
X27068000Y-11653000D01*
X27144000Y-12329000D02*
X27184000Y-12369000D01*
X27184000Y-12329000D02*
X27144000Y-12369000D01*
X27361000Y-12476000D02*
X27401000Y-12516000D01*
X27401000Y-12476000D02*
X27361000Y-12516000D01*
X27376000Y-13728000D02*
X27416000Y-13768000D01*
X27416000Y-13728000D02*
X27376000Y-13768000D01*
X27494000Y-13697000D02*
X27534000Y-13737000D01*
X27534000Y-13697000D02*
X27494000Y-13737000D01*
D11*
X17554275Y-16399361D02*
X17554275Y-16199361D01*
X17554275Y-16199361D02*
X17601894Y-16199361D01*
X17601894Y-16199361D02*
X17630465Y-16208885D01*
X17630465Y-16208885D02*
X17649513Y-16227933D01*
X17649513Y-16227933D02*
X17659037Y-16246980D01*
X17659037Y-16246980D02*
X17668561Y-16285075D01*
X17668561Y-16285075D02*
X17668561Y-16313647D01*
X17668561Y-16313647D02*
X17659037Y-16351742D01*
X17659037Y-16351742D02*
X17649513Y-16370790D01*
X17649513Y-16370790D02*
X17630465Y-16389837D01*
X17630465Y-16389837D02*
X17601894Y-16399361D01*
X17601894Y-16399361D02*
X17554275Y-16399361D01*
X17754275Y-16399361D02*
X17754275Y-16266028D01*
X17754275Y-16304123D02*
X17763799Y-16285075D01*
X17763799Y-16285075D02*
X17773322Y-16275552D01*
X17773322Y-16275552D02*
X17792370Y-16266028D01*
X17792370Y-16266028D02*
X17811418Y-16266028D01*
X17878084Y-16399361D02*
X17878084Y-16266028D01*
X17878084Y-16199361D02*
X17868561Y-16208885D01*
X17868561Y-16208885D02*
X17878084Y-16218409D01*
X17878084Y-16218409D02*
X17887608Y-16208885D01*
X17887608Y-16208885D02*
X17878084Y-16199361D01*
X17878084Y-16199361D02*
X17878084Y-16218409D01*
X18001894Y-16399361D02*
X17982846Y-16389837D01*
X17982846Y-16389837D02*
X17973322Y-16370790D01*
X17973322Y-16370790D02*
X17973322Y-16199361D01*
X18106656Y-16399361D02*
X18087608Y-16389837D01*
X18087608Y-16389837D02*
X18078084Y-16370790D01*
X18078084Y-16370790D02*
X18078084Y-16199361D01*
X18335227Y-16399361D02*
X18335227Y-16199361D01*
X18335227Y-16199361D02*
X18401894Y-16342218D01*
X18401894Y-16342218D02*
X18468561Y-16199361D01*
X18468561Y-16199361D02*
X18468561Y-16399361D01*
X18649513Y-16399361D02*
X18649513Y-16294599D01*
X18649513Y-16294599D02*
X18639989Y-16275552D01*
X18639989Y-16275552D02*
X18620942Y-16266028D01*
X18620942Y-16266028D02*
X18582846Y-16266028D01*
X18582846Y-16266028D02*
X18563799Y-16275552D01*
X18649513Y-16389837D02*
X18630465Y-16399361D01*
X18630465Y-16399361D02*
X18582846Y-16399361D01*
X18582846Y-16399361D02*
X18563799Y-16389837D01*
X18563799Y-16389837D02*
X18554275Y-16370790D01*
X18554275Y-16370790D02*
X18554275Y-16351742D01*
X18554275Y-16351742D02*
X18563799Y-16332695D01*
X18563799Y-16332695D02*
X18582846Y-16323171D01*
X18582846Y-16323171D02*
X18630465Y-16323171D01*
X18630465Y-16323171D02*
X18649513Y-16313647D01*
X18744751Y-16266028D02*
X18744751Y-16466028D01*
X18744751Y-16275552D02*
X18763799Y-16266028D01*
X18763799Y-16266028D02*
X18801894Y-16266028D01*
X18801894Y-16266028D02*
X18820942Y-16275552D01*
X18820942Y-16275552D02*
X18830465Y-16285075D01*
X18830465Y-16285075D02*
X18839989Y-16304123D01*
X18839989Y-16304123D02*
X18839989Y-16361266D01*
X18839989Y-16361266D02*
X18830465Y-16380314D01*
X18830465Y-16380314D02*
X18820942Y-16389837D01*
X18820942Y-16389837D02*
X18801894Y-16399361D01*
X18801894Y-16399361D02*
X18763799Y-16399361D01*
X18763799Y-16399361D02*
X18744751Y-16389837D01*
X18925703Y-16380314D02*
X18935227Y-16389837D01*
X18935227Y-16389837D02*
X18925703Y-16399361D01*
X18925703Y-16399361D02*
X18916180Y-16389837D01*
X18916180Y-16389837D02*
X18925703Y-16380314D01*
X18925703Y-16380314D02*
X18925703Y-16399361D01*
X18925703Y-16275552D02*
X18935227Y-16285075D01*
X18935227Y-16285075D02*
X18925703Y-16294599D01*
X18925703Y-16294599D02*
X18916180Y-16285075D01*
X18916180Y-16285075D02*
X18925703Y-16275552D01*
X18925703Y-16275552D02*
X18925703Y-16294599D01*
D10*
X17253498Y-16707877D02*
X17293498Y-16747877D01*
X17293498Y-16707877D02*
X17253498Y-16747877D01*
D11*
X17592370Y-16619361D02*
X17611418Y-16619361D01*
X17611418Y-16619361D02*
X17630465Y-16628885D01*
X17630465Y-16628885D02*
X17639989Y-16638409D01*
X17639989Y-16638409D02*
X17649513Y-16657456D01*
X17649513Y-16657456D02*
X17659037Y-16695552D01*
X17659037Y-16695552D02*
X17659037Y-16743171D01*
X17659037Y-16743171D02*
X17649513Y-16781266D01*
X17649513Y-16781266D02*
X17639989Y-16800314D01*
X17639989Y-16800314D02*
X17630465Y-16809838D01*
X17630465Y-16809838D02*
X17611418Y-16819361D01*
X17611418Y-16819361D02*
X17592370Y-16819361D01*
X17592370Y-16819361D02*
X17573322Y-16809838D01*
X17573322Y-16809838D02*
X17563799Y-16800314D01*
X17563799Y-16800314D02*
X17554275Y-16781266D01*
X17554275Y-16781266D02*
X17544751Y-16743171D01*
X17544751Y-16743171D02*
X17544751Y-16695552D01*
X17544751Y-16695552D02*
X17554275Y-16657456D01*
X17554275Y-16657456D02*
X17563799Y-16638409D01*
X17563799Y-16638409D02*
X17573322Y-16628885D01*
X17573322Y-16628885D02*
X17592370Y-16619361D01*
X17744751Y-16800314D02*
X17754275Y-16809838D01*
X17754275Y-16809838D02*
X17744751Y-16819361D01*
X17744751Y-16819361D02*
X17735227Y-16809838D01*
X17735227Y-16809838D02*
X17744751Y-16800314D01*
X17744751Y-16800314D02*
X17744751Y-16819361D01*
X17925703Y-16686028D02*
X17925703Y-16819361D01*
X17878084Y-16609837D02*
X17830465Y-16752695D01*
X17830465Y-16752695D02*
X17954275Y-16752695D01*
X18068561Y-16619361D02*
X18087608Y-16619361D01*
X18087608Y-16619361D02*
X18106656Y-16628885D01*
X18106656Y-16628885D02*
X18116180Y-16638409D01*
X18116180Y-16638409D02*
X18125703Y-16657456D01*
X18125703Y-16657456D02*
X18135227Y-16695552D01*
X18135227Y-16695552D02*
X18135227Y-16743171D01*
X18135227Y-16743171D02*
X18125703Y-16781266D01*
X18125703Y-16781266D02*
X18116180Y-16800314D01*
X18116180Y-16800314D02*
X18106656Y-16809838D01*
X18106656Y-16809838D02*
X18087608Y-16819361D01*
X18087608Y-16819361D02*
X18068561Y-16819361D01*
X18068561Y-16819361D02*
X18049513Y-16809838D01*
X18049513Y-16809838D02*
X18039989Y-16800314D01*
X18039989Y-16800314D02*
X18030465Y-16781266D01*
X18030465Y-16781266D02*
X18020942Y-16743171D01*
X18020942Y-16743171D02*
X18020942Y-16695552D01*
X18020942Y-16695552D02*
X18030465Y-16657456D01*
X18030465Y-16657456D02*
X18039989Y-16638409D01*
X18039989Y-16638409D02*
X18049513Y-16628885D01*
X18049513Y-16628885D02*
X18068561Y-16619361D01*
X18259037Y-16619361D02*
X18278084Y-16619361D01*
X18278084Y-16619361D02*
X18297132Y-16628885D01*
X18297132Y-16628885D02*
X18306656Y-16638409D01*
X18306656Y-16638409D02*
X18316180Y-16657456D01*
X18316180Y-16657456D02*
X18325703Y-16695552D01*
X18325703Y-16695552D02*
X18325703Y-16743171D01*
X18325703Y-16743171D02*
X18316180Y-16781266D01*
X18316180Y-16781266D02*
X18306656Y-16800314D01*
X18306656Y-16800314D02*
X18297132Y-16809838D01*
X18297132Y-16809838D02*
X18278084Y-16819361D01*
X18278084Y-16819361D02*
X18259037Y-16819361D01*
X18259037Y-16819361D02*
X18239989Y-16809838D01*
X18239989Y-16809838D02*
X18230465Y-16800314D01*
X18230465Y-16800314D02*
X18220942Y-16781266D01*
X18220942Y-16781266D02*
X18211418Y-16743171D01*
X18211418Y-16743171D02*
X18211418Y-16695552D01*
X18211418Y-16695552D02*
X18220942Y-16657456D01*
X18220942Y-16657456D02*
X18230465Y-16638409D01*
X18230465Y-16638409D02*
X18239989Y-16628885D01*
X18239989Y-16628885D02*
X18259037Y-16619361D01*
X18411418Y-16819361D02*
X18411418Y-16686028D01*
X18411418Y-16705075D02*
X18420942Y-16695552D01*
X18420942Y-16695552D02*
X18439989Y-16686028D01*
X18439989Y-16686028D02*
X18468561Y-16686028D01*
X18468561Y-16686028D02*
X18487608Y-16695552D01*
X18487608Y-16695552D02*
X18497132Y-16714599D01*
X18497132Y-16714599D02*
X18497132Y-16819361D01*
X18497132Y-16714599D02*
X18506656Y-16695552D01*
X18506656Y-16695552D02*
X18525703Y-16686028D01*
X18525703Y-16686028D02*
X18554275Y-16686028D01*
X18554275Y-16686028D02*
X18573323Y-16695552D01*
X18573323Y-16695552D02*
X18582846Y-16714599D01*
X18582846Y-16714599D02*
X18582846Y-16819361D01*
X18678084Y-16819361D02*
X18678084Y-16686028D01*
X18678084Y-16705075D02*
X18687608Y-16695552D01*
X18687608Y-16695552D02*
X18706656Y-16686028D01*
X18706656Y-16686028D02*
X18735227Y-16686028D01*
X18735227Y-16686028D02*
X18754275Y-16695552D01*
X18754275Y-16695552D02*
X18763799Y-16714599D01*
X18763799Y-16714599D02*
X18763799Y-16819361D01*
X18763799Y-16714599D02*
X18773323Y-16695552D01*
X18773323Y-16695552D02*
X18792370Y-16686028D01*
X18792370Y-16686028D02*
X18820942Y-16686028D01*
X18820942Y-16686028D02*
X18839989Y-16695552D01*
X18839989Y-16695552D02*
X18849513Y-16714599D01*
X18849513Y-16714599D02*
X18849513Y-16819361D01*
X19239989Y-16609837D02*
X19068561Y-16866980D01*
X19497132Y-16619361D02*
X19516180Y-16619361D01*
X19516180Y-16619361D02*
X19535227Y-16628885D01*
X19535227Y-16628885D02*
X19544751Y-16638409D01*
X19544751Y-16638409D02*
X19554275Y-16657456D01*
X19554275Y-16657456D02*
X19563799Y-16695552D01*
X19563799Y-16695552D02*
X19563799Y-16743171D01*
X19563799Y-16743171D02*
X19554275Y-16781266D01*
X19554275Y-16781266D02*
X19544751Y-16800314D01*
X19544751Y-16800314D02*
X19535227Y-16809838D01*
X19535227Y-16809838D02*
X19516180Y-16819361D01*
X19516180Y-16819361D02*
X19497132Y-16819361D01*
X19497132Y-16819361D02*
X19478085Y-16809838D01*
X19478085Y-16809838D02*
X19468561Y-16800314D01*
X19468561Y-16800314D02*
X19459037Y-16781266D01*
X19459037Y-16781266D02*
X19449513Y-16743171D01*
X19449513Y-16743171D02*
X19449513Y-16695552D01*
X19449513Y-16695552D02*
X19459037Y-16657456D01*
X19459037Y-16657456D02*
X19468561Y-16638409D01*
X19468561Y-16638409D02*
X19478085Y-16628885D01*
X19478085Y-16628885D02*
X19497132Y-16619361D01*
X19649513Y-16800314D02*
X19659037Y-16809838D01*
X19659037Y-16809838D02*
X19649513Y-16819361D01*
X19649513Y-16819361D02*
X19639989Y-16809838D01*
X19639989Y-16809838D02*
X19649513Y-16800314D01*
X19649513Y-16800314D02*
X19649513Y-16819361D01*
X19782846Y-16619361D02*
X19801894Y-16619361D01*
X19801894Y-16619361D02*
X19820942Y-16628885D01*
X19820942Y-16628885D02*
X19830466Y-16638409D01*
X19830466Y-16638409D02*
X19839989Y-16657456D01*
X19839989Y-16657456D02*
X19849513Y-16695552D01*
X19849513Y-16695552D02*
X19849513Y-16743171D01*
X19849513Y-16743171D02*
X19839989Y-16781266D01*
X19839989Y-16781266D02*
X19830466Y-16800314D01*
X19830466Y-16800314D02*
X19820942Y-16809838D01*
X19820942Y-16809838D02*
X19801894Y-16819361D01*
X19801894Y-16819361D02*
X19782846Y-16819361D01*
X19782846Y-16819361D02*
X19763799Y-16809838D01*
X19763799Y-16809838D02*
X19754275Y-16800314D01*
X19754275Y-16800314D02*
X19744751Y-16781266D01*
X19744751Y-16781266D02*
X19735227Y-16743171D01*
X19735227Y-16743171D02*
X19735227Y-16695552D01*
X19735227Y-16695552D02*
X19744751Y-16657456D01*
X19744751Y-16657456D02*
X19754275Y-16638409D01*
X19754275Y-16638409D02*
X19763799Y-16628885D01*
X19763799Y-16628885D02*
X19782846Y-16619361D01*
X20039989Y-16819361D02*
X19925704Y-16819361D01*
X19982846Y-16819361D02*
X19982846Y-16619361D01*
X19982846Y-16619361D02*
X19963799Y-16647933D01*
X19963799Y-16647933D02*
X19944751Y-16666980D01*
X19944751Y-16666980D02*
X19925704Y-16676504D01*
X20220942Y-16619361D02*
X20125704Y-16619361D01*
X20125704Y-16619361D02*
X20116180Y-16714599D01*
X20116180Y-16714599D02*
X20125704Y-16705075D01*
X20125704Y-16705075D02*
X20144751Y-16695552D01*
X20144751Y-16695552D02*
X20192370Y-16695552D01*
X20192370Y-16695552D02*
X20211418Y-16705075D01*
X20211418Y-16705075D02*
X20220942Y-16714599D01*
X20220942Y-16714599D02*
X20230466Y-16733647D01*
X20230466Y-16733647D02*
X20230466Y-16781266D01*
X20230466Y-16781266D02*
X20220942Y-16800314D01*
X20220942Y-16800314D02*
X20211418Y-16809838D01*
X20211418Y-16809838D02*
X20192370Y-16819361D01*
X20192370Y-16819361D02*
X20144751Y-16819361D01*
X20144751Y-16819361D02*
X20125704Y-16809838D01*
X20125704Y-16809838D02*
X20116180Y-16800314D01*
X20297132Y-16619361D02*
X20430466Y-16619361D01*
X20430466Y-16619361D02*
X20344751Y-16819361D01*
X20497132Y-16619361D02*
X20497132Y-16657456D01*
X20573323Y-16619361D02*
X20573323Y-16657456D01*
X20868561Y-16895552D02*
X20859037Y-16886028D01*
X20859037Y-16886028D02*
X20839989Y-16857457D01*
X20839989Y-16857457D02*
X20830466Y-16838409D01*
X20830466Y-16838409D02*
X20820942Y-16809838D01*
X20820942Y-16809838D02*
X20811418Y-16762218D01*
X20811418Y-16762218D02*
X20811418Y-16724123D01*
X20811418Y-16724123D02*
X20820942Y-16676504D01*
X20820942Y-16676504D02*
X20830466Y-16647933D01*
X20830466Y-16647933D02*
X20839989Y-16628885D01*
X20839989Y-16628885D02*
X20859037Y-16600314D01*
X20859037Y-16600314D02*
X20868561Y-16590790D01*
X20935228Y-16638409D02*
X20944751Y-16628885D01*
X20944751Y-16628885D02*
X20963799Y-16619361D01*
X20963799Y-16619361D02*
X21011418Y-16619361D01*
X21011418Y-16619361D02*
X21030466Y-16628885D01*
X21030466Y-16628885D02*
X21039989Y-16638409D01*
X21039989Y-16638409D02*
X21049513Y-16657456D01*
X21049513Y-16657456D02*
X21049513Y-16676504D01*
X21049513Y-16676504D02*
X21039989Y-16705075D01*
X21039989Y-16705075D02*
X20925704Y-16819361D01*
X20925704Y-16819361D02*
X21049513Y-16819361D01*
X21163799Y-16705075D02*
X21144751Y-16695552D01*
X21144751Y-16695552D02*
X21135228Y-16686028D01*
X21135228Y-16686028D02*
X21125704Y-16666980D01*
X21125704Y-16666980D02*
X21125704Y-16657456D01*
X21125704Y-16657456D02*
X21135228Y-16638409D01*
X21135228Y-16638409D02*
X21144751Y-16628885D01*
X21144751Y-16628885D02*
X21163799Y-16619361D01*
X21163799Y-16619361D02*
X21201894Y-16619361D01*
X21201894Y-16619361D02*
X21220942Y-16628885D01*
X21220942Y-16628885D02*
X21230466Y-16638409D01*
X21230466Y-16638409D02*
X21239989Y-16657456D01*
X21239989Y-16657456D02*
X21239989Y-16666980D01*
X21239989Y-16666980D02*
X21230466Y-16686028D01*
X21230466Y-16686028D02*
X21220942Y-16695552D01*
X21220942Y-16695552D02*
X21201894Y-16705075D01*
X21201894Y-16705075D02*
X21163799Y-16705075D01*
X21163799Y-16705075D02*
X21144751Y-16714599D01*
X21144751Y-16714599D02*
X21135228Y-16724123D01*
X21135228Y-16724123D02*
X21125704Y-16743171D01*
X21125704Y-16743171D02*
X21125704Y-16781266D01*
X21125704Y-16781266D02*
X21135228Y-16800314D01*
X21135228Y-16800314D02*
X21144751Y-16809838D01*
X21144751Y-16809838D02*
X21163799Y-16819361D01*
X21163799Y-16819361D02*
X21201894Y-16819361D01*
X21201894Y-16819361D02*
X21220942Y-16809838D01*
X21220942Y-16809838D02*
X21230466Y-16800314D01*
X21230466Y-16800314D02*
X21239989Y-16781266D01*
X21239989Y-16781266D02*
X21239989Y-16743171D01*
X21239989Y-16743171D02*
X21230466Y-16724123D01*
X21230466Y-16724123D02*
X21220942Y-16714599D01*
X21220942Y-16714599D02*
X21201894Y-16705075D01*
X21478085Y-16819361D02*
X21478085Y-16619361D01*
X21563799Y-16819361D02*
X21563799Y-16714599D01*
X21563799Y-16714599D02*
X21554275Y-16695552D01*
X21554275Y-16695552D02*
X21535228Y-16686028D01*
X21535228Y-16686028D02*
X21506656Y-16686028D01*
X21506656Y-16686028D02*
X21487609Y-16695552D01*
X21487609Y-16695552D02*
X21478085Y-16705075D01*
X21687609Y-16819361D02*
X21668561Y-16809838D01*
X21668561Y-16809838D02*
X21659037Y-16800314D01*
X21659037Y-16800314D02*
X21649513Y-16781266D01*
X21649513Y-16781266D02*
X21649513Y-16724123D01*
X21649513Y-16724123D02*
X21659037Y-16705075D01*
X21659037Y-16705075D02*
X21668561Y-16695552D01*
X21668561Y-16695552D02*
X21687609Y-16686028D01*
X21687609Y-16686028D02*
X21716180Y-16686028D01*
X21716180Y-16686028D02*
X21735228Y-16695552D01*
X21735228Y-16695552D02*
X21744751Y-16705075D01*
X21744751Y-16705075D02*
X21754275Y-16724123D01*
X21754275Y-16724123D02*
X21754275Y-16781266D01*
X21754275Y-16781266D02*
X21744751Y-16800314D01*
X21744751Y-16800314D02*
X21735228Y-16809838D01*
X21735228Y-16809838D02*
X21716180Y-16819361D01*
X21716180Y-16819361D02*
X21687609Y-16819361D01*
X21868561Y-16819361D02*
X21849513Y-16809838D01*
X21849513Y-16809838D02*
X21839990Y-16790790D01*
X21839990Y-16790790D02*
X21839990Y-16619361D01*
X22020942Y-16809838D02*
X22001894Y-16819361D01*
X22001894Y-16819361D02*
X21963799Y-16819361D01*
X21963799Y-16819361D02*
X21944751Y-16809838D01*
X21944751Y-16809838D02*
X21935228Y-16790790D01*
X21935228Y-16790790D02*
X21935228Y-16714599D01*
X21935228Y-16714599D02*
X21944751Y-16695552D01*
X21944751Y-16695552D02*
X21963799Y-16686028D01*
X21963799Y-16686028D02*
X22001894Y-16686028D01*
X22001894Y-16686028D02*
X22020942Y-16695552D01*
X22020942Y-16695552D02*
X22030466Y-16714599D01*
X22030466Y-16714599D02*
X22030466Y-16733647D01*
X22030466Y-16733647D02*
X21935228Y-16752695D01*
X22106656Y-16809838D02*
X22125704Y-16819361D01*
X22125704Y-16819361D02*
X22163799Y-16819361D01*
X22163799Y-16819361D02*
X22182847Y-16809838D01*
X22182847Y-16809838D02*
X22192371Y-16790790D01*
X22192371Y-16790790D02*
X22192371Y-16781266D01*
X22192371Y-16781266D02*
X22182847Y-16762218D01*
X22182847Y-16762218D02*
X22163799Y-16752695D01*
X22163799Y-16752695D02*
X22135228Y-16752695D01*
X22135228Y-16752695D02*
X22116180Y-16743171D01*
X22116180Y-16743171D02*
X22106656Y-16724123D01*
X22106656Y-16724123D02*
X22106656Y-16714599D01*
X22106656Y-16714599D02*
X22116180Y-16695552D01*
X22116180Y-16695552D02*
X22135228Y-16686028D01*
X22135228Y-16686028D02*
X22163799Y-16686028D01*
X22163799Y-16686028D02*
X22182847Y-16695552D01*
X22259037Y-16895552D02*
X22268561Y-16886028D01*
X22268561Y-16886028D02*
X22287609Y-16857457D01*
X22287609Y-16857457D02*
X22297132Y-16838409D01*
X22297132Y-16838409D02*
X22306656Y-16809838D01*
X22306656Y-16809838D02*
X22316180Y-16762218D01*
X22316180Y-16762218D02*
X22316180Y-16724123D01*
X22316180Y-16724123D02*
X22306656Y-16676504D01*
X22306656Y-16676504D02*
X22297132Y-16647933D01*
X22297132Y-16647933D02*
X22287609Y-16628885D01*
X22287609Y-16628885D02*
X22268561Y-16600314D01*
X22268561Y-16600314D02*
X22259037Y-16590790D01*
M02*
