%TF.GenerationSoftware,KiCad,Pcbnew,8.0.2*%
%TF.CreationDate,2024-09-01T00:44:22-07:00*%
%TF.ProjectId,procon_trigger_pcb,70726f63-6f6e-45f7-9472-69676765725f,rev?*%
%TF.SameCoordinates,Original*%
%TF.FileFunction,Soldermask,Top*%
%TF.FilePolarity,Negative*%
%FSLAX46Y46*%
G04 Gerber Fmt 4.6, Leading zero omitted, Abs format (unit mm)*
G04 Created by KiCad (PCBNEW 8.0.2) date 2024-09-01 00:44:22*
%MOMM*%
%LPD*%
G01*
G04 APERTURE LIST*
G04 Aperture macros list*
%AMRoundRect*
0 Rectangle with rounded corners*
0 $1 Rounding radius*
0 $2 $3 $4 $5 $6 $7 $8 $9 X,Y pos of 4 corners*
0 Add a 4 corners polygon primitive as box body*
4,1,4,$2,$3,$4,$5,$6,$7,$8,$9,$2,$3,0*
0 Add four circle primitives for the rounded corners*
1,1,$1+$1,$2,$3*
1,1,$1+$1,$4,$5*
1,1,$1+$1,$6,$7*
1,1,$1+$1,$8,$9*
0 Add four rect primitives between the rounded corners*
20,1,$1+$1,$2,$3,$4,$5,0*
20,1,$1+$1,$4,$5,$6,$7,0*
20,1,$1+$1,$6,$7,$8,$9,0*
20,1,$1+$1,$8,$9,$2,$3,0*%
G04 Aperture macros list end*
%ADD10C,2.632587*%
%ADD11R,0.370000X0.370000*%
%ADD12RoundRect,0.062500X-0.062500X-1.937500X0.062500X-1.937500X0.062500X1.937500X-0.062500X1.937500X0*%
%ADD13RoundRect,0.062500X-1.937500X0.062500X-1.937500X-0.062500X1.937500X-0.062500X1.937500X0.062500X0*%
G04 APERTURE END LIST*
%TO.C,SW4*%
D10*
X271216507Y-141934938D02*
G75*
G02*
X268583921Y-141934938I-1316293J0D01*
G01*
X268583921Y-141934938D02*
G75*
G02*
X271216507Y-141934938I1316293J0D01*
G01*
%TO.C,SW1*%
X187641079Y-141910062D02*
G75*
G02*
X185008493Y-141910062I-1316293J0D01*
G01*
X185008493Y-141910062D02*
G75*
G02*
X187641079Y-141910062I1316293J0D01*
G01*
%TO.C,SW3*%
X270411507Y-120684938D02*
G75*
G02*
X267778921Y-120684938I-1316293J0D01*
G01*
X267778921Y-120684938D02*
G75*
G02*
X270411507Y-120684938I1316293J0D01*
G01*
%TO.C,SW2*%
X188491079Y-120665062D02*
G75*
G02*
X185858493Y-120665062I-1316293J0D01*
G01*
X185858493Y-120665062D02*
G75*
G02*
X188491079Y-120665062I1316293J0D01*
G01*
%TD*%
D11*
%TO.C,L3*%
X263010000Y-117270000D03*
X263680000Y-117270000D03*
X263680000Y-116600000D03*
X263010000Y-116600000D03*
%TD*%
%TO.C,L4*%
X269565000Y-137270000D03*
X270235000Y-137270000D03*
X270235000Y-136600000D03*
X269565000Y-136600000D03*
%TD*%
D12*
%TO.C,J1*%
X229100000Y-143187500D03*
X228600000Y-143187500D03*
X228100000Y-143187500D03*
X227600000Y-143187500D03*
X227100000Y-143187500D03*
%TD*%
D13*
%TO.C,J2*%
X180260000Y-160328775D03*
X180260000Y-159828775D03*
X180260000Y-159328775D03*
X180260000Y-158828775D03*
X180260000Y-158328775D03*
%TD*%
D11*
%TO.C,L1*%
X185990000Y-137245000D03*
X186660000Y-137245000D03*
X186660000Y-136575000D03*
X185990000Y-136575000D03*
%TD*%
%TO.C,L2*%
X192590000Y-117250000D03*
X193260000Y-117250000D03*
X193260000Y-116580000D03*
X192590000Y-116580000D03*
%TD*%
M02*
