%TF.GenerationSoftware,KiCad,Pcbnew,8.0.2*%
%TF.CreationDate,2024-12-03T00:09:39-08:00*%
%TF.ProjectId,procon_trigger_pcb,70726f63-6f6e-45f7-9472-69676765725f,rev?*%
%TF.SameCoordinates,Original*%
%TF.FileFunction,Legend,Top*%
%TF.FilePolarity,Positive*%
%FSLAX46Y46*%
G04 Gerber Fmt 4.6, Leading zero omitted, Abs format (unit mm)*
G04 Created by KiCad (PCBNEW 8.0.2) date 2024-12-03 00:09:39*
%MOMM*%
%LPD*%
G01*
G04 APERTURE LIST*
%ADD10C,0.120000*%
%ADD11C,0.150000*%
%ADD12C,0.100000*%
G04 APERTURE END LIST*
D10*
X182620000Y-157810000D02*
X182620000Y-160810000D01*
X229620000Y-140830000D02*
X226620000Y-140830000D01*
D11*
X265213333Y-117694819D02*
X264737143Y-117694819D01*
X264737143Y-117694819D02*
X264737143Y-116694819D01*
X265451429Y-116694819D02*
X266070476Y-116694819D01*
X266070476Y-116694819D02*
X265737143Y-117075771D01*
X265737143Y-117075771D02*
X265880000Y-117075771D01*
X265880000Y-117075771D02*
X265975238Y-117123390D01*
X265975238Y-117123390D02*
X266022857Y-117171009D01*
X266022857Y-117171009D02*
X266070476Y-117266247D01*
X266070476Y-117266247D02*
X266070476Y-117504342D01*
X266070476Y-117504342D02*
X266022857Y-117599580D01*
X266022857Y-117599580D02*
X265975238Y-117647200D01*
X265975238Y-117647200D02*
X265880000Y-117694819D01*
X265880000Y-117694819D02*
X265594286Y-117694819D01*
X265594286Y-117694819D02*
X265499048Y-117647200D01*
X265499048Y-117647200D02*
X265451429Y-117599580D01*
D12*
X268566667Y-146104000D02*
X268709524Y-146151619D01*
X268709524Y-146151619D02*
X268947619Y-146151619D01*
X268947619Y-146151619D02*
X269042857Y-146104000D01*
X269042857Y-146104000D02*
X269090476Y-146056380D01*
X269090476Y-146056380D02*
X269138095Y-145961142D01*
X269138095Y-145961142D02*
X269138095Y-145865904D01*
X269138095Y-145865904D02*
X269090476Y-145770666D01*
X269090476Y-145770666D02*
X269042857Y-145723047D01*
X269042857Y-145723047D02*
X268947619Y-145675428D01*
X268947619Y-145675428D02*
X268757143Y-145627809D01*
X268757143Y-145627809D02*
X268661905Y-145580190D01*
X268661905Y-145580190D02*
X268614286Y-145532571D01*
X268614286Y-145532571D02*
X268566667Y-145437333D01*
X268566667Y-145437333D02*
X268566667Y-145342095D01*
X268566667Y-145342095D02*
X268614286Y-145246857D01*
X268614286Y-145246857D02*
X268661905Y-145199238D01*
X268661905Y-145199238D02*
X268757143Y-145151619D01*
X268757143Y-145151619D02*
X268995238Y-145151619D01*
X268995238Y-145151619D02*
X269138095Y-145199238D01*
X269471429Y-145151619D02*
X269709524Y-146151619D01*
X269709524Y-146151619D02*
X269900000Y-145437333D01*
X269900000Y-145437333D02*
X270090476Y-146151619D01*
X270090476Y-146151619D02*
X270328572Y-145151619D01*
X271138095Y-145484952D02*
X271138095Y-146151619D01*
X270900000Y-145104000D02*
X270661905Y-145818285D01*
X270661905Y-145818285D02*
X271280952Y-145818285D01*
D11*
X272013333Y-138204819D02*
X271537143Y-138204819D01*
X271537143Y-138204819D02*
X271537143Y-137204819D01*
X272775238Y-137538152D02*
X272775238Y-138204819D01*
X272537143Y-137157200D02*
X272299048Y-137871485D01*
X272299048Y-137871485D02*
X272918095Y-137871485D01*
D12*
X184093332Y-138980200D02*
X183950475Y-138932580D01*
X183950475Y-138932580D02*
X183712380Y-138932580D01*
X183712380Y-138932580D02*
X183617142Y-138980200D01*
X183617142Y-138980200D02*
X183569523Y-139027819D01*
X183569523Y-139027819D02*
X183521904Y-139123057D01*
X183521904Y-139123057D02*
X183521904Y-139218295D01*
X183521904Y-139218295D02*
X183569523Y-139313533D01*
X183569523Y-139313533D02*
X183617142Y-139361152D01*
X183617142Y-139361152D02*
X183712380Y-139408771D01*
X183712380Y-139408771D02*
X183902856Y-139456390D01*
X183902856Y-139456390D02*
X183998094Y-139504009D01*
X183998094Y-139504009D02*
X184045713Y-139551628D01*
X184045713Y-139551628D02*
X184093332Y-139646866D01*
X184093332Y-139646866D02*
X184093332Y-139742104D01*
X184093332Y-139742104D02*
X184045713Y-139837342D01*
X184045713Y-139837342D02*
X183998094Y-139884961D01*
X183998094Y-139884961D02*
X183902856Y-139932580D01*
X183902856Y-139932580D02*
X183664761Y-139932580D01*
X183664761Y-139932580D02*
X183521904Y-139884961D01*
X183188570Y-139932580D02*
X182950475Y-138932580D01*
X182950475Y-138932580D02*
X182759999Y-139646866D01*
X182759999Y-139646866D02*
X182569523Y-138932580D01*
X182569523Y-138932580D02*
X182331428Y-139932580D01*
X181426666Y-138932580D02*
X181998094Y-138932580D01*
X181712380Y-138932580D02*
X181712380Y-139932580D01*
X181712380Y-139932580D02*
X181807618Y-139789723D01*
X181807618Y-139789723D02*
X181902856Y-139694485D01*
X181902856Y-139694485D02*
X181998094Y-139646866D01*
X267761667Y-124854000D02*
X267904524Y-124901619D01*
X267904524Y-124901619D02*
X268142619Y-124901619D01*
X268142619Y-124901619D02*
X268237857Y-124854000D01*
X268237857Y-124854000D02*
X268285476Y-124806380D01*
X268285476Y-124806380D02*
X268333095Y-124711142D01*
X268333095Y-124711142D02*
X268333095Y-124615904D01*
X268333095Y-124615904D02*
X268285476Y-124520666D01*
X268285476Y-124520666D02*
X268237857Y-124473047D01*
X268237857Y-124473047D02*
X268142619Y-124425428D01*
X268142619Y-124425428D02*
X267952143Y-124377809D01*
X267952143Y-124377809D02*
X267856905Y-124330190D01*
X267856905Y-124330190D02*
X267809286Y-124282571D01*
X267809286Y-124282571D02*
X267761667Y-124187333D01*
X267761667Y-124187333D02*
X267761667Y-124092095D01*
X267761667Y-124092095D02*
X267809286Y-123996857D01*
X267809286Y-123996857D02*
X267856905Y-123949238D01*
X267856905Y-123949238D02*
X267952143Y-123901619D01*
X267952143Y-123901619D02*
X268190238Y-123901619D01*
X268190238Y-123901619D02*
X268333095Y-123949238D01*
X268666429Y-123901619D02*
X268904524Y-124901619D01*
X268904524Y-124901619D02*
X269095000Y-124187333D01*
X269095000Y-124187333D02*
X269285476Y-124901619D01*
X269285476Y-124901619D02*
X269523572Y-123901619D01*
X269809286Y-123901619D02*
X270428333Y-123901619D01*
X270428333Y-123901619D02*
X270095000Y-124282571D01*
X270095000Y-124282571D02*
X270237857Y-124282571D01*
X270237857Y-124282571D02*
X270333095Y-124330190D01*
X270333095Y-124330190D02*
X270380714Y-124377809D01*
X270380714Y-124377809D02*
X270428333Y-124473047D01*
X270428333Y-124473047D02*
X270428333Y-124711142D01*
X270428333Y-124711142D02*
X270380714Y-124806380D01*
X270380714Y-124806380D02*
X270333095Y-124854000D01*
X270333095Y-124854000D02*
X270237857Y-124901619D01*
X270237857Y-124901619D02*
X269952143Y-124901619D01*
X269952143Y-124901619D02*
X269856905Y-124854000D01*
X269856905Y-124854000D02*
X269809286Y-124806380D01*
D11*
X188123333Y-137704819D02*
X187647143Y-137704819D01*
X187647143Y-137704819D02*
X187647143Y-136704819D01*
X188980476Y-137704819D02*
X188409048Y-137704819D01*
X188694762Y-137704819D02*
X188694762Y-136704819D01*
X188694762Y-136704819D02*
X188599524Y-136847676D01*
X188599524Y-136847676D02*
X188504286Y-136942914D01*
X188504286Y-136942914D02*
X188409048Y-136990533D01*
D12*
X188493332Y-116890200D02*
X188350475Y-116842580D01*
X188350475Y-116842580D02*
X188112380Y-116842580D01*
X188112380Y-116842580D02*
X188017142Y-116890200D01*
X188017142Y-116890200D02*
X187969523Y-116937819D01*
X187969523Y-116937819D02*
X187921904Y-117033057D01*
X187921904Y-117033057D02*
X187921904Y-117128295D01*
X187921904Y-117128295D02*
X187969523Y-117223533D01*
X187969523Y-117223533D02*
X188017142Y-117271152D01*
X188017142Y-117271152D02*
X188112380Y-117318771D01*
X188112380Y-117318771D02*
X188302856Y-117366390D01*
X188302856Y-117366390D02*
X188398094Y-117414009D01*
X188398094Y-117414009D02*
X188445713Y-117461628D01*
X188445713Y-117461628D02*
X188493332Y-117556866D01*
X188493332Y-117556866D02*
X188493332Y-117652104D01*
X188493332Y-117652104D02*
X188445713Y-117747342D01*
X188445713Y-117747342D02*
X188398094Y-117794961D01*
X188398094Y-117794961D02*
X188302856Y-117842580D01*
X188302856Y-117842580D02*
X188064761Y-117842580D01*
X188064761Y-117842580D02*
X187921904Y-117794961D01*
X187588570Y-117842580D02*
X187350475Y-116842580D01*
X187350475Y-116842580D02*
X187159999Y-117556866D01*
X187159999Y-117556866D02*
X186969523Y-116842580D01*
X186969523Y-116842580D02*
X186731428Y-117842580D01*
X186398094Y-117747342D02*
X186350475Y-117794961D01*
X186350475Y-117794961D02*
X186255237Y-117842580D01*
X186255237Y-117842580D02*
X186017142Y-117842580D01*
X186017142Y-117842580D02*
X185921904Y-117794961D01*
X185921904Y-117794961D02*
X185874285Y-117747342D01*
X185874285Y-117747342D02*
X185826666Y-117652104D01*
X185826666Y-117652104D02*
X185826666Y-117556866D01*
X185826666Y-117556866D02*
X185874285Y-117414009D01*
X185874285Y-117414009D02*
X186445713Y-116842580D01*
X186445713Y-116842580D02*
X185826666Y-116842580D01*
D11*
X194763333Y-117744819D02*
X194287143Y-117744819D01*
X194287143Y-117744819D02*
X194287143Y-116744819D01*
X195049048Y-116840057D02*
X195096667Y-116792438D01*
X195096667Y-116792438D02*
X195191905Y-116744819D01*
X195191905Y-116744819D02*
X195430000Y-116744819D01*
X195430000Y-116744819D02*
X195525238Y-116792438D01*
X195525238Y-116792438D02*
X195572857Y-116840057D01*
X195572857Y-116840057D02*
X195620476Y-116935295D01*
X195620476Y-116935295D02*
X195620476Y-117030533D01*
X195620476Y-117030533D02*
X195572857Y-117173390D01*
X195572857Y-117173390D02*
X195001429Y-117744819D01*
X195001429Y-117744819D02*
X195620476Y-117744819D01*
D10*
%TO.C,L3*%
X262345000Y-115935000D02*
X264345000Y-115935000D01*
X262345000Y-117935000D02*
X262345000Y-115935000D01*
X264345000Y-115935000D02*
X264345000Y-117935000D01*
X264345000Y-117935000D02*
X262345000Y-117935000D01*
X261972734Y-118459000D02*
G75*
G02*
X261669266Y-118459000I-151734J0D01*
G01*
X261669266Y-118459000D02*
G75*
G02*
X261972734Y-118459000I151734J0D01*
G01*
%TO.C,L4*%
X268900000Y-135935000D02*
X270900000Y-135935000D01*
X268900000Y-137935000D02*
X268900000Y-135935000D01*
X270900000Y-135935000D02*
X270900000Y-137935000D01*
X270900000Y-137935000D02*
X268900000Y-137935000D01*
X268527734Y-138459000D02*
G75*
G02*
X268224266Y-138459000I-151734J0D01*
G01*
X268224266Y-138459000D02*
G75*
G02*
X268527734Y-138459000I151734J0D01*
G01*
%TO.C,L1*%
X185325000Y-135910000D02*
X187325000Y-135910000D01*
X185325000Y-137910000D02*
X185325000Y-135910000D01*
X187325000Y-135910000D02*
X187325000Y-137910000D01*
X187325000Y-137910000D02*
X185325000Y-137910000D01*
X184952734Y-138434000D02*
G75*
G02*
X184649266Y-138434000I-151734J0D01*
G01*
X184649266Y-138434000D02*
G75*
G02*
X184952734Y-138434000I151734J0D01*
G01*
%TO.C,L2*%
X191925000Y-115915000D02*
X193925000Y-115915000D01*
X191925000Y-117915000D02*
X191925000Y-115915000D01*
X193925000Y-115915000D02*
X193925000Y-117915000D01*
X193925000Y-117915000D02*
X191925000Y-117915000D01*
X191552734Y-118439000D02*
G75*
G02*
X191249266Y-118439000I-151734J0D01*
G01*
X191249266Y-118439000D02*
G75*
G02*
X191552734Y-118439000I151734J0D01*
G01*
%TD*%
M02*
