M48
; DRILL file {KiCad 8.0.2} date 2024-09-01T00:44:27-0700
; FORMAT={-:-/ absolute / inch / decimal}
; #@! TF.CreationDate,2024-09-01T00:44:27-07:00
; #@! TF.GenerationSoftware,Kicad,Pcbnew,8.0.2
; #@! TF.FileFunction,Plated,1,2,PTH
FMAT,2
INCH
; #@! TA.AperFunction,Plated,PTH,ViaDrill
T1C0.0157
%
G90
G05
T1
X7.1598Y-4.8858
X7.2382Y-5.3795
X7.4075Y-5.3531
X7.4209Y-4.8768
X7.4575Y-5.3693
X7.4673Y-4.5555
X7.4803Y-5.4465
X7.5169Y-4.6217
X7.5469Y-5.3866
X7.6441Y-5.9488
X7.6558Y-4.635
X7.6902Y-4.5854
X7.8669Y-5.7831
X8.3689Y-5.2791
X8.7189Y-5.3142
X8.7866Y-5.3189
X8.8327Y-5.2882
X8.9083Y-5.2835
X10.2697Y-4.6098
X10.4453Y-4.5677
X10.4555Y-5.3976
X10.474Y-5.3469
X10.5083Y-4.5827
X10.6646Y-4.5799
X10.6945Y-4.8618
X10.7799Y-4.9197
X10.7858Y-5.4126
X10.8323Y-5.4004
M30
