%TF.GenerationSoftware,KiCad,Pcbnew,7.0.6*%
%TF.CreationDate,2024-03-05T21:20:05-08:00*%
%TF.ProjectId,procon_trigger_pcb,70726f63-6f6e-45f7-9472-69676765725f,rev?*%
%TF.SameCoordinates,Original*%
%TF.FileFunction,Profile,NP*%
%FSLAX46Y46*%
G04 Gerber Fmt 4.6, Leading zero omitted, Abs format (unit mm)*
G04 Created by KiCad (PCBNEW 7.0.6) date 2024-03-05 21:20:05*
%MOMM*%
%LPD*%
G01*
G04 APERTURE LIST*
%TA.AperFunction,Profile*%
%ADD10C,0.100000*%
%TD*%
G04 APERTURE END LIST*
D10*
X172984980Y-139547120D02*
G75*
G03*
X173484990Y-140047120I500020J20D01*
G01*
X272913480Y-146543280D02*
G75*
G03*
X277163480Y-142293280I20J4249980D01*
G01*
X191601200Y-125024850D02*
X191601200Y-123244330D01*
X197013730Y-133343220D02*
X198697110Y-133343220D01*
X263880450Y-137560000D02*
G75*
G03*
X263880450Y-137560000I-1180450J0D01*
G01*
X191601200Y-123244330D02*
X195537460Y-123244330D01*
X178125000Y-160828775D02*
X178125000Y-157828775D01*
X196085230Y-122803740D02*
X197140300Y-122803740D01*
X261829980Y-119664730D02*
X264625100Y-119664730D01*
X198697110Y-133343210D02*
G75*
G03*
X199197110Y-132843220I-10J500010D01*
G01*
X192853940Y-144901432D02*
G75*
G03*
X193296649Y-144633790I-40J500032D01*
G01*
X199697110Y-121639830D02*
X226113150Y-121639830D01*
X196013730Y-142769130D02*
G75*
G03*
X196513730Y-142269070I-30J500030D01*
G01*
X172984990Y-138635000D02*
X172984990Y-139547120D01*
X265875100Y-126274850D02*
X273466330Y-126274850D01*
X225613150Y-133550000D02*
X226613150Y-132550000D01*
X282741310Y-140047110D02*
G75*
G03*
X283241310Y-139547120I-110J500110D01*
G01*
X194683350Y-137560000D02*
G75*
G03*
X194683350Y-137560000I-1158350J0D01*
G01*
X192593570Y-135135000D02*
X176484990Y-135135000D01*
X226613070Y-122139830D02*
G75*
G03*
X226113150Y-121639830I-499970J30D01*
G01*
X279741310Y-135135000D02*
X263632730Y-135135000D01*
X265926050Y-146543280D02*
X272913480Y-146543280D01*
X276566330Y-117793040D02*
X271347720Y-114505880D01*
X260688840Y-123244330D02*
X264625100Y-123244330D01*
X276714610Y-141935000D02*
G75*
G03*
X276714610Y-141935000I-1364610J0D01*
G01*
X183312830Y-146543280D02*
X190300250Y-146543280D01*
X283241310Y-139547120D02*
X283241310Y-138635000D01*
X259031890Y-118928780D02*
X197194420Y-118928780D01*
X194577800Y-142769089D02*
G75*
G03*
X194135101Y-143036660I0J-500011D01*
G01*
X264625050Y-125024850D02*
G75*
G03*
X265875100Y-126274850I1249950J-50D01*
G01*
X197013730Y-133343230D02*
G75*
G03*
X196513730Y-133843220I-30J-499970D01*
G01*
X202606286Y-141256808D02*
G75*
G03*
X202807372Y-140506638I-1298886J750208D01*
G01*
X259031890Y-117505880D02*
X259031890Y-118928780D01*
X225613150Y-133550000D02*
X208481661Y-133550000D01*
X179659950Y-123174850D02*
G75*
G03*
X182759980Y-126274850I3100050J50D01*
G01*
X274800830Y-120689560D02*
G75*
G03*
X274800830Y-120689560I-692590J0D01*
G01*
X263632750Y-132219650D02*
G75*
G03*
X262132730Y-130719650I-1500050J-50D01*
G01*
X184878580Y-114505880D02*
X179659980Y-117793040D01*
X262929615Y-144633822D02*
G75*
G03*
X263372360Y-144901390I442685J232422D01*
G01*
X265434069Y-146132820D02*
G75*
G03*
X263958370Y-144901390I-1475769J-268580D01*
G01*
X263372360Y-144901390D02*
X263958370Y-144901390D01*
X230113150Y-121639830D02*
X256529200Y-121639830D01*
X199697110Y-121639810D02*
G75*
G03*
X199197110Y-122139830I-10J-499990D01*
G01*
X197140300Y-130719650D02*
X194093570Y-130719650D01*
X262031890Y-114505890D02*
G75*
G03*
X259031890Y-117505880I10J-3000010D01*
G01*
X264625100Y-119664730D02*
X264625100Y-121698590D01*
X208885180Y-136550004D02*
G75*
G03*
X206307374Y-138684823I22J-2623794D01*
G01*
X200674619Y-147510861D02*
G75*
G03*
X205637149Y-143007242I-4546019J9995161D01*
G01*
X259086000Y-130719650D02*
X259086000Y-122803740D01*
X261829980Y-121698590D02*
X261829980Y-119664730D01*
X260141070Y-122803740D02*
X260688840Y-123244330D01*
X265434099Y-146132820D02*
G75*
G03*
X265926050Y-146543280I491901J89520D01*
G01*
X173484990Y-140047120D02*
X176562830Y-140047120D01*
X189637020Y-160828775D02*
X178125000Y-160828775D01*
X257029170Y-122139830D02*
G75*
G03*
X256529200Y-121639830I-500070J-70D01*
G01*
X179062820Y-142293280D02*
G75*
G03*
X183312830Y-146543280I4249980J-20D01*
G01*
X257529200Y-133343220D02*
X259212570Y-133343220D01*
X195537460Y-123244330D02*
X196085230Y-122803740D01*
X176880450Y-137585000D02*
G75*
G03*
X176880450Y-137585000I-1180450J0D01*
G01*
X196513730Y-142269070D02*
X196513730Y-133843220D01*
X265789610Y-141935000D02*
G75*
G03*
X265789610Y-141935000I-1364610J0D01*
G01*
X226613150Y-122139830D02*
X226613150Y-132550000D01*
X199197110Y-132843220D02*
X199197110Y-122139830D01*
X193296650Y-144633790D02*
X194135100Y-143036660D01*
X257029180Y-132843220D02*
G75*
G03*
X257529200Y-133343220I499920J-80D01*
G01*
X182810650Y-120689560D02*
G75*
G03*
X182810650Y-120689560I-692590J0D01*
G01*
X206307372Y-138684823D02*
X206307372Y-140506638D01*
X194577800Y-142769070D02*
X196013730Y-142769070D01*
X189637020Y-160828745D02*
G75*
G03*
X190615203Y-160036568I-20J1000045D01*
G01*
X191601200Y-121698590D02*
X191601200Y-119664730D01*
X197194420Y-117505880D02*
G75*
G03*
X194194420Y-114505880I-3000020J-20D01*
G01*
X197140300Y-122803740D02*
X197140300Y-130719650D01*
X205637130Y-143007232D02*
G75*
G03*
X206307372Y-140506638I-4329730J2500632D01*
G01*
X197194420Y-118928780D02*
X197194420Y-117505880D01*
X178125000Y-157828775D02*
X187561904Y-157828775D01*
X263632730Y-135135000D02*
X263632730Y-132219650D01*
X264625100Y-121698590D02*
X261829980Y-121698590D01*
X259712530Y-142269070D02*
G75*
G03*
X260212570Y-142769070I499970J-30D01*
G01*
X262132730Y-130719650D02*
X259086000Y-130719650D01*
X283241300Y-138635000D02*
G75*
G03*
X279741310Y-135135000I-3500000J0D01*
G01*
X194396320Y-119664730D02*
X194396320Y-121698590D01*
X194093570Y-130719570D02*
G75*
G03*
X192593570Y-132219650I30J-1500030D01*
G01*
X191601200Y-119664730D02*
X194396320Y-119664730D01*
X202807374Y-137375294D02*
X202807372Y-140506638D01*
X260212570Y-142769070D02*
X261648500Y-142769070D01*
X259086000Y-122803740D02*
X260141070Y-122803740D01*
X230113150Y-121639750D02*
G75*
G03*
X229613150Y-122139830I50J-500050D01*
G01*
X226613150Y-137550000D02*
X226613150Y-145428780D01*
X259712570Y-133843220D02*
X259712570Y-142269070D01*
X262091210Y-143036660D02*
X262929660Y-144633790D01*
X179062780Y-142547120D02*
G75*
G03*
X176562830Y-140047120I-2499980J20D01*
G01*
X200674615Y-147510853D02*
G75*
G03*
X190615198Y-160036567I7381965J-16230687D01*
G01*
X208481661Y-133550001D02*
G75*
G03*
X202807375Y-137375294I34J-6121201D01*
G01*
X229613150Y-145428780D02*
X229613150Y-122139830D01*
X277163480Y-142293280D02*
X277163480Y-142547120D01*
X259712580Y-133843220D02*
G75*
G03*
X259212570Y-133343220I-500080J-80D01*
G01*
X192593570Y-132219650D02*
X192593570Y-135135000D01*
X193164610Y-141910000D02*
G75*
G03*
X193164610Y-141910000I-1364610J0D01*
G01*
X257029200Y-122139830D02*
X257029200Y-132843220D01*
X281683350Y-137535000D02*
G75*
G03*
X281683350Y-137535000I-1158350J0D01*
G01*
X225613150Y-136550000D02*
X208885180Y-136550002D01*
X264625100Y-123244330D02*
X264625100Y-125024850D01*
X182239610Y-141910000D02*
G75*
G03*
X182239610Y-141910000I-1364610J0D01*
G01*
X192267930Y-144901427D02*
G75*
G03*
X190792170Y-146132810I-30J-1499973D01*
G01*
X271347720Y-114505880D02*
X262031890Y-114505880D01*
X194396320Y-121698590D02*
X191601200Y-121698590D01*
X182759980Y-126274850D02*
X190351200Y-126274850D01*
X194194420Y-114505880D02*
X184878580Y-114505880D01*
X276566330Y-123174850D02*
X276566330Y-117793040D01*
X176484990Y-135134990D02*
G75*
G03*
X172984990Y-138635000I10J-3500010D01*
G01*
X192267930Y-144901390D02*
X192853940Y-144901390D01*
X190300250Y-146543248D02*
G75*
G03*
X190792170Y-146132810I50J499948D01*
G01*
X190351200Y-126274800D02*
G75*
G03*
X191601200Y-125024850I0J1250000D01*
G01*
X262091204Y-143036668D02*
G75*
G03*
X261648500Y-142769070I-442604J-232232D01*
G01*
X179062830Y-142547120D02*
X179062830Y-142293280D01*
X225613150Y-136550000D02*
X226613150Y-137550000D01*
X199225600Y-144324930D02*
G75*
G03*
X187561906Y-157828775I8831100J-19416770D01*
G01*
X179659980Y-117793040D02*
X179659980Y-123174850D01*
X273466330Y-126274830D02*
G75*
G03*
X276566330Y-123174850I70J3099930D01*
G01*
X279663480Y-140047120D02*
X282741310Y-140047120D01*
X199225584Y-144324894D02*
G75*
G03*
X202606304Y-141256819I-3096684J6808894D01*
G01*
X279663480Y-140047180D02*
G75*
G03*
X277163480Y-142547120I-80J-2499920D01*
G01*
X226613150Y-145428780D02*
X229613150Y-145428780D01*
M02*
