%TF.GenerationSoftware,KiCad,Pcbnew,8.0.2*%
%TF.CreationDate,2024-12-03T00:09:39-08:00*%
%TF.ProjectId,procon_trigger_pcb,70726f63-6f6e-45f7-9472-69676765725f,rev?*%
%TF.SameCoordinates,Original*%
%TF.FileFunction,Soldermask,Top*%
%TF.FilePolarity,Negative*%
%FSLAX46Y46*%
G04 Gerber Fmt 4.6, Leading zero omitted, Abs format (unit mm)*
G04 Created by KiCad (PCBNEW 8.0.2) date 2024-12-03 00:09:39*
%MOMM*%
%LPD*%
G01*
G04 APERTURE LIST*
G04 Aperture macros list*
%AMRoundRect*
0 Rectangle with rounded corners*
0 $1 Rounding radius*
0 $2 $3 $4 $5 $6 $7 $8 $9 X,Y pos of 4 corners*
0 Add a 4 corners polygon primitive as box body*
4,1,4,$2,$3,$4,$5,$6,$7,$8,$9,$2,$3,0*
0 Add four circle primitives for the rounded corners*
1,1,$1+$1,$2,$3*
1,1,$1+$1,$4,$5*
1,1,$1+$1,$6,$7*
1,1,$1+$1,$8,$9*
0 Add four rect primitives between the rounded corners*
20,1,$1+$1,$2,$3,$4,$5,0*
20,1,$1+$1,$4,$5,$6,$7,0*
20,1,$1+$1,$6,$7,$8,$9,0*
20,1,$1+$1,$8,$9,$2,$3,0*%
G04 Aperture macros list end*
%ADD10C,0.001000*%
%ADD11C,2.632587*%
%ADD12R,0.370000X0.370000*%
%ADD13RoundRect,0.125000X-0.000010X-1.875000X0.000010X-1.875000X0.000010X1.875000X-0.000010X1.875000X0*%
%ADD14RoundRect,0.125000X-1.875000X0.000010X-1.875000X-0.000010X1.875000X-0.000010X1.875000X0.000010X0*%
G04 APERTURE END LIST*
D10*
X269350856Y-136384475D02*
X270450856Y-136384475D01*
X270450856Y-137484475D01*
X269350856Y-137484475D01*
X269350856Y-136384475D01*
G36*
X269350856Y-136384475D02*
G01*
X270450856Y-136384475D01*
X270450856Y-137484475D01*
X269350856Y-137484475D01*
X269350856Y-136384475D01*
G37*
X262793334Y-116391286D02*
X263893334Y-116391286D01*
X263893334Y-117491286D01*
X262793334Y-117491286D01*
X262793334Y-116391286D01*
G36*
X262793334Y-116391286D02*
G01*
X263893334Y-116391286D01*
X263893334Y-117491286D01*
X262793334Y-117491286D01*
X262793334Y-116391286D01*
G37*
X185773380Y-136356287D02*
X186873380Y-136356287D01*
X186873380Y-137456287D01*
X185773380Y-137456287D01*
X185773380Y-136356287D01*
G36*
X185773380Y-136356287D02*
G01*
X186873380Y-136356287D01*
X186873380Y-137456287D01*
X185773380Y-137456287D01*
X185773380Y-136356287D01*
G37*
X192372479Y-116365001D02*
X193472479Y-116365001D01*
X193472479Y-117465001D01*
X192372479Y-117465001D01*
X192372479Y-116365001D01*
G36*
X192372479Y-116365001D02*
G01*
X193472479Y-116365001D01*
X193472479Y-117465001D01*
X192372479Y-117465001D01*
X192372479Y-116365001D01*
G37*
%TO.C,SW4*%
D11*
X271216507Y-141934938D02*
G75*
G02*
X268583921Y-141934938I-1316293J0D01*
G01*
X268583921Y-141934938D02*
G75*
G02*
X271216507Y-141934938I1316293J0D01*
G01*
%TO.C,SW1*%
X187641079Y-141910062D02*
G75*
G02*
X185008493Y-141910062I-1316293J0D01*
G01*
X185008493Y-141910062D02*
G75*
G02*
X187641079Y-141910062I1316293J0D01*
G01*
%TO.C,SW3*%
X270411507Y-120684938D02*
G75*
G02*
X267778921Y-120684938I-1316293J0D01*
G01*
X267778921Y-120684938D02*
G75*
G02*
X270411507Y-120684938I1316293J0D01*
G01*
%TO.C,SW2*%
X188491079Y-120665062D02*
G75*
G02*
X185858493Y-120665062I-1316293J0D01*
G01*
X185858493Y-120665062D02*
G75*
G02*
X188491079Y-120665062I1316293J0D01*
G01*
%TD*%
D12*
%TO.C,L3*%
X263010000Y-117270000D03*
X263680000Y-117270000D03*
X263680000Y-116600000D03*
X263010000Y-116600000D03*
%TD*%
%TO.C,L4*%
X269565000Y-137270000D03*
X270235000Y-137270000D03*
X270235000Y-136600000D03*
X269565000Y-136600000D03*
%TD*%
D13*
%TO.C,J1*%
X229100000Y-143187500D03*
X228600000Y-143187500D03*
X228100000Y-143187500D03*
X227600000Y-143187500D03*
X227100000Y-143187500D03*
%TD*%
D14*
%TO.C,J2*%
X180260000Y-160328775D03*
X180260000Y-159828775D03*
X180260000Y-159328775D03*
X180260000Y-158828775D03*
X180260000Y-158328775D03*
%TD*%
D12*
%TO.C,L1*%
X185990000Y-137245000D03*
X186660000Y-137245000D03*
X186660000Y-136575000D03*
X185990000Y-136575000D03*
%TD*%
%TO.C,L2*%
X192590000Y-117250000D03*
X193260000Y-117250000D03*
X193260000Y-116580000D03*
X192590000Y-116580000D03*
%TD*%
M02*
