%TF.GenerationSoftware,KiCad,Pcbnew,8.0.2*%
%TF.CreationDate,2024-09-01T00:37:24-07:00*%
%TF.ProjectId,procon_battery_pcb,70726f63-6f6e-45f6-9261-74746572795f,rev?*%
%TF.SameCoordinates,Original*%
%TF.FileFunction,Legend,Top*%
%TF.FilePolarity,Positive*%
%FSLAX46Y46*%
G04 Gerber Fmt 4.6, Leading zero omitted, Abs format (unit mm)*
G04 Created by KiCad (PCBNEW 8.0.2) date 2024-09-01 00:37:24*
%MOMM*%
%LPD*%
G01*
G04 APERTURE LIST*
%ADD10C,0.300000*%
%ADD11C,0.150000*%
%ADD12C,0.120000*%
G04 APERTURE END LIST*
D10*
X66827596Y-50778889D02*
X65327596Y-50778889D01*
X66041882Y-50778889D02*
X66041882Y-49921746D01*
X66827596Y-49921746D02*
X65327596Y-49921746D01*
X66827596Y-49207460D02*
X65327596Y-49207460D01*
X66041882Y-49207460D02*
X66041882Y-48350317D01*
X66827596Y-48350317D02*
X65327596Y-48350317D01*
X66827596Y-46921745D02*
X66827596Y-47636031D01*
X66827596Y-47636031D02*
X65327596Y-47636031D01*
X69242512Y-50778889D02*
X67742512Y-50778889D01*
X67742512Y-50778889D02*
X67742512Y-50207460D01*
X67742512Y-50207460D02*
X67813941Y-50064603D01*
X67813941Y-50064603D02*
X67885369Y-49993174D01*
X67885369Y-49993174D02*
X68028226Y-49921746D01*
X68028226Y-49921746D02*
X68242512Y-49921746D01*
X68242512Y-49921746D02*
X68385369Y-49993174D01*
X68385369Y-49993174D02*
X68456798Y-50064603D01*
X68456798Y-50064603D02*
X68528226Y-50207460D01*
X68528226Y-50207460D02*
X68528226Y-50778889D01*
X69242512Y-49278889D02*
X68242512Y-49278889D01*
X68528226Y-49278889D02*
X68385369Y-49207460D01*
X68385369Y-49207460D02*
X68313941Y-49136032D01*
X68313941Y-49136032D02*
X68242512Y-48993174D01*
X68242512Y-48993174D02*
X68242512Y-48850317D01*
X69242512Y-48136032D02*
X69171084Y-48278889D01*
X69171084Y-48278889D02*
X69099655Y-48350318D01*
X69099655Y-48350318D02*
X68956798Y-48421746D01*
X68956798Y-48421746D02*
X68528226Y-48421746D01*
X68528226Y-48421746D02*
X68385369Y-48350318D01*
X68385369Y-48350318D02*
X68313941Y-48278889D01*
X68313941Y-48278889D02*
X68242512Y-48136032D01*
X68242512Y-48136032D02*
X68242512Y-47921746D01*
X68242512Y-47921746D02*
X68313941Y-47778889D01*
X68313941Y-47778889D02*
X68385369Y-47707461D01*
X68385369Y-47707461D02*
X68528226Y-47636032D01*
X68528226Y-47636032D02*
X68956798Y-47636032D01*
X68956798Y-47636032D02*
X69099655Y-47707461D01*
X69099655Y-47707461D02*
X69171084Y-47778889D01*
X69171084Y-47778889D02*
X69242512Y-47921746D01*
X69242512Y-47921746D02*
X69242512Y-48136032D01*
X69099655Y-46136032D02*
X69171084Y-46207460D01*
X69171084Y-46207460D02*
X69242512Y-46421746D01*
X69242512Y-46421746D02*
X69242512Y-46564603D01*
X69242512Y-46564603D02*
X69171084Y-46778889D01*
X69171084Y-46778889D02*
X69028226Y-46921746D01*
X69028226Y-46921746D02*
X68885369Y-46993175D01*
X68885369Y-46993175D02*
X68599655Y-47064603D01*
X68599655Y-47064603D02*
X68385369Y-47064603D01*
X68385369Y-47064603D02*
X68099655Y-46993175D01*
X68099655Y-46993175D02*
X67956798Y-46921746D01*
X67956798Y-46921746D02*
X67813941Y-46778889D01*
X67813941Y-46778889D02*
X67742512Y-46564603D01*
X67742512Y-46564603D02*
X67742512Y-46421746D01*
X67742512Y-46421746D02*
X67813941Y-46207460D01*
X67813941Y-46207460D02*
X67885369Y-46136032D01*
X69242512Y-45278889D02*
X69171084Y-45421746D01*
X69171084Y-45421746D02*
X69099655Y-45493175D01*
X69099655Y-45493175D02*
X68956798Y-45564603D01*
X68956798Y-45564603D02*
X68528226Y-45564603D01*
X68528226Y-45564603D02*
X68385369Y-45493175D01*
X68385369Y-45493175D02*
X68313941Y-45421746D01*
X68313941Y-45421746D02*
X68242512Y-45278889D01*
X68242512Y-45278889D02*
X68242512Y-45064603D01*
X68242512Y-45064603D02*
X68313941Y-44921746D01*
X68313941Y-44921746D02*
X68385369Y-44850318D01*
X68385369Y-44850318D02*
X68528226Y-44778889D01*
X68528226Y-44778889D02*
X68956798Y-44778889D01*
X68956798Y-44778889D02*
X69099655Y-44850318D01*
X69099655Y-44850318D02*
X69171084Y-44921746D01*
X69171084Y-44921746D02*
X69242512Y-45064603D01*
X69242512Y-45064603D02*
X69242512Y-45278889D01*
X68242512Y-44136032D02*
X69242512Y-44136032D01*
X68385369Y-44136032D02*
X68313941Y-44064603D01*
X68313941Y-44064603D02*
X68242512Y-43921746D01*
X68242512Y-43921746D02*
X68242512Y-43707460D01*
X68242512Y-43707460D02*
X68313941Y-43564603D01*
X68313941Y-43564603D02*
X68456798Y-43493175D01*
X68456798Y-43493175D02*
X69242512Y-43493175D01*
X70871714Y-50278889D02*
X70943142Y-50064603D01*
X70943142Y-50064603D02*
X71014571Y-49993174D01*
X71014571Y-49993174D02*
X71157428Y-49921746D01*
X71157428Y-49921746D02*
X71371714Y-49921746D01*
X71371714Y-49921746D02*
X71514571Y-49993174D01*
X71514571Y-49993174D02*
X71586000Y-50064603D01*
X71586000Y-50064603D02*
X71657428Y-50207460D01*
X71657428Y-50207460D02*
X71657428Y-50778889D01*
X71657428Y-50778889D02*
X70157428Y-50778889D01*
X70157428Y-50778889D02*
X70157428Y-50278889D01*
X70157428Y-50278889D02*
X70228857Y-50136032D01*
X70228857Y-50136032D02*
X70300285Y-50064603D01*
X70300285Y-50064603D02*
X70443142Y-49993174D01*
X70443142Y-49993174D02*
X70586000Y-49993174D01*
X70586000Y-49993174D02*
X70728857Y-50064603D01*
X70728857Y-50064603D02*
X70800285Y-50136032D01*
X70800285Y-50136032D02*
X70871714Y-50278889D01*
X70871714Y-50278889D02*
X70871714Y-50778889D01*
X71657428Y-48636032D02*
X70871714Y-48636032D01*
X70871714Y-48636032D02*
X70728857Y-48707460D01*
X70728857Y-48707460D02*
X70657428Y-48850317D01*
X70657428Y-48850317D02*
X70657428Y-49136032D01*
X70657428Y-49136032D02*
X70728857Y-49278889D01*
X71586000Y-48636032D02*
X71657428Y-48778889D01*
X71657428Y-48778889D02*
X71657428Y-49136032D01*
X71657428Y-49136032D02*
X71586000Y-49278889D01*
X71586000Y-49278889D02*
X71443142Y-49350317D01*
X71443142Y-49350317D02*
X71300285Y-49350317D01*
X71300285Y-49350317D02*
X71157428Y-49278889D01*
X71157428Y-49278889D02*
X71086000Y-49136032D01*
X71086000Y-49136032D02*
X71086000Y-48778889D01*
X71086000Y-48778889D02*
X71014571Y-48636032D01*
X70657428Y-48136031D02*
X70657428Y-47564603D01*
X70157428Y-47921746D02*
X71443142Y-47921746D01*
X71443142Y-47921746D02*
X71586000Y-47850317D01*
X71586000Y-47850317D02*
X71657428Y-47707460D01*
X71657428Y-47707460D02*
X71657428Y-47564603D01*
X70657428Y-47278888D02*
X70657428Y-46707460D01*
X70157428Y-47064603D02*
X71443142Y-47064603D01*
X71443142Y-47064603D02*
X71586000Y-46993174D01*
X71586000Y-46993174D02*
X71657428Y-46850317D01*
X71657428Y-46850317D02*
X71657428Y-46707460D01*
X71586000Y-45636031D02*
X71657428Y-45778888D01*
X71657428Y-45778888D02*
X71657428Y-46064603D01*
X71657428Y-46064603D02*
X71586000Y-46207460D01*
X71586000Y-46207460D02*
X71443142Y-46278888D01*
X71443142Y-46278888D02*
X70871714Y-46278888D01*
X70871714Y-46278888D02*
X70728857Y-46207460D01*
X70728857Y-46207460D02*
X70657428Y-46064603D01*
X70657428Y-46064603D02*
X70657428Y-45778888D01*
X70657428Y-45778888D02*
X70728857Y-45636031D01*
X70728857Y-45636031D02*
X70871714Y-45564603D01*
X70871714Y-45564603D02*
X71014571Y-45564603D01*
X71014571Y-45564603D02*
X71157428Y-46278888D01*
X71657428Y-44921746D02*
X70657428Y-44921746D01*
X70943142Y-44921746D02*
X70800285Y-44850317D01*
X70800285Y-44850317D02*
X70728857Y-44778889D01*
X70728857Y-44778889D02*
X70657428Y-44636031D01*
X70657428Y-44636031D02*
X70657428Y-44493174D01*
X70657428Y-44136032D02*
X71657428Y-43778889D01*
X70657428Y-43421746D02*
X71657428Y-43778889D01*
X71657428Y-43778889D02*
X72014571Y-43921746D01*
X72014571Y-43921746D02*
X72086000Y-43993175D01*
X72086000Y-43993175D02*
X72157428Y-44136032D01*
D11*
X49002019Y-51463533D02*
X49716304Y-51463533D01*
X49716304Y-51463533D02*
X49859161Y-51511152D01*
X49859161Y-51511152D02*
X49954400Y-51606390D01*
X49954400Y-51606390D02*
X50002019Y-51749247D01*
X50002019Y-51749247D02*
X50002019Y-51844485D01*
X50002019Y-50463533D02*
X50002019Y-51034961D01*
X50002019Y-50749247D02*
X49002019Y-50749247D01*
X49002019Y-50749247D02*
X49144876Y-50844485D01*
X49144876Y-50844485D02*
X49240114Y-50939723D01*
X49240114Y-50939723D02*
X49287733Y-51034961D01*
D12*
%TO.C,J1*%
X50794400Y-53285800D02*
X50794400Y-52225800D01*
X51854400Y-53285800D02*
X50794400Y-53285800D01*
X52590400Y-53263800D02*
X58650400Y-53263800D01*
X52607200Y-52190200D02*
X52607200Y-50070200D01*
X58667200Y-52190200D02*
X58667200Y-50070200D01*
X52641200Y-48996600D02*
X58701200Y-48996600D01*
%TD*%
M02*
