%TF.GenerationSoftware,KiCad,Pcbnew,8.0.2*%
%TF.CreationDate,2024-09-01T00:37:24-07:00*%
%TF.ProjectId,procon_battery_pcb,70726f63-6f6e-45f6-9261-74746572795f,rev?*%
%TF.SameCoordinates,Original*%
%TF.FileFunction,Copper,L2,Bot*%
%TF.FilePolarity,Positive*%
%FSLAX46Y46*%
G04 Gerber Fmt 4.6, Leading zero omitted, Abs format (unit mm)*
G04 Created by KiCad (PCBNEW 8.0.2) date 2024-09-01 00:37:24*
%MOMM*%
%LPD*%
G01*
G04 APERTURE LIST*
%TA.AperFunction,ComponentPad*%
%ADD10R,1.350000X3.350000*%
%TD*%
%TA.AperFunction,ComponentPad*%
%ADD11O,1.350000X3.350000*%
%TD*%
%TA.AperFunction,SMDPad,CuDef*%
%ADD12R,1.200000X2.450000*%
%TD*%
%TA.AperFunction,SMDPad,CuDef*%
%ADD13R,3.280000X1.750000*%
%TD*%
%TA.AperFunction,ViaPad*%
%ADD14C,1.000000*%
%TD*%
%TA.AperFunction,ViaPad*%
%ADD15C,0.750000*%
%TD*%
%TA.AperFunction,Conductor*%
%ADD16C,0.750000*%
%TD*%
G04 APERTURE END LIST*
D10*
%TO.P,J1,1,Pin_1*%
%TO.N,BATTERY_TS_TIEDOWN*%
X51607200Y-51130200D03*
D11*
%TO.P,J1,2,Pin_2*%
%TO.N,GND*%
X53607200Y-51130200D03*
%TO.P,J1,3,Pin_3*%
%TO.N,BATTERY_TS_SENSE*%
X55607200Y-51130200D03*
%TO.P,J1,4,Pin_4*%
%TO.N,BATTERY_POS*%
X57607200Y-51130200D03*
%TD*%
D12*
%TO.P,U1,1,POS*%
%TO.N,BATTERY_POS*%
X76327000Y-36858200D03*
D13*
X77367000Y-36858200D03*
D12*
%TO.P,U1,2,NC*%
%TO.N,unconnected-(U1-NC-Pad2)*%
X76327000Y-33858200D03*
D13*
X77367000Y-33858200D03*
D12*
%TO.P,U1,3,COM*%
%TO.N,GND*%
X76327000Y-30858200D03*
D13*
X77367000Y-30858200D03*
%TD*%
D14*
%TO.N,GND*%
X76250800Y-30861000D03*
X78486000Y-30835600D03*
%TO.N,BATTERY_POS*%
X76327000Y-36858200D03*
D15*
X80873600Y-39014400D03*
D14*
X78405459Y-36771345D03*
%TO.N,unconnected-(U1-NC-Pad2)*%
X76327000Y-33858200D03*
X78486000Y-33858200D03*
%TD*%
D16*
%TO.N,GND*%
X78412600Y-30858200D02*
X78435200Y-30835600D01*
X78486000Y-30784800D02*
X78435200Y-30835600D01*
X78435200Y-30835600D02*
X78486000Y-30835600D01*
X78486000Y-30835600D02*
X78486000Y-30784800D01*
%TO.N,BATTERY_POS*%
X80179945Y-36771345D02*
X78405459Y-36771345D01*
X80873600Y-37465000D02*
X80179945Y-36771345D01*
X80873600Y-39014400D02*
X80873600Y-37465000D01*
%TO.N,unconnected-(U1-NC-Pad2)*%
X77367000Y-33858200D02*
X78486000Y-33858200D01*
%TD*%
%TA.AperFunction,Conductor*%
%TO.N,GND*%
G36*
X81447730Y-16209429D02*
G01*
X81454038Y-16209566D01*
X81546072Y-16211571D01*
X81564896Y-16213425D01*
X81759858Y-16247803D01*
X81780735Y-16253397D01*
X81965490Y-16320641D01*
X81985075Y-16329774D01*
X82155344Y-16428079D01*
X82173044Y-16440472D01*
X82323661Y-16566854D01*
X82338944Y-16582137D01*
X82460252Y-16726707D01*
X82465325Y-16732752D01*
X82477722Y-16750458D01*
X82576024Y-16920722D01*
X82585159Y-16940312D01*
X82652402Y-17125064D01*
X82657996Y-17145941D01*
X82692373Y-17340898D01*
X82694228Y-17359729D01*
X82696371Y-17458067D01*
X82696400Y-17460769D01*
X82696400Y-52027873D01*
X82696363Y-52030911D01*
X82694254Y-52116980D01*
X82691908Y-52138133D01*
X82658039Y-52308406D01*
X82650983Y-52331668D01*
X82585128Y-52490654D01*
X82573669Y-52512092D01*
X82478064Y-52655175D01*
X82462643Y-52673965D01*
X82340965Y-52795643D01*
X82322175Y-52811064D01*
X82179092Y-52906669D01*
X82157654Y-52918128D01*
X81998668Y-52983983D01*
X81975406Y-52991039D01*
X81805133Y-53024908D01*
X81783980Y-53027254D01*
X81700650Y-53029295D01*
X81697909Y-53029363D01*
X81694873Y-53029400D01*
X67878423Y-53029400D01*
X67874360Y-53029333D01*
X67869402Y-53029170D01*
X67825118Y-53027717D01*
X67797077Y-53023555D01*
X67780982Y-53019240D01*
X67700009Y-52997531D01*
X67670117Y-52985146D01*
X67584862Y-52935916D01*
X67559190Y-52916215D01*
X67489584Y-52846609D01*
X67469884Y-52820939D01*
X67420651Y-52735678D01*
X67408269Y-52705794D01*
X67382243Y-52608716D01*
X67378082Y-52580678D01*
X67376467Y-52531442D01*
X67376400Y-52527377D01*
X67376400Y-52229401D01*
X67376017Y-52216431D01*
X67374464Y-52163826D01*
X67340538Y-52037144D01*
X67340537Y-52037143D01*
X67340537Y-52037141D01*
X67292555Y-51954024D01*
X67274972Y-51923563D01*
X67274971Y-51923562D01*
X67274970Y-51923560D01*
X67182239Y-51830829D01*
X67068657Y-51765262D01*
X67068658Y-51765262D01*
X66941978Y-51731337D01*
X66941977Y-51731336D01*
X66941974Y-51731336D01*
X66876400Y-51729400D01*
X66876399Y-51729400D01*
X66076400Y-51729400D01*
X66010855Y-51731539D01*
X65884233Y-51765467D01*
X65884231Y-51765467D01*
X65884231Y-51765468D01*
X65770706Y-51831012D01*
X65770703Y-51831014D01*
X65678014Y-51923703D01*
X65678012Y-51923706D01*
X65612468Y-52037231D01*
X65578539Y-52163855D01*
X65576400Y-52229399D01*
X65576400Y-52527378D01*
X65576334Y-52531424D01*
X65574726Y-52580682D01*
X65570567Y-52608729D01*
X65544558Y-52705798D01*
X65532170Y-52735705D01*
X65482950Y-52820956D01*
X65463244Y-52846637D01*
X65393637Y-52916244D01*
X65367956Y-52935950D01*
X65282705Y-52985170D01*
X65252798Y-52997558D01*
X65155729Y-53023567D01*
X65127682Y-53027726D01*
X65083373Y-53029172D01*
X65078420Y-53029334D01*
X65074378Y-53029400D01*
X58244815Y-53029400D01*
X58177776Y-53009715D01*
X58132021Y-52956911D01*
X58122077Y-52887753D01*
X58151102Y-52824197D01*
X58161000Y-52814561D01*
X58160992Y-52814553D01*
X58287242Y-52688302D01*
X58287245Y-52688299D01*
X58383058Y-52544905D01*
X58449055Y-52385574D01*
X58482700Y-52216429D01*
X58482700Y-50043971D01*
X58482700Y-50043968D01*
X58482699Y-50043966D01*
X58456180Y-49910645D01*
X58449055Y-49874826D01*
X58392090Y-49737299D01*
X58383061Y-49715501D01*
X58383054Y-49715488D01*
X58287245Y-49572101D01*
X58287242Y-49572097D01*
X58165302Y-49450157D01*
X58165298Y-49450154D01*
X58021911Y-49354345D01*
X58021898Y-49354338D01*
X57862578Y-49288346D01*
X57862566Y-49288343D01*
X57693432Y-49254700D01*
X57693429Y-49254700D01*
X57520971Y-49254700D01*
X57520968Y-49254700D01*
X57351833Y-49288343D01*
X57351821Y-49288346D01*
X57192501Y-49354338D01*
X57192488Y-49354345D01*
X57049101Y-49450154D01*
X57049097Y-49450157D01*
X56927157Y-49572097D01*
X56927154Y-49572101D01*
X56831345Y-49715488D01*
X56831338Y-49715501D01*
X56765346Y-49874821D01*
X56765343Y-49874833D01*
X56731700Y-50043966D01*
X56731700Y-52216433D01*
X56765343Y-52385566D01*
X56765346Y-52385578D01*
X56831338Y-52544898D01*
X56831345Y-52544911D01*
X56927154Y-52688298D01*
X56927157Y-52688302D01*
X57053408Y-52814553D01*
X57052367Y-52815593D01*
X57087583Y-52867289D01*
X57089456Y-52937134D01*
X57053270Y-52996903D01*
X56990515Y-53027621D01*
X56969585Y-53029400D01*
X56244815Y-53029400D01*
X56177776Y-53009715D01*
X56132021Y-52956911D01*
X56122077Y-52887753D01*
X56151102Y-52824197D01*
X56161000Y-52814561D01*
X56160992Y-52814553D01*
X56287242Y-52688302D01*
X56287245Y-52688299D01*
X56383058Y-52544905D01*
X56449055Y-52385574D01*
X56482700Y-52216429D01*
X56482700Y-50043971D01*
X56482700Y-50043968D01*
X56482699Y-50043966D01*
X56456180Y-49910645D01*
X56449055Y-49874826D01*
X56392090Y-49737299D01*
X56383061Y-49715501D01*
X56383054Y-49715488D01*
X56287245Y-49572101D01*
X56287242Y-49572097D01*
X56165302Y-49450157D01*
X56165298Y-49450154D01*
X56021911Y-49354345D01*
X56021898Y-49354338D01*
X55862578Y-49288346D01*
X55862566Y-49288343D01*
X55693432Y-49254700D01*
X55693429Y-49254700D01*
X55520971Y-49254700D01*
X55520968Y-49254700D01*
X55351833Y-49288343D01*
X55351821Y-49288346D01*
X55192501Y-49354338D01*
X55192488Y-49354345D01*
X55049101Y-49450154D01*
X55049097Y-49450157D01*
X54927157Y-49572097D01*
X54882663Y-49638687D01*
X54829050Y-49683491D01*
X54759725Y-49692198D01*
X54696698Y-49662043D01*
X54669076Y-49626090D01*
X54612147Y-49514362D01*
X54503445Y-49364745D01*
X54503441Y-49364740D01*
X54372659Y-49233958D01*
X54372654Y-49233954D01*
X54223037Y-49125252D01*
X54058243Y-49041284D01*
X54058237Y-49041282D01*
X53882344Y-48984132D01*
X53857200Y-48980150D01*
X53857200Y-50814514D01*
X53852806Y-50810120D01*
X53761594Y-50757459D01*
X53659861Y-50730200D01*
X53554539Y-50730200D01*
X53452806Y-50757459D01*
X53361594Y-50810120D01*
X53357200Y-50814514D01*
X53357200Y-48980150D01*
X53357199Y-48980150D01*
X53332055Y-48984132D01*
X53156162Y-49041282D01*
X53156156Y-49041284D01*
X52991362Y-49125252D01*
X52841745Y-49233954D01*
X52841740Y-49233958D01*
X52710960Y-49364738D01*
X52685091Y-49400343D01*
X52629760Y-49443007D01*
X52560146Y-49448985D01*
X52498352Y-49416377D01*
X52478299Y-49386824D01*
X52477852Y-49387123D01*
X52426752Y-49310647D01*
X52360430Y-49266332D01*
X52360429Y-49266331D01*
X52301952Y-49254700D01*
X52301948Y-49254700D01*
X50912452Y-49254700D01*
X50912447Y-49254700D01*
X50853970Y-49266331D01*
X50853969Y-49266332D01*
X50787647Y-49310647D01*
X50743332Y-49376969D01*
X50743331Y-49376970D01*
X50731700Y-49435447D01*
X50731700Y-52824952D01*
X50742890Y-52881209D01*
X50736663Y-52950801D01*
X50693799Y-53005978D01*
X50627909Y-53029222D01*
X50621273Y-53029400D01*
X45747905Y-53029400D01*
X45744856Y-53029362D01*
X45741124Y-53029270D01*
X45658828Y-53027245D01*
X45637679Y-53024899D01*
X45467399Y-52991015D01*
X45444141Y-52983958D01*
X45285163Y-52918099D01*
X45263727Y-52906640D01*
X45120650Y-52811033D01*
X45101863Y-52795614D01*
X44980185Y-52673936D01*
X44964766Y-52655149D01*
X44942423Y-52621713D01*
X44869158Y-52512071D01*
X44857700Y-52490636D01*
X44791841Y-52331658D01*
X44784784Y-52308400D01*
X44769064Y-52229399D01*
X44750899Y-52138117D01*
X44748554Y-52116980D01*
X44746436Y-52030866D01*
X44746400Y-52027894D01*
X44746400Y-50808716D01*
X45913393Y-50808716D01*
X45913393Y-50808727D01*
X45933315Y-51017361D01*
X45933318Y-51017378D01*
X45992365Y-51218477D01*
X46088413Y-51404784D01*
X46217974Y-51569532D01*
X46217978Y-51569536D01*
X46376376Y-51706790D01*
X46376387Y-51706798D01*
X46557897Y-51811592D01*
X46557899Y-51811593D01*
X46755970Y-51880146D01*
X46963436Y-51909975D01*
X47172797Y-51900002D01*
X47376488Y-51850587D01*
X47567146Y-51763517D01*
X47737880Y-51641937D01*
X47882520Y-51490244D01*
X47995838Y-51313918D01*
X48073738Y-51119333D01*
X48113405Y-50913521D01*
X48115895Y-50808722D01*
X48113405Y-50703923D01*
X48073738Y-50498111D01*
X47995838Y-50303526D01*
X47882520Y-50127200D01*
X47803158Y-50043968D01*
X47737882Y-49975508D01*
X47737879Y-49975506D01*
X47567148Y-49853928D01*
X47567146Y-49853927D01*
X47376488Y-49766857D01*
X47172797Y-49717442D01*
X46983384Y-49708419D01*
X46963438Y-49707469D01*
X46963437Y-49707469D01*
X46963436Y-49707469D01*
X46755970Y-49737298D01*
X46755969Y-49737298D01*
X46755964Y-49737299D01*
X46557897Y-49805851D01*
X46376387Y-49910645D01*
X46376376Y-49910653D01*
X46217978Y-50047907D01*
X46217974Y-50047911D01*
X46088413Y-50212659D01*
X45992365Y-50398966D01*
X45933318Y-50600065D01*
X45933315Y-50600082D01*
X45913393Y-50808716D01*
X44746400Y-50808716D01*
X44746400Y-49210926D01*
X44746437Y-49207890D01*
X44748545Y-49121821D01*
X44750890Y-49100672D01*
X44784762Y-48930383D01*
X44791812Y-48907141D01*
X44857674Y-48748138D01*
X44869126Y-48726714D01*
X44964738Y-48583619D01*
X44977252Y-48568371D01*
X73844369Y-48568371D01*
X73844369Y-49118359D01*
X73846985Y-49238454D01*
X73846986Y-49238455D01*
X73888683Y-49474934D01*
X73970815Y-49700586D01*
X73970818Y-49700593D01*
X74009076Y-49766857D01*
X74090884Y-49908553D01*
X74092644Y-49910650D01*
X74245239Y-50092508D01*
X74286584Y-50127200D01*
X74429195Y-50246864D01*
X74637159Y-50366932D01*
X74862813Y-50449064D01*
X75099301Y-50490763D01*
X75339435Y-50490763D01*
X75339437Y-50490763D01*
X75575925Y-50449064D01*
X75801579Y-50366932D01*
X76009543Y-50246864D01*
X76193498Y-50092508D01*
X76347854Y-49908553D01*
X76467922Y-49700589D01*
X76550054Y-49474935D01*
X76591753Y-49238447D01*
X76594369Y-49118379D01*
X76594369Y-48568381D01*
X76591751Y-48448317D01*
X76550051Y-48211837D01*
X76467920Y-47986191D01*
X76347854Y-47778235D01*
X76193501Y-47594287D01*
X76101526Y-47517112D01*
X76009553Y-47439938D01*
X75801597Y-47319875D01*
X75801595Y-47319874D01*
X75801593Y-47319873D01*
X75725874Y-47292314D01*
X75575947Y-47237745D01*
X75339468Y-47196047D01*
X75339466Y-47196047D01*
X75099338Y-47196047D01*
X75099335Y-47196047D01*
X74862857Y-47237743D01*
X74738612Y-47282964D01*
X74637210Y-47319872D01*
X74637206Y-47319874D01*
X74637204Y-47319875D01*
X74429252Y-47439933D01*
X74429250Y-47439934D01*
X74245303Y-47594283D01*
X74245295Y-47594291D01*
X74090951Y-47778228D01*
X74090946Y-47778236D01*
X73970887Y-47986178D01*
X73970879Y-47986195D01*
X73888749Y-48211832D01*
X73847049Y-48448312D01*
X73847048Y-48448318D01*
X73844369Y-48568371D01*
X44977252Y-48568371D01*
X44980151Y-48564839D01*
X45101839Y-48443151D01*
X45120619Y-48427738D01*
X45263714Y-48332126D01*
X45285138Y-48320674D01*
X45444141Y-48254812D01*
X45467383Y-48247762D01*
X45637672Y-48213890D01*
X45658815Y-48211545D01*
X45739437Y-48209570D01*
X45744891Y-48209437D01*
X45747927Y-48209400D01*
X59346400Y-48209400D01*
X62967687Y-46125920D01*
X63029525Y-46109400D01*
X66676400Y-46109400D01*
X66741945Y-46107261D01*
X66868567Y-46073333D01*
X66982094Y-46007788D01*
X67074788Y-45915094D01*
X67140333Y-45801567D01*
X67174261Y-45674945D01*
X67176400Y-45609400D01*
X67176400Y-44596211D01*
X74607443Y-44596211D01*
X74607443Y-44596222D01*
X74627365Y-44804856D01*
X74627368Y-44804873D01*
X74686415Y-45005972D01*
X74782463Y-45192279D01*
X74912024Y-45357027D01*
X74912028Y-45357031D01*
X75070426Y-45494285D01*
X75070437Y-45494293D01*
X75251947Y-45599087D01*
X75251949Y-45599088D01*
X75450020Y-45667641D01*
X75657486Y-45697470D01*
X75866847Y-45687497D01*
X76070538Y-45638082D01*
X76261196Y-45551012D01*
X76431930Y-45429432D01*
X76576570Y-45277739D01*
X76689888Y-45101413D01*
X76767788Y-44906828D01*
X76807455Y-44701016D01*
X76809945Y-44596217D01*
X76807455Y-44491418D01*
X76767788Y-44285606D01*
X76689888Y-44091021D01*
X76576570Y-43914695D01*
X76500964Y-43835402D01*
X76431932Y-43763003D01*
X76431929Y-43763001D01*
X76261198Y-43641423D01*
X76261196Y-43641422D01*
X76070538Y-43554352D01*
X75866847Y-43504937D01*
X75677434Y-43495914D01*
X75657488Y-43494964D01*
X75657487Y-43494964D01*
X75657486Y-43494964D01*
X75450020Y-43524793D01*
X75450019Y-43524793D01*
X75450014Y-43524794D01*
X75251947Y-43593346D01*
X75070437Y-43698140D01*
X75070426Y-43698148D01*
X74912028Y-43835402D01*
X74912024Y-43835406D01*
X74782463Y-44000154D01*
X74686415Y-44186461D01*
X74627368Y-44387560D01*
X74627365Y-44387577D01*
X74607443Y-44596211D01*
X67176400Y-44596211D01*
X67176400Y-42203131D01*
X67176437Y-42200092D01*
X67178694Y-42108016D01*
X67181380Y-42085213D01*
X67220075Y-41903659D01*
X67228127Y-41878949D01*
X67303189Y-41710857D01*
X67316216Y-41688365D01*
X67424673Y-41539608D01*
X67442093Y-41520336D01*
X67579182Y-41397449D01*
X67600240Y-41382230D01*
X67759929Y-41290623D01*
X67783698Y-41280127D01*
X67960443Y-41223348D01*
X67982843Y-41218384D01*
X68074976Y-41206777D01*
X68076525Y-41206593D01*
X68323294Y-41178979D01*
X68813028Y-41087615D01*
X69293419Y-40955666D01*
X69761112Y-40784055D01*
X70212836Y-40573979D01*
X70645436Y-40326909D01*
X70850662Y-40185739D01*
X71055871Y-40044582D01*
X71055880Y-40044575D01*
X71055889Y-40044569D01*
X71441325Y-39728934D01*
X71799051Y-39382208D01*
X72126568Y-39006816D01*
X72421587Y-38605380D01*
X72682045Y-38180706D01*
X72796400Y-37959400D01*
X72796400Y-31604647D01*
X75227000Y-31604647D01*
X75973447Y-30858200D01*
X75973447Y-30858199D01*
X75227000Y-30111752D01*
X75227000Y-31604647D01*
X72796400Y-31604647D01*
X72796400Y-29442228D01*
X75264580Y-29442228D01*
X76327000Y-30504647D01*
X76592871Y-30770518D01*
X76626356Y-30831841D01*
X76621372Y-30901533D01*
X76592871Y-30945880D01*
X75264581Y-32274169D01*
X75283649Y-32325293D01*
X75369809Y-32440387D01*
X75369812Y-32440390D01*
X75476811Y-32520490D01*
X75518682Y-32576423D01*
X75526500Y-32619756D01*
X75526500Y-35102952D01*
X75538131Y-35161429D01*
X75538132Y-35161430D01*
X75582447Y-35227752D01*
X75623373Y-35255098D01*
X75668178Y-35308711D01*
X75676885Y-35378036D01*
X75646730Y-35441063D01*
X75623373Y-35461302D01*
X75582447Y-35488647D01*
X75538132Y-35554969D01*
X75538131Y-35554970D01*
X75526500Y-35613447D01*
X75526500Y-38102952D01*
X75538131Y-38161429D01*
X75538132Y-38161430D01*
X75582447Y-38227752D01*
X75648769Y-38272067D01*
X75648770Y-38272068D01*
X75707247Y-38283699D01*
X75707250Y-38283700D01*
X75707252Y-38283700D01*
X76946750Y-38283700D01*
X76946751Y-38283699D01*
X76961568Y-38280752D01*
X77005229Y-38272068D01*
X77005229Y-38272067D01*
X77005231Y-38272067D01*
X77071552Y-38227752D01*
X77115867Y-38161431D01*
X77115867Y-38161429D01*
X77115868Y-38161429D01*
X77127499Y-38102952D01*
X77127500Y-38102950D01*
X77127500Y-38057700D01*
X77147185Y-37990661D01*
X77199989Y-37944906D01*
X77251500Y-37933700D01*
X79026750Y-37933700D01*
X79026751Y-37933699D01*
X79041568Y-37930752D01*
X79085229Y-37922068D01*
X79085229Y-37922067D01*
X79085231Y-37922067D01*
X79151552Y-37877752D01*
X79195867Y-37811431D01*
X79195867Y-37811429D01*
X79195868Y-37811429D01*
X79207499Y-37752952D01*
X79207500Y-37752950D01*
X79207500Y-37470845D01*
X79227185Y-37403806D01*
X79279989Y-37358051D01*
X79331500Y-37346845D01*
X79890203Y-37346845D01*
X79957242Y-37366530D01*
X79977884Y-37383164D01*
X80261781Y-37667061D01*
X80295266Y-37728384D01*
X80298100Y-37754742D01*
X80298100Y-38968552D01*
X80297039Y-38984737D01*
X80293134Y-39014398D01*
X80293134Y-39014400D01*
X80297039Y-39044060D01*
X80298100Y-39060246D01*
X80298100Y-39090167D01*
X80305844Y-39119068D01*
X80309008Y-39134974D01*
X80312913Y-39164635D01*
X80312914Y-39164639D01*
X80324360Y-39192272D01*
X80329573Y-39207629D01*
X80337318Y-39236533D01*
X80337318Y-39236534D01*
X80352279Y-39262446D01*
X80359453Y-39276994D01*
X80370900Y-39304630D01*
X80370901Y-39304632D01*
X80389116Y-39328371D01*
X80398124Y-39341853D01*
X80407871Y-39358735D01*
X80413085Y-39367765D01*
X80413087Y-39367767D01*
X80434242Y-39388922D01*
X80444937Y-39401117D01*
X80463146Y-39424848D01*
X80463147Y-39424849D01*
X80463149Y-39424851D01*
X80486886Y-39443065D01*
X80499076Y-39453756D01*
X80520235Y-39474915D01*
X80546138Y-39489870D01*
X80546149Y-39489876D01*
X80559629Y-39498883D01*
X80583367Y-39517098D01*
X80583368Y-39517098D01*
X80583369Y-39517099D01*
X80611005Y-39528546D01*
X80625556Y-39535722D01*
X80651462Y-39550680D01*
X80651464Y-39550680D01*
X80651465Y-39550681D01*
X80680367Y-39558424D01*
X80695728Y-39563639D01*
X80723364Y-39575087D01*
X80753035Y-39578992D01*
X80768934Y-39582155D01*
X80797834Y-39589900D01*
X80827754Y-39589900D01*
X80843937Y-39590960D01*
X80873600Y-39594866D01*
X80903262Y-39590960D01*
X80919446Y-39589900D01*
X80949364Y-39589900D01*
X80949366Y-39589900D01*
X80978271Y-39582154D01*
X80994168Y-39578992D01*
X81023836Y-39575087D01*
X81023838Y-39575086D01*
X81023839Y-39575086D01*
X81051467Y-39563641D01*
X81066830Y-39558425D01*
X81095735Y-39550681D01*
X81121650Y-39535717D01*
X81136196Y-39528544D01*
X81163833Y-39517098D01*
X81187567Y-39498884D01*
X81201046Y-39489878D01*
X81226965Y-39474915D01*
X81248131Y-39453747D01*
X81260317Y-39443061D01*
X81284051Y-39424851D01*
X81302261Y-39401117D01*
X81312947Y-39388931D01*
X81334115Y-39367765D01*
X81349078Y-39341846D01*
X81358088Y-39328363D01*
X81376298Y-39304633D01*
X81387746Y-39276994D01*
X81394918Y-39262450D01*
X81394920Y-39262446D01*
X81409881Y-39236535D01*
X81417626Y-39207629D01*
X81422841Y-39192267D01*
X81434286Y-39164639D01*
X81434286Y-39164638D01*
X81434287Y-39164636D01*
X81438192Y-39134968D01*
X81441355Y-39119068D01*
X81449100Y-39090166D01*
X81449100Y-39060246D01*
X81450161Y-39044060D01*
X81454066Y-39014400D01*
X81454066Y-39014398D01*
X81450161Y-38984737D01*
X81449100Y-38968552D01*
X81449100Y-37389235D01*
X81449100Y-37389234D01*
X81439144Y-37352079D01*
X81409881Y-37242865D01*
X81388256Y-37205409D01*
X81341664Y-37124709D01*
X81341664Y-37124708D01*
X81334118Y-37111641D01*
X81334115Y-37111635D01*
X81226965Y-37004485D01*
X80533310Y-36310830D01*
X80467695Y-36272947D01*
X80402081Y-36235064D01*
X80328895Y-36215454D01*
X80255711Y-36195845D01*
X80255710Y-36195845D01*
X79331500Y-36195845D01*
X79264461Y-36176160D01*
X79218706Y-36123356D01*
X79207500Y-36071845D01*
X79207500Y-35963449D01*
X79207499Y-35963447D01*
X79195868Y-35904970D01*
X79195867Y-35904969D01*
X79151552Y-35838647D01*
X79085230Y-35794332D01*
X79085229Y-35794331D01*
X79026752Y-35782700D01*
X79026748Y-35782700D01*
X77251500Y-35782700D01*
X77184461Y-35763015D01*
X77138706Y-35710211D01*
X77127500Y-35658700D01*
X77127500Y-35613449D01*
X77127499Y-35613447D01*
X77115868Y-35554970D01*
X77115867Y-35554969D01*
X77071551Y-35488646D01*
X77030627Y-35461302D01*
X76985821Y-35407690D01*
X76977114Y-35338365D01*
X77007268Y-35275338D01*
X77030627Y-35255098D01*
X77071551Y-35227753D01*
X77071552Y-35227752D01*
X77115867Y-35161431D01*
X77115867Y-35161429D01*
X77115868Y-35161429D01*
X77127499Y-35102952D01*
X77127500Y-35102950D01*
X77127500Y-35057700D01*
X77147185Y-34990661D01*
X77199989Y-34944906D01*
X77251500Y-34933700D01*
X79026750Y-34933700D01*
X79026751Y-34933699D01*
X79041568Y-34930752D01*
X79085229Y-34922068D01*
X79085229Y-34922067D01*
X79085231Y-34922067D01*
X79151552Y-34877752D01*
X79195867Y-34811431D01*
X79195867Y-34811429D01*
X79195868Y-34811429D01*
X79207499Y-34752952D01*
X79207500Y-34752950D01*
X79207500Y-32963449D01*
X79207499Y-32963447D01*
X79195868Y-32904970D01*
X79195867Y-32904969D01*
X79151552Y-32838647D01*
X79085230Y-32794332D01*
X79085229Y-32794331D01*
X79026752Y-32782700D01*
X79026748Y-32782700D01*
X77251500Y-32782700D01*
X77184461Y-32763015D01*
X77138706Y-32710211D01*
X77127500Y-32658700D01*
X77127500Y-32619756D01*
X77147185Y-32552717D01*
X77177189Y-32520490D01*
X77284187Y-32440390D01*
X77284190Y-32440387D01*
X77370350Y-32325293D01*
X77370354Y-32325286D01*
X77374612Y-32313870D01*
X77416482Y-32257935D01*
X77481945Y-32233516D01*
X77490795Y-32233200D01*
X78388446Y-32233200D01*
X77101127Y-30945881D01*
X77067642Y-30884558D01*
X77069527Y-30858199D01*
X77720553Y-30858199D01*
X77720553Y-30858200D01*
X79091597Y-32229245D01*
X79091599Y-32229245D01*
X79114374Y-32226798D01*
X79114376Y-32226797D01*
X79249086Y-32176554D01*
X79249093Y-32176550D01*
X79364187Y-32090390D01*
X79364190Y-32090387D01*
X79450350Y-31975293D01*
X79450354Y-31975286D01*
X79500596Y-31840579D01*
X79500598Y-31840572D01*
X79506999Y-31781044D01*
X79507000Y-31781027D01*
X79507000Y-29935372D01*
X79506999Y-29935355D01*
X79500598Y-29875827D01*
X79500596Y-29875820D01*
X79450354Y-29741113D01*
X79450350Y-29741106D01*
X79364190Y-29626012D01*
X79364187Y-29626009D01*
X79249093Y-29539849D01*
X79249086Y-29539845D01*
X79114380Y-29489603D01*
X79114373Y-29489601D01*
X79091598Y-29487152D01*
X77720553Y-30858199D01*
X77069527Y-30858199D01*
X77072626Y-30814866D01*
X77101127Y-30770519D01*
X77367000Y-30504647D01*
X78388446Y-29483200D01*
X77490795Y-29483200D01*
X77423756Y-29463515D01*
X77378001Y-29410711D01*
X77374612Y-29402530D01*
X77370354Y-29391113D01*
X77370350Y-29391106D01*
X77284190Y-29276012D01*
X77284187Y-29276009D01*
X77169093Y-29189849D01*
X77169086Y-29189845D01*
X77034379Y-29139603D01*
X77034372Y-29139601D01*
X76974844Y-29133200D01*
X75679155Y-29133200D01*
X75619627Y-29139601D01*
X75619620Y-29139603D01*
X75484913Y-29189845D01*
X75484906Y-29189849D01*
X75369813Y-29276009D01*
X75283645Y-29391114D01*
X75264580Y-29442228D01*
X72796400Y-29442228D01*
X72796400Y-22990100D01*
X76807006Y-22990100D01*
X76827527Y-23191919D01*
X76888253Y-23385464D01*
X76888260Y-23385479D01*
X76986702Y-23562838D01*
X76986705Y-23562843D01*
X77118839Y-23716760D01*
X77118840Y-23716762D01*
X77279252Y-23840929D01*
X77279256Y-23840932D01*
X77461383Y-23930270D01*
X77657766Y-23981117D01*
X77860364Y-23991392D01*
X78060883Y-23960673D01*
X78251114Y-23890220D01*
X78423268Y-23782915D01*
X78570299Y-23643152D01*
X78686185Y-23476653D01*
X78766184Y-23290235D01*
X78807019Y-23091529D01*
X78809584Y-22990100D01*
X78807019Y-22888671D01*
X78766184Y-22689965D01*
X78686185Y-22503547D01*
X78570299Y-22337048D01*
X78423268Y-22197285D01*
X78251114Y-22089980D01*
X78142975Y-22049930D01*
X78060884Y-22019527D01*
X78060878Y-22019526D01*
X77860365Y-21988808D01*
X77860364Y-21988808D01*
X77759065Y-21993945D01*
X77657765Y-21999083D01*
X77461382Y-22049930D01*
X77279252Y-22139270D01*
X77118840Y-22263437D01*
X77118839Y-22263439D01*
X76986705Y-22417356D01*
X76986702Y-22417361D01*
X76888260Y-22594720D01*
X76888253Y-22594735D01*
X76827527Y-22788280D01*
X76807006Y-22990100D01*
X72796400Y-22990100D01*
X72796400Y-19798422D01*
X73791230Y-19798422D01*
X73791230Y-19798427D01*
X73811041Y-20031217D01*
X73869914Y-20257321D01*
X73966147Y-20470214D01*
X73966152Y-20470222D01*
X74096980Y-20663789D01*
X74258645Y-20832467D01*
X74258646Y-20832468D01*
X74446484Y-20971393D01*
X74446486Y-20971394D01*
X74446489Y-20971396D01*
X74655111Y-21076581D01*
X74878507Y-21144995D01*
X75110253Y-21174671D01*
X75343680Y-21164755D01*
X75572074Y-21115533D01*
X75788864Y-21028419D01*
X75987814Y-20905921D01*
X76163199Y-20751563D01*
X76309975Y-20569784D01*
X76423919Y-20365815D01*
X76501753Y-20145523D01*
X76541238Y-19915246D01*
X76543715Y-19798427D01*
X76541238Y-19681608D01*
X76501753Y-19451331D01*
X76423919Y-19231039D01*
X76423918Y-19231036D01*
X76309974Y-19027069D01*
X76163199Y-18845291D01*
X76163195Y-18845287D01*
X76071272Y-18764385D01*
X75987814Y-18690933D01*
X75788864Y-18568435D01*
X75572074Y-18481321D01*
X75572075Y-18481321D01*
X75343678Y-18432098D01*
X75110255Y-18422182D01*
X74878510Y-18451858D01*
X74655111Y-18520273D01*
X74655105Y-18520276D01*
X74446484Y-18625460D01*
X74258646Y-18764385D01*
X74258645Y-18764386D01*
X74096980Y-18933064D01*
X73966152Y-19126631D01*
X73966147Y-19126639D01*
X73869914Y-19339532D01*
X73811041Y-19565636D01*
X73791230Y-19798422D01*
X72796400Y-19798422D01*
X72796400Y-17210926D01*
X72796437Y-17207890D01*
X72796472Y-17206425D01*
X72798545Y-17121815D01*
X72800890Y-17100672D01*
X72834762Y-16930383D01*
X72841812Y-16907141D01*
X72907674Y-16748138D01*
X72919126Y-16726714D01*
X73014738Y-16583619D01*
X73030151Y-16564839D01*
X73151839Y-16443151D01*
X73170619Y-16427738D01*
X73313714Y-16332126D01*
X73335138Y-16320674D01*
X73494141Y-16254812D01*
X73517383Y-16247762D01*
X73687672Y-16213890D01*
X73708815Y-16211545D01*
X73789437Y-16209570D01*
X73794891Y-16209437D01*
X73797927Y-16209400D01*
X81445030Y-16209400D01*
X81447730Y-16209429D01*
G37*
%TD.AperFunction*%
%TD*%
M02*
