%TF.GenerationSoftware,KiCad,Pcbnew,8.0.2*%
%TF.CreationDate,2024-09-01T00:37:31-07:00*%
%TF.ProjectId,procon_battery_pcb,70726f63-6f6e-45f6-9261-74746572795f,rev?*%
%TF.SameCoordinates,Original*%
%TF.FileFunction,Drillmap*%
%TF.FilePolarity,Positive*%
%FSLAX45Y45*%
G04 Gerber Fmt 4.5, Leading zero omitted, Abs format (unit mm)*
G04 Created by KiCad (PCBNEW 8.0.2) date 2024-09-01 00:37:31*
%MOMM*%
%LPD*%
G01*
G04 APERTURE LIST*
%ADD10C,0.100000*%
%ADD11C,0.200000*%
G04 APERTURE END LIST*
D10*
X4474640Y-5202940D02*
X4474640Y-4920940D01*
X7880958Y-2299010D02*
G75*
G02*
X7680958Y-2299010I-100000J0D01*
G01*
X7680958Y-2299010D02*
G75*
G02*
X7880958Y-2299010I100000J0D01*
G01*
X6557640Y-5222940D02*
X6557640Y-5252940D01*
X8169640Y-5302940D02*
X6787640Y-5302940D01*
X7659437Y-4911838D02*
X7659437Y-4856838D01*
X4811590Y-5080872D02*
G75*
G02*
X4591590Y-5080872I-110000J0D01*
G01*
X4591590Y-5080872D02*
G75*
G02*
X4811590Y-5080872I110000J0D01*
G01*
X6717640Y-4560940D02*
G75*
G02*
X6667640Y-4610940I-50000J0D01*
G01*
X4474640Y-4920940D02*
G75*
G02*
X4574640Y-4820940I100000J0D01*
G01*
X4574640Y-4820940D02*
X5934640Y-4820940D01*
X7659437Y-4911838D02*
G75*
G02*
X7384437Y-4911838I-137500J0D01*
G01*
X7279640Y-1720940D02*
G75*
G02*
X7379640Y-1620940I100000J0D01*
G01*
X8269640Y-1745940D02*
X8269640Y-5202940D01*
X7279640Y-3795940D02*
G75*
G02*
X6807573Y-4120663I-532020J267930D01*
G01*
X6557640Y-5222940D02*
G75*
G02*
X6607640Y-5172940I50000J0D01*
G01*
X6787640Y-5302940D02*
G75*
G02*
X6737640Y-5252940I10J50010D01*
G01*
X6299640Y-4610940D02*
X6667640Y-4610940D01*
X7384437Y-4856838D02*
X7384437Y-4911838D01*
X7680994Y-4459622D02*
G75*
G02*
X7460994Y-4459622I-110000J0D01*
G01*
X7460994Y-4459622D02*
G75*
G02*
X7680994Y-4459622I110000J0D01*
G01*
X5934640Y-4820940D02*
X6299640Y-4610940D01*
X6687640Y-5172940D02*
X6607640Y-5172940D01*
X4574640Y-5302940D02*
G75*
G02*
X4474640Y-5202940I10J100010D01*
G01*
X6737640Y-5252940D02*
X6737640Y-5222940D01*
X7654371Y-1979843D02*
G75*
G02*
X7379371Y-1979843I-137500J0D01*
G01*
X7379371Y-1979843D02*
G75*
G02*
X7654371Y-1979843I137500J0D01*
G01*
X7379640Y-1620940D02*
X8144640Y-1620940D01*
X6687640Y-5172940D02*
G75*
G02*
X6737640Y-5222940I10J-49990D01*
G01*
X7279640Y-3795940D02*
X7279640Y-1720940D01*
X8144640Y-1620940D02*
G75*
G02*
X8269640Y-1745940I0J-125000D01*
G01*
X6717640Y-4220160D02*
G75*
G02*
X6807573Y-4120668I100000J0D01*
G01*
X6507640Y-5302940D02*
X4574640Y-5302940D01*
X6557640Y-5252940D02*
G75*
G02*
X6507640Y-5302940I-50000J0D01*
G01*
X6717640Y-4560940D02*
X6717640Y-4220160D01*
X7384437Y-4856838D02*
G75*
G02*
X7659443Y-4856838I137503J-2D01*
G01*
X8269640Y-5202940D02*
G75*
G02*
X8169640Y-5302940I-100000J0D01*
G01*
D11*
D10*
X8072360Y-3886440D02*
X8102360Y-3916440D01*
X8102360Y-3886440D02*
X8072360Y-3916440D01*
X7647580Y-3086100D02*
G75*
G02*
X7602580Y-3086100I-22500J0D01*
G01*
X7602580Y-3086100D02*
G75*
G02*
X7647580Y-3086100I22500J0D01*
G01*
X7655200Y-3385820D02*
G75*
G02*
X7610200Y-3385820I-22500J0D01*
G01*
X7610200Y-3385820D02*
G75*
G02*
X7655200Y-3385820I22500J0D01*
G01*
X7655200Y-3685820D02*
G75*
G02*
X7610200Y-3685820I-22500J0D01*
G01*
X7610200Y-3685820D02*
G75*
G02*
X7655200Y-3685820I22500J0D01*
G01*
X7863046Y-3677134D02*
G75*
G02*
X7818046Y-3677134I-22500J0D01*
G01*
X7818046Y-3677134D02*
G75*
G02*
X7863046Y-3677134I22500J0D01*
G01*
X7871100Y-3083560D02*
G75*
G02*
X7826100Y-3083560I-22500J0D01*
G01*
X7826100Y-3083560D02*
G75*
G02*
X7871100Y-3083560I22500J0D01*
G01*
X7871100Y-3385820D02*
G75*
G02*
X7826100Y-3385820I-22500J0D01*
G01*
X7826100Y-3385820D02*
G75*
G02*
X7871100Y-3385820I22500J0D01*
G01*
X5160720Y-5073020D02*
X5160720Y-5153020D01*
X5120720Y-5113020D02*
X5200720Y-5113020D01*
X5360720Y-5073020D02*
X5360720Y-5153020D01*
X5320720Y-5113020D02*
X5400720Y-5113020D01*
X5560720Y-5073020D02*
X5560720Y-5153020D01*
X5520720Y-5113020D02*
X5600720Y-5113020D01*
X5760720Y-5073020D02*
X5760720Y-5153020D01*
X5720720Y-5113020D02*
X5800720Y-5113020D01*
D11*
X4730417Y-5619424D02*
X4730417Y-5419424D01*
X4730417Y-5419424D02*
X4778036Y-5419424D01*
X4778036Y-5419424D02*
X4806607Y-5428948D01*
X4806607Y-5428948D02*
X4825655Y-5447995D01*
X4825655Y-5447995D02*
X4835179Y-5467043D01*
X4835179Y-5467043D02*
X4844703Y-5505138D01*
X4844703Y-5505138D02*
X4844703Y-5533710D01*
X4844703Y-5533710D02*
X4835179Y-5571805D01*
X4835179Y-5571805D02*
X4825655Y-5590852D01*
X4825655Y-5590852D02*
X4806607Y-5609900D01*
X4806607Y-5609900D02*
X4778036Y-5619424D01*
X4778036Y-5619424D02*
X4730417Y-5619424D01*
X4930417Y-5619424D02*
X4930417Y-5486090D01*
X4930417Y-5524186D02*
X4939941Y-5505138D01*
X4939941Y-5505138D02*
X4949464Y-5495614D01*
X4949464Y-5495614D02*
X4968512Y-5486090D01*
X4968512Y-5486090D02*
X4987560Y-5486090D01*
X5054226Y-5619424D02*
X5054226Y-5486090D01*
X5054226Y-5419424D02*
X5044703Y-5428948D01*
X5044703Y-5428948D02*
X5054226Y-5438471D01*
X5054226Y-5438471D02*
X5063750Y-5428948D01*
X5063750Y-5428948D02*
X5054226Y-5419424D01*
X5054226Y-5419424D02*
X5054226Y-5438471D01*
X5178036Y-5619424D02*
X5158988Y-5609900D01*
X5158988Y-5609900D02*
X5149464Y-5590852D01*
X5149464Y-5590852D02*
X5149464Y-5419424D01*
X5282798Y-5619424D02*
X5263750Y-5609900D01*
X5263750Y-5609900D02*
X5254226Y-5590852D01*
X5254226Y-5590852D02*
X5254226Y-5419424D01*
X5511369Y-5619424D02*
X5511369Y-5419424D01*
X5511369Y-5419424D02*
X5578036Y-5562281D01*
X5578036Y-5562281D02*
X5644702Y-5419424D01*
X5644702Y-5419424D02*
X5644702Y-5619424D01*
X5825655Y-5619424D02*
X5825655Y-5514662D01*
X5825655Y-5514662D02*
X5816131Y-5495614D01*
X5816131Y-5495614D02*
X5797083Y-5486090D01*
X5797083Y-5486090D02*
X5758988Y-5486090D01*
X5758988Y-5486090D02*
X5739941Y-5495614D01*
X5825655Y-5609900D02*
X5806607Y-5619424D01*
X5806607Y-5619424D02*
X5758988Y-5619424D01*
X5758988Y-5619424D02*
X5739941Y-5609900D01*
X5739941Y-5609900D02*
X5730417Y-5590852D01*
X5730417Y-5590852D02*
X5730417Y-5571805D01*
X5730417Y-5571805D02*
X5739941Y-5552757D01*
X5739941Y-5552757D02*
X5758988Y-5543233D01*
X5758988Y-5543233D02*
X5806607Y-5543233D01*
X5806607Y-5543233D02*
X5825655Y-5533710D01*
X5920893Y-5486090D02*
X5920893Y-5686090D01*
X5920893Y-5495614D02*
X5939941Y-5486090D01*
X5939941Y-5486090D02*
X5978036Y-5486090D01*
X5978036Y-5486090D02*
X5997083Y-5495614D01*
X5997083Y-5495614D02*
X6006607Y-5505138D01*
X6006607Y-5505138D02*
X6016131Y-5524186D01*
X6016131Y-5524186D02*
X6016131Y-5581329D01*
X6016131Y-5581329D02*
X6006607Y-5600376D01*
X6006607Y-5600376D02*
X5997083Y-5609900D01*
X5997083Y-5609900D02*
X5978036Y-5619424D01*
X5978036Y-5619424D02*
X5939941Y-5619424D01*
X5939941Y-5619424D02*
X5920893Y-5609900D01*
X6101845Y-5600376D02*
X6111369Y-5609900D01*
X6111369Y-5609900D02*
X6101845Y-5619424D01*
X6101845Y-5619424D02*
X6092322Y-5609900D01*
X6092322Y-5609900D02*
X6101845Y-5600376D01*
X6101845Y-5600376D02*
X6101845Y-5619424D01*
X6101845Y-5495614D02*
X6111369Y-5505138D01*
X6111369Y-5505138D02*
X6101845Y-5514662D01*
X6101845Y-5514662D02*
X6092322Y-5505138D01*
X6092322Y-5505138D02*
X6101845Y-5495614D01*
X6101845Y-5495614D02*
X6101845Y-5514662D01*
D10*
X4439640Y-5932940D02*
X4469640Y-5962940D01*
X4469640Y-5932940D02*
X4439640Y-5962940D01*
D11*
X4768512Y-5839424D02*
X4787560Y-5839424D01*
X4787560Y-5839424D02*
X4806607Y-5848948D01*
X4806607Y-5848948D02*
X4816131Y-5858471D01*
X4816131Y-5858471D02*
X4825655Y-5877519D01*
X4825655Y-5877519D02*
X4835179Y-5915614D01*
X4835179Y-5915614D02*
X4835179Y-5963233D01*
X4835179Y-5963233D02*
X4825655Y-6001328D01*
X4825655Y-6001328D02*
X4816131Y-6020376D01*
X4816131Y-6020376D02*
X4806607Y-6029900D01*
X4806607Y-6029900D02*
X4787560Y-6039424D01*
X4787560Y-6039424D02*
X4768512Y-6039424D01*
X4768512Y-6039424D02*
X4749464Y-6029900D01*
X4749464Y-6029900D02*
X4739941Y-6020376D01*
X4739941Y-6020376D02*
X4730417Y-6001328D01*
X4730417Y-6001328D02*
X4720893Y-5963233D01*
X4720893Y-5963233D02*
X4720893Y-5915614D01*
X4720893Y-5915614D02*
X4730417Y-5877519D01*
X4730417Y-5877519D02*
X4739941Y-5858471D01*
X4739941Y-5858471D02*
X4749464Y-5848948D01*
X4749464Y-5848948D02*
X4768512Y-5839424D01*
X4920893Y-6020376D02*
X4930417Y-6029900D01*
X4930417Y-6029900D02*
X4920893Y-6039424D01*
X4920893Y-6039424D02*
X4911369Y-6029900D01*
X4911369Y-6029900D02*
X4920893Y-6020376D01*
X4920893Y-6020376D02*
X4920893Y-6039424D01*
X4997084Y-5839424D02*
X5120893Y-5839424D01*
X5120893Y-5839424D02*
X5054226Y-5915614D01*
X5054226Y-5915614D02*
X5082798Y-5915614D01*
X5082798Y-5915614D02*
X5101845Y-5925138D01*
X5101845Y-5925138D02*
X5111369Y-5934662D01*
X5111369Y-5934662D02*
X5120893Y-5953709D01*
X5120893Y-5953709D02*
X5120893Y-6001328D01*
X5120893Y-6001328D02*
X5111369Y-6020376D01*
X5111369Y-6020376D02*
X5101845Y-6029900D01*
X5101845Y-6029900D02*
X5082798Y-6039424D01*
X5082798Y-6039424D02*
X5025655Y-6039424D01*
X5025655Y-6039424D02*
X5006607Y-6029900D01*
X5006607Y-6029900D02*
X4997084Y-6020376D01*
X5244703Y-5839424D02*
X5263750Y-5839424D01*
X5263750Y-5839424D02*
X5282798Y-5848948D01*
X5282798Y-5848948D02*
X5292322Y-5858471D01*
X5292322Y-5858471D02*
X5301845Y-5877519D01*
X5301845Y-5877519D02*
X5311369Y-5915614D01*
X5311369Y-5915614D02*
X5311369Y-5963233D01*
X5311369Y-5963233D02*
X5301845Y-6001328D01*
X5301845Y-6001328D02*
X5292322Y-6020376D01*
X5292322Y-6020376D02*
X5282798Y-6029900D01*
X5282798Y-6029900D02*
X5263750Y-6039424D01*
X5263750Y-6039424D02*
X5244703Y-6039424D01*
X5244703Y-6039424D02*
X5225655Y-6029900D01*
X5225655Y-6029900D02*
X5216131Y-6020376D01*
X5216131Y-6020376D02*
X5206607Y-6001328D01*
X5206607Y-6001328D02*
X5197084Y-5963233D01*
X5197084Y-5963233D02*
X5197084Y-5915614D01*
X5197084Y-5915614D02*
X5206607Y-5877519D01*
X5206607Y-5877519D02*
X5216131Y-5858471D01*
X5216131Y-5858471D02*
X5225655Y-5848948D01*
X5225655Y-5848948D02*
X5244703Y-5839424D01*
X5435179Y-5839424D02*
X5454226Y-5839424D01*
X5454226Y-5839424D02*
X5473274Y-5848948D01*
X5473274Y-5848948D02*
X5482798Y-5858471D01*
X5482798Y-5858471D02*
X5492322Y-5877519D01*
X5492322Y-5877519D02*
X5501845Y-5915614D01*
X5501845Y-5915614D02*
X5501845Y-5963233D01*
X5501845Y-5963233D02*
X5492322Y-6001328D01*
X5492322Y-6001328D02*
X5482798Y-6020376D01*
X5482798Y-6020376D02*
X5473274Y-6029900D01*
X5473274Y-6029900D02*
X5454226Y-6039424D01*
X5454226Y-6039424D02*
X5435179Y-6039424D01*
X5435179Y-6039424D02*
X5416131Y-6029900D01*
X5416131Y-6029900D02*
X5406607Y-6020376D01*
X5406607Y-6020376D02*
X5397084Y-6001328D01*
X5397084Y-6001328D02*
X5387560Y-5963233D01*
X5387560Y-5963233D02*
X5387560Y-5915614D01*
X5387560Y-5915614D02*
X5397084Y-5877519D01*
X5397084Y-5877519D02*
X5406607Y-5858471D01*
X5406607Y-5858471D02*
X5416131Y-5848948D01*
X5416131Y-5848948D02*
X5435179Y-5839424D01*
X5587560Y-6039424D02*
X5587560Y-5906090D01*
X5587560Y-5925138D02*
X5597083Y-5915614D01*
X5597083Y-5915614D02*
X5616131Y-5906090D01*
X5616131Y-5906090D02*
X5644703Y-5906090D01*
X5644703Y-5906090D02*
X5663750Y-5915614D01*
X5663750Y-5915614D02*
X5673274Y-5934662D01*
X5673274Y-5934662D02*
X5673274Y-6039424D01*
X5673274Y-5934662D02*
X5682798Y-5915614D01*
X5682798Y-5915614D02*
X5701845Y-5906090D01*
X5701845Y-5906090D02*
X5730417Y-5906090D01*
X5730417Y-5906090D02*
X5749464Y-5915614D01*
X5749464Y-5915614D02*
X5758988Y-5934662D01*
X5758988Y-5934662D02*
X5758988Y-6039424D01*
X5854226Y-6039424D02*
X5854226Y-5906090D01*
X5854226Y-5925138D02*
X5863750Y-5915614D01*
X5863750Y-5915614D02*
X5882798Y-5906090D01*
X5882798Y-5906090D02*
X5911369Y-5906090D01*
X5911369Y-5906090D02*
X5930417Y-5915614D01*
X5930417Y-5915614D02*
X5939941Y-5934662D01*
X5939941Y-5934662D02*
X5939941Y-6039424D01*
X5939941Y-5934662D02*
X5949464Y-5915614D01*
X5949464Y-5915614D02*
X5968512Y-5906090D01*
X5968512Y-5906090D02*
X5997083Y-5906090D01*
X5997083Y-5906090D02*
X6016131Y-5915614D01*
X6016131Y-5915614D02*
X6025655Y-5934662D01*
X6025655Y-5934662D02*
X6025655Y-6039424D01*
X6416131Y-5829900D02*
X6244703Y-6087043D01*
X6673274Y-5839424D02*
X6692322Y-5839424D01*
X6692322Y-5839424D02*
X6711369Y-5848948D01*
X6711369Y-5848948D02*
X6720893Y-5858471D01*
X6720893Y-5858471D02*
X6730417Y-5877519D01*
X6730417Y-5877519D02*
X6739941Y-5915614D01*
X6739941Y-5915614D02*
X6739941Y-5963233D01*
X6739941Y-5963233D02*
X6730417Y-6001328D01*
X6730417Y-6001328D02*
X6720893Y-6020376D01*
X6720893Y-6020376D02*
X6711369Y-6029900D01*
X6711369Y-6029900D02*
X6692322Y-6039424D01*
X6692322Y-6039424D02*
X6673274Y-6039424D01*
X6673274Y-6039424D02*
X6654226Y-6029900D01*
X6654226Y-6029900D02*
X6644703Y-6020376D01*
X6644703Y-6020376D02*
X6635179Y-6001328D01*
X6635179Y-6001328D02*
X6625655Y-5963233D01*
X6625655Y-5963233D02*
X6625655Y-5915614D01*
X6625655Y-5915614D02*
X6635179Y-5877519D01*
X6635179Y-5877519D02*
X6644703Y-5858471D01*
X6644703Y-5858471D02*
X6654226Y-5848948D01*
X6654226Y-5848948D02*
X6673274Y-5839424D01*
X6825655Y-6020376D02*
X6835179Y-6029900D01*
X6835179Y-6029900D02*
X6825655Y-6039424D01*
X6825655Y-6039424D02*
X6816131Y-6029900D01*
X6816131Y-6029900D02*
X6825655Y-6020376D01*
X6825655Y-6020376D02*
X6825655Y-6039424D01*
X6958988Y-5839424D02*
X6978036Y-5839424D01*
X6978036Y-5839424D02*
X6997084Y-5848948D01*
X6997084Y-5848948D02*
X7006607Y-5858471D01*
X7006607Y-5858471D02*
X7016131Y-5877519D01*
X7016131Y-5877519D02*
X7025655Y-5915614D01*
X7025655Y-5915614D02*
X7025655Y-5963233D01*
X7025655Y-5963233D02*
X7016131Y-6001328D01*
X7016131Y-6001328D02*
X7006607Y-6020376D01*
X7006607Y-6020376D02*
X6997084Y-6029900D01*
X6997084Y-6029900D02*
X6978036Y-6039424D01*
X6978036Y-6039424D02*
X6958988Y-6039424D01*
X6958988Y-6039424D02*
X6939941Y-6029900D01*
X6939941Y-6029900D02*
X6930417Y-6020376D01*
X6930417Y-6020376D02*
X6920893Y-6001328D01*
X6920893Y-6001328D02*
X6911369Y-5963233D01*
X6911369Y-5963233D02*
X6911369Y-5915614D01*
X6911369Y-5915614D02*
X6920893Y-5877519D01*
X6920893Y-5877519D02*
X6930417Y-5858471D01*
X6930417Y-5858471D02*
X6939941Y-5848948D01*
X6939941Y-5848948D02*
X6958988Y-5839424D01*
X7216131Y-6039424D02*
X7101846Y-6039424D01*
X7158988Y-6039424D02*
X7158988Y-5839424D01*
X7158988Y-5839424D02*
X7139941Y-5867995D01*
X7139941Y-5867995D02*
X7120893Y-5887043D01*
X7120893Y-5887043D02*
X7101846Y-5896567D01*
X7406607Y-6039424D02*
X7292322Y-6039424D01*
X7349465Y-6039424D02*
X7349465Y-5839424D01*
X7349465Y-5839424D02*
X7330417Y-5867995D01*
X7330417Y-5867995D02*
X7311369Y-5887043D01*
X7311369Y-5887043D02*
X7292322Y-5896567D01*
X7520893Y-5925138D02*
X7501846Y-5915614D01*
X7501846Y-5915614D02*
X7492322Y-5906090D01*
X7492322Y-5906090D02*
X7482798Y-5887043D01*
X7482798Y-5887043D02*
X7482798Y-5877519D01*
X7482798Y-5877519D02*
X7492322Y-5858471D01*
X7492322Y-5858471D02*
X7501846Y-5848948D01*
X7501846Y-5848948D02*
X7520893Y-5839424D01*
X7520893Y-5839424D02*
X7558988Y-5839424D01*
X7558988Y-5839424D02*
X7578036Y-5848948D01*
X7578036Y-5848948D02*
X7587560Y-5858471D01*
X7587560Y-5858471D02*
X7597084Y-5877519D01*
X7597084Y-5877519D02*
X7597084Y-5887043D01*
X7597084Y-5887043D02*
X7587560Y-5906090D01*
X7587560Y-5906090D02*
X7578036Y-5915614D01*
X7578036Y-5915614D02*
X7558988Y-5925138D01*
X7558988Y-5925138D02*
X7520893Y-5925138D01*
X7520893Y-5925138D02*
X7501846Y-5934662D01*
X7501846Y-5934662D02*
X7492322Y-5944186D01*
X7492322Y-5944186D02*
X7482798Y-5963233D01*
X7482798Y-5963233D02*
X7482798Y-6001328D01*
X7482798Y-6001328D02*
X7492322Y-6020376D01*
X7492322Y-6020376D02*
X7501846Y-6029900D01*
X7501846Y-6029900D02*
X7520893Y-6039424D01*
X7520893Y-6039424D02*
X7558988Y-6039424D01*
X7558988Y-6039424D02*
X7578036Y-6029900D01*
X7578036Y-6029900D02*
X7587560Y-6020376D01*
X7587560Y-6020376D02*
X7597084Y-6001328D01*
X7597084Y-6001328D02*
X7597084Y-5963233D01*
X7597084Y-5963233D02*
X7587560Y-5944186D01*
X7587560Y-5944186D02*
X7578036Y-5934662D01*
X7578036Y-5934662D02*
X7558988Y-5925138D01*
X7673274Y-5839424D02*
X7673274Y-5877519D01*
X7749465Y-5839424D02*
X7749465Y-5877519D01*
X8044703Y-6115614D02*
X8035179Y-6106090D01*
X8035179Y-6106090D02*
X8016131Y-6077519D01*
X8016131Y-6077519D02*
X8006608Y-6058471D01*
X8006608Y-6058471D02*
X7997084Y-6029900D01*
X7997084Y-6029900D02*
X7987560Y-5982281D01*
X7987560Y-5982281D02*
X7987560Y-5944186D01*
X7987560Y-5944186D02*
X7997084Y-5896567D01*
X7997084Y-5896567D02*
X8006608Y-5867995D01*
X8006608Y-5867995D02*
X8016131Y-5848948D01*
X8016131Y-5848948D02*
X8035179Y-5820376D01*
X8035179Y-5820376D02*
X8044703Y-5810852D01*
X8225655Y-6039424D02*
X8111369Y-6039424D01*
X8168512Y-6039424D02*
X8168512Y-5839424D01*
X8168512Y-5839424D02*
X8149465Y-5867995D01*
X8149465Y-5867995D02*
X8130417Y-5887043D01*
X8130417Y-5887043D02*
X8111369Y-5896567D01*
X8463751Y-6039424D02*
X8463751Y-5839424D01*
X8549465Y-6039424D02*
X8549465Y-5934662D01*
X8549465Y-5934662D02*
X8539941Y-5915614D01*
X8539941Y-5915614D02*
X8520893Y-5906090D01*
X8520893Y-5906090D02*
X8492322Y-5906090D01*
X8492322Y-5906090D02*
X8473274Y-5915614D01*
X8473274Y-5915614D02*
X8463751Y-5925138D01*
X8673274Y-6039424D02*
X8654227Y-6029900D01*
X8654227Y-6029900D02*
X8644703Y-6020376D01*
X8644703Y-6020376D02*
X8635179Y-6001328D01*
X8635179Y-6001328D02*
X8635179Y-5944186D01*
X8635179Y-5944186D02*
X8644703Y-5925138D01*
X8644703Y-5925138D02*
X8654227Y-5915614D01*
X8654227Y-5915614D02*
X8673274Y-5906090D01*
X8673274Y-5906090D02*
X8701846Y-5906090D01*
X8701846Y-5906090D02*
X8720893Y-5915614D01*
X8720893Y-5915614D02*
X8730417Y-5925138D01*
X8730417Y-5925138D02*
X8739941Y-5944186D01*
X8739941Y-5944186D02*
X8739941Y-6001328D01*
X8739941Y-6001328D02*
X8730417Y-6020376D01*
X8730417Y-6020376D02*
X8720893Y-6029900D01*
X8720893Y-6029900D02*
X8701846Y-6039424D01*
X8701846Y-6039424D02*
X8673274Y-6039424D01*
X8854227Y-6039424D02*
X8835179Y-6029900D01*
X8835179Y-6029900D02*
X8825655Y-6010852D01*
X8825655Y-6010852D02*
X8825655Y-5839424D01*
X9006608Y-6029900D02*
X8987560Y-6039424D01*
X8987560Y-6039424D02*
X8949465Y-6039424D01*
X8949465Y-6039424D02*
X8930417Y-6029900D01*
X8930417Y-6029900D02*
X8920893Y-6010852D01*
X8920893Y-6010852D02*
X8920893Y-5934662D01*
X8920893Y-5934662D02*
X8930417Y-5915614D01*
X8930417Y-5915614D02*
X8949465Y-5906090D01*
X8949465Y-5906090D02*
X8987560Y-5906090D01*
X8987560Y-5906090D02*
X9006608Y-5915614D01*
X9006608Y-5915614D02*
X9016132Y-5934662D01*
X9016132Y-5934662D02*
X9016132Y-5953709D01*
X9016132Y-5953709D02*
X8920893Y-5972757D01*
X9082798Y-6115614D02*
X9092322Y-6106090D01*
X9092322Y-6106090D02*
X9111370Y-6077519D01*
X9111370Y-6077519D02*
X9120893Y-6058471D01*
X9120893Y-6058471D02*
X9130417Y-6029900D01*
X9130417Y-6029900D02*
X9139941Y-5982281D01*
X9139941Y-5982281D02*
X9139941Y-5944186D01*
X9139941Y-5944186D02*
X9130417Y-5896567D01*
X9130417Y-5896567D02*
X9120893Y-5867995D01*
X9120893Y-5867995D02*
X9111370Y-5848948D01*
X9111370Y-5848948D02*
X9092322Y-5820376D01*
X9092322Y-5820376D02*
X9082798Y-5810852D01*
D10*
X4469640Y-6211940D02*
G75*
G02*
X4424640Y-6211940I-22500J0D01*
G01*
X4424640Y-6211940D02*
G75*
G02*
X4469640Y-6211940I22500J0D01*
G01*
D11*
X4768512Y-6103424D02*
X4787560Y-6103424D01*
X4787560Y-6103424D02*
X4806607Y-6112948D01*
X4806607Y-6112948D02*
X4816131Y-6122471D01*
X4816131Y-6122471D02*
X4825655Y-6141519D01*
X4825655Y-6141519D02*
X4835179Y-6179614D01*
X4835179Y-6179614D02*
X4835179Y-6227233D01*
X4835179Y-6227233D02*
X4825655Y-6265328D01*
X4825655Y-6265328D02*
X4816131Y-6284376D01*
X4816131Y-6284376D02*
X4806607Y-6293900D01*
X4806607Y-6293900D02*
X4787560Y-6303424D01*
X4787560Y-6303424D02*
X4768512Y-6303424D01*
X4768512Y-6303424D02*
X4749464Y-6293900D01*
X4749464Y-6293900D02*
X4739941Y-6284376D01*
X4739941Y-6284376D02*
X4730417Y-6265328D01*
X4730417Y-6265328D02*
X4720893Y-6227233D01*
X4720893Y-6227233D02*
X4720893Y-6179614D01*
X4720893Y-6179614D02*
X4730417Y-6141519D01*
X4730417Y-6141519D02*
X4739941Y-6122471D01*
X4739941Y-6122471D02*
X4749464Y-6112948D01*
X4749464Y-6112948D02*
X4768512Y-6103424D01*
X4920893Y-6284376D02*
X4930417Y-6293900D01*
X4930417Y-6293900D02*
X4920893Y-6303424D01*
X4920893Y-6303424D02*
X4911369Y-6293900D01*
X4911369Y-6293900D02*
X4920893Y-6284376D01*
X4920893Y-6284376D02*
X4920893Y-6303424D01*
X5101845Y-6170090D02*
X5101845Y-6303424D01*
X5054226Y-6093900D02*
X5006607Y-6236757D01*
X5006607Y-6236757D02*
X5130417Y-6236757D01*
X5301845Y-6103424D02*
X5206607Y-6103424D01*
X5206607Y-6103424D02*
X5197084Y-6198662D01*
X5197084Y-6198662D02*
X5206607Y-6189138D01*
X5206607Y-6189138D02*
X5225655Y-6179614D01*
X5225655Y-6179614D02*
X5273274Y-6179614D01*
X5273274Y-6179614D02*
X5292322Y-6189138D01*
X5292322Y-6189138D02*
X5301845Y-6198662D01*
X5301845Y-6198662D02*
X5311369Y-6217709D01*
X5311369Y-6217709D02*
X5311369Y-6265328D01*
X5311369Y-6265328D02*
X5301845Y-6284376D01*
X5301845Y-6284376D02*
X5292322Y-6293900D01*
X5292322Y-6293900D02*
X5273274Y-6303424D01*
X5273274Y-6303424D02*
X5225655Y-6303424D01*
X5225655Y-6303424D02*
X5206607Y-6293900D01*
X5206607Y-6293900D02*
X5197084Y-6284376D01*
X5435179Y-6103424D02*
X5454226Y-6103424D01*
X5454226Y-6103424D02*
X5473274Y-6112948D01*
X5473274Y-6112948D02*
X5482798Y-6122471D01*
X5482798Y-6122471D02*
X5492322Y-6141519D01*
X5492322Y-6141519D02*
X5501845Y-6179614D01*
X5501845Y-6179614D02*
X5501845Y-6227233D01*
X5501845Y-6227233D02*
X5492322Y-6265328D01*
X5492322Y-6265328D02*
X5482798Y-6284376D01*
X5482798Y-6284376D02*
X5473274Y-6293900D01*
X5473274Y-6293900D02*
X5454226Y-6303424D01*
X5454226Y-6303424D02*
X5435179Y-6303424D01*
X5435179Y-6303424D02*
X5416131Y-6293900D01*
X5416131Y-6293900D02*
X5406607Y-6284376D01*
X5406607Y-6284376D02*
X5397084Y-6265328D01*
X5397084Y-6265328D02*
X5387560Y-6227233D01*
X5387560Y-6227233D02*
X5387560Y-6179614D01*
X5387560Y-6179614D02*
X5397084Y-6141519D01*
X5397084Y-6141519D02*
X5406607Y-6122471D01*
X5406607Y-6122471D02*
X5416131Y-6112948D01*
X5416131Y-6112948D02*
X5435179Y-6103424D01*
X5587560Y-6303424D02*
X5587560Y-6170090D01*
X5587560Y-6189138D02*
X5597083Y-6179614D01*
X5597083Y-6179614D02*
X5616131Y-6170090D01*
X5616131Y-6170090D02*
X5644703Y-6170090D01*
X5644703Y-6170090D02*
X5663750Y-6179614D01*
X5663750Y-6179614D02*
X5673274Y-6198662D01*
X5673274Y-6198662D02*
X5673274Y-6303424D01*
X5673274Y-6198662D02*
X5682798Y-6179614D01*
X5682798Y-6179614D02*
X5701845Y-6170090D01*
X5701845Y-6170090D02*
X5730417Y-6170090D01*
X5730417Y-6170090D02*
X5749464Y-6179614D01*
X5749464Y-6179614D02*
X5758988Y-6198662D01*
X5758988Y-6198662D02*
X5758988Y-6303424D01*
X5854226Y-6303424D02*
X5854226Y-6170090D01*
X5854226Y-6189138D02*
X5863750Y-6179614D01*
X5863750Y-6179614D02*
X5882798Y-6170090D01*
X5882798Y-6170090D02*
X5911369Y-6170090D01*
X5911369Y-6170090D02*
X5930417Y-6179614D01*
X5930417Y-6179614D02*
X5939941Y-6198662D01*
X5939941Y-6198662D02*
X5939941Y-6303424D01*
X5939941Y-6198662D02*
X5949464Y-6179614D01*
X5949464Y-6179614D02*
X5968512Y-6170090D01*
X5968512Y-6170090D02*
X5997083Y-6170090D01*
X5997083Y-6170090D02*
X6016131Y-6179614D01*
X6016131Y-6179614D02*
X6025655Y-6198662D01*
X6025655Y-6198662D02*
X6025655Y-6303424D01*
X6416131Y-6093900D02*
X6244703Y-6351043D01*
X6673274Y-6103424D02*
X6692322Y-6103424D01*
X6692322Y-6103424D02*
X6711369Y-6112948D01*
X6711369Y-6112948D02*
X6720893Y-6122471D01*
X6720893Y-6122471D02*
X6730417Y-6141519D01*
X6730417Y-6141519D02*
X6739941Y-6179614D01*
X6739941Y-6179614D02*
X6739941Y-6227233D01*
X6739941Y-6227233D02*
X6730417Y-6265328D01*
X6730417Y-6265328D02*
X6720893Y-6284376D01*
X6720893Y-6284376D02*
X6711369Y-6293900D01*
X6711369Y-6293900D02*
X6692322Y-6303424D01*
X6692322Y-6303424D02*
X6673274Y-6303424D01*
X6673274Y-6303424D02*
X6654226Y-6293900D01*
X6654226Y-6293900D02*
X6644703Y-6284376D01*
X6644703Y-6284376D02*
X6635179Y-6265328D01*
X6635179Y-6265328D02*
X6625655Y-6227233D01*
X6625655Y-6227233D02*
X6625655Y-6179614D01*
X6625655Y-6179614D02*
X6635179Y-6141519D01*
X6635179Y-6141519D02*
X6644703Y-6122471D01*
X6644703Y-6122471D02*
X6654226Y-6112948D01*
X6654226Y-6112948D02*
X6673274Y-6103424D01*
X6825655Y-6284376D02*
X6835179Y-6293900D01*
X6835179Y-6293900D02*
X6825655Y-6303424D01*
X6825655Y-6303424D02*
X6816131Y-6293900D01*
X6816131Y-6293900D02*
X6825655Y-6284376D01*
X6825655Y-6284376D02*
X6825655Y-6303424D01*
X6958988Y-6103424D02*
X6978036Y-6103424D01*
X6978036Y-6103424D02*
X6997084Y-6112948D01*
X6997084Y-6112948D02*
X7006607Y-6122471D01*
X7006607Y-6122471D02*
X7016131Y-6141519D01*
X7016131Y-6141519D02*
X7025655Y-6179614D01*
X7025655Y-6179614D02*
X7025655Y-6227233D01*
X7025655Y-6227233D02*
X7016131Y-6265328D01*
X7016131Y-6265328D02*
X7006607Y-6284376D01*
X7006607Y-6284376D02*
X6997084Y-6293900D01*
X6997084Y-6293900D02*
X6978036Y-6303424D01*
X6978036Y-6303424D02*
X6958988Y-6303424D01*
X6958988Y-6303424D02*
X6939941Y-6293900D01*
X6939941Y-6293900D02*
X6930417Y-6284376D01*
X6930417Y-6284376D02*
X6920893Y-6265328D01*
X6920893Y-6265328D02*
X6911369Y-6227233D01*
X6911369Y-6227233D02*
X6911369Y-6179614D01*
X6911369Y-6179614D02*
X6920893Y-6141519D01*
X6920893Y-6141519D02*
X6930417Y-6122471D01*
X6930417Y-6122471D02*
X6939941Y-6112948D01*
X6939941Y-6112948D02*
X6958988Y-6103424D01*
X7216131Y-6303424D02*
X7101846Y-6303424D01*
X7158988Y-6303424D02*
X7158988Y-6103424D01*
X7158988Y-6103424D02*
X7139941Y-6131995D01*
X7139941Y-6131995D02*
X7120893Y-6151043D01*
X7120893Y-6151043D02*
X7101846Y-6160567D01*
X7282798Y-6103424D02*
X7416131Y-6103424D01*
X7416131Y-6103424D02*
X7330417Y-6303424D01*
X7473274Y-6103424D02*
X7606607Y-6103424D01*
X7606607Y-6103424D02*
X7520893Y-6303424D01*
X7673274Y-6103424D02*
X7673274Y-6141519D01*
X7749465Y-6103424D02*
X7749465Y-6141519D01*
X8044703Y-6379614D02*
X8035179Y-6370090D01*
X8035179Y-6370090D02*
X8016131Y-6341519D01*
X8016131Y-6341519D02*
X8006608Y-6322471D01*
X8006608Y-6322471D02*
X7997084Y-6293900D01*
X7997084Y-6293900D02*
X7987560Y-6246281D01*
X7987560Y-6246281D02*
X7987560Y-6208186D01*
X7987560Y-6208186D02*
X7997084Y-6160567D01*
X7997084Y-6160567D02*
X8006608Y-6131995D01*
X8006608Y-6131995D02*
X8016131Y-6112948D01*
X8016131Y-6112948D02*
X8035179Y-6084376D01*
X8035179Y-6084376D02*
X8044703Y-6074852D01*
X8206608Y-6103424D02*
X8168512Y-6103424D01*
X8168512Y-6103424D02*
X8149465Y-6112948D01*
X8149465Y-6112948D02*
X8139941Y-6122471D01*
X8139941Y-6122471D02*
X8120893Y-6151043D01*
X8120893Y-6151043D02*
X8111369Y-6189138D01*
X8111369Y-6189138D02*
X8111369Y-6265328D01*
X8111369Y-6265328D02*
X8120893Y-6284376D01*
X8120893Y-6284376D02*
X8130417Y-6293900D01*
X8130417Y-6293900D02*
X8149465Y-6303424D01*
X8149465Y-6303424D02*
X8187560Y-6303424D01*
X8187560Y-6303424D02*
X8206608Y-6293900D01*
X8206608Y-6293900D02*
X8216131Y-6284376D01*
X8216131Y-6284376D02*
X8225655Y-6265328D01*
X8225655Y-6265328D02*
X8225655Y-6217709D01*
X8225655Y-6217709D02*
X8216131Y-6198662D01*
X8216131Y-6198662D02*
X8206608Y-6189138D01*
X8206608Y-6189138D02*
X8187560Y-6179614D01*
X8187560Y-6179614D02*
X8149465Y-6179614D01*
X8149465Y-6179614D02*
X8130417Y-6189138D01*
X8130417Y-6189138D02*
X8120893Y-6198662D01*
X8120893Y-6198662D02*
X8111369Y-6217709D01*
X8463751Y-6303424D02*
X8463751Y-6103424D01*
X8549465Y-6303424D02*
X8549465Y-6198662D01*
X8549465Y-6198662D02*
X8539941Y-6179614D01*
X8539941Y-6179614D02*
X8520893Y-6170090D01*
X8520893Y-6170090D02*
X8492322Y-6170090D01*
X8492322Y-6170090D02*
X8473274Y-6179614D01*
X8473274Y-6179614D02*
X8463751Y-6189138D01*
X8673274Y-6303424D02*
X8654227Y-6293900D01*
X8654227Y-6293900D02*
X8644703Y-6284376D01*
X8644703Y-6284376D02*
X8635179Y-6265328D01*
X8635179Y-6265328D02*
X8635179Y-6208186D01*
X8635179Y-6208186D02*
X8644703Y-6189138D01*
X8644703Y-6189138D02*
X8654227Y-6179614D01*
X8654227Y-6179614D02*
X8673274Y-6170090D01*
X8673274Y-6170090D02*
X8701846Y-6170090D01*
X8701846Y-6170090D02*
X8720893Y-6179614D01*
X8720893Y-6179614D02*
X8730417Y-6189138D01*
X8730417Y-6189138D02*
X8739941Y-6208186D01*
X8739941Y-6208186D02*
X8739941Y-6265328D01*
X8739941Y-6265328D02*
X8730417Y-6284376D01*
X8730417Y-6284376D02*
X8720893Y-6293900D01*
X8720893Y-6293900D02*
X8701846Y-6303424D01*
X8701846Y-6303424D02*
X8673274Y-6303424D01*
X8854227Y-6303424D02*
X8835179Y-6293900D01*
X8835179Y-6293900D02*
X8825655Y-6274852D01*
X8825655Y-6274852D02*
X8825655Y-6103424D01*
X9006608Y-6293900D02*
X8987560Y-6303424D01*
X8987560Y-6303424D02*
X8949465Y-6303424D01*
X8949465Y-6303424D02*
X8930417Y-6293900D01*
X8930417Y-6293900D02*
X8920893Y-6274852D01*
X8920893Y-6274852D02*
X8920893Y-6198662D01*
X8920893Y-6198662D02*
X8930417Y-6179614D01*
X8930417Y-6179614D02*
X8949465Y-6170090D01*
X8949465Y-6170090D02*
X8987560Y-6170090D01*
X8987560Y-6170090D02*
X9006608Y-6179614D01*
X9006608Y-6179614D02*
X9016132Y-6198662D01*
X9016132Y-6198662D02*
X9016132Y-6217709D01*
X9016132Y-6217709D02*
X8920893Y-6236757D01*
X9092322Y-6293900D02*
X9111370Y-6303424D01*
X9111370Y-6303424D02*
X9149465Y-6303424D01*
X9149465Y-6303424D02*
X9168513Y-6293900D01*
X9168513Y-6293900D02*
X9178036Y-6274852D01*
X9178036Y-6274852D02*
X9178036Y-6265328D01*
X9178036Y-6265328D02*
X9168513Y-6246281D01*
X9168513Y-6246281D02*
X9149465Y-6236757D01*
X9149465Y-6236757D02*
X9120893Y-6236757D01*
X9120893Y-6236757D02*
X9101846Y-6227233D01*
X9101846Y-6227233D02*
X9092322Y-6208186D01*
X9092322Y-6208186D02*
X9092322Y-6198662D01*
X9092322Y-6198662D02*
X9101846Y-6179614D01*
X9101846Y-6179614D02*
X9120893Y-6170090D01*
X9120893Y-6170090D02*
X9149465Y-6170090D01*
X9149465Y-6170090D02*
X9168513Y-6179614D01*
X9244703Y-6379614D02*
X9254227Y-6370090D01*
X9254227Y-6370090D02*
X9273274Y-6341519D01*
X9273274Y-6341519D02*
X9282798Y-6322471D01*
X9282798Y-6322471D02*
X9292322Y-6293900D01*
X9292322Y-6293900D02*
X9301846Y-6246281D01*
X9301846Y-6246281D02*
X9301846Y-6208186D01*
X9301846Y-6208186D02*
X9292322Y-6160567D01*
X9292322Y-6160567D02*
X9282798Y-6131995D01*
X9282798Y-6131995D02*
X9273274Y-6112948D01*
X9273274Y-6112948D02*
X9254227Y-6084376D01*
X9254227Y-6084376D02*
X9244703Y-6074852D01*
D10*
X4429640Y-6435940D02*
X4429640Y-6515940D01*
X4389640Y-6475940D02*
X4469640Y-6475940D01*
D11*
X4768512Y-6367424D02*
X4787560Y-6367424D01*
X4787560Y-6367424D02*
X4806607Y-6376948D01*
X4806607Y-6376948D02*
X4816131Y-6386471D01*
X4816131Y-6386471D02*
X4825655Y-6405519D01*
X4825655Y-6405519D02*
X4835179Y-6443614D01*
X4835179Y-6443614D02*
X4835179Y-6491233D01*
X4835179Y-6491233D02*
X4825655Y-6529328D01*
X4825655Y-6529328D02*
X4816131Y-6548376D01*
X4816131Y-6548376D02*
X4806607Y-6557900D01*
X4806607Y-6557900D02*
X4787560Y-6567424D01*
X4787560Y-6567424D02*
X4768512Y-6567424D01*
X4768512Y-6567424D02*
X4749464Y-6557900D01*
X4749464Y-6557900D02*
X4739941Y-6548376D01*
X4739941Y-6548376D02*
X4730417Y-6529328D01*
X4730417Y-6529328D02*
X4720893Y-6491233D01*
X4720893Y-6491233D02*
X4720893Y-6443614D01*
X4720893Y-6443614D02*
X4730417Y-6405519D01*
X4730417Y-6405519D02*
X4739941Y-6386471D01*
X4739941Y-6386471D02*
X4749464Y-6376948D01*
X4749464Y-6376948D02*
X4768512Y-6367424D01*
X4920893Y-6548376D02*
X4930417Y-6557900D01*
X4930417Y-6557900D02*
X4920893Y-6567424D01*
X4920893Y-6567424D02*
X4911369Y-6557900D01*
X4911369Y-6557900D02*
X4920893Y-6548376D01*
X4920893Y-6548376D02*
X4920893Y-6567424D01*
X5044703Y-6453138D02*
X5025655Y-6443614D01*
X5025655Y-6443614D02*
X5016131Y-6434090D01*
X5016131Y-6434090D02*
X5006607Y-6415043D01*
X5006607Y-6415043D02*
X5006607Y-6405519D01*
X5006607Y-6405519D02*
X5016131Y-6386471D01*
X5016131Y-6386471D02*
X5025655Y-6376948D01*
X5025655Y-6376948D02*
X5044703Y-6367424D01*
X5044703Y-6367424D02*
X5082798Y-6367424D01*
X5082798Y-6367424D02*
X5101845Y-6376948D01*
X5101845Y-6376948D02*
X5111369Y-6386471D01*
X5111369Y-6386471D02*
X5120893Y-6405519D01*
X5120893Y-6405519D02*
X5120893Y-6415043D01*
X5120893Y-6415043D02*
X5111369Y-6434090D01*
X5111369Y-6434090D02*
X5101845Y-6443614D01*
X5101845Y-6443614D02*
X5082798Y-6453138D01*
X5082798Y-6453138D02*
X5044703Y-6453138D01*
X5044703Y-6453138D02*
X5025655Y-6462662D01*
X5025655Y-6462662D02*
X5016131Y-6472186D01*
X5016131Y-6472186D02*
X5006607Y-6491233D01*
X5006607Y-6491233D02*
X5006607Y-6529328D01*
X5006607Y-6529328D02*
X5016131Y-6548376D01*
X5016131Y-6548376D02*
X5025655Y-6557900D01*
X5025655Y-6557900D02*
X5044703Y-6567424D01*
X5044703Y-6567424D02*
X5082798Y-6567424D01*
X5082798Y-6567424D02*
X5101845Y-6557900D01*
X5101845Y-6557900D02*
X5111369Y-6548376D01*
X5111369Y-6548376D02*
X5120893Y-6529328D01*
X5120893Y-6529328D02*
X5120893Y-6491233D01*
X5120893Y-6491233D02*
X5111369Y-6472186D01*
X5111369Y-6472186D02*
X5101845Y-6462662D01*
X5101845Y-6462662D02*
X5082798Y-6453138D01*
X5244703Y-6367424D02*
X5263750Y-6367424D01*
X5263750Y-6367424D02*
X5282798Y-6376948D01*
X5282798Y-6376948D02*
X5292322Y-6386471D01*
X5292322Y-6386471D02*
X5301845Y-6405519D01*
X5301845Y-6405519D02*
X5311369Y-6443614D01*
X5311369Y-6443614D02*
X5311369Y-6491233D01*
X5311369Y-6491233D02*
X5301845Y-6529328D01*
X5301845Y-6529328D02*
X5292322Y-6548376D01*
X5292322Y-6548376D02*
X5282798Y-6557900D01*
X5282798Y-6557900D02*
X5263750Y-6567424D01*
X5263750Y-6567424D02*
X5244703Y-6567424D01*
X5244703Y-6567424D02*
X5225655Y-6557900D01*
X5225655Y-6557900D02*
X5216131Y-6548376D01*
X5216131Y-6548376D02*
X5206607Y-6529328D01*
X5206607Y-6529328D02*
X5197084Y-6491233D01*
X5197084Y-6491233D02*
X5197084Y-6443614D01*
X5197084Y-6443614D02*
X5206607Y-6405519D01*
X5206607Y-6405519D02*
X5216131Y-6386471D01*
X5216131Y-6386471D02*
X5225655Y-6376948D01*
X5225655Y-6376948D02*
X5244703Y-6367424D01*
X5435179Y-6367424D02*
X5454226Y-6367424D01*
X5454226Y-6367424D02*
X5473274Y-6376948D01*
X5473274Y-6376948D02*
X5482798Y-6386471D01*
X5482798Y-6386471D02*
X5492322Y-6405519D01*
X5492322Y-6405519D02*
X5501845Y-6443614D01*
X5501845Y-6443614D02*
X5501845Y-6491233D01*
X5501845Y-6491233D02*
X5492322Y-6529328D01*
X5492322Y-6529328D02*
X5482798Y-6548376D01*
X5482798Y-6548376D02*
X5473274Y-6557900D01*
X5473274Y-6557900D02*
X5454226Y-6567424D01*
X5454226Y-6567424D02*
X5435179Y-6567424D01*
X5435179Y-6567424D02*
X5416131Y-6557900D01*
X5416131Y-6557900D02*
X5406607Y-6548376D01*
X5406607Y-6548376D02*
X5397084Y-6529328D01*
X5397084Y-6529328D02*
X5387560Y-6491233D01*
X5387560Y-6491233D02*
X5387560Y-6443614D01*
X5387560Y-6443614D02*
X5397084Y-6405519D01*
X5397084Y-6405519D02*
X5406607Y-6386471D01*
X5406607Y-6386471D02*
X5416131Y-6376948D01*
X5416131Y-6376948D02*
X5435179Y-6367424D01*
X5587560Y-6567424D02*
X5587560Y-6434090D01*
X5587560Y-6453138D02*
X5597083Y-6443614D01*
X5597083Y-6443614D02*
X5616131Y-6434090D01*
X5616131Y-6434090D02*
X5644703Y-6434090D01*
X5644703Y-6434090D02*
X5663750Y-6443614D01*
X5663750Y-6443614D02*
X5673274Y-6462662D01*
X5673274Y-6462662D02*
X5673274Y-6567424D01*
X5673274Y-6462662D02*
X5682798Y-6443614D01*
X5682798Y-6443614D02*
X5701845Y-6434090D01*
X5701845Y-6434090D02*
X5730417Y-6434090D01*
X5730417Y-6434090D02*
X5749464Y-6443614D01*
X5749464Y-6443614D02*
X5758988Y-6462662D01*
X5758988Y-6462662D02*
X5758988Y-6567424D01*
X5854226Y-6567424D02*
X5854226Y-6434090D01*
X5854226Y-6453138D02*
X5863750Y-6443614D01*
X5863750Y-6443614D02*
X5882798Y-6434090D01*
X5882798Y-6434090D02*
X5911369Y-6434090D01*
X5911369Y-6434090D02*
X5930417Y-6443614D01*
X5930417Y-6443614D02*
X5939941Y-6462662D01*
X5939941Y-6462662D02*
X5939941Y-6567424D01*
X5939941Y-6462662D02*
X5949464Y-6443614D01*
X5949464Y-6443614D02*
X5968512Y-6434090D01*
X5968512Y-6434090D02*
X5997083Y-6434090D01*
X5997083Y-6434090D02*
X6016131Y-6443614D01*
X6016131Y-6443614D02*
X6025655Y-6462662D01*
X6025655Y-6462662D02*
X6025655Y-6567424D01*
X6416131Y-6357900D02*
X6244703Y-6615043D01*
X6673274Y-6367424D02*
X6692322Y-6367424D01*
X6692322Y-6367424D02*
X6711369Y-6376948D01*
X6711369Y-6376948D02*
X6720893Y-6386471D01*
X6720893Y-6386471D02*
X6730417Y-6405519D01*
X6730417Y-6405519D02*
X6739941Y-6443614D01*
X6739941Y-6443614D02*
X6739941Y-6491233D01*
X6739941Y-6491233D02*
X6730417Y-6529328D01*
X6730417Y-6529328D02*
X6720893Y-6548376D01*
X6720893Y-6548376D02*
X6711369Y-6557900D01*
X6711369Y-6557900D02*
X6692322Y-6567424D01*
X6692322Y-6567424D02*
X6673274Y-6567424D01*
X6673274Y-6567424D02*
X6654226Y-6557900D01*
X6654226Y-6557900D02*
X6644703Y-6548376D01*
X6644703Y-6548376D02*
X6635179Y-6529328D01*
X6635179Y-6529328D02*
X6625655Y-6491233D01*
X6625655Y-6491233D02*
X6625655Y-6443614D01*
X6625655Y-6443614D02*
X6635179Y-6405519D01*
X6635179Y-6405519D02*
X6644703Y-6386471D01*
X6644703Y-6386471D02*
X6654226Y-6376948D01*
X6654226Y-6376948D02*
X6673274Y-6367424D01*
X6825655Y-6548376D02*
X6835179Y-6557900D01*
X6835179Y-6557900D02*
X6825655Y-6567424D01*
X6825655Y-6567424D02*
X6816131Y-6557900D01*
X6816131Y-6557900D02*
X6825655Y-6548376D01*
X6825655Y-6548376D02*
X6825655Y-6567424D01*
X6958988Y-6367424D02*
X6978036Y-6367424D01*
X6978036Y-6367424D02*
X6997084Y-6376948D01*
X6997084Y-6376948D02*
X7006607Y-6386471D01*
X7006607Y-6386471D02*
X7016131Y-6405519D01*
X7016131Y-6405519D02*
X7025655Y-6443614D01*
X7025655Y-6443614D02*
X7025655Y-6491233D01*
X7025655Y-6491233D02*
X7016131Y-6529328D01*
X7016131Y-6529328D02*
X7006607Y-6548376D01*
X7006607Y-6548376D02*
X6997084Y-6557900D01*
X6997084Y-6557900D02*
X6978036Y-6567424D01*
X6978036Y-6567424D02*
X6958988Y-6567424D01*
X6958988Y-6567424D02*
X6939941Y-6557900D01*
X6939941Y-6557900D02*
X6930417Y-6548376D01*
X6930417Y-6548376D02*
X6920893Y-6529328D01*
X6920893Y-6529328D02*
X6911369Y-6491233D01*
X6911369Y-6491233D02*
X6911369Y-6443614D01*
X6911369Y-6443614D02*
X6920893Y-6405519D01*
X6920893Y-6405519D02*
X6930417Y-6386471D01*
X6930417Y-6386471D02*
X6939941Y-6376948D01*
X6939941Y-6376948D02*
X6958988Y-6367424D01*
X7092322Y-6367424D02*
X7216131Y-6367424D01*
X7216131Y-6367424D02*
X7149465Y-6443614D01*
X7149465Y-6443614D02*
X7178036Y-6443614D01*
X7178036Y-6443614D02*
X7197084Y-6453138D01*
X7197084Y-6453138D02*
X7206607Y-6462662D01*
X7206607Y-6462662D02*
X7216131Y-6481709D01*
X7216131Y-6481709D02*
X7216131Y-6529328D01*
X7216131Y-6529328D02*
X7206607Y-6548376D01*
X7206607Y-6548376D02*
X7197084Y-6557900D01*
X7197084Y-6557900D02*
X7178036Y-6567424D01*
X7178036Y-6567424D02*
X7120893Y-6567424D01*
X7120893Y-6567424D02*
X7101846Y-6557900D01*
X7101846Y-6557900D02*
X7092322Y-6548376D01*
X7406607Y-6567424D02*
X7292322Y-6567424D01*
X7349465Y-6567424D02*
X7349465Y-6367424D01*
X7349465Y-6367424D02*
X7330417Y-6395995D01*
X7330417Y-6395995D02*
X7311369Y-6415043D01*
X7311369Y-6415043D02*
X7292322Y-6424567D01*
X7587560Y-6367424D02*
X7492322Y-6367424D01*
X7492322Y-6367424D02*
X7482798Y-6462662D01*
X7482798Y-6462662D02*
X7492322Y-6453138D01*
X7492322Y-6453138D02*
X7511369Y-6443614D01*
X7511369Y-6443614D02*
X7558988Y-6443614D01*
X7558988Y-6443614D02*
X7578036Y-6453138D01*
X7578036Y-6453138D02*
X7587560Y-6462662D01*
X7587560Y-6462662D02*
X7597084Y-6481709D01*
X7597084Y-6481709D02*
X7597084Y-6529328D01*
X7597084Y-6529328D02*
X7587560Y-6548376D01*
X7587560Y-6548376D02*
X7578036Y-6557900D01*
X7578036Y-6557900D02*
X7558988Y-6567424D01*
X7558988Y-6567424D02*
X7511369Y-6567424D01*
X7511369Y-6567424D02*
X7492322Y-6557900D01*
X7492322Y-6557900D02*
X7482798Y-6548376D01*
X7673274Y-6367424D02*
X7673274Y-6405519D01*
X7749465Y-6367424D02*
X7749465Y-6405519D01*
X8044703Y-6643614D02*
X8035179Y-6634090D01*
X8035179Y-6634090D02*
X8016131Y-6605519D01*
X8016131Y-6605519D02*
X8006608Y-6586471D01*
X8006608Y-6586471D02*
X7997084Y-6557900D01*
X7997084Y-6557900D02*
X7987560Y-6510281D01*
X7987560Y-6510281D02*
X7987560Y-6472186D01*
X7987560Y-6472186D02*
X7997084Y-6424567D01*
X7997084Y-6424567D02*
X8006608Y-6395995D01*
X8006608Y-6395995D02*
X8016131Y-6376948D01*
X8016131Y-6376948D02*
X8035179Y-6348376D01*
X8035179Y-6348376D02*
X8044703Y-6338852D01*
X8206608Y-6434090D02*
X8206608Y-6567424D01*
X8158988Y-6357900D02*
X8111369Y-6500757D01*
X8111369Y-6500757D02*
X8235179Y-6500757D01*
X8463751Y-6567424D02*
X8463751Y-6367424D01*
X8549465Y-6567424D02*
X8549465Y-6462662D01*
X8549465Y-6462662D02*
X8539941Y-6443614D01*
X8539941Y-6443614D02*
X8520893Y-6434090D01*
X8520893Y-6434090D02*
X8492322Y-6434090D01*
X8492322Y-6434090D02*
X8473274Y-6443614D01*
X8473274Y-6443614D02*
X8463751Y-6453138D01*
X8673274Y-6567424D02*
X8654227Y-6557900D01*
X8654227Y-6557900D02*
X8644703Y-6548376D01*
X8644703Y-6548376D02*
X8635179Y-6529328D01*
X8635179Y-6529328D02*
X8635179Y-6472186D01*
X8635179Y-6472186D02*
X8644703Y-6453138D01*
X8644703Y-6453138D02*
X8654227Y-6443614D01*
X8654227Y-6443614D02*
X8673274Y-6434090D01*
X8673274Y-6434090D02*
X8701846Y-6434090D01*
X8701846Y-6434090D02*
X8720893Y-6443614D01*
X8720893Y-6443614D02*
X8730417Y-6453138D01*
X8730417Y-6453138D02*
X8739941Y-6472186D01*
X8739941Y-6472186D02*
X8739941Y-6529328D01*
X8739941Y-6529328D02*
X8730417Y-6548376D01*
X8730417Y-6548376D02*
X8720893Y-6557900D01*
X8720893Y-6557900D02*
X8701846Y-6567424D01*
X8701846Y-6567424D02*
X8673274Y-6567424D01*
X8854227Y-6567424D02*
X8835179Y-6557900D01*
X8835179Y-6557900D02*
X8825655Y-6538852D01*
X8825655Y-6538852D02*
X8825655Y-6367424D01*
X9006608Y-6557900D02*
X8987560Y-6567424D01*
X8987560Y-6567424D02*
X8949465Y-6567424D01*
X8949465Y-6567424D02*
X8930417Y-6557900D01*
X8930417Y-6557900D02*
X8920893Y-6538852D01*
X8920893Y-6538852D02*
X8920893Y-6462662D01*
X8920893Y-6462662D02*
X8930417Y-6443614D01*
X8930417Y-6443614D02*
X8949465Y-6434090D01*
X8949465Y-6434090D02*
X8987560Y-6434090D01*
X8987560Y-6434090D02*
X9006608Y-6443614D01*
X9006608Y-6443614D02*
X9016132Y-6462662D01*
X9016132Y-6462662D02*
X9016132Y-6481709D01*
X9016132Y-6481709D02*
X8920893Y-6500757D01*
X9092322Y-6557900D02*
X9111370Y-6567424D01*
X9111370Y-6567424D02*
X9149465Y-6567424D01*
X9149465Y-6567424D02*
X9168513Y-6557900D01*
X9168513Y-6557900D02*
X9178036Y-6538852D01*
X9178036Y-6538852D02*
X9178036Y-6529328D01*
X9178036Y-6529328D02*
X9168513Y-6510281D01*
X9168513Y-6510281D02*
X9149465Y-6500757D01*
X9149465Y-6500757D02*
X9120893Y-6500757D01*
X9120893Y-6500757D02*
X9101846Y-6491233D01*
X9101846Y-6491233D02*
X9092322Y-6472186D01*
X9092322Y-6472186D02*
X9092322Y-6462662D01*
X9092322Y-6462662D02*
X9101846Y-6443614D01*
X9101846Y-6443614D02*
X9120893Y-6434090D01*
X9120893Y-6434090D02*
X9149465Y-6434090D01*
X9149465Y-6434090D02*
X9168513Y-6443614D01*
X9244703Y-6643614D02*
X9254227Y-6634090D01*
X9254227Y-6634090D02*
X9273274Y-6605519D01*
X9273274Y-6605519D02*
X9282798Y-6586471D01*
X9282798Y-6586471D02*
X9292322Y-6557900D01*
X9292322Y-6557900D02*
X9301846Y-6510281D01*
X9301846Y-6510281D02*
X9301846Y-6472186D01*
X9301846Y-6472186D02*
X9292322Y-6424567D01*
X9292322Y-6424567D02*
X9282798Y-6395995D01*
X9282798Y-6395995D02*
X9273274Y-6376948D01*
X9273274Y-6376948D02*
X9254227Y-6348376D01*
X9254227Y-6348376D02*
X9244703Y-6338852D01*
M02*
