%TF.GenerationSoftware,KiCad,Pcbnew,8.0.2*%
%TF.CreationDate,2024-09-01T00:37:24-07:00*%
%TF.ProjectId,procon_battery_pcb,70726f63-6f6e-45f6-9261-74746572795f,rev?*%
%TF.SameCoordinates,Original*%
%TF.FileFunction,Copper,L1,Top*%
%TF.FilePolarity,Positive*%
%FSLAX46Y46*%
G04 Gerber Fmt 4.6, Leading zero omitted, Abs format (unit mm)*
G04 Created by KiCad (PCBNEW 8.0.2) date 2024-09-01 00:37:24*
%MOMM*%
%LPD*%
G01*
G04 APERTURE LIST*
%TA.AperFunction,ComponentPad*%
%ADD10R,1.350000X3.350000*%
%TD*%
%TA.AperFunction,ComponentPad*%
%ADD11O,1.350000X3.350000*%
%TD*%
%TA.AperFunction,ViaPad*%
%ADD12C,1.000000*%
%TD*%
%TA.AperFunction,ViaPad*%
%ADD13C,0.750000*%
%TD*%
%TA.AperFunction,Conductor*%
%ADD14C,0.750000*%
%TD*%
G04 APERTURE END LIST*
D10*
%TO.P,J1,1,Pin_1*%
%TO.N,BATTERY_TS_TIEDOWN*%
X51607200Y-51130200D03*
D11*
%TO.P,J1,2,Pin_2*%
%TO.N,GND*%
X53607200Y-51130200D03*
%TO.P,J1,3,Pin_3*%
%TO.N,BATTERY_TS_SENSE*%
X55607200Y-51130200D03*
%TO.P,J1,4,Pin_4*%
%TO.N,BATTERY_POS*%
X57607200Y-51130200D03*
%TD*%
D12*
%TO.N,GND*%
X76250800Y-30861000D03*
X78486000Y-30835600D03*
%TO.N,BATTERY_POS*%
X76327000Y-36858200D03*
D13*
X80873600Y-39014400D03*
D12*
X78405459Y-36771345D03*
%TO.N,unconnected-(U1-NC-Pad2)*%
X76327000Y-33858200D03*
X78486000Y-33858200D03*
%TD*%
D14*
%TO.N,BATTERY_POS*%
X75793600Y-39014400D02*
X80873600Y-39014400D01*
X63779400Y-50546000D02*
X63855600Y-50469800D01*
X73583800Y-41224200D02*
X75793600Y-39014400D01*
X68072000Y-50469800D02*
X69494400Y-50469800D01*
X71145400Y-43662600D02*
X73583800Y-41224200D01*
X71145400Y-45085000D02*
X71145400Y-43662600D01*
X57607200Y-51130200D02*
X63195200Y-51130200D01*
X76413855Y-36771345D02*
X76327000Y-36858200D01*
X69494400Y-50469800D02*
X70840600Y-49123600D01*
X63855600Y-50469800D02*
X68072000Y-50469800D01*
X78405459Y-36771345D02*
X76413855Y-36771345D01*
X71145400Y-48818800D02*
X71145400Y-45085000D01*
X63195200Y-51130200D02*
X63779400Y-50546000D01*
X70840600Y-49123600D02*
X71145400Y-48818800D01*
%TO.N,unconnected-(U1-NC-Pad2)*%
X78486000Y-33858200D02*
X76327000Y-33858200D01*
%TD*%
%TA.AperFunction,Conductor*%
%TO.N,GND*%
G36*
X81447730Y-16209429D02*
G01*
X81454038Y-16209566D01*
X81546072Y-16211571D01*
X81564896Y-16213425D01*
X81759858Y-16247803D01*
X81780735Y-16253397D01*
X81965490Y-16320641D01*
X81985075Y-16329774D01*
X82155344Y-16428079D01*
X82173044Y-16440472D01*
X82323661Y-16566854D01*
X82338944Y-16582137D01*
X82460252Y-16726707D01*
X82465325Y-16732752D01*
X82477722Y-16750458D01*
X82576024Y-16920722D01*
X82585159Y-16940312D01*
X82652402Y-17125064D01*
X82657996Y-17145941D01*
X82692373Y-17340898D01*
X82694228Y-17359729D01*
X82696371Y-17458067D01*
X82696400Y-17460769D01*
X82696400Y-52027873D01*
X82696363Y-52030911D01*
X82694254Y-52116980D01*
X82691908Y-52138133D01*
X82658039Y-52308406D01*
X82650983Y-52331668D01*
X82585128Y-52490654D01*
X82573669Y-52512092D01*
X82478064Y-52655175D01*
X82462643Y-52673965D01*
X82340965Y-52795643D01*
X82322175Y-52811064D01*
X82179092Y-52906669D01*
X82157654Y-52918128D01*
X81998668Y-52983983D01*
X81975406Y-52991039D01*
X81805133Y-53024908D01*
X81783980Y-53027254D01*
X81700650Y-53029295D01*
X81697909Y-53029363D01*
X81694873Y-53029400D01*
X67878423Y-53029400D01*
X67874360Y-53029333D01*
X67869402Y-53029170D01*
X67825118Y-53027717D01*
X67797077Y-53023555D01*
X67780982Y-53019240D01*
X67700009Y-52997531D01*
X67670117Y-52985146D01*
X67584862Y-52935916D01*
X67559190Y-52916215D01*
X67489584Y-52846609D01*
X67469884Y-52820939D01*
X67420651Y-52735678D01*
X67408269Y-52705794D01*
X67382243Y-52608716D01*
X67378082Y-52580678D01*
X67376467Y-52531442D01*
X67376400Y-52527377D01*
X67376400Y-52229401D01*
X67376017Y-52216431D01*
X67374464Y-52163826D01*
X67340538Y-52037144D01*
X67340537Y-52037143D01*
X67340537Y-52037141D01*
X67292555Y-51954024D01*
X67274972Y-51923563D01*
X67274971Y-51923562D01*
X67274970Y-51923560D01*
X67182239Y-51830829D01*
X67068657Y-51765262D01*
X67068658Y-51765262D01*
X66941978Y-51731337D01*
X66941977Y-51731336D01*
X66941974Y-51731336D01*
X66876400Y-51729400D01*
X66876399Y-51729400D01*
X66076400Y-51729400D01*
X66010855Y-51731539D01*
X65884233Y-51765467D01*
X65884231Y-51765467D01*
X65884231Y-51765468D01*
X65770706Y-51831012D01*
X65770703Y-51831014D01*
X65678014Y-51923703D01*
X65678012Y-51923706D01*
X65612468Y-52037231D01*
X65578539Y-52163855D01*
X65576400Y-52229399D01*
X65576400Y-52527378D01*
X65576334Y-52531424D01*
X65574726Y-52580682D01*
X65570567Y-52608729D01*
X65544558Y-52705798D01*
X65532170Y-52735705D01*
X65482950Y-52820956D01*
X65463244Y-52846637D01*
X65393637Y-52916244D01*
X65367956Y-52935950D01*
X65282705Y-52985170D01*
X65252798Y-52997558D01*
X65155729Y-53023567D01*
X65127682Y-53027726D01*
X65083373Y-53029172D01*
X65078420Y-53029334D01*
X65074378Y-53029400D01*
X58244815Y-53029400D01*
X58177776Y-53009715D01*
X58132021Y-52956911D01*
X58122077Y-52887753D01*
X58151102Y-52824197D01*
X58161000Y-52814561D01*
X58160992Y-52814553D01*
X58287242Y-52688302D01*
X58287245Y-52688299D01*
X58383058Y-52544905D01*
X58449055Y-52385574D01*
X58482700Y-52216429D01*
X58482700Y-51829700D01*
X58502385Y-51762661D01*
X58555189Y-51716906D01*
X58606700Y-51705700D01*
X63270964Y-51705700D01*
X63270966Y-51705700D01*
X63417335Y-51666481D01*
X63548565Y-51590715D01*
X64057661Y-51081619D01*
X64118984Y-51048134D01*
X64145342Y-51045300D01*
X69570164Y-51045300D01*
X69570166Y-51045300D01*
X69716535Y-51006081D01*
X69847765Y-50930315D01*
X71301114Y-49476966D01*
X71301115Y-49476965D01*
X71605914Y-49172166D01*
X71681681Y-49040935D01*
X71720900Y-48894567D01*
X71720900Y-48743034D01*
X71720900Y-48568371D01*
X73844369Y-48568371D01*
X73844369Y-49118359D01*
X73846985Y-49238454D01*
X73846986Y-49238455D01*
X73888683Y-49474934D01*
X73970815Y-49700586D01*
X73970818Y-49700593D01*
X74009076Y-49766857D01*
X74090884Y-49908553D01*
X74092644Y-49910650D01*
X74245239Y-50092508D01*
X74286584Y-50127200D01*
X74429195Y-50246864D01*
X74637159Y-50366932D01*
X74862813Y-50449064D01*
X75099301Y-50490763D01*
X75339435Y-50490763D01*
X75339437Y-50490763D01*
X75575925Y-50449064D01*
X75801579Y-50366932D01*
X76009543Y-50246864D01*
X76193498Y-50092508D01*
X76347854Y-49908553D01*
X76467922Y-49700589D01*
X76550054Y-49474935D01*
X76591753Y-49238447D01*
X76594369Y-49118379D01*
X76594369Y-48568381D01*
X76591751Y-48448317D01*
X76550051Y-48211837D01*
X76467920Y-47986191D01*
X76347854Y-47778235D01*
X76193501Y-47594287D01*
X76101526Y-47517112D01*
X76009553Y-47439938D01*
X75801597Y-47319875D01*
X75801595Y-47319874D01*
X75801593Y-47319873D01*
X75725874Y-47292314D01*
X75575947Y-47237745D01*
X75339468Y-47196047D01*
X75339466Y-47196047D01*
X75099338Y-47196047D01*
X75099335Y-47196047D01*
X74862857Y-47237743D01*
X74738612Y-47282964D01*
X74637210Y-47319872D01*
X74637206Y-47319874D01*
X74637204Y-47319875D01*
X74429252Y-47439933D01*
X74429250Y-47439934D01*
X74245303Y-47594283D01*
X74245295Y-47594291D01*
X74090951Y-47778228D01*
X74090946Y-47778236D01*
X73970887Y-47986178D01*
X73970879Y-47986195D01*
X73888749Y-48211832D01*
X73847049Y-48448312D01*
X73847048Y-48448318D01*
X73844369Y-48568371D01*
X71720900Y-48568371D01*
X71720900Y-45009234D01*
X71720900Y-44596215D01*
X73782819Y-44596215D01*
X73782819Y-44596218D01*
X73802434Y-44870481D01*
X73860878Y-45139142D01*
X73956972Y-45396780D01*
X74088739Y-45638094D01*
X74088744Y-45638102D01*
X74253513Y-45858208D01*
X74253529Y-45858226D01*
X74447935Y-46052632D01*
X74447953Y-46052648D01*
X74668059Y-46217417D01*
X74668067Y-46217422D01*
X74909381Y-46349189D01*
X74909385Y-46349190D01*
X74909388Y-46349192D01*
X75167011Y-46445281D01*
X75167017Y-46445282D01*
X75167019Y-46445283D01*
X75435680Y-46503727D01*
X75435682Y-46503727D01*
X75435686Y-46503728D01*
X75679409Y-46521159D01*
X75709944Y-46523343D01*
X75709945Y-46523343D01*
X75709946Y-46523343D01*
X75737421Y-46521377D01*
X75984204Y-46503728D01*
X76252879Y-46445281D01*
X76510502Y-46349192D01*
X76510506Y-46349189D01*
X76510508Y-46349189D01*
X76631165Y-46283305D01*
X76751828Y-46217419D01*
X76971944Y-46052642D01*
X77166370Y-45858216D01*
X77331147Y-45638100D01*
X77462920Y-45396774D01*
X77559009Y-45139151D01*
X77617456Y-44870476D01*
X77637071Y-44596217D01*
X77617456Y-44321958D01*
X77559009Y-44053283D01*
X77462920Y-43795660D01*
X77462918Y-43795657D01*
X77462917Y-43795653D01*
X77331150Y-43554339D01*
X77331145Y-43554331D01*
X77166376Y-43334225D01*
X77166360Y-43334207D01*
X76971954Y-43139801D01*
X76971936Y-43139785D01*
X76751830Y-42975016D01*
X76751822Y-42975011D01*
X76510508Y-42843244D01*
X76407452Y-42804806D01*
X76252879Y-42747153D01*
X76252876Y-42747152D01*
X76252870Y-42747150D01*
X75984209Y-42688706D01*
X75709946Y-42669091D01*
X75709944Y-42669091D01*
X75435680Y-42688706D01*
X75167019Y-42747150D01*
X74909381Y-42843244D01*
X74668067Y-42975011D01*
X74668059Y-42975016D01*
X74447953Y-43139785D01*
X74447935Y-43139801D01*
X74253529Y-43334207D01*
X74253513Y-43334225D01*
X74088744Y-43554331D01*
X74088739Y-43554339D01*
X73956972Y-43795653D01*
X73860878Y-44053291D01*
X73802434Y-44321952D01*
X73782819Y-44596215D01*
X71720900Y-44596215D01*
X71720900Y-43952342D01*
X71740585Y-43885303D01*
X71757219Y-43864661D01*
X75995661Y-39626219D01*
X76056984Y-39592734D01*
X76083342Y-39589900D01*
X80827754Y-39589900D01*
X80843937Y-39590960D01*
X80873600Y-39594866D01*
X80903262Y-39590960D01*
X80919446Y-39589900D01*
X80949364Y-39589900D01*
X80949366Y-39589900D01*
X80978271Y-39582154D01*
X80994168Y-39578992D01*
X81023836Y-39575087D01*
X81023838Y-39575086D01*
X81023839Y-39575086D01*
X81051467Y-39563641D01*
X81066830Y-39558425D01*
X81095735Y-39550681D01*
X81121650Y-39535717D01*
X81136196Y-39528544D01*
X81163833Y-39517098D01*
X81187567Y-39498884D01*
X81201046Y-39489878D01*
X81226965Y-39474915D01*
X81248131Y-39453747D01*
X81260317Y-39443061D01*
X81284051Y-39424851D01*
X81302261Y-39401117D01*
X81312947Y-39388931D01*
X81334115Y-39367765D01*
X81349078Y-39341846D01*
X81358088Y-39328363D01*
X81376298Y-39304633D01*
X81387744Y-39276996D01*
X81394918Y-39262450D01*
X81409881Y-39236535D01*
X81417625Y-39207630D01*
X81422841Y-39192267D01*
X81434286Y-39164639D01*
X81434286Y-39164638D01*
X81434287Y-39164636D01*
X81438192Y-39134968D01*
X81441354Y-39119071D01*
X81449100Y-39090166D01*
X81449100Y-39060246D01*
X81450161Y-39044060D01*
X81454066Y-39014400D01*
X81454066Y-39014398D01*
X81450161Y-38984737D01*
X81449100Y-38968552D01*
X81449100Y-38938633D01*
X81447051Y-38930989D01*
X81441355Y-38909734D01*
X81438192Y-38893835D01*
X81434287Y-38864164D01*
X81422839Y-38836527D01*
X81417623Y-38821162D01*
X81409880Y-38792262D01*
X81394922Y-38766356D01*
X81387746Y-38751805D01*
X81376299Y-38724169D01*
X81376298Y-38724168D01*
X81376298Y-38724167D01*
X81358083Y-38700429D01*
X81349076Y-38686949D01*
X81334115Y-38661035D01*
X81312959Y-38639879D01*
X81302265Y-38627686D01*
X81284051Y-38603949D01*
X81284049Y-38603947D01*
X81284048Y-38603946D01*
X81260317Y-38585737D01*
X81248122Y-38575042D01*
X81226967Y-38553887D01*
X81226965Y-38553885D01*
X81217935Y-38548671D01*
X81201053Y-38538924D01*
X81187571Y-38529916D01*
X81163832Y-38511701D01*
X81163830Y-38511700D01*
X81136194Y-38500253D01*
X81121646Y-38493079D01*
X81095734Y-38478118D01*
X81066829Y-38470373D01*
X81051472Y-38465160D01*
X81023839Y-38453714D01*
X81023837Y-38453713D01*
X81023836Y-38453713D01*
X80994172Y-38449807D01*
X80978268Y-38446644D01*
X80949367Y-38438900D01*
X80949366Y-38438900D01*
X80919446Y-38438900D01*
X80903262Y-38437839D01*
X80873600Y-38433934D01*
X80843937Y-38437839D01*
X80827754Y-38438900D01*
X75717833Y-38438900D01*
X75571463Y-38478119D01*
X75440235Y-38553885D01*
X75440232Y-38553887D01*
X70684887Y-43309232D01*
X70684885Y-43309235D01*
X70609119Y-43440463D01*
X70569900Y-43586834D01*
X70569900Y-48529058D01*
X70550215Y-48596097D01*
X70533581Y-48616739D01*
X69292339Y-49857981D01*
X69231016Y-49891466D01*
X69204658Y-49894300D01*
X63779833Y-49894300D01*
X63633463Y-49933519D01*
X63502235Y-50009285D01*
X63502232Y-50009287D01*
X62993139Y-50518381D01*
X62931816Y-50551866D01*
X62905458Y-50554700D01*
X58606700Y-50554700D01*
X58539661Y-50535015D01*
X58493906Y-50482211D01*
X58482700Y-50430700D01*
X58482700Y-50043968D01*
X58482699Y-50043966D01*
X58475801Y-50009287D01*
X58449055Y-49874826D01*
X58392090Y-49737299D01*
X58383061Y-49715501D01*
X58383054Y-49715488D01*
X58287245Y-49572101D01*
X58287242Y-49572097D01*
X58165302Y-49450157D01*
X58165298Y-49450154D01*
X58021911Y-49354345D01*
X58021898Y-49354338D01*
X57862578Y-49288346D01*
X57862566Y-49288343D01*
X57693432Y-49254700D01*
X57693429Y-49254700D01*
X57520971Y-49254700D01*
X57520968Y-49254700D01*
X57351833Y-49288343D01*
X57351821Y-49288346D01*
X57192501Y-49354338D01*
X57192488Y-49354345D01*
X57049101Y-49450154D01*
X57049097Y-49450157D01*
X56927157Y-49572097D01*
X56927154Y-49572101D01*
X56831345Y-49715488D01*
X56831338Y-49715501D01*
X56765346Y-49874821D01*
X56765343Y-49874833D01*
X56731700Y-50043966D01*
X56731700Y-52216433D01*
X56765343Y-52385566D01*
X56765346Y-52385578D01*
X56831338Y-52544898D01*
X56831345Y-52544911D01*
X56927154Y-52688298D01*
X56927157Y-52688302D01*
X57053408Y-52814553D01*
X57052367Y-52815593D01*
X57087583Y-52867289D01*
X57089456Y-52937134D01*
X57053270Y-52996903D01*
X56990515Y-53027621D01*
X56969585Y-53029400D01*
X56244815Y-53029400D01*
X56177776Y-53009715D01*
X56132021Y-52956911D01*
X56122077Y-52887753D01*
X56151102Y-52824197D01*
X56161000Y-52814561D01*
X56160992Y-52814553D01*
X56287242Y-52688302D01*
X56287245Y-52688299D01*
X56383058Y-52544905D01*
X56449055Y-52385574D01*
X56482700Y-52216429D01*
X56482700Y-50043971D01*
X56482700Y-50043968D01*
X56482699Y-50043966D01*
X56475801Y-50009287D01*
X56449055Y-49874826D01*
X56392090Y-49737299D01*
X56383061Y-49715501D01*
X56383054Y-49715488D01*
X56287245Y-49572101D01*
X56287242Y-49572097D01*
X56165302Y-49450157D01*
X56165298Y-49450154D01*
X56021911Y-49354345D01*
X56021898Y-49354338D01*
X55862578Y-49288346D01*
X55862566Y-49288343D01*
X55693432Y-49254700D01*
X55693429Y-49254700D01*
X55520971Y-49254700D01*
X55520968Y-49254700D01*
X55351833Y-49288343D01*
X55351821Y-49288346D01*
X55192501Y-49354338D01*
X55192488Y-49354345D01*
X55049101Y-49450154D01*
X55049097Y-49450157D01*
X54927157Y-49572097D01*
X54882663Y-49638687D01*
X54829050Y-49683491D01*
X54759725Y-49692198D01*
X54696698Y-49662043D01*
X54669076Y-49626090D01*
X54612147Y-49514362D01*
X54503445Y-49364745D01*
X54503441Y-49364740D01*
X54372659Y-49233958D01*
X54372654Y-49233954D01*
X54223037Y-49125252D01*
X54058243Y-49041284D01*
X54058237Y-49041282D01*
X53882344Y-48984132D01*
X53857200Y-48980150D01*
X53857200Y-50814514D01*
X53852806Y-50810120D01*
X53761594Y-50757459D01*
X53659861Y-50730200D01*
X53554539Y-50730200D01*
X53452806Y-50757459D01*
X53361594Y-50810120D01*
X53357200Y-50814514D01*
X53357200Y-48980150D01*
X53357199Y-48980150D01*
X53332055Y-48984132D01*
X53156162Y-49041282D01*
X53156156Y-49041284D01*
X52991362Y-49125252D01*
X52841745Y-49233954D01*
X52841740Y-49233958D01*
X52710960Y-49364738D01*
X52685091Y-49400343D01*
X52629760Y-49443007D01*
X52560146Y-49448985D01*
X52498352Y-49416377D01*
X52478299Y-49386824D01*
X52477852Y-49387123D01*
X52426752Y-49310647D01*
X52360430Y-49266332D01*
X52360429Y-49266331D01*
X52301952Y-49254700D01*
X52301948Y-49254700D01*
X50912452Y-49254700D01*
X50912447Y-49254700D01*
X50853970Y-49266331D01*
X50853969Y-49266332D01*
X50787647Y-49310647D01*
X50743332Y-49376969D01*
X50743331Y-49376970D01*
X50731700Y-49435447D01*
X50731700Y-52824952D01*
X50742890Y-52881209D01*
X50736663Y-52950801D01*
X50693799Y-53005978D01*
X50627909Y-53029222D01*
X50621273Y-53029400D01*
X45747905Y-53029400D01*
X45744856Y-53029362D01*
X45741124Y-53029270D01*
X45658828Y-53027245D01*
X45637679Y-53024899D01*
X45467399Y-52991015D01*
X45444141Y-52983958D01*
X45285163Y-52918099D01*
X45263727Y-52906640D01*
X45120650Y-52811033D01*
X45101863Y-52795614D01*
X44980185Y-52673936D01*
X44964766Y-52655149D01*
X44942423Y-52621713D01*
X44869158Y-52512071D01*
X44857700Y-52490636D01*
X44791841Y-52331658D01*
X44784784Y-52308400D01*
X44769064Y-52229399D01*
X44750899Y-52138117D01*
X44748554Y-52116980D01*
X44746436Y-52030866D01*
X44746400Y-52027894D01*
X44746400Y-50808716D01*
X45913393Y-50808716D01*
X45913393Y-50808727D01*
X45933315Y-51017361D01*
X45933318Y-51017378D01*
X45992365Y-51218477D01*
X46088413Y-51404784D01*
X46217974Y-51569532D01*
X46217978Y-51569536D01*
X46376376Y-51706790D01*
X46376387Y-51706798D01*
X46557897Y-51811592D01*
X46557899Y-51811593D01*
X46755970Y-51880146D01*
X46963436Y-51909975D01*
X47172797Y-51900002D01*
X47376488Y-51850587D01*
X47567146Y-51763517D01*
X47737880Y-51641937D01*
X47882520Y-51490244D01*
X47995838Y-51313918D01*
X48073738Y-51119333D01*
X48113405Y-50913521D01*
X48115895Y-50808722D01*
X48113405Y-50703923D01*
X48073738Y-50498111D01*
X47995838Y-50303526D01*
X47882520Y-50127200D01*
X47803158Y-50043968D01*
X47737882Y-49975508D01*
X47737879Y-49975506D01*
X47567148Y-49853928D01*
X47567146Y-49853927D01*
X47376488Y-49766857D01*
X47172797Y-49717442D01*
X46983384Y-49708419D01*
X46963438Y-49707469D01*
X46963437Y-49707469D01*
X46963436Y-49707469D01*
X46755970Y-49737298D01*
X46755969Y-49737298D01*
X46755964Y-49737299D01*
X46557897Y-49805851D01*
X46376387Y-49910645D01*
X46376376Y-49910653D01*
X46217978Y-50047907D01*
X46217974Y-50047911D01*
X46088413Y-50212659D01*
X45992365Y-50398966D01*
X45933318Y-50600065D01*
X45933315Y-50600082D01*
X45913393Y-50808716D01*
X44746400Y-50808716D01*
X44746400Y-49210926D01*
X44746437Y-49207890D01*
X44748545Y-49121821D01*
X44750890Y-49100672D01*
X44784762Y-48930383D01*
X44791812Y-48907141D01*
X44857674Y-48748138D01*
X44869126Y-48726714D01*
X44964738Y-48583619D01*
X44980151Y-48564839D01*
X45101839Y-48443151D01*
X45120619Y-48427738D01*
X45263714Y-48332126D01*
X45285138Y-48320674D01*
X45444141Y-48254812D01*
X45467383Y-48247762D01*
X45637672Y-48213890D01*
X45658815Y-48211545D01*
X45739437Y-48209570D01*
X45744891Y-48209437D01*
X45747927Y-48209400D01*
X59346400Y-48209400D01*
X62311022Y-46503727D01*
X62967687Y-46125920D01*
X63029525Y-46109400D01*
X66676400Y-46109400D01*
X66741945Y-46107261D01*
X66868567Y-46073333D01*
X66982094Y-46007788D01*
X67074788Y-45915094D01*
X67140333Y-45801567D01*
X67174261Y-45674945D01*
X67176400Y-45609400D01*
X67176400Y-42203131D01*
X67176437Y-42200092D01*
X67178694Y-42108016D01*
X67181380Y-42085213D01*
X67220075Y-41903659D01*
X67228127Y-41878949D01*
X67303189Y-41710857D01*
X67316216Y-41688365D01*
X67424673Y-41539608D01*
X67442093Y-41520336D01*
X67579182Y-41397449D01*
X67600240Y-41382230D01*
X67759929Y-41290623D01*
X67783698Y-41280127D01*
X67960443Y-41223348D01*
X67982843Y-41218384D01*
X68074976Y-41206777D01*
X68076525Y-41206593D01*
X68323294Y-41178979D01*
X68813028Y-41087615D01*
X69293419Y-40955666D01*
X69761112Y-40784055D01*
X70212836Y-40573979D01*
X70645436Y-40326909D01*
X70850662Y-40185739D01*
X71055871Y-40044582D01*
X71055880Y-40044575D01*
X71055889Y-40044569D01*
X71441325Y-39728934D01*
X71799051Y-39382208D01*
X72126568Y-39006816D01*
X72421587Y-38605380D01*
X72682045Y-38180706D01*
X72796400Y-37959400D01*
X72796400Y-36858200D01*
X75621355Y-36858200D01*
X75641859Y-37027069D01*
X75641860Y-37027074D01*
X75702182Y-37186131D01*
X75738865Y-37239274D01*
X75798817Y-37326129D01*
X75904505Y-37419760D01*
X75926150Y-37438936D01*
X76076773Y-37517989D01*
X76076775Y-37517990D01*
X76241944Y-37558700D01*
X76412056Y-37558700D01*
X76577225Y-37517990D01*
X76727852Y-37438934D01*
X76772982Y-37398951D01*
X76796599Y-37378030D01*
X76859832Y-37348308D01*
X76878826Y-37346845D01*
X77964071Y-37346845D01*
X78021697Y-37361049D01*
X78155232Y-37431134D01*
X78155234Y-37431135D01*
X78320403Y-37471845D01*
X78490515Y-37471845D01*
X78655684Y-37431135D01*
X78756866Y-37378030D01*
X78806308Y-37352081D01*
X78806309Y-37352079D01*
X78806311Y-37352079D01*
X78933642Y-37239274D01*
X79030277Y-37099275D01*
X79090599Y-36940217D01*
X79111104Y-36771345D01*
X79090599Y-36602473D01*
X79030277Y-36443415D01*
X78933642Y-36303416D01*
X78838775Y-36219371D01*
X78806308Y-36190608D01*
X78655685Y-36111555D01*
X78490515Y-36070845D01*
X78320403Y-36070845D01*
X78155232Y-36111555D01*
X78021697Y-36181641D01*
X77964071Y-36195845D01*
X76581875Y-36195845D01*
X76552200Y-36192242D01*
X76412056Y-36157700D01*
X76241944Y-36157700D01*
X76076773Y-36198410D01*
X75926150Y-36277463D01*
X75798816Y-36390272D01*
X75702182Y-36530268D01*
X75641860Y-36689325D01*
X75641859Y-36689330D01*
X75621355Y-36858200D01*
X72796400Y-36858200D01*
X72796400Y-33858200D01*
X75621355Y-33858200D01*
X75641859Y-34027069D01*
X75641860Y-34027074D01*
X75702182Y-34186131D01*
X75764475Y-34276377D01*
X75798817Y-34326129D01*
X75904505Y-34419760D01*
X75926150Y-34438936D01*
X76076773Y-34517989D01*
X76076775Y-34517990D01*
X76241944Y-34558700D01*
X76412056Y-34558700D01*
X76577225Y-34517990D01*
X76651474Y-34479020D01*
X76710762Y-34447904D01*
X76768388Y-34433700D01*
X78044612Y-34433700D01*
X78102238Y-34447904D01*
X78235773Y-34517989D01*
X78235775Y-34517990D01*
X78400944Y-34558700D01*
X78571056Y-34558700D01*
X78736225Y-34517990D01*
X78815692Y-34476281D01*
X78886849Y-34438936D01*
X78886850Y-34438934D01*
X78886852Y-34438934D01*
X79014183Y-34326129D01*
X79110818Y-34186130D01*
X79171140Y-34027072D01*
X79191645Y-33858200D01*
X79171140Y-33689328D01*
X79110818Y-33530270D01*
X79014183Y-33390271D01*
X78886852Y-33277466D01*
X78886849Y-33277463D01*
X78736226Y-33198410D01*
X78571056Y-33157700D01*
X78400944Y-33157700D01*
X78235773Y-33198410D01*
X78102238Y-33268496D01*
X78044612Y-33282700D01*
X76768388Y-33282700D01*
X76710762Y-33268496D01*
X76577226Y-33198410D01*
X76412056Y-33157700D01*
X76241944Y-33157700D01*
X76076773Y-33198410D01*
X75926150Y-33277463D01*
X75798816Y-33390272D01*
X75702182Y-33530268D01*
X75641860Y-33689325D01*
X75641859Y-33689330D01*
X75621355Y-33858200D01*
X72796400Y-33858200D01*
X72796400Y-22990100D01*
X76807006Y-22990100D01*
X76827527Y-23191919D01*
X76888253Y-23385464D01*
X76888260Y-23385479D01*
X76986702Y-23562838D01*
X76986705Y-23562843D01*
X77118839Y-23716760D01*
X77118840Y-23716762D01*
X77279252Y-23840929D01*
X77279256Y-23840932D01*
X77461383Y-23930270D01*
X77657766Y-23981117D01*
X77860364Y-23991392D01*
X78060883Y-23960673D01*
X78251114Y-23890220D01*
X78423268Y-23782915D01*
X78570299Y-23643152D01*
X78686185Y-23476653D01*
X78766184Y-23290235D01*
X78807019Y-23091529D01*
X78809584Y-22990100D01*
X78807019Y-22888671D01*
X78766184Y-22689965D01*
X78686185Y-22503547D01*
X78570299Y-22337048D01*
X78423268Y-22197285D01*
X78251114Y-22089980D01*
X78142975Y-22049930D01*
X78060884Y-22019527D01*
X78060878Y-22019526D01*
X77860365Y-21988808D01*
X77860364Y-21988808D01*
X77759065Y-21993945D01*
X77657765Y-21999083D01*
X77461382Y-22049930D01*
X77279252Y-22139270D01*
X77118840Y-22263437D01*
X77118839Y-22263439D01*
X76986705Y-22417356D01*
X76986702Y-22417361D01*
X76888260Y-22594720D01*
X76888253Y-22594735D01*
X76827527Y-22788280D01*
X76807006Y-22990100D01*
X72796400Y-22990100D01*
X72796400Y-19798422D01*
X73791230Y-19798422D01*
X73791230Y-19798427D01*
X73811041Y-20031217D01*
X73869914Y-20257321D01*
X73966147Y-20470214D01*
X73966152Y-20470222D01*
X74096980Y-20663789D01*
X74258645Y-20832467D01*
X74258646Y-20832468D01*
X74446484Y-20971393D01*
X74446486Y-20971394D01*
X74446489Y-20971396D01*
X74655111Y-21076581D01*
X74878507Y-21144995D01*
X75110253Y-21174671D01*
X75343680Y-21164755D01*
X75572074Y-21115533D01*
X75788864Y-21028419D01*
X75987814Y-20905921D01*
X76163199Y-20751563D01*
X76309975Y-20569784D01*
X76423919Y-20365815D01*
X76501753Y-20145523D01*
X76541238Y-19915246D01*
X76543715Y-19798427D01*
X76541238Y-19681608D01*
X76501753Y-19451331D01*
X76423919Y-19231039D01*
X76423918Y-19231036D01*
X76309974Y-19027069D01*
X76163199Y-18845291D01*
X76163195Y-18845287D01*
X76071272Y-18764385D01*
X75987814Y-18690933D01*
X75788864Y-18568435D01*
X75572074Y-18481321D01*
X75572075Y-18481321D01*
X75343678Y-18432098D01*
X75110255Y-18422182D01*
X74878510Y-18451858D01*
X74655111Y-18520273D01*
X74655105Y-18520276D01*
X74446484Y-18625460D01*
X74258646Y-18764385D01*
X74258645Y-18764386D01*
X74096980Y-18933064D01*
X73966152Y-19126631D01*
X73966147Y-19126639D01*
X73869914Y-19339532D01*
X73811041Y-19565636D01*
X73791230Y-19798422D01*
X72796400Y-19798422D01*
X72796400Y-17210926D01*
X72796437Y-17207890D01*
X72796472Y-17206425D01*
X72798545Y-17121815D01*
X72800890Y-17100672D01*
X72834762Y-16930383D01*
X72841812Y-16907141D01*
X72907674Y-16748138D01*
X72919126Y-16726714D01*
X73014738Y-16583619D01*
X73030151Y-16564839D01*
X73151839Y-16443151D01*
X73170619Y-16427738D01*
X73313714Y-16332126D01*
X73335138Y-16320674D01*
X73494141Y-16254812D01*
X73517383Y-16247762D01*
X73687672Y-16213890D01*
X73708815Y-16211545D01*
X73789437Y-16209570D01*
X73794891Y-16209437D01*
X73797927Y-16209400D01*
X81445030Y-16209400D01*
X81447730Y-16209429D01*
G37*
%TD.AperFunction*%
%TD*%
M02*
