%TF.GenerationSoftware,KiCad,Pcbnew,8.0.2*%
%TF.CreationDate,2024-09-01T00:37:24-07:00*%
%TF.ProjectId,procon_battery_pcb,70726f63-6f6e-45f6-9261-74746572795f,rev?*%
%TF.SameCoordinates,Original*%
%TF.FileFunction,Profile,NP*%
%FSLAX46Y46*%
G04 Gerber Fmt 4.6, Leading zero omitted, Abs format (unit mm)*
G04 Created by KiCad (PCBNEW 8.0.2) date 2024-09-01 00:37:24*
%MOMM*%
%LPD*%
G01*
G04 APERTURE LIST*
%TA.AperFunction,Profile*%
%ADD10C,0.100000*%
%TD*%
G04 APERTURE END LIST*
D10*
X44746400Y-52029400D02*
X44746400Y-49209400D01*
X78809584Y-22990100D02*
G75*
G02*
X76809584Y-22990100I-1000000J0D01*
G01*
X76809584Y-22990100D02*
G75*
G02*
X78809584Y-22990100I1000000J0D01*
G01*
X65576400Y-52229400D02*
X65576400Y-52529400D01*
X81696400Y-53029400D02*
X67876400Y-53029400D01*
X76594369Y-49118379D02*
X76594369Y-48568381D01*
X48115895Y-50808722D02*
G75*
G02*
X45915895Y-50808722I-1100000J0D01*
G01*
X45915895Y-50808722D02*
G75*
G02*
X48115895Y-50808722I1100000J0D01*
G01*
X67176400Y-45609400D02*
G75*
G02*
X66676400Y-46109400I-500000J0D01*
G01*
X44746400Y-49209400D02*
G75*
G02*
X45746400Y-48209400I1000000J0D01*
G01*
X45746400Y-48209400D02*
X59346400Y-48209400D01*
X76594369Y-49118379D02*
G75*
G02*
X73844369Y-49118379I-1375000J0D01*
G01*
X72796400Y-17209400D02*
G75*
G02*
X73796400Y-16209400I1000000J0D01*
G01*
X82696400Y-17459400D02*
X82696400Y-52029400D01*
X72796400Y-37959400D02*
G75*
G02*
X68075728Y-41206629I-5320200J2679300D01*
G01*
X65576400Y-52229400D02*
G75*
G02*
X66076400Y-51729400I500000J0D01*
G01*
X67876400Y-53029400D02*
G75*
G02*
X67376400Y-52529400I100J500100D01*
G01*
X62996400Y-46109400D02*
X66676400Y-46109400D01*
X73844369Y-48568377D02*
X73844369Y-49118379D01*
X76809945Y-44596217D02*
G75*
G02*
X74609945Y-44596217I-1100000J0D01*
G01*
X74609945Y-44596217D02*
G75*
G02*
X76809945Y-44596217I1100000J0D01*
G01*
X59346400Y-48209400D02*
X62996400Y-46109400D01*
X66876400Y-51729400D02*
X66076400Y-51729400D01*
X45746400Y-53029400D02*
G75*
G02*
X44746400Y-52029400I100J1000100D01*
G01*
X67376400Y-52529400D02*
X67376400Y-52229400D01*
X76543715Y-19798427D02*
G75*
G02*
X73793715Y-19798427I-1375000J0D01*
G01*
X73793715Y-19798427D02*
G75*
G02*
X76543715Y-19798427I1375000J0D01*
G01*
X73796400Y-16209400D02*
X81446400Y-16209400D01*
X66876400Y-51729400D02*
G75*
G02*
X67376400Y-52229400I100J-499900D01*
G01*
X72796400Y-37959400D02*
X72796400Y-17209400D01*
X81446400Y-16209400D02*
G75*
G02*
X82696400Y-17459400I0J-1250000D01*
G01*
X67176400Y-42201602D02*
G75*
G02*
X68075733Y-41206680I1000000J2D01*
G01*
X65076400Y-53029400D02*
X45746400Y-53029400D01*
X65576400Y-52529400D02*
G75*
G02*
X65076400Y-53029400I-500000J0D01*
G01*
X67176400Y-45609400D02*
X67176400Y-42201602D01*
X73844369Y-48568377D02*
G75*
G02*
X76594431Y-48568381I1375031J-23D01*
G01*
X82696400Y-52029400D02*
G75*
G02*
X81696400Y-53029400I-1000000J0D01*
G01*
M02*
