0
SECTION
2
HEADER
9
$INSUNITS
70
4
9
$ACADVER
1
AC1014
9
$HANDSEED
5
FFFF
0
ENDSEC
0
SECTION
2
TABLES
0
TABLE
2
VPORT
5
8
100
AcDbSymbolTable
0
ENDTAB
0
TABLE
2
LTYPE
5
5
100
AcDbSymbolTable
0
LTYPE
5
14
100
AcDbSymbolTableRecord
100
AcDbLinetypeTableRecord
2
BYBLOCK
70
0
0
LTYPE
5
15
100
AcDbSymbolTableRecord
100
AcDbLinetypeTableRecord
2
BYLAYER
70
0
0
ENDTAB
0
TABLE
2
LAYER
5
2
100
AcDbSymbolTable
70
2
0
LAYER
5
50
100
AcDbSymbolTableRecord
100
AcDbLayerTableRecord
2
0
70
0
6
CONTINUOUS
0
ENDTAB
0
TABLE
2
STYLE
5
3
100
AcDbSymbolTable
70
1
0
STYLE
5
11
100
AcDbSymbolTableRecord
100
AcDbTextStyleTableRecord
2
STANDARD
70
0
0
ENDTAB
0
TABLE
2
VIEW
5
6
100
AcDbSymbolTable
70
0
0
ENDTAB
0
TABLE
2
UCS
5
7
100
AcDbSymbolTable
70
0
0
ENDTAB
0
TABLE
2
APPID
5
9
100
AcDbSymbolTable
70
2
0
APPID
5
12
100
AcDbSymbolTableRecord
100
AcDbRegAppTableRecord
2
ACAD
70
0
0
ENDTAB
0
TABLE
2
DIMSTYLE
5
A
100
AcDbSymbolTable
70
1
0
ENDTAB
0
TABLE
2
BLOCK_RECORD
5
1
100
AcDbSymbolTable
70
1
0
BLOCK_RECORD
5
1F
100
AcDbSymbolTableRecord
100
AcDbBlockTableRecord
2
*MODEL_SPACE
0
BLOCK_RECORD
5
1B
100
AcDbSymbolTableRecord
100
AcDbBlockTableRecord
2
*PAPER_SPACE
0
ENDTAB
0
ENDSEC
0
SECTION
2
BLOCKS
0
BLOCK
5
20
100
AcDbEntity
100
AcDbBlockBegin
2
*MODEL_SPACE
0
ENDBLK
5
21
100
AcDbEntity
100
AcDbBlockEnd
0
BLOCK
5
1C
100
AcDbEntity
100
AcDbBlockBegin
2
*PAPER_SPACE
0
ENDBLK
5
1D
100
AcDbEntity
100
AcDbBlockEnd
0
ENDSEC
0
SECTION
2
ENTITIES
0
LWPOLYLINE
5
100
100
AcDbEntity
8
0
100
AcDbPolyline
90
25
70
1
43
0.0
10
34.27741216242184
20
-6.4458590931822659
42
0.25625366862004734
10
29.556744944519451
20
-9.6931408124192231
10
29.556744944519444
20
-30.44314081241922
42
-0.41421356237308982
10
28.556744944519444
20
-31.443140812419223
10
20.906744944519446
20
-31.443140812419216
42
-0.41421356237309293
10
19.656744944519446
20
-30.193140812419216
10
19.656744944519453
20
4.3768591875807816
42
-0.41421356237309342
10
20.656744944519453
20
5.3768591875807834
10
34.47674494451946
20
5.376859187580779
42
-0.4142135623730957
10
34.976744944519453
20
4.8768591875807799
10
34.976744944519453
20
4.5768591875807809
42
0.4142135623730947
10
35.476744944519453
20
4.0768591875807818
10
36.27674494451945
20
4.0768591875807818
42
0.4142135623730947
10
36.77674494451945
20
4.5768591875807809
10
36.77674494451945
20
4.8768591875807807
42
-0.4142135623730957
10
37.27674494451945
20
5.3768591875807807
10
56.606744944519455
20
5.3768591875807781
42
-0.41421356237309587
10
57.606744944519448
20
4.3768591875807781
10
57.606744944519448
20
1.5568591875807822
42
-0.41421356237309553
10
56.606744944519455
20
0.55685918758078135
10
43.006744944519454
20
0.55685918758078268
10
39.356744944519448
20
-1.5431408124192125
10
35.676744944519456
20
-1.5431408124192165
42
0.41421356237309492
10
35.176744944519456
20
-2.0431408124192156
10
35.176744944519456
20
-5.4509389399841348
42
-0.38497787818507506
0
CIRCLE
5
101
100
AcDbEntity
8
0
100
AcDbCircle
10
55.337249582561867
20
3.1561813392051787
30
0
40
1.9578091394964288
210
0
220
0
230
1
0
CIRCLE
5
102
100
AcDbEntity
8
0
100
AcDbCircle
10
55.337249582561867
20
3.1561813392051787
30
0
40
1.1000000000000032
210
0
220
0
230
1
0
LINE
5
103
100
AcDbEntity
8
0
100
AcDbLine
10
27.13377555169702
20
0.91583813581080742
30
0
11
27.13377555169702
21
-0.45916186418919425
31
0
0
LINE
5
104
100
AcDbEntity
8
0
100
AcDbLine
10
28.136661439508256
20
2.8408381358108059
30
0
11
26.228196769258204
21
2.8408381358108059
31
0
0
LWPOLYLINE
5
105
100
AcDbEntity
8
0
100
AcDbPolyline
90
4
70
1
43
0.0
10
25.758776352770681
20
1.4658381358108039
10
25.758775551699287
20
0.91584013849455448
42
1.0000000105367122
10
28.508775551696374
20
0.91583613313432244
10
28.508776352770685
20
1.4658381358108039
42
0.99999999999999989
0
CIRCLE
5
106
100
AcDbEntity
8
0
100
AcDbCircle
10
26.643200090643248
20
-3.056324439633118
30
0
40
1.1000000000000003
210
0
220
0
230
1
0
CIRCLE
5
107
100
AcDbEntity
8
0
100
AcDbCircle
10
26.643200090643248
20
-3.056324439633118
30
0
40
1.9271255203392763
210
0
220
0
230
1
0
CIRCLE
5
108
100
AcDbEntity
8
0
100
AcDbCircle
10
27.18442963792933
20
-27.854113757853906
30
0
40
1.3750000000000018
210
0
220
0
230
1
0
CIRCLE
5
109
100
AcDbEntity
8
0
100
AcDbCircle
10
24.543561458103298
20
-24.662441264116151
30
0
40
0.99999999999999922
210
0
220
0
230
1
0
LINE
5
110
100
AcDbEntity
8
0
100
AcDbLine
10
23.581319835255982
20
-17.275649716913907
30
0
11
23.581319835255982
21
-16.315649716913914
31
0
0
LINE
5
111
100
AcDbEntity
8
0
100
AcDbLine
10
26.411319835255963
20
-17.920649716913903
30
0
11
26.411319835255963
21
-15.670649716913918
31
0
0
LINE
5
112
100
AcDbEntity
8
0
100
AcDbLine
10
23.581319835255982
20
-14.275649716913927
30
0
11
23.581319835255982
21
-13.315649716913933
31
0
0
LINE
5
113
100
AcDbEntity
8
0
100
AcDbLine
10
26.411319835255963
20
-14.920649716913923
30
0
11
26.411319835255963
21
-12.670649716913937
31
0
0
LINE
5
114
100
AcDbEntity
8
0
100
AcDbLine
10
26.411319835255963
20
-11.920649716913942
30
0
11
26.411319835255963
21
-9.6706497169139567
31
0
0
LINE
5
115
100
AcDbEntity
8
0
100
AcDbLine
10
23.581319835255982
20
-11.275649716913946
30
0
11
23.581319835255982
21
-10.315649716913953
31
0
0
LINE
5
116
100
AcDbEntity
8
0
100
AcDbLine
10
44.756744944519447
20
0.55685918758078223
30
0
11
44.756744944519447
21
5.3768591875807807
31
0
0
ENDSEC
0
SECTION
2
OBJECTS
0
DICTIONARY
5
C
100
AcDbDictionary
3
ACAD_GROUP
350
D
3
ACAD_MLINESTYLE
350
17
0
DICTIONARY
5
D
100
AcDbDictionary
0
DICTIONARY
5
1A
330
C
100
AcDbDictionary
0
DICTIONARY
5
17
100
AcDbDictionary
0
ENDSEC
0
EOF
