G04 #@! TF.GenerationSoftware,KiCad,Pcbnew,7.0.6*
G04 #@! TF.CreationDate,2023-09-27T17:44:09-07:00*
G04 #@! TF.ProjectId,procon_tactile_button_board,70726f63-6f6e-45f7-9461-6374696c655f,rev?*
G04 #@! TF.SameCoordinates,Original*
G04 #@! TF.FileFunction,Paste,Top*
G04 #@! TF.FilePolarity,Positive*
%FSLAX46Y46*%
G04 Gerber Fmt 4.6, Leading zero omitted, Abs format (unit mm)*
G04 Created by KiCad (PCBNEW 7.0.6) date 2023-09-27 17:44:09*
%MOMM*%
%LPD*%
G01*
G04 APERTURE LIST*
%ADD10R,0.600000X0.650000*%
%ADD11R,0.550000X0.550000*%
%ADD12R,3.200000X1.000000*%
%ADD13R,1.000000X3.200000*%
G04 APERTURE END LIST*
D10*
X160198000Y-116611000D03*
X163298000Y-116611000D03*
X160198000Y-119361000D03*
X163298000Y-119361000D03*
X130498000Y-128111000D03*
X133598000Y-128111000D03*
X130498000Y-130861000D03*
X133598000Y-130861000D03*
D11*
X131573000Y-134461000D03*
X132523000Y-134461000D03*
X132523000Y-133511000D03*
X131573000Y-133511000D03*
D10*
X122598000Y-116611000D03*
X125698000Y-116611000D03*
X122598000Y-119361000D03*
X125698000Y-119361000D03*
D11*
X119003000Y-146246000D03*
X119953000Y-146246000D03*
X119953000Y-145296000D03*
X119003000Y-145296000D03*
X119003000Y-155546000D03*
X119953000Y-155546000D03*
X119953000Y-154596000D03*
X119003000Y-154596000D03*
X182703000Y-145271000D03*
X183653000Y-145271000D03*
X183653000Y-144321000D03*
X182703000Y-144321000D03*
X123673000Y-122961000D03*
X124623000Y-122961000D03*
X124623000Y-122011000D03*
X123673000Y-122011000D03*
X170803000Y-135071000D03*
X171753000Y-135071000D03*
X171753000Y-134121000D03*
X170803000Y-134121000D03*
D12*
X122878000Y-157421000D03*
X116078000Y-157421000D03*
X122878000Y-161421000D03*
X116078000Y-161421000D03*
D11*
X114353000Y-150896000D03*
X115303000Y-150896000D03*
X115303000Y-149946000D03*
X114353000Y-149946000D03*
X123653000Y-150896000D03*
X124603000Y-150896000D03*
X124603000Y-149946000D03*
X123653000Y-149946000D03*
X194603000Y-135071000D03*
X195553000Y-135071000D03*
X195553000Y-134121000D03*
X194603000Y-134121000D03*
X153223000Y-134461000D03*
X154173000Y-134461000D03*
X154173000Y-133511000D03*
X153223000Y-133511000D03*
D12*
X167878000Y-131346000D03*
X174678000Y-131346000D03*
X167878000Y-127346000D03*
X174678000Y-127346000D03*
D11*
X182703000Y-124871000D03*
X183653000Y-124871000D03*
X183653000Y-123921000D03*
X182703000Y-123921000D03*
D12*
X191678000Y-131346000D03*
X198478000Y-131346000D03*
X191678000Y-127346000D03*
X198478000Y-127346000D03*
X179778000Y-141546000D03*
X186578000Y-141546000D03*
X179778000Y-137546000D03*
X186578000Y-137546000D03*
D10*
X152148000Y-128111000D03*
X155248000Y-128111000D03*
X152148000Y-130861000D03*
X155248000Y-130861000D03*
D11*
X161273000Y-122961000D03*
X162223000Y-122961000D03*
X162223000Y-122011000D03*
X161273000Y-122011000D03*
D13*
X112478000Y-153821000D03*
X112478000Y-147021000D03*
X108478000Y-153821000D03*
X108478000Y-147021000D03*
D12*
X179778000Y-121146000D03*
X186578000Y-121146000D03*
X179778000Y-117146000D03*
X186578000Y-117146000D03*
D13*
X126478000Y-147021000D03*
X126478000Y-153821000D03*
X130478000Y-147021000D03*
X130478000Y-153821000D03*
D12*
X116078000Y-143421000D03*
X122878000Y-143421000D03*
X116078000Y-139421000D03*
X122878000Y-139421000D03*
M02*
