%TF.GenerationSoftware,KiCad,Pcbnew,7.0.6*%
%TF.CreationDate,2023-09-27T22:25:32-07:00*%
%TF.ProjectId,procon_battery_pcb,70726f63-6f6e-45f6-9261-74746572795f,rev?*%
%TF.SameCoordinates,Original*%
%TF.FileFunction,Profile,NP*%
%FSLAX46Y46*%
G04 Gerber Fmt 4.6, Leading zero omitted, Abs format (unit mm)*
G04 Created by KiCad (PCBNEW 7.0.6) date 2023-09-27 22:25:32*
%MOMM*%
%LPD*%
G01*
G04 APERTURE LIST*
%TA.AperFunction,Profile*%
%ADD10C,0.100000*%
%TD*%
G04 APERTURE END LIST*
D10*
X78809584Y-22990100D02*
G75*
G03*
X78809584Y-22990100I-1000000J0D01*
G01*
X76543715Y-19798427D02*
G75*
G03*
X76543715Y-19798427I-1375000J0D01*
G01*
X76809945Y-44596217D02*
G75*
G03*
X76809945Y-44596217I-1100000J0D01*
G01*
X73844369Y-49118379D02*
G75*
G03*
X76594369Y-49118379I1375000J0D01*
G01*
X73844369Y-48568377D02*
X73844369Y-49118379D01*
X76594361Y-48568381D02*
G75*
G03*
X73844369Y-48568377I-1374996J0D01*
G01*
X76594369Y-49118379D02*
X76594369Y-48568381D01*
X48115895Y-50808722D02*
G75*
G03*
X48115895Y-50808722I-1100000J0D01*
G01*
X68075733Y-41206680D02*
G75*
G03*
X67176400Y-42201602I100712J-994961D01*
G01*
X67176400Y-45609400D02*
X67176400Y-42201602D01*
X66676400Y-46109396D02*
G75*
G03*
X67176400Y-45609400I45J499955D01*
G01*
X62996400Y-46109400D02*
X66676400Y-46109400D01*
X59346400Y-48209400D02*
X62996400Y-46109400D01*
X45746400Y-48209400D02*
X59346400Y-48209400D01*
X45746400Y-48209396D02*
G75*
G03*
X44746400Y-49209400I45J-1000045D01*
G01*
X44746400Y-52029400D02*
X44746400Y-49209400D01*
X44746486Y-52029400D02*
G75*
G03*
X45746400Y-53029400I999959J-41D01*
G01*
X65076400Y-53029400D02*
X45746400Y-53029400D01*
X65076400Y-53029396D02*
G75*
G03*
X65576400Y-52529400I45J499955D01*
G01*
X65576400Y-52229400D02*
X65576400Y-52529400D01*
X66076400Y-51729396D02*
G75*
G03*
X65576400Y-52229400I45J-500045D01*
G01*
X66876400Y-51729400D02*
X66076400Y-51729400D01*
X67376486Y-52229400D02*
G75*
G03*
X66876400Y-51729400I-500041J-41D01*
G01*
X67376400Y-52529400D02*
X67376400Y-52229400D01*
X67376486Y-52529400D02*
G75*
G03*
X67876400Y-53029400I499959J-41D01*
G01*
X81696400Y-53029400D02*
X67876400Y-53029400D01*
X81696400Y-53029396D02*
G75*
G03*
X82696400Y-52029400I45J999955D01*
G01*
X82696400Y-17459400D02*
X82696400Y-52029400D01*
X82696406Y-17459400D02*
G75*
G03*
X81446400Y-16209400I-1250001J-1D01*
G01*
X73796400Y-16209400D02*
X81446400Y-16209400D01*
X73796400Y-16209396D02*
G75*
G03*
X72796400Y-17209400I45J-1000045D01*
G01*
X72796400Y-37959400D02*
X72796400Y-17209400D01*
X68075737Y-41206718D02*
G75*
G03*
X72796399Y-37959400I-599692J5926677D01*
G01*
M02*
