%TF.GenerationSoftware,KiCad,Pcbnew,7.0.6*%
%TF.CreationDate,2023-09-27T22:25:35-07:00*%
%TF.ProjectId,procon_battery_pcb,70726f63-6f6e-45f6-9261-74746572795f,rev?*%
%TF.SameCoordinates,Original*%
%TF.FileFunction,Drillmap*%
%TF.FilePolarity,Positive*%
%FSLAX45Y45*%
G04 Gerber Fmt 4.5, Leading zero omitted, Abs format (unit mm)*
G04 Created by KiCad (PCBNEW 7.0.6) date 2023-09-27 22:25:35*
%MOMM*%
%LPD*%
G01*
G04 APERTURE LIST*
%ADD10C,0.100000*%
%ADD11C,0.200000*%
G04 APERTURE END LIST*
D10*
X7880958Y-2299010D02*
G75*
G03*
X7880958Y-2299010I-100000J0D01*
G01*
X7654371Y-1979843D02*
G75*
G03*
X7654371Y-1979843I-137500J0D01*
G01*
X7680994Y-4459622D02*
G75*
G03*
X7680994Y-4459622I-110000J0D01*
G01*
X7384437Y-4911838D02*
G75*
G03*
X7659437Y-4911838I137500J0D01*
G01*
X7384437Y-4856838D02*
X7384437Y-4911838D01*
X7659436Y-4856838D02*
G75*
G03*
X7384437Y-4856838I-137500J0D01*
G01*
X7659437Y-4911838D02*
X7659437Y-4856838D01*
X4811590Y-5080872D02*
G75*
G03*
X4811590Y-5080872I-110000J0D01*
G01*
X6807573Y-4120668D02*
G75*
G03*
X6717640Y-4220160I10071J-99496D01*
G01*
X6717640Y-4560940D02*
X6717640Y-4220160D01*
X6667640Y-4610940D02*
G75*
G03*
X6717640Y-4560940I5J49996D01*
G01*
X6299640Y-4610940D02*
X6667640Y-4610940D01*
X5934640Y-4820940D02*
X6299640Y-4610940D01*
X4574640Y-4820940D02*
X5934640Y-4820940D01*
X4574640Y-4820940D02*
G75*
G03*
X4474640Y-4920940I5J-100005D01*
G01*
X4474640Y-5202940D02*
X4474640Y-4920940D01*
X4474649Y-5202940D02*
G75*
G03*
X4574640Y-5302940I99996J-4D01*
G01*
X6507640Y-5302940D02*
X4574640Y-5302940D01*
X6507640Y-5302940D02*
G75*
G03*
X6557640Y-5252940I5J49996D01*
G01*
X6557640Y-5222940D02*
X6557640Y-5252940D01*
X6607640Y-5172940D02*
G75*
G03*
X6557640Y-5222940I5J-50005D01*
G01*
X6687640Y-5172940D02*
X6607640Y-5172940D01*
X6737649Y-5222940D02*
G75*
G03*
X6687640Y-5172940I-50004J-4D01*
G01*
X6737640Y-5252940D02*
X6737640Y-5222940D01*
X6737649Y-5252940D02*
G75*
G03*
X6787640Y-5302940I49996J-4D01*
G01*
X8169640Y-5302940D02*
X6787640Y-5302940D01*
X8169640Y-5302940D02*
G75*
G03*
X8269640Y-5202940I5J99996D01*
G01*
X8269640Y-1745940D02*
X8269640Y-5202940D01*
X8269641Y-1745940D02*
G75*
G03*
X8144640Y-1620940I-125000J0D01*
G01*
X7379640Y-1620940D02*
X8144640Y-1620940D01*
X7379640Y-1620940D02*
G75*
G03*
X7279640Y-1720940I5J-100005D01*
G01*
X7279640Y-3795940D02*
X7279640Y-1720940D01*
X6807574Y-4120672D02*
G75*
G03*
X7279640Y-3795940I-59969J592668D01*
G01*
D11*
X4730417Y-5619424D02*
X4730417Y-5419424D01*
X4730417Y-5419424D02*
X4778036Y-5419424D01*
X4778036Y-5419424D02*
X4806607Y-5428948D01*
X4806607Y-5428948D02*
X4825655Y-5447995D01*
X4825655Y-5447995D02*
X4835179Y-5467043D01*
X4835179Y-5467043D02*
X4844703Y-5505138D01*
X4844703Y-5505138D02*
X4844703Y-5533710D01*
X4844703Y-5533710D02*
X4835179Y-5571805D01*
X4835179Y-5571805D02*
X4825655Y-5590852D01*
X4825655Y-5590852D02*
X4806607Y-5609900D01*
X4806607Y-5609900D02*
X4778036Y-5619424D01*
X4778036Y-5619424D02*
X4730417Y-5619424D01*
X4930417Y-5619424D02*
X4930417Y-5486090D01*
X4930417Y-5524186D02*
X4939941Y-5505138D01*
X4939941Y-5505138D02*
X4949464Y-5495614D01*
X4949464Y-5495614D02*
X4968512Y-5486090D01*
X4968512Y-5486090D02*
X4987560Y-5486090D01*
X5054226Y-5619424D02*
X5054226Y-5486090D01*
X5054226Y-5419424D02*
X5044703Y-5428948D01*
X5044703Y-5428948D02*
X5054226Y-5438471D01*
X5054226Y-5438471D02*
X5063750Y-5428948D01*
X5063750Y-5428948D02*
X5054226Y-5419424D01*
X5054226Y-5419424D02*
X5054226Y-5438471D01*
X5178036Y-5619424D02*
X5158988Y-5609900D01*
X5158988Y-5609900D02*
X5149464Y-5590852D01*
X5149464Y-5590852D02*
X5149464Y-5419424D01*
X5282798Y-5619424D02*
X5263750Y-5609900D01*
X5263750Y-5609900D02*
X5254226Y-5590852D01*
X5254226Y-5590852D02*
X5254226Y-5419424D01*
X5511369Y-5619424D02*
X5511369Y-5419424D01*
X5511369Y-5419424D02*
X5578036Y-5562281D01*
X5578036Y-5562281D02*
X5644702Y-5419424D01*
X5644702Y-5419424D02*
X5644702Y-5619424D01*
X5825655Y-5619424D02*
X5825655Y-5514662D01*
X5825655Y-5514662D02*
X5816131Y-5495614D01*
X5816131Y-5495614D02*
X5797083Y-5486090D01*
X5797083Y-5486090D02*
X5758988Y-5486090D01*
X5758988Y-5486090D02*
X5739941Y-5495614D01*
X5825655Y-5609900D02*
X5806607Y-5619424D01*
X5806607Y-5619424D02*
X5758988Y-5619424D01*
X5758988Y-5619424D02*
X5739941Y-5609900D01*
X5739941Y-5609900D02*
X5730417Y-5590852D01*
X5730417Y-5590852D02*
X5730417Y-5571805D01*
X5730417Y-5571805D02*
X5739941Y-5552757D01*
X5739941Y-5552757D02*
X5758988Y-5543233D01*
X5758988Y-5543233D02*
X5806607Y-5543233D01*
X5806607Y-5543233D02*
X5825655Y-5533710D01*
X5920893Y-5486090D02*
X5920893Y-5686090D01*
X5920893Y-5495614D02*
X5939941Y-5486090D01*
X5939941Y-5486090D02*
X5978036Y-5486090D01*
X5978036Y-5486090D02*
X5997083Y-5495614D01*
X5997083Y-5495614D02*
X6006607Y-5505138D01*
X6006607Y-5505138D02*
X6016131Y-5524186D01*
X6016131Y-5524186D02*
X6016131Y-5581329D01*
X6016131Y-5581329D02*
X6006607Y-5600376D01*
X6006607Y-5600376D02*
X5997083Y-5609900D01*
X5997083Y-5609900D02*
X5978036Y-5619424D01*
X5978036Y-5619424D02*
X5939941Y-5619424D01*
X5939941Y-5619424D02*
X5920893Y-5609900D01*
X6101845Y-5600376D02*
X6111369Y-5609900D01*
X6111369Y-5609900D02*
X6101845Y-5619424D01*
X6101845Y-5619424D02*
X6092322Y-5609900D01*
X6092322Y-5609900D02*
X6101845Y-5600376D01*
X6101845Y-5600376D02*
X6101845Y-5619424D01*
X6101845Y-5495614D02*
X6111369Y-5505138D01*
X6111369Y-5505138D02*
X6101845Y-5514662D01*
X6101845Y-5514662D02*
X6092322Y-5505138D01*
X6092322Y-5505138D02*
X6101845Y-5495614D01*
X6101845Y-5495614D02*
X6101845Y-5514662D01*
M02*
