G04 #@! TF.GenerationSoftware,KiCad,Pcbnew,8.0.2*
G04 #@! TF.CreationDate,2024-09-01T00:41:49-07:00*
G04 #@! TF.ProjectId,procon_button_board,70726f63-6f6e-45f6-9275-74746f6e5f62,rev?*
G04 #@! TF.SameCoordinates,Original*
G04 #@! TF.FileFunction,Profile,NP*
%FSLAX46Y46*%
G04 Gerber Fmt 4.6, Leading zero omitted, Abs format (unit mm)*
G04 Created by KiCad (PCBNEW 8.0.2) date 2024-09-01 00:41:49*
%MOMM*%
%LPD*%
G01*
G04 APERTURE LIST*
G04 #@! TA.AperFunction,Profile*
%ADD10C,0.100000*%
G04 #@! TD*
G04 APERTURE END LIST*
D10*
X122248000Y-131896000D02*
G75*
G02*
X119748000Y-131896000I-1250000J0D01*
G01*
X119748000Y-131896000D02*
G75*
G02*
X122248000Y-131896000I1250000J0D01*
G01*
X144518000Y-123556000D02*
G75*
G02*
X141218000Y-123556000I-1650000J0D01*
G01*
X141218000Y-123556000D02*
G75*
G02*
X144518000Y-123556000I1650000J0D01*
G01*
X151619219Y-161258419D02*
G75*
G02*
X151928026Y-161981059I-691219J-722681D01*
G01*
X205428000Y-127516000D02*
G75*
G02*
X206428000Y-128516000I0J-1000000D01*
G01*
X98828000Y-164696000D02*
X100478000Y-164696000D01*
X116048000Y-115496000D02*
X116048000Y-130496000D01*
X97028000Y-145796000D02*
X97028000Y-154153850D01*
X144578000Y-151745231D02*
X144577999Y-149666769D01*
X196048000Y-122266000D02*
G75*
G02*
X202228022Y-127515995I-548700J-6908300D01*
G01*
X151928000Y-165796000D02*
X151928000Y-161981059D01*
X100478000Y-164696000D02*
G75*
G02*
X101478000Y-165696000I0J-1000000D01*
G01*
X101828000Y-150586000D02*
G75*
G02*
X99628000Y-150586000I-1100000J0D01*
G01*
X99628000Y-150586000D02*
G75*
G02*
X101828000Y-150586000I1100000J0D01*
G01*
X166548000Y-112496000D02*
X156898000Y-112496000D01*
X102478000Y-166796000D02*
G75*
G02*
X101478000Y-165796000I0J1000000D01*
G01*
X179918132Y-151795999D02*
G75*
G02*
X178418101Y-150296003I-32J1499999D01*
G01*
X151928000Y-165796000D02*
G75*
G02*
X150928000Y-166796000I-1000000J0D01*
G01*
X97155141Y-154359568D02*
G75*
G02*
X97028045Y-154153850I102859J205668D01*
G01*
X156898000Y-112496000D02*
X155048000Y-114696000D01*
X97155141Y-154359568D02*
X97700859Y-154632432D01*
X129348000Y-112496000D02*
X119548000Y-112496000D01*
X117448000Y-114496000D02*
X117048000Y-114496000D01*
X101528000Y-144796000D02*
X98028000Y-144796000D01*
X132428000Y-166796000D02*
X150928000Y-166796000D01*
X144577999Y-151745231D02*
G75*
G02*
X141278001Y-151745231I-1649999J1039232D01*
G01*
X126828000Y-165796000D02*
G75*
G02*
X125828000Y-166796000I-1000000J0D01*
G01*
X141278000Y-149666770D02*
X141278000Y-151745231D01*
X102478000Y-166796000D02*
X125828000Y-166796000D01*
X126828000Y-165796000D02*
X126828000Y-165346000D01*
X173103119Y-137956193D02*
G75*
G02*
X178418094Y-150296002I-10527719J-11849007D01*
G01*
X205428000Y-127516000D02*
X202228000Y-127516000D01*
X195528000Y-141596000D02*
G75*
G02*
X193328000Y-141596000I-1100000J0D01*
G01*
X193328000Y-141596000D02*
G75*
G02*
X195528000Y-141596000I1100000J0D01*
G01*
X97028000Y-145796000D02*
G75*
G02*
X98028000Y-144796000I1000000J0D01*
G01*
X97828000Y-154838150D02*
X97828000Y-163696000D01*
X141278000Y-149666770D02*
G75*
G02*
X144577999Y-149666768I1650000J-1039230D01*
G01*
X119548000Y-112496000D02*
X117448000Y-114496000D01*
X151619219Y-161258419D02*
G75*
G02*
X173103162Y-137956146I10955881J11453919D01*
G01*
X126828000Y-165346000D02*
G75*
G02*
X131428000Y-165346000I2300000J0D01*
G01*
X98828000Y-164696000D02*
G75*
G02*
X97828000Y-163696000I0J1000000D01*
G01*
X97700859Y-154632432D02*
G75*
G02*
X97827955Y-154838150I-102859J-205668D01*
G01*
X179918132Y-151796000D02*
X192628000Y-151796000D01*
X196048000Y-122266000D02*
X192547868Y-114574700D01*
X192628000Y-151796000D02*
X206428000Y-132246000D01*
X155048000Y-114696000D02*
X130648000Y-114696000D01*
X206428000Y-132246000D02*
X206428000Y-128516000D01*
X191182600Y-113696000D02*
G75*
G02*
X192547877Y-114574696I0J-1500000D01*
G01*
X101478000Y-165696000D02*
X101478000Y-165796000D01*
X131428000Y-165346000D02*
X131428000Y-165796000D01*
X191182600Y-113696000D02*
X188798000Y-113696000D01*
X188798000Y-113696000D02*
X187848000Y-112496000D01*
X132428000Y-166796000D02*
G75*
G02*
X131428000Y-165796000I0J1000000D01*
G01*
X170198000Y-112496000D02*
X167798000Y-113996000D01*
X116048000Y-115496000D02*
G75*
G02*
X117048000Y-114496000I1000000J0D01*
G01*
X139328000Y-150546000D02*
G75*
G02*
X136828000Y-150546000I-1250000J0D01*
G01*
X136828000Y-150546000D02*
G75*
G02*
X139328000Y-150546000I1250000J0D01*
G01*
X130648000Y-114696000D02*
X129348000Y-112496000D01*
X116048000Y-130496000D02*
G75*
G02*
X101528000Y-144795992I-14520000J221700D01*
G01*
X167798000Y-113996000D02*
X166548000Y-112496000D01*
X187848000Y-112496000D02*
X170198000Y-112496000D01*
M02*
