%TF.GenerationSoftware,KiCad,Pcbnew,8.0.2*%
%TF.CreationDate,2024-09-01T00:41:52-07:00*%
%TF.ProjectId,procon_button_board,70726f63-6f6e-45f6-9275-74746f6e5f62,rev?*%
%TF.SameCoordinates,Original*%
%TF.FileFunction,Drillmap*%
%TF.FilePolarity,Positive*%
%FSLAX45Y45*%
G04 Gerber Fmt 4.5, Leading zero omitted, Abs format (unit mm)*
G04 Created by KiCad (PCBNEW 8.0.2) date 2024-09-01 00:41:52*
%MOMM*%
%LPD*%
G01*
G04 APERTURE LIST*
%ADD10C,0.100000*%
%ADD11C,0.200000*%
G04 APERTURE END LIST*
D10*
X12224800Y-13189600D02*
G75*
G02*
X11974800Y-13189600I-125000J0D01*
G01*
X11974800Y-13189600D02*
G75*
G02*
X12224800Y-13189600I125000J0D01*
G01*
X14451800Y-12355600D02*
G75*
G02*
X14121800Y-12355600I-165000J0D01*
G01*
X14121800Y-12355600D02*
G75*
G02*
X14451800Y-12355600I165000J0D01*
G01*
X15161922Y-16125842D02*
G75*
G02*
X15192803Y-16198106I-69122J-72268D01*
G01*
X20542800Y-12751600D02*
G75*
G02*
X20642800Y-12851600I0J-100000D01*
G01*
X9882800Y-16469600D02*
X10047800Y-16469600D01*
X11604800Y-11549600D02*
X11604800Y-13049600D01*
X9702800Y-14579600D02*
X9702800Y-15415385D01*
X14457800Y-15174523D02*
X14457800Y-14966677D01*
X19604800Y-12226600D02*
G75*
G02*
X20222802Y-12751599I-54870J-690830D01*
G01*
X15192800Y-16579600D02*
X15192800Y-16198106D01*
X10047800Y-16469600D02*
G75*
G02*
X10147800Y-16569600I0J-100000D01*
G01*
X10182800Y-15058600D02*
G75*
G02*
X9962800Y-15058600I-110000J0D01*
G01*
X9962800Y-15058600D02*
G75*
G02*
X10182800Y-15058600I110000J0D01*
G01*
X16654800Y-11249600D02*
X15689800Y-11249600D01*
X10247800Y-16679600D02*
G75*
G02*
X10147800Y-16579600I0J100000D01*
G01*
X17991813Y-15179600D02*
G75*
G02*
X17841810Y-15029600I-3J150000D01*
G01*
X15192800Y-16579600D02*
G75*
G02*
X15092800Y-16679600I-100000J0D01*
G01*
X9715514Y-15435957D02*
G75*
G02*
X9702805Y-15415385I10286J20567D01*
G01*
X15689800Y-11249600D02*
X15504800Y-11469600D01*
X9715514Y-15435957D02*
X9770086Y-15463243D01*
X12934800Y-11249600D02*
X11954800Y-11249600D01*
X11744800Y-11449600D02*
X11704800Y-11449600D01*
X10152800Y-14479600D02*
X9802800Y-14479600D01*
X13242800Y-16679600D02*
X15092800Y-16679600D01*
X14457800Y-15174523D02*
G75*
G02*
X14127800Y-15174523I-165000J103923D01*
G01*
X12682800Y-16579600D02*
G75*
G02*
X12582800Y-16679600I-100000J0D01*
G01*
X14127800Y-14966677D02*
X14127800Y-15174523D01*
X10247800Y-16679600D02*
X12582800Y-16679600D01*
X12682800Y-16579600D02*
X12682800Y-16534600D01*
X17310312Y-13795619D02*
G75*
G02*
X17841809Y-15029600I-1052772J-1184901D01*
G01*
X20542800Y-12751600D02*
X20222800Y-12751600D01*
X19552800Y-14159600D02*
G75*
G02*
X19332800Y-14159600I-110000J0D01*
G01*
X19332800Y-14159600D02*
G75*
G02*
X19552800Y-14159600I110000J0D01*
G01*
X9702800Y-14579600D02*
G75*
G02*
X9802800Y-14479600I100000J0D01*
G01*
X9782800Y-15483815D02*
X9782800Y-16369600D01*
X14127800Y-14966677D02*
G75*
G02*
X14457800Y-14966677I165000J-103923D01*
G01*
X11954800Y-11249600D02*
X11744800Y-11449600D01*
X15161922Y-16125842D02*
G75*
G02*
X17310316Y-13795615I1095588J1145392D01*
G01*
X12682800Y-16534600D02*
G75*
G02*
X13142800Y-16534600I230000J0D01*
G01*
X9882800Y-16469600D02*
G75*
G02*
X9782800Y-16369600I0J100000D01*
G01*
X9770086Y-15463243D02*
G75*
G02*
X9782796Y-15483815I-10286J-20567D01*
G01*
X17991813Y-15179600D02*
X19262800Y-15179600D01*
X19604800Y-12226600D02*
X19254787Y-11457470D01*
X19262800Y-15179600D02*
X20642800Y-13224600D01*
X15504800Y-11469600D02*
X13064800Y-11469600D01*
X20642800Y-13224600D02*
X20642800Y-12851600D01*
X19118260Y-11369600D02*
G75*
G02*
X19254788Y-11457470I0J-150000D01*
G01*
X10147800Y-16569600D02*
X10147800Y-16579600D01*
X13142800Y-16534600D02*
X13142800Y-16579600D01*
X19118260Y-11369600D02*
X18879800Y-11369600D01*
X18879800Y-11369600D02*
X18784800Y-11249600D01*
X13242800Y-16679600D02*
G75*
G02*
X13142800Y-16579600I0J100000D01*
G01*
X17019800Y-11249600D02*
X16779800Y-11399600D01*
X11604800Y-11549600D02*
G75*
G02*
X11704800Y-11449600I100000J0D01*
G01*
X13932800Y-15054600D02*
G75*
G02*
X13682800Y-15054600I-125000J0D01*
G01*
X13682800Y-15054600D02*
G75*
G02*
X13932800Y-15054600I125000J0D01*
G01*
X13064800Y-11469600D02*
X12934800Y-11249600D01*
X11604800Y-13049600D02*
G75*
G02*
X10152800Y-14479599I-1452000J22170D01*
G01*
X16779800Y-11399600D02*
X16654800Y-11249600D01*
X18784800Y-11249600D02*
X17019800Y-11249600D01*
D11*
X9958577Y-16996084D02*
X9958577Y-16796084D01*
X9958577Y-16796084D02*
X10006196Y-16796084D01*
X10006196Y-16796084D02*
X10034767Y-16805608D01*
X10034767Y-16805608D02*
X10053815Y-16824655D01*
X10053815Y-16824655D02*
X10063339Y-16843703D01*
X10063339Y-16843703D02*
X10072863Y-16881798D01*
X10072863Y-16881798D02*
X10072863Y-16910370D01*
X10072863Y-16910370D02*
X10063339Y-16948465D01*
X10063339Y-16948465D02*
X10053815Y-16967512D01*
X10053815Y-16967512D02*
X10034767Y-16986560D01*
X10034767Y-16986560D02*
X10006196Y-16996084D01*
X10006196Y-16996084D02*
X9958577Y-16996084D01*
X10158577Y-16996084D02*
X10158577Y-16862750D01*
X10158577Y-16900846D02*
X10168101Y-16881798D01*
X10168101Y-16881798D02*
X10177624Y-16872274D01*
X10177624Y-16872274D02*
X10196672Y-16862750D01*
X10196672Y-16862750D02*
X10215720Y-16862750D01*
X10282386Y-16996084D02*
X10282386Y-16862750D01*
X10282386Y-16796084D02*
X10272863Y-16805608D01*
X10272863Y-16805608D02*
X10282386Y-16815131D01*
X10282386Y-16815131D02*
X10291910Y-16805608D01*
X10291910Y-16805608D02*
X10282386Y-16796084D01*
X10282386Y-16796084D02*
X10282386Y-16815131D01*
X10406196Y-16996084D02*
X10387148Y-16986560D01*
X10387148Y-16986560D02*
X10377624Y-16967512D01*
X10377624Y-16967512D02*
X10377624Y-16796084D01*
X10510958Y-16996084D02*
X10491910Y-16986560D01*
X10491910Y-16986560D02*
X10482386Y-16967512D01*
X10482386Y-16967512D02*
X10482386Y-16796084D01*
X10739529Y-16996084D02*
X10739529Y-16796084D01*
X10739529Y-16796084D02*
X10806196Y-16938941D01*
X10806196Y-16938941D02*
X10872863Y-16796084D01*
X10872863Y-16796084D02*
X10872863Y-16996084D01*
X11053815Y-16996084D02*
X11053815Y-16891322D01*
X11053815Y-16891322D02*
X11044291Y-16872274D01*
X11044291Y-16872274D02*
X11025244Y-16862750D01*
X11025244Y-16862750D02*
X10987148Y-16862750D01*
X10987148Y-16862750D02*
X10968101Y-16872274D01*
X11053815Y-16986560D02*
X11034767Y-16996084D01*
X11034767Y-16996084D02*
X10987148Y-16996084D01*
X10987148Y-16996084D02*
X10968101Y-16986560D01*
X10968101Y-16986560D02*
X10958577Y-16967512D01*
X10958577Y-16967512D02*
X10958577Y-16948465D01*
X10958577Y-16948465D02*
X10968101Y-16929417D01*
X10968101Y-16929417D02*
X10987148Y-16919893D01*
X10987148Y-16919893D02*
X11034767Y-16919893D01*
X11034767Y-16919893D02*
X11053815Y-16910370D01*
X11149053Y-16862750D02*
X11149053Y-17062750D01*
X11149053Y-16872274D02*
X11168101Y-16862750D01*
X11168101Y-16862750D02*
X11206196Y-16862750D01*
X11206196Y-16862750D02*
X11225243Y-16872274D01*
X11225243Y-16872274D02*
X11234767Y-16881798D01*
X11234767Y-16881798D02*
X11244291Y-16900846D01*
X11244291Y-16900846D02*
X11244291Y-16957989D01*
X11244291Y-16957989D02*
X11234767Y-16977036D01*
X11234767Y-16977036D02*
X11225243Y-16986560D01*
X11225243Y-16986560D02*
X11206196Y-16996084D01*
X11206196Y-16996084D02*
X11168101Y-16996084D01*
X11168101Y-16996084D02*
X11149053Y-16986560D01*
X11330005Y-16977036D02*
X11339529Y-16986560D01*
X11339529Y-16986560D02*
X11330005Y-16996084D01*
X11330005Y-16996084D02*
X11320482Y-16986560D01*
X11320482Y-16986560D02*
X11330005Y-16977036D01*
X11330005Y-16977036D02*
X11330005Y-16996084D01*
X11330005Y-16872274D02*
X11339529Y-16881798D01*
X11339529Y-16881798D02*
X11330005Y-16891322D01*
X11330005Y-16891322D02*
X11320482Y-16881798D01*
X11320482Y-16881798D02*
X11330005Y-16872274D01*
X11330005Y-16872274D02*
X11330005Y-16891322D01*
M02*
