%TF.GenerationSoftware,KiCad,Pcbnew,7.0.6*%
%TF.CreationDate,2024-03-05T17:24:46-08:00*%
%TF.ProjectId,procon_button_board,70726f63-6f6e-45f6-9275-74746f6e5f62,rev?*%
%TF.SameCoordinates,Original*%
%TF.FileFunction,Drillmap*%
%TF.FilePolarity,Positive*%
%FSLAX45Y45*%
G04 Gerber Fmt 4.5, Leading zero omitted, Abs format (unit mm)*
G04 Created by KiCad (PCBNEW 7.0.6) date 2024-03-05 17:24:46*
%MOMM*%
%LPD*%
G01*
G04 APERTURE LIST*
%ADD10C,0.100000*%
%ADD11C,0.200000*%
%ADD12C,0.035000*%
%ADD13C,0.040000*%
%ADD14C,0.050000*%
G04 APERTURE END LIST*
D10*
X12224800Y-13189600D02*
G75*
G03*
X12224800Y-13189600I-125000J0D01*
G01*
X14451800Y-12355600D02*
G75*
G03*
X14451800Y-12355600I-165000J0D01*
G01*
X15192802Y-16198106D02*
G75*
G03*
X15161922Y-16125842I-100003J-4D01*
G01*
X20642800Y-12851600D02*
G75*
G03*
X20542800Y-12751600I-100000J0D01*
G01*
X9882800Y-16469600D02*
X10047800Y-16469600D01*
X11604800Y-11549600D02*
X11604800Y-13049600D01*
X9702800Y-14579600D02*
X9702800Y-15415385D01*
X14457800Y-15174523D02*
X14457800Y-14966677D01*
X20222802Y-12751599D02*
G75*
G03*
X19604800Y-12226600I-672872J-165831D01*
G01*
X15192800Y-16579600D02*
X15192800Y-16198106D01*
X10147800Y-16569600D02*
G75*
G03*
X10047800Y-16469600I-100000J0D01*
G01*
X10182800Y-15058600D02*
G75*
G03*
X10182800Y-15058600I-110000J0D01*
G01*
X16654800Y-11249600D02*
X15689800Y-11249600D01*
X10147800Y-16579600D02*
G75*
G03*
X10247800Y-16679600I100000J0D01*
G01*
X17841810Y-15029600D02*
G75*
G03*
X17991813Y-15179600I150000J0D01*
G01*
X15092800Y-16679600D02*
G75*
G03*
X15192800Y-16579600I0J100000D01*
G01*
X9702805Y-15415385D02*
G75*
G03*
X9715514Y-15435957I22995J-5D01*
G01*
X15689800Y-11249600D02*
X15504800Y-11469600D01*
X9715514Y-15435957D02*
X9770086Y-15463243D01*
X12934800Y-11249600D02*
X11954800Y-11249600D01*
X11744800Y-11449600D02*
X11704800Y-11449600D01*
X10152800Y-14479600D02*
X9802800Y-14479600D01*
X13242800Y-16679600D02*
X15092800Y-16679600D01*
X14127800Y-15174523D02*
G75*
G03*
X14457800Y-15174523I165000J103923D01*
G01*
X12582800Y-16679600D02*
G75*
G03*
X12682800Y-16579600I0J100000D01*
G01*
X14127800Y-14966677D02*
X14127800Y-15174523D01*
X10247800Y-16679600D02*
X12582800Y-16679600D01*
X12682800Y-16579600D02*
X12682800Y-16534600D01*
X17841809Y-15029600D02*
G75*
G03*
X17310312Y-13795619I-1584269J49080D01*
G01*
X20542800Y-12751600D02*
X20222800Y-12751600D01*
X19552800Y-14159600D02*
G75*
G03*
X19552800Y-14159600I-110000J0D01*
G01*
X9802800Y-14479600D02*
G75*
G03*
X9702800Y-14579600I0J-100000D01*
G01*
X9782800Y-15483815D02*
X9782800Y-16369600D01*
X14457800Y-14966677D02*
G75*
G03*
X14127800Y-14966677I-165000J-103923D01*
G01*
X11954800Y-11249600D02*
X11744800Y-11449600D01*
X17310316Y-13795615D02*
G75*
G03*
X15161922Y-16125842I-1052806J-1184835D01*
G01*
X13142800Y-16534600D02*
G75*
G03*
X12682800Y-16534600I-230000J0D01*
G01*
X9782800Y-16369600D02*
G75*
G03*
X9882800Y-16469600I100000J0D01*
G01*
X9782795Y-15483815D02*
G75*
G03*
X9770086Y-15463243I-22995J5D01*
G01*
X17991813Y-15179600D02*
X19262800Y-15179600D01*
X19604800Y-12226600D02*
X19254787Y-11457470D01*
X19262800Y-15179600D02*
X20642800Y-13224600D01*
X15504800Y-11469600D02*
X13064800Y-11469600D01*
X20642800Y-13224600D02*
X20642800Y-12851600D01*
X19254788Y-11457470D02*
G75*
G03*
X19118260Y-11369600I-136528J-62130D01*
G01*
X10147800Y-16569600D02*
X10147800Y-16579600D01*
X13142800Y-16534600D02*
X13142800Y-16579600D01*
X19118260Y-11369600D02*
X18879800Y-11369600D01*
X18879800Y-11369600D02*
X18784800Y-11249600D01*
X13142800Y-16579600D02*
G75*
G03*
X13242800Y-16679600I100000J0D01*
G01*
X17019800Y-11249600D02*
X16779800Y-11399600D01*
X11704800Y-11449600D02*
G75*
G03*
X11604800Y-11549600I0J-100000D01*
G01*
X13932800Y-15054600D02*
G75*
G03*
X13932800Y-15054600I-125000J0D01*
G01*
X13064800Y-11469600D02*
X12934800Y-11249600D01*
X10152800Y-14479599D02*
G75*
G03*
X11604800Y-13049600I0J1452169D01*
G01*
X16779800Y-11399600D02*
X16654800Y-11249600D01*
X18784800Y-11249600D02*
X17019800Y-11249600D01*
D11*
D12*
X9920972Y-16256061D02*
X9955972Y-16291061D01*
X9955972Y-16256061D02*
X9920972Y-16291061D01*
X10077195Y-16119817D02*
X10112195Y-16154817D01*
X10112195Y-16119817D02*
X10077195Y-16154817D01*
X10098772Y-15240061D02*
X10133772Y-15275061D01*
X10133772Y-15240061D02*
X10098772Y-15275061D01*
X10157232Y-15751125D02*
X10192232Y-15786125D01*
X10192232Y-15751125D02*
X10157232Y-15786125D01*
X10174972Y-16078261D02*
X10209972Y-16113261D01*
X10209972Y-16078261D02*
X10174972Y-16113261D01*
X10200372Y-15443261D02*
X10235372Y-15478261D01*
X10235372Y-15443261D02*
X10200372Y-15478261D01*
X10290566Y-15817383D02*
X10325566Y-15852383D01*
X10325566Y-15817383D02*
X10290566Y-15852383D01*
X10352772Y-15316261D02*
X10387772Y-15351261D01*
X10387772Y-15316261D02*
X10352772Y-15351261D01*
X10502422Y-15397866D02*
X10537422Y-15432866D01*
X10537422Y-15397866D02*
X10502422Y-15432866D01*
X10518245Y-15880100D02*
X10553245Y-15915100D01*
X10553245Y-15880100D02*
X10518245Y-15915100D01*
X10598224Y-15920583D02*
X10633224Y-15955583D01*
X10633224Y-15920583D02*
X10598224Y-15955583D01*
X10625100Y-15019300D02*
X10660100Y-15054300D01*
X10660100Y-15019300D02*
X10625100Y-15054300D01*
X10657572Y-16129061D02*
X10692572Y-16164061D01*
X10692572Y-16129061D02*
X10657572Y-16164061D01*
X10682972Y-15316261D02*
X10717972Y-15351261D01*
X10717972Y-15316261D02*
X10682972Y-15351261D01*
X10987772Y-15494061D02*
X11022772Y-15529061D01*
X11022772Y-15494061D02*
X10987772Y-15529061D01*
X11053130Y-15389064D02*
X11088130Y-15424064D01*
X11088130Y-15389064D02*
X11053130Y-15424064D01*
X11055290Y-14642192D02*
X11090290Y-14677192D01*
X11090290Y-14642192D02*
X11055290Y-14677192D01*
X11374400Y-15616200D02*
X11409400Y-15651200D01*
X11409400Y-15616200D02*
X11374400Y-15651200D01*
X11444972Y-15189261D02*
X11479972Y-15224261D01*
X11479972Y-15189261D02*
X11444972Y-15224261D01*
X11495772Y-14833661D02*
X11530772Y-14868661D01*
X11530772Y-14833661D02*
X11495772Y-14868661D01*
X11501400Y-14295400D02*
X11536400Y-14330400D01*
X11536400Y-14295400D02*
X11501400Y-14330400D01*
X11514100Y-14143000D02*
X11549100Y-14178000D01*
X11549100Y-14143000D02*
X11514100Y-14178000D01*
X11546572Y-15341661D02*
X11581572Y-15376661D01*
X11581572Y-15341661D02*
X11546572Y-15376661D01*
X11556466Y-15992167D02*
X11591466Y-16027167D01*
X11591466Y-15992167D02*
X11556466Y-16027167D01*
X11677976Y-16238270D02*
X11712976Y-16273270D01*
X11712976Y-16238270D02*
X11677976Y-16273270D01*
X11775172Y-14528861D02*
X11810172Y-14563861D01*
X11810172Y-14528861D02*
X11775172Y-14563861D01*
X11876772Y-15316261D02*
X11911772Y-15351261D01*
X11911772Y-15316261D02*
X11876772Y-15351261D01*
X12120975Y-13710507D02*
X12155975Y-13745507D01*
X12155975Y-13710507D02*
X12120975Y-13745507D01*
X12130772Y-14605061D02*
X12165772Y-14640061D01*
X12165772Y-14605061D02*
X12130772Y-14640061D01*
X12181572Y-15595661D02*
X12216572Y-15630661D01*
X12216572Y-15595661D02*
X12181572Y-15630661D01*
X12232372Y-12166661D02*
X12267372Y-12201661D01*
X12267372Y-12166661D02*
X12232372Y-12201661D01*
X12257772Y-16205261D02*
X12292772Y-16240261D01*
X12292772Y-16205261D02*
X12257772Y-16240261D01*
X12333972Y-14833661D02*
X12368972Y-14868661D01*
X12368972Y-14833661D02*
X12333972Y-14868661D01*
X12345423Y-12497736D02*
X12380423Y-12532736D01*
X12380423Y-12497736D02*
X12345423Y-12532736D01*
X12346393Y-14105335D02*
X12381393Y-14140335D01*
X12381393Y-14105335D02*
X12346393Y-14140335D01*
X12397300Y-11946061D02*
X12432300Y-11981061D01*
X12432300Y-11946061D02*
X12397300Y-11981061D01*
X12410172Y-14452661D02*
X12445172Y-14487661D01*
X12445172Y-14452661D02*
X12410172Y-14487661D01*
X12555187Y-12322070D02*
X12590187Y-12357070D01*
X12590187Y-12322070D02*
X12555187Y-12357070D01*
X12562572Y-15290861D02*
X12597572Y-15325861D01*
X12597572Y-15290861D02*
X12562572Y-15325861D01*
X12622553Y-12174219D02*
X12657553Y-12209219D01*
X12657553Y-12174219D02*
X12622553Y-12209219D01*
X12625343Y-13378021D02*
X12660343Y-13413021D01*
X12660343Y-13378021D02*
X12625343Y-13413021D01*
X12696535Y-12087567D02*
X12731535Y-12122567D01*
X12731535Y-12087567D02*
X12696535Y-12122567D01*
X12765772Y-11607861D02*
X12800772Y-11642861D01*
X12800772Y-11607861D02*
X12765772Y-11642861D01*
X12765772Y-14020861D02*
X12800772Y-14055861D01*
X12800772Y-14020861D02*
X12765772Y-14055861D01*
X12773007Y-13109754D02*
X12808007Y-13144754D01*
X12808007Y-13109754D02*
X12773007Y-13144754D01*
X12841972Y-12750861D02*
X12876972Y-12785861D01*
X12876972Y-12750861D02*
X12841972Y-12785861D01*
X12853965Y-14109263D02*
X12888965Y-14144263D01*
X12888965Y-14109263D02*
X12853965Y-14144263D01*
X12856165Y-14634970D02*
X12891165Y-14669970D01*
X12891165Y-14634970D02*
X12856165Y-14669970D01*
X12925084Y-15635157D02*
X12960084Y-15670157D01*
X12960084Y-15635157D02*
X12925084Y-15670157D01*
X12994372Y-13817661D02*
X13029372Y-13852661D01*
X13029372Y-13817661D02*
X12994372Y-13852661D01*
X13019772Y-13309661D02*
X13054772Y-13344661D01*
X13054772Y-13309661D02*
X13019772Y-13344661D01*
X13185420Y-12763780D02*
X13220420Y-12798780D01*
X13220420Y-12763780D02*
X13185420Y-12798780D01*
X13205740Y-13109220D02*
X13240740Y-13144220D01*
X13240740Y-13109220D02*
X13205740Y-13144220D01*
X13222972Y-15138461D02*
X13257972Y-15173461D01*
X13257972Y-15138461D02*
X13222972Y-15173461D01*
X13224163Y-14957789D02*
X13259163Y-14992789D01*
X13259163Y-14957789D02*
X13224163Y-14992789D01*
X13248372Y-15951261D02*
X13283372Y-15986261D01*
X13283372Y-15951261D02*
X13248372Y-15986261D01*
X13329372Y-15426192D02*
X13364372Y-15461192D01*
X13364372Y-15426192D02*
X13329372Y-15461192D01*
X13406400Y-13444500D02*
X13441400Y-13479500D01*
X13441400Y-13444500D02*
X13406400Y-13479500D01*
X13410997Y-15338971D02*
X13445997Y-15373971D01*
X13445997Y-15338971D02*
X13410997Y-15373971D01*
X13485382Y-15502880D02*
X13520382Y-15537880D01*
X13520382Y-15502880D02*
X13485382Y-15537880D01*
X13532480Y-16068248D02*
X13567480Y-16103248D01*
X13567480Y-16068248D02*
X13532480Y-16103248D01*
X13553172Y-16503461D02*
X13588172Y-16538461D01*
X13588172Y-16503461D02*
X13553172Y-16538461D01*
X13582147Y-15544351D02*
X13617147Y-15579351D01*
X13617147Y-15544351D02*
X13582147Y-15579351D01*
X13730972Y-15646461D02*
X13765972Y-15681461D01*
X13765972Y-15646461D02*
X13730972Y-15681461D01*
X13812800Y-13431800D02*
X13847800Y-13466800D01*
X13847800Y-13431800D02*
X13812800Y-13466800D01*
X13859639Y-15649082D02*
X13894639Y-15684082D01*
X13894639Y-15649082D02*
X13859639Y-15684082D01*
X13934062Y-16129632D02*
X13969062Y-16164632D01*
X13969062Y-16129632D02*
X13934062Y-16164632D01*
X14137372Y-15671861D02*
X14172372Y-15706861D01*
X14172372Y-15671861D02*
X14137372Y-15706861D01*
X14157821Y-13917926D02*
X14192821Y-13952926D01*
X14192821Y-13917926D02*
X14157821Y-13952926D01*
X14162772Y-16503461D02*
X14197772Y-16538461D01*
X14197772Y-16503461D02*
X14162772Y-16538461D01*
X14283405Y-14054195D02*
X14318405Y-14089195D01*
X14318405Y-14054195D02*
X14283405Y-14089195D01*
X14315172Y-16052861D02*
X14350172Y-16087861D01*
X14350172Y-16052861D02*
X14315172Y-16087861D01*
X14325097Y-14141273D02*
X14360097Y-14176273D01*
X14360097Y-14141273D02*
X14325097Y-14176273D01*
X14331617Y-15652044D02*
X14366617Y-15687044D01*
X14366617Y-15652044D02*
X14331617Y-15687044D01*
X14333500Y-14346200D02*
X14368500Y-14381200D01*
X14368500Y-14346200D02*
X14333500Y-14381200D01*
X14409700Y-14447800D02*
X14444700Y-14482800D01*
X14444700Y-14447800D02*
X14409700Y-14482800D01*
X14467572Y-16503461D02*
X14502572Y-16538461D01*
X14502572Y-16503461D02*
X14467572Y-16538461D01*
X14543772Y-15773461D02*
X14578772Y-15808461D01*
X14578772Y-15773461D02*
X14543772Y-15808461D01*
X14619938Y-15719188D02*
X14654938Y-15754188D01*
X14654938Y-15719188D02*
X14619938Y-15754188D01*
X14689976Y-16052384D02*
X14724976Y-16087384D01*
X14724976Y-16052384D02*
X14689976Y-16087384D01*
X14701800Y-14270000D02*
X14736800Y-14305000D01*
X14736800Y-14270000D02*
X14701800Y-14305000D01*
X14756199Y-15711288D02*
X14791199Y-15746288D01*
X14791199Y-15711288D02*
X14756199Y-15746288D01*
X14772372Y-16503461D02*
X14807372Y-16538461D01*
X14807372Y-16503461D02*
X14772372Y-16538461D01*
X14805372Y-13521105D02*
X14840372Y-13556105D01*
X14840372Y-13521105D02*
X14805372Y-13556105D01*
X14874423Y-16043920D02*
X14909423Y-16078920D01*
X14909423Y-16043920D02*
X14874423Y-16078920D01*
X14908698Y-13530819D02*
X14943698Y-13565819D01*
X14943698Y-13530819D02*
X14908698Y-13565819D01*
X14968500Y-13228600D02*
X15003500Y-13263600D01*
X15003500Y-13228600D02*
X14968500Y-13263600D01*
X14985590Y-13595907D02*
X15020590Y-13630907D01*
X15020590Y-13595907D02*
X14985590Y-13630907D01*
X15026372Y-13106461D02*
X15061372Y-13141461D01*
X15061372Y-13106461D02*
X15026372Y-13141461D01*
X15039620Y-12966980D02*
X15074620Y-13001980D01*
X15074620Y-12966980D02*
X15039620Y-13001980D01*
X15058453Y-13653586D02*
X15093453Y-13688586D01*
X15093453Y-13653586D02*
X15058453Y-13688586D01*
X15125980Y-13713740D02*
X15160980Y-13748740D01*
X15160980Y-13713740D02*
X15125980Y-13748740D01*
X15319900Y-13608900D02*
X15354900Y-13643900D01*
X15354900Y-13608900D02*
X15319900Y-13643900D01*
X15551897Y-13431800D02*
X15586897Y-13466800D01*
X15586897Y-13431800D02*
X15551897Y-13466800D01*
X15641600Y-11958600D02*
X15676600Y-11993600D01*
X15676600Y-11958600D02*
X15641600Y-11993600D01*
X15737572Y-12700061D02*
X15772572Y-12735061D01*
X15772572Y-12700061D02*
X15737572Y-12735061D01*
X15788372Y-11607861D02*
X15823372Y-11642861D01*
X15823372Y-11607861D02*
X15788372Y-11642861D01*
X15991572Y-12166661D02*
X16026572Y-12201661D01*
X16026572Y-12166661D02*
X15991572Y-12201661D01*
X16159760Y-11917094D02*
X16194760Y-11952094D01*
X16194760Y-11917094D02*
X16159760Y-11952094D01*
X16321772Y-12288800D02*
X16356772Y-12323800D01*
X16356772Y-12288800D02*
X16321772Y-12323800D01*
X16365500Y-12974600D02*
X16400500Y-13009600D01*
X16400500Y-12974600D02*
X16365500Y-13009600D01*
X16651972Y-12344461D02*
X16686972Y-12379461D01*
X16686972Y-12344461D02*
X16651972Y-12379461D01*
X16728172Y-12166661D02*
X16763172Y-12201661D01*
X16763172Y-12166661D02*
X16728172Y-12201661D01*
X16804372Y-12242861D02*
X16839372Y-12277861D01*
X16839372Y-12242861D02*
X16804372Y-12277861D01*
X16880572Y-12471461D02*
X16915572Y-12506461D01*
X16915572Y-12471461D02*
X16880572Y-12506461D01*
X16924300Y-13355600D02*
X16959300Y-13390600D01*
X16959300Y-13355600D02*
X16924300Y-13390600D01*
X16956772Y-11480861D02*
X16991772Y-11515861D01*
X16991772Y-11480861D02*
X16956772Y-11515861D01*
X17074966Y-12419625D02*
X17109966Y-12454625D01*
X17109966Y-12419625D02*
X17074966Y-12454625D01*
X17340468Y-13512565D02*
X17375468Y-13547565D01*
X17375468Y-13512565D02*
X17340468Y-13547565D01*
X17745934Y-12093592D02*
X17780934Y-12128592D01*
X17780934Y-12093592D02*
X17745934Y-12128592D01*
X17769572Y-13436661D02*
X17804572Y-13471661D01*
X17804572Y-13436661D02*
X17769572Y-13471661D01*
X17820372Y-12496861D02*
X17855372Y-12531861D01*
X17855372Y-12496861D02*
X17820372Y-12531861D01*
X17921972Y-12166661D02*
X17956972Y-12201661D01*
X17956972Y-12166661D02*
X17921972Y-12201661D01*
X17921972Y-13436661D02*
X17956972Y-13471661D01*
X17956972Y-13436661D02*
X17921972Y-13471661D01*
X17992900Y-14327900D02*
X18027900Y-14362900D01*
X18027900Y-14327900D02*
X17992900Y-14362900D01*
X18029200Y-13508000D02*
X18064200Y-13543000D01*
X18064200Y-13508000D02*
X18029200Y-13543000D01*
X18041900Y-11437900D02*
X18076900Y-11472900D01*
X18076900Y-11437900D02*
X18041900Y-11472900D01*
X18077900Y-14468900D02*
X18112900Y-14503900D01*
X18112900Y-14468900D02*
X18077900Y-14503900D01*
X18115923Y-12371877D02*
X18150923Y-12406877D01*
X18150923Y-12371877D02*
X18115923Y-12406877D01*
X18506172Y-12471461D02*
X18541172Y-12506461D01*
X18541172Y-12471461D02*
X18506172Y-12506461D01*
X18506172Y-14554261D02*
X18541172Y-14589261D01*
X18541172Y-14554261D02*
X18506172Y-14589261D01*
X18613400Y-14397000D02*
X18648400Y-14432000D01*
X18648400Y-14397000D02*
X18613400Y-14432000D01*
X18810972Y-14401861D02*
X18845972Y-14436861D01*
X18845972Y-14401861D02*
X18810972Y-14436861D01*
X18836372Y-12268261D02*
X18871372Y-12303261D01*
X18871372Y-12268261D02*
X18836372Y-12303261D01*
X18887172Y-13360461D02*
X18922172Y-13395461D01*
X18922172Y-13360461D02*
X18887172Y-13395461D01*
X18912572Y-12166661D02*
X18947572Y-12201661D01*
X18947572Y-12166661D02*
X18912572Y-12201661D01*
X18963372Y-12395261D02*
X18998372Y-12430261D01*
X18998372Y-12395261D02*
X18963372Y-12430261D01*
X19014172Y-13436661D02*
X19049172Y-13471661D01*
X19049172Y-13436661D02*
X19014172Y-13471661D01*
X19325798Y-13421854D02*
X19360798Y-13456854D01*
X19360798Y-13421854D02*
X19325798Y-13456854D01*
X19426200Y-12238000D02*
X19461200Y-12273000D01*
X19461200Y-12238000D02*
X19426200Y-12273000D01*
X19699972Y-13538261D02*
X19734972Y-13573261D01*
X19734972Y-13538261D02*
X19699972Y-13573261D01*
D13*
X10745872Y-15638561D02*
G75*
G03*
X10745872Y-15638561I-20000J0D01*
G01*
X11457072Y-15925357D02*
G75*
G03*
X11457072Y-15925357I-20000J0D01*
G01*
X11533272Y-16197361D02*
G75*
G03*
X11533272Y-16197361I-20000J0D01*
G01*
X12295558Y-13850328D02*
G75*
G03*
X12295558Y-13850328I-20000J0D01*
G01*
X12422272Y-15925357D02*
G75*
G03*
X12422272Y-15925357I-20000J0D01*
G01*
X12432553Y-16081225D02*
G75*
G03*
X12432553Y-16081225I-20000J0D01*
G01*
X12523872Y-15689361D02*
G75*
G03*
X12523872Y-15689361I-20000J0D01*
G01*
X12574672Y-14038361D02*
G75*
G03*
X12574672Y-14038361I-20000J0D01*
G01*
X12676272Y-13860561D02*
G75*
G03*
X12676272Y-13860561I-20000J0D01*
G01*
X12892790Y-15435361D02*
G75*
G03*
X12892790Y-15435361I-20000J0D01*
G01*
X12955672Y-15968761D02*
G75*
G03*
X12955672Y-15968761I-20000J0D01*
G01*
X13158872Y-15511561D02*
G75*
G03*
X13158872Y-15511561I-20000J0D01*
G01*
X14122400Y-13177400D02*
G75*
G03*
X14122400Y-13177400I-20000J0D01*
G01*
X14191092Y-16088761D02*
G75*
G03*
X14191092Y-16088761I-20000J0D01*
G01*
X14396400Y-15367000D02*
G75*
G03*
X14396400Y-15367000I-20000J0D01*
G01*
X14541400Y-13188400D02*
G75*
G03*
X14541400Y-13188400I-20000J0D01*
G01*
X15104209Y-16146469D02*
G75*
G03*
X15104209Y-16146469I-20000J0D01*
G01*
X18609494Y-13505176D02*
G75*
G03*
X18609494Y-13505176I-20000J0D01*
G01*
X18964400Y-14583400D02*
G75*
G03*
X18964400Y-14583400I-20000J0D01*
G01*
X18964400Y-15075400D02*
G75*
G03*
X18964400Y-15075400I-20000J0D01*
G01*
X19026272Y-13809761D02*
G75*
G03*
X19026272Y-13809761I-20000J0D01*
G01*
X19032568Y-13988155D02*
G75*
G03*
X19032568Y-13988155I-20000J0D01*
G01*
D14*
X10422722Y-16530253D02*
X10422722Y-16580253D01*
X10397722Y-16555253D02*
X10447722Y-16555253D01*
X13614322Y-16158370D02*
X13614322Y-16208370D01*
X13589322Y-16183370D02*
X13639322Y-16183370D01*
X13988540Y-16011937D02*
X13988540Y-16061937D01*
X13963540Y-16036937D02*
X14013540Y-16036937D01*
X14450016Y-16169591D02*
X14450016Y-16219591D01*
X14425016Y-16194591D02*
X14475016Y-16194591D01*
X14798738Y-16134781D02*
X14798738Y-16184781D01*
X14773738Y-16159781D02*
X14823738Y-16159781D01*
D11*
X9958577Y-16996084D02*
X9958577Y-16796084D01*
X9958577Y-16796084D02*
X10006196Y-16796084D01*
X10006196Y-16796084D02*
X10034767Y-16805608D01*
X10034767Y-16805608D02*
X10053815Y-16824655D01*
X10053815Y-16824655D02*
X10063339Y-16843703D01*
X10063339Y-16843703D02*
X10072863Y-16881798D01*
X10072863Y-16881798D02*
X10072863Y-16910370D01*
X10072863Y-16910370D02*
X10063339Y-16948465D01*
X10063339Y-16948465D02*
X10053815Y-16967512D01*
X10053815Y-16967512D02*
X10034767Y-16986560D01*
X10034767Y-16986560D02*
X10006196Y-16996084D01*
X10006196Y-16996084D02*
X9958577Y-16996084D01*
X10158577Y-16996084D02*
X10158577Y-16862750D01*
X10158577Y-16900846D02*
X10168101Y-16881798D01*
X10168101Y-16881798D02*
X10177624Y-16872274D01*
X10177624Y-16872274D02*
X10196672Y-16862750D01*
X10196672Y-16862750D02*
X10215720Y-16862750D01*
X10282386Y-16996084D02*
X10282386Y-16862750D01*
X10282386Y-16796084D02*
X10272863Y-16805608D01*
X10272863Y-16805608D02*
X10282386Y-16815131D01*
X10282386Y-16815131D02*
X10291910Y-16805608D01*
X10291910Y-16805608D02*
X10282386Y-16796084D01*
X10282386Y-16796084D02*
X10282386Y-16815131D01*
X10406196Y-16996084D02*
X10387148Y-16986560D01*
X10387148Y-16986560D02*
X10377624Y-16967512D01*
X10377624Y-16967512D02*
X10377624Y-16796084D01*
X10510958Y-16996084D02*
X10491910Y-16986560D01*
X10491910Y-16986560D02*
X10482386Y-16967512D01*
X10482386Y-16967512D02*
X10482386Y-16796084D01*
X10739529Y-16996084D02*
X10739529Y-16796084D01*
X10739529Y-16796084D02*
X10806196Y-16938941D01*
X10806196Y-16938941D02*
X10872863Y-16796084D01*
X10872863Y-16796084D02*
X10872863Y-16996084D01*
X11053815Y-16996084D02*
X11053815Y-16891322D01*
X11053815Y-16891322D02*
X11044291Y-16872274D01*
X11044291Y-16872274D02*
X11025244Y-16862750D01*
X11025244Y-16862750D02*
X10987148Y-16862750D01*
X10987148Y-16862750D02*
X10968101Y-16872274D01*
X11053815Y-16986560D02*
X11034767Y-16996084D01*
X11034767Y-16996084D02*
X10987148Y-16996084D01*
X10987148Y-16996084D02*
X10968101Y-16986560D01*
X10968101Y-16986560D02*
X10958577Y-16967512D01*
X10958577Y-16967512D02*
X10958577Y-16948465D01*
X10958577Y-16948465D02*
X10968101Y-16929417D01*
X10968101Y-16929417D02*
X10987148Y-16919893D01*
X10987148Y-16919893D02*
X11034767Y-16919893D01*
X11034767Y-16919893D02*
X11053815Y-16910370D01*
X11149053Y-16862750D02*
X11149053Y-17062750D01*
X11149053Y-16872274D02*
X11168101Y-16862750D01*
X11168101Y-16862750D02*
X11206196Y-16862750D01*
X11206196Y-16862750D02*
X11225243Y-16872274D01*
X11225243Y-16872274D02*
X11234767Y-16881798D01*
X11234767Y-16881798D02*
X11244291Y-16900846D01*
X11244291Y-16900846D02*
X11244291Y-16957989D01*
X11244291Y-16957989D02*
X11234767Y-16977036D01*
X11234767Y-16977036D02*
X11225243Y-16986560D01*
X11225243Y-16986560D02*
X11206196Y-16996084D01*
X11206196Y-16996084D02*
X11168101Y-16996084D01*
X11168101Y-16996084D02*
X11149053Y-16986560D01*
X11330005Y-16977036D02*
X11339529Y-16986560D01*
X11339529Y-16986560D02*
X11330005Y-16996084D01*
X11330005Y-16996084D02*
X11320482Y-16986560D01*
X11320482Y-16986560D02*
X11330005Y-16977036D01*
X11330005Y-16977036D02*
X11330005Y-16996084D01*
X11330005Y-16872274D02*
X11339529Y-16881798D01*
X11339529Y-16881798D02*
X11330005Y-16891322D01*
X11330005Y-16891322D02*
X11320482Y-16881798D01*
X11320482Y-16881798D02*
X11330005Y-16872274D01*
X11330005Y-16872274D02*
X11330005Y-16891322D01*
D12*
X9662800Y-17307100D02*
X9697800Y-17342100D01*
X9697800Y-17307100D02*
X9662800Y-17342100D01*
D11*
X9996672Y-17216084D02*
X10015720Y-17216084D01*
X10015720Y-17216084D02*
X10034767Y-17225608D01*
X10034767Y-17225608D02*
X10044291Y-17235131D01*
X10044291Y-17235131D02*
X10053815Y-17254179D01*
X10053815Y-17254179D02*
X10063339Y-17292274D01*
X10063339Y-17292274D02*
X10063339Y-17339893D01*
X10063339Y-17339893D02*
X10053815Y-17377989D01*
X10053815Y-17377989D02*
X10044291Y-17397036D01*
X10044291Y-17397036D02*
X10034767Y-17406560D01*
X10034767Y-17406560D02*
X10015720Y-17416084D01*
X10015720Y-17416084D02*
X9996672Y-17416084D01*
X9996672Y-17416084D02*
X9977624Y-17406560D01*
X9977624Y-17406560D02*
X9968101Y-17397036D01*
X9968101Y-17397036D02*
X9958577Y-17377989D01*
X9958577Y-17377989D02*
X9949053Y-17339893D01*
X9949053Y-17339893D02*
X9949053Y-17292274D01*
X9949053Y-17292274D02*
X9958577Y-17254179D01*
X9958577Y-17254179D02*
X9968101Y-17235131D01*
X9968101Y-17235131D02*
X9977624Y-17225608D01*
X9977624Y-17225608D02*
X9996672Y-17216084D01*
X10149053Y-17397036D02*
X10158577Y-17406560D01*
X10158577Y-17406560D02*
X10149053Y-17416084D01*
X10149053Y-17416084D02*
X10139529Y-17406560D01*
X10139529Y-17406560D02*
X10149053Y-17397036D01*
X10149053Y-17397036D02*
X10149053Y-17416084D01*
X10225244Y-17216084D02*
X10349053Y-17216084D01*
X10349053Y-17216084D02*
X10282386Y-17292274D01*
X10282386Y-17292274D02*
X10310958Y-17292274D01*
X10310958Y-17292274D02*
X10330005Y-17301798D01*
X10330005Y-17301798D02*
X10339529Y-17311322D01*
X10339529Y-17311322D02*
X10349053Y-17330370D01*
X10349053Y-17330370D02*
X10349053Y-17377989D01*
X10349053Y-17377989D02*
X10339529Y-17397036D01*
X10339529Y-17397036D02*
X10330005Y-17406560D01*
X10330005Y-17406560D02*
X10310958Y-17416084D01*
X10310958Y-17416084D02*
X10253815Y-17416084D01*
X10253815Y-17416084D02*
X10234767Y-17406560D01*
X10234767Y-17406560D02*
X10225244Y-17397036D01*
X10530005Y-17216084D02*
X10434767Y-17216084D01*
X10434767Y-17216084D02*
X10425244Y-17311322D01*
X10425244Y-17311322D02*
X10434767Y-17301798D01*
X10434767Y-17301798D02*
X10453815Y-17292274D01*
X10453815Y-17292274D02*
X10501434Y-17292274D01*
X10501434Y-17292274D02*
X10520482Y-17301798D01*
X10520482Y-17301798D02*
X10530005Y-17311322D01*
X10530005Y-17311322D02*
X10539529Y-17330370D01*
X10539529Y-17330370D02*
X10539529Y-17377989D01*
X10539529Y-17377989D02*
X10530005Y-17397036D01*
X10530005Y-17397036D02*
X10520482Y-17406560D01*
X10520482Y-17406560D02*
X10501434Y-17416084D01*
X10501434Y-17416084D02*
X10453815Y-17416084D01*
X10453815Y-17416084D02*
X10434767Y-17406560D01*
X10434767Y-17406560D02*
X10425244Y-17397036D01*
X10663339Y-17216084D02*
X10682386Y-17216084D01*
X10682386Y-17216084D02*
X10701434Y-17225608D01*
X10701434Y-17225608D02*
X10710958Y-17235131D01*
X10710958Y-17235131D02*
X10720482Y-17254179D01*
X10720482Y-17254179D02*
X10730005Y-17292274D01*
X10730005Y-17292274D02*
X10730005Y-17339893D01*
X10730005Y-17339893D02*
X10720482Y-17377989D01*
X10720482Y-17377989D02*
X10710958Y-17397036D01*
X10710958Y-17397036D02*
X10701434Y-17406560D01*
X10701434Y-17406560D02*
X10682386Y-17416084D01*
X10682386Y-17416084D02*
X10663339Y-17416084D01*
X10663339Y-17416084D02*
X10644291Y-17406560D01*
X10644291Y-17406560D02*
X10634767Y-17397036D01*
X10634767Y-17397036D02*
X10625244Y-17377989D01*
X10625244Y-17377989D02*
X10615720Y-17339893D01*
X10615720Y-17339893D02*
X10615720Y-17292274D01*
X10615720Y-17292274D02*
X10625244Y-17254179D01*
X10625244Y-17254179D02*
X10634767Y-17235131D01*
X10634767Y-17235131D02*
X10644291Y-17225608D01*
X10644291Y-17225608D02*
X10663339Y-17216084D01*
X10815720Y-17416084D02*
X10815720Y-17282750D01*
X10815720Y-17301798D02*
X10825244Y-17292274D01*
X10825244Y-17292274D02*
X10844291Y-17282750D01*
X10844291Y-17282750D02*
X10872863Y-17282750D01*
X10872863Y-17282750D02*
X10891910Y-17292274D01*
X10891910Y-17292274D02*
X10901434Y-17311322D01*
X10901434Y-17311322D02*
X10901434Y-17416084D01*
X10901434Y-17311322D02*
X10910958Y-17292274D01*
X10910958Y-17292274D02*
X10930005Y-17282750D01*
X10930005Y-17282750D02*
X10958577Y-17282750D01*
X10958577Y-17282750D02*
X10977625Y-17292274D01*
X10977625Y-17292274D02*
X10987148Y-17311322D01*
X10987148Y-17311322D02*
X10987148Y-17416084D01*
X11082386Y-17416084D02*
X11082386Y-17282750D01*
X11082386Y-17301798D02*
X11091910Y-17292274D01*
X11091910Y-17292274D02*
X11110958Y-17282750D01*
X11110958Y-17282750D02*
X11139529Y-17282750D01*
X11139529Y-17282750D02*
X11158577Y-17292274D01*
X11158577Y-17292274D02*
X11168101Y-17311322D01*
X11168101Y-17311322D02*
X11168101Y-17416084D01*
X11168101Y-17311322D02*
X11177625Y-17292274D01*
X11177625Y-17292274D02*
X11196672Y-17282750D01*
X11196672Y-17282750D02*
X11225243Y-17282750D01*
X11225243Y-17282750D02*
X11244291Y-17292274D01*
X11244291Y-17292274D02*
X11253815Y-17311322D01*
X11253815Y-17311322D02*
X11253815Y-17416084D01*
X11644291Y-17206560D02*
X11472863Y-17463703D01*
X11901434Y-17216084D02*
X11920482Y-17216084D01*
X11920482Y-17216084D02*
X11939529Y-17225608D01*
X11939529Y-17225608D02*
X11949053Y-17235131D01*
X11949053Y-17235131D02*
X11958577Y-17254179D01*
X11958577Y-17254179D02*
X11968101Y-17292274D01*
X11968101Y-17292274D02*
X11968101Y-17339893D01*
X11968101Y-17339893D02*
X11958577Y-17377989D01*
X11958577Y-17377989D02*
X11949053Y-17397036D01*
X11949053Y-17397036D02*
X11939529Y-17406560D01*
X11939529Y-17406560D02*
X11920482Y-17416084D01*
X11920482Y-17416084D02*
X11901434Y-17416084D01*
X11901434Y-17416084D02*
X11882386Y-17406560D01*
X11882386Y-17406560D02*
X11872863Y-17397036D01*
X11872863Y-17397036D02*
X11863339Y-17377989D01*
X11863339Y-17377989D02*
X11853815Y-17339893D01*
X11853815Y-17339893D02*
X11853815Y-17292274D01*
X11853815Y-17292274D02*
X11863339Y-17254179D01*
X11863339Y-17254179D02*
X11872863Y-17235131D01*
X11872863Y-17235131D02*
X11882386Y-17225608D01*
X11882386Y-17225608D02*
X11901434Y-17216084D01*
X12053815Y-17397036D02*
X12063339Y-17406560D01*
X12063339Y-17406560D02*
X12053815Y-17416084D01*
X12053815Y-17416084D02*
X12044291Y-17406560D01*
X12044291Y-17406560D02*
X12053815Y-17397036D01*
X12053815Y-17397036D02*
X12053815Y-17416084D01*
X12187148Y-17216084D02*
X12206196Y-17216084D01*
X12206196Y-17216084D02*
X12225244Y-17225608D01*
X12225244Y-17225608D02*
X12234767Y-17235131D01*
X12234767Y-17235131D02*
X12244291Y-17254179D01*
X12244291Y-17254179D02*
X12253815Y-17292274D01*
X12253815Y-17292274D02*
X12253815Y-17339893D01*
X12253815Y-17339893D02*
X12244291Y-17377989D01*
X12244291Y-17377989D02*
X12234767Y-17397036D01*
X12234767Y-17397036D02*
X12225244Y-17406560D01*
X12225244Y-17406560D02*
X12206196Y-17416084D01*
X12206196Y-17416084D02*
X12187148Y-17416084D01*
X12187148Y-17416084D02*
X12168101Y-17406560D01*
X12168101Y-17406560D02*
X12158577Y-17397036D01*
X12158577Y-17397036D02*
X12149053Y-17377989D01*
X12149053Y-17377989D02*
X12139529Y-17339893D01*
X12139529Y-17339893D02*
X12139529Y-17292274D01*
X12139529Y-17292274D02*
X12149053Y-17254179D01*
X12149053Y-17254179D02*
X12158577Y-17235131D01*
X12158577Y-17235131D02*
X12168101Y-17225608D01*
X12168101Y-17225608D02*
X12187148Y-17216084D01*
X12444291Y-17416084D02*
X12330006Y-17416084D01*
X12387148Y-17416084D02*
X12387148Y-17216084D01*
X12387148Y-17216084D02*
X12368101Y-17244655D01*
X12368101Y-17244655D02*
X12349053Y-17263703D01*
X12349053Y-17263703D02*
X12330006Y-17273227D01*
X12510958Y-17216084D02*
X12634767Y-17216084D01*
X12634767Y-17216084D02*
X12568101Y-17292274D01*
X12568101Y-17292274D02*
X12596672Y-17292274D01*
X12596672Y-17292274D02*
X12615720Y-17301798D01*
X12615720Y-17301798D02*
X12625244Y-17311322D01*
X12625244Y-17311322D02*
X12634767Y-17330370D01*
X12634767Y-17330370D02*
X12634767Y-17377989D01*
X12634767Y-17377989D02*
X12625244Y-17397036D01*
X12625244Y-17397036D02*
X12615720Y-17406560D01*
X12615720Y-17406560D02*
X12596672Y-17416084D01*
X12596672Y-17416084D02*
X12539529Y-17416084D01*
X12539529Y-17416084D02*
X12520482Y-17406560D01*
X12520482Y-17406560D02*
X12510958Y-17397036D01*
X12749053Y-17301798D02*
X12730006Y-17292274D01*
X12730006Y-17292274D02*
X12720482Y-17282750D01*
X12720482Y-17282750D02*
X12710958Y-17263703D01*
X12710958Y-17263703D02*
X12710958Y-17254179D01*
X12710958Y-17254179D02*
X12720482Y-17235131D01*
X12720482Y-17235131D02*
X12730006Y-17225608D01*
X12730006Y-17225608D02*
X12749053Y-17216084D01*
X12749053Y-17216084D02*
X12787148Y-17216084D01*
X12787148Y-17216084D02*
X12806196Y-17225608D01*
X12806196Y-17225608D02*
X12815720Y-17235131D01*
X12815720Y-17235131D02*
X12825244Y-17254179D01*
X12825244Y-17254179D02*
X12825244Y-17263703D01*
X12825244Y-17263703D02*
X12815720Y-17282750D01*
X12815720Y-17282750D02*
X12806196Y-17292274D01*
X12806196Y-17292274D02*
X12787148Y-17301798D01*
X12787148Y-17301798D02*
X12749053Y-17301798D01*
X12749053Y-17301798D02*
X12730006Y-17311322D01*
X12730006Y-17311322D02*
X12720482Y-17320846D01*
X12720482Y-17320846D02*
X12710958Y-17339893D01*
X12710958Y-17339893D02*
X12710958Y-17377989D01*
X12710958Y-17377989D02*
X12720482Y-17397036D01*
X12720482Y-17397036D02*
X12730006Y-17406560D01*
X12730006Y-17406560D02*
X12749053Y-17416084D01*
X12749053Y-17416084D02*
X12787148Y-17416084D01*
X12787148Y-17416084D02*
X12806196Y-17406560D01*
X12806196Y-17406560D02*
X12815720Y-17397036D01*
X12815720Y-17397036D02*
X12825244Y-17377989D01*
X12825244Y-17377989D02*
X12825244Y-17339893D01*
X12825244Y-17339893D02*
X12815720Y-17320846D01*
X12815720Y-17320846D02*
X12806196Y-17311322D01*
X12806196Y-17311322D02*
X12787148Y-17301798D01*
X12901434Y-17216084D02*
X12901434Y-17254179D01*
X12977625Y-17216084D02*
X12977625Y-17254179D01*
X13272863Y-17492274D02*
X13263339Y-17482750D01*
X13263339Y-17482750D02*
X13244291Y-17454179D01*
X13244291Y-17454179D02*
X13234768Y-17435131D01*
X13234768Y-17435131D02*
X13225244Y-17406560D01*
X13225244Y-17406560D02*
X13215720Y-17358941D01*
X13215720Y-17358941D02*
X13215720Y-17320846D01*
X13215720Y-17320846D02*
X13225244Y-17273227D01*
X13225244Y-17273227D02*
X13234768Y-17244655D01*
X13234768Y-17244655D02*
X13244291Y-17225608D01*
X13244291Y-17225608D02*
X13263339Y-17197036D01*
X13263339Y-17197036D02*
X13272863Y-17187512D01*
X13453815Y-17416084D02*
X13339529Y-17416084D01*
X13396672Y-17416084D02*
X13396672Y-17216084D01*
X13396672Y-17216084D02*
X13377625Y-17244655D01*
X13377625Y-17244655D02*
X13358577Y-17263703D01*
X13358577Y-17263703D02*
X13339529Y-17273227D01*
X13520482Y-17216084D02*
X13644291Y-17216084D01*
X13644291Y-17216084D02*
X13577625Y-17292274D01*
X13577625Y-17292274D02*
X13606196Y-17292274D01*
X13606196Y-17292274D02*
X13625244Y-17301798D01*
X13625244Y-17301798D02*
X13634768Y-17311322D01*
X13634768Y-17311322D02*
X13644291Y-17330370D01*
X13644291Y-17330370D02*
X13644291Y-17377989D01*
X13644291Y-17377989D02*
X13634768Y-17397036D01*
X13634768Y-17397036D02*
X13625244Y-17406560D01*
X13625244Y-17406560D02*
X13606196Y-17416084D01*
X13606196Y-17416084D02*
X13549053Y-17416084D01*
X13549053Y-17416084D02*
X13530006Y-17406560D01*
X13530006Y-17406560D02*
X13520482Y-17397036D01*
X13834768Y-17416084D02*
X13720482Y-17416084D01*
X13777625Y-17416084D02*
X13777625Y-17216084D01*
X13777625Y-17216084D02*
X13758577Y-17244655D01*
X13758577Y-17244655D02*
X13739529Y-17263703D01*
X13739529Y-17263703D02*
X13720482Y-17273227D01*
X14072863Y-17416084D02*
X14072863Y-17216084D01*
X14158577Y-17416084D02*
X14158577Y-17311322D01*
X14158577Y-17311322D02*
X14149053Y-17292274D01*
X14149053Y-17292274D02*
X14130006Y-17282750D01*
X14130006Y-17282750D02*
X14101434Y-17282750D01*
X14101434Y-17282750D02*
X14082387Y-17292274D01*
X14082387Y-17292274D02*
X14072863Y-17301798D01*
X14282387Y-17416084D02*
X14263339Y-17406560D01*
X14263339Y-17406560D02*
X14253815Y-17397036D01*
X14253815Y-17397036D02*
X14244291Y-17377989D01*
X14244291Y-17377989D02*
X14244291Y-17320846D01*
X14244291Y-17320846D02*
X14253815Y-17301798D01*
X14253815Y-17301798D02*
X14263339Y-17292274D01*
X14263339Y-17292274D02*
X14282387Y-17282750D01*
X14282387Y-17282750D02*
X14310958Y-17282750D01*
X14310958Y-17282750D02*
X14330006Y-17292274D01*
X14330006Y-17292274D02*
X14339530Y-17301798D01*
X14339530Y-17301798D02*
X14349053Y-17320846D01*
X14349053Y-17320846D02*
X14349053Y-17377989D01*
X14349053Y-17377989D02*
X14339530Y-17397036D01*
X14339530Y-17397036D02*
X14330006Y-17406560D01*
X14330006Y-17406560D02*
X14310958Y-17416084D01*
X14310958Y-17416084D02*
X14282387Y-17416084D01*
X14463339Y-17416084D02*
X14444291Y-17406560D01*
X14444291Y-17406560D02*
X14434768Y-17387512D01*
X14434768Y-17387512D02*
X14434768Y-17216084D01*
X14615720Y-17406560D02*
X14596672Y-17416084D01*
X14596672Y-17416084D02*
X14558577Y-17416084D01*
X14558577Y-17416084D02*
X14539530Y-17406560D01*
X14539530Y-17406560D02*
X14530006Y-17387512D01*
X14530006Y-17387512D02*
X14530006Y-17311322D01*
X14530006Y-17311322D02*
X14539530Y-17292274D01*
X14539530Y-17292274D02*
X14558577Y-17282750D01*
X14558577Y-17282750D02*
X14596672Y-17282750D01*
X14596672Y-17282750D02*
X14615720Y-17292274D01*
X14615720Y-17292274D02*
X14625244Y-17311322D01*
X14625244Y-17311322D02*
X14625244Y-17330370D01*
X14625244Y-17330370D02*
X14530006Y-17349417D01*
X14701434Y-17406560D02*
X14720482Y-17416084D01*
X14720482Y-17416084D02*
X14758577Y-17416084D01*
X14758577Y-17416084D02*
X14777625Y-17406560D01*
X14777625Y-17406560D02*
X14787149Y-17387512D01*
X14787149Y-17387512D02*
X14787149Y-17377989D01*
X14787149Y-17377989D02*
X14777625Y-17358941D01*
X14777625Y-17358941D02*
X14758577Y-17349417D01*
X14758577Y-17349417D02*
X14730006Y-17349417D01*
X14730006Y-17349417D02*
X14710958Y-17339893D01*
X14710958Y-17339893D02*
X14701434Y-17320846D01*
X14701434Y-17320846D02*
X14701434Y-17311322D01*
X14701434Y-17311322D02*
X14710958Y-17292274D01*
X14710958Y-17292274D02*
X14730006Y-17282750D01*
X14730006Y-17282750D02*
X14758577Y-17282750D01*
X14758577Y-17282750D02*
X14777625Y-17292274D01*
X14853815Y-17492274D02*
X14863339Y-17482750D01*
X14863339Y-17482750D02*
X14882387Y-17454179D01*
X14882387Y-17454179D02*
X14891911Y-17435131D01*
X14891911Y-17435131D02*
X14901434Y-17406560D01*
X14901434Y-17406560D02*
X14910958Y-17358941D01*
X14910958Y-17358941D02*
X14910958Y-17320846D01*
X14910958Y-17320846D02*
X14901434Y-17273227D01*
X14901434Y-17273227D02*
X14891911Y-17244655D01*
X14891911Y-17244655D02*
X14882387Y-17225608D01*
X14882387Y-17225608D02*
X14863339Y-17197036D01*
X14863339Y-17197036D02*
X14853815Y-17187512D01*
D13*
X9697800Y-17588600D02*
G75*
G03*
X9697800Y-17588600I-20000J0D01*
G01*
D11*
X9996672Y-17480084D02*
X10015720Y-17480084D01*
X10015720Y-17480084D02*
X10034767Y-17489608D01*
X10034767Y-17489608D02*
X10044291Y-17499131D01*
X10044291Y-17499131D02*
X10053815Y-17518179D01*
X10053815Y-17518179D02*
X10063339Y-17556274D01*
X10063339Y-17556274D02*
X10063339Y-17603893D01*
X10063339Y-17603893D02*
X10053815Y-17641989D01*
X10053815Y-17641989D02*
X10044291Y-17661036D01*
X10044291Y-17661036D02*
X10034767Y-17670560D01*
X10034767Y-17670560D02*
X10015720Y-17680084D01*
X10015720Y-17680084D02*
X9996672Y-17680084D01*
X9996672Y-17680084D02*
X9977624Y-17670560D01*
X9977624Y-17670560D02*
X9968101Y-17661036D01*
X9968101Y-17661036D02*
X9958577Y-17641989D01*
X9958577Y-17641989D02*
X9949053Y-17603893D01*
X9949053Y-17603893D02*
X9949053Y-17556274D01*
X9949053Y-17556274D02*
X9958577Y-17518179D01*
X9958577Y-17518179D02*
X9968101Y-17499131D01*
X9968101Y-17499131D02*
X9977624Y-17489608D01*
X9977624Y-17489608D02*
X9996672Y-17480084D01*
X10149053Y-17661036D02*
X10158577Y-17670560D01*
X10158577Y-17670560D02*
X10149053Y-17680084D01*
X10149053Y-17680084D02*
X10139529Y-17670560D01*
X10139529Y-17670560D02*
X10149053Y-17661036D01*
X10149053Y-17661036D02*
X10149053Y-17680084D01*
X10330005Y-17546750D02*
X10330005Y-17680084D01*
X10282386Y-17470560D02*
X10234767Y-17613417D01*
X10234767Y-17613417D02*
X10358577Y-17613417D01*
X10472863Y-17480084D02*
X10491910Y-17480084D01*
X10491910Y-17480084D02*
X10510958Y-17489608D01*
X10510958Y-17489608D02*
X10520482Y-17499131D01*
X10520482Y-17499131D02*
X10530005Y-17518179D01*
X10530005Y-17518179D02*
X10539529Y-17556274D01*
X10539529Y-17556274D02*
X10539529Y-17603893D01*
X10539529Y-17603893D02*
X10530005Y-17641989D01*
X10530005Y-17641989D02*
X10520482Y-17661036D01*
X10520482Y-17661036D02*
X10510958Y-17670560D01*
X10510958Y-17670560D02*
X10491910Y-17680084D01*
X10491910Y-17680084D02*
X10472863Y-17680084D01*
X10472863Y-17680084D02*
X10453815Y-17670560D01*
X10453815Y-17670560D02*
X10444291Y-17661036D01*
X10444291Y-17661036D02*
X10434767Y-17641989D01*
X10434767Y-17641989D02*
X10425244Y-17603893D01*
X10425244Y-17603893D02*
X10425244Y-17556274D01*
X10425244Y-17556274D02*
X10434767Y-17518179D01*
X10434767Y-17518179D02*
X10444291Y-17499131D01*
X10444291Y-17499131D02*
X10453815Y-17489608D01*
X10453815Y-17489608D02*
X10472863Y-17480084D01*
X10663339Y-17480084D02*
X10682386Y-17480084D01*
X10682386Y-17480084D02*
X10701434Y-17489608D01*
X10701434Y-17489608D02*
X10710958Y-17499131D01*
X10710958Y-17499131D02*
X10720482Y-17518179D01*
X10720482Y-17518179D02*
X10730005Y-17556274D01*
X10730005Y-17556274D02*
X10730005Y-17603893D01*
X10730005Y-17603893D02*
X10720482Y-17641989D01*
X10720482Y-17641989D02*
X10710958Y-17661036D01*
X10710958Y-17661036D02*
X10701434Y-17670560D01*
X10701434Y-17670560D02*
X10682386Y-17680084D01*
X10682386Y-17680084D02*
X10663339Y-17680084D01*
X10663339Y-17680084D02*
X10644291Y-17670560D01*
X10644291Y-17670560D02*
X10634767Y-17661036D01*
X10634767Y-17661036D02*
X10625244Y-17641989D01*
X10625244Y-17641989D02*
X10615720Y-17603893D01*
X10615720Y-17603893D02*
X10615720Y-17556274D01*
X10615720Y-17556274D02*
X10625244Y-17518179D01*
X10625244Y-17518179D02*
X10634767Y-17499131D01*
X10634767Y-17499131D02*
X10644291Y-17489608D01*
X10644291Y-17489608D02*
X10663339Y-17480084D01*
X10815720Y-17680084D02*
X10815720Y-17546750D01*
X10815720Y-17565798D02*
X10825244Y-17556274D01*
X10825244Y-17556274D02*
X10844291Y-17546750D01*
X10844291Y-17546750D02*
X10872863Y-17546750D01*
X10872863Y-17546750D02*
X10891910Y-17556274D01*
X10891910Y-17556274D02*
X10901434Y-17575322D01*
X10901434Y-17575322D02*
X10901434Y-17680084D01*
X10901434Y-17575322D02*
X10910958Y-17556274D01*
X10910958Y-17556274D02*
X10930005Y-17546750D01*
X10930005Y-17546750D02*
X10958577Y-17546750D01*
X10958577Y-17546750D02*
X10977625Y-17556274D01*
X10977625Y-17556274D02*
X10987148Y-17575322D01*
X10987148Y-17575322D02*
X10987148Y-17680084D01*
X11082386Y-17680084D02*
X11082386Y-17546750D01*
X11082386Y-17565798D02*
X11091910Y-17556274D01*
X11091910Y-17556274D02*
X11110958Y-17546750D01*
X11110958Y-17546750D02*
X11139529Y-17546750D01*
X11139529Y-17546750D02*
X11158577Y-17556274D01*
X11158577Y-17556274D02*
X11168101Y-17575322D01*
X11168101Y-17575322D02*
X11168101Y-17680084D01*
X11168101Y-17575322D02*
X11177625Y-17556274D01*
X11177625Y-17556274D02*
X11196672Y-17546750D01*
X11196672Y-17546750D02*
X11225243Y-17546750D01*
X11225243Y-17546750D02*
X11244291Y-17556274D01*
X11244291Y-17556274D02*
X11253815Y-17575322D01*
X11253815Y-17575322D02*
X11253815Y-17680084D01*
X11644291Y-17470560D02*
X11472863Y-17727703D01*
X11901434Y-17480084D02*
X11920482Y-17480084D01*
X11920482Y-17480084D02*
X11939529Y-17489608D01*
X11939529Y-17489608D02*
X11949053Y-17499131D01*
X11949053Y-17499131D02*
X11958577Y-17518179D01*
X11958577Y-17518179D02*
X11968101Y-17556274D01*
X11968101Y-17556274D02*
X11968101Y-17603893D01*
X11968101Y-17603893D02*
X11958577Y-17641989D01*
X11958577Y-17641989D02*
X11949053Y-17661036D01*
X11949053Y-17661036D02*
X11939529Y-17670560D01*
X11939529Y-17670560D02*
X11920482Y-17680084D01*
X11920482Y-17680084D02*
X11901434Y-17680084D01*
X11901434Y-17680084D02*
X11882386Y-17670560D01*
X11882386Y-17670560D02*
X11872863Y-17661036D01*
X11872863Y-17661036D02*
X11863339Y-17641989D01*
X11863339Y-17641989D02*
X11853815Y-17603893D01*
X11853815Y-17603893D02*
X11853815Y-17556274D01*
X11853815Y-17556274D02*
X11863339Y-17518179D01*
X11863339Y-17518179D02*
X11872863Y-17499131D01*
X11872863Y-17499131D02*
X11882386Y-17489608D01*
X11882386Y-17489608D02*
X11901434Y-17480084D01*
X12053815Y-17661036D02*
X12063339Y-17670560D01*
X12063339Y-17670560D02*
X12053815Y-17680084D01*
X12053815Y-17680084D02*
X12044291Y-17670560D01*
X12044291Y-17670560D02*
X12053815Y-17661036D01*
X12053815Y-17661036D02*
X12053815Y-17680084D01*
X12187148Y-17480084D02*
X12206196Y-17480084D01*
X12206196Y-17480084D02*
X12225244Y-17489608D01*
X12225244Y-17489608D02*
X12234767Y-17499131D01*
X12234767Y-17499131D02*
X12244291Y-17518179D01*
X12244291Y-17518179D02*
X12253815Y-17556274D01*
X12253815Y-17556274D02*
X12253815Y-17603893D01*
X12253815Y-17603893D02*
X12244291Y-17641989D01*
X12244291Y-17641989D02*
X12234767Y-17661036D01*
X12234767Y-17661036D02*
X12225244Y-17670560D01*
X12225244Y-17670560D02*
X12206196Y-17680084D01*
X12206196Y-17680084D02*
X12187148Y-17680084D01*
X12187148Y-17680084D02*
X12168101Y-17670560D01*
X12168101Y-17670560D02*
X12158577Y-17661036D01*
X12158577Y-17661036D02*
X12149053Y-17641989D01*
X12149053Y-17641989D02*
X12139529Y-17603893D01*
X12139529Y-17603893D02*
X12139529Y-17556274D01*
X12139529Y-17556274D02*
X12149053Y-17518179D01*
X12149053Y-17518179D02*
X12158577Y-17499131D01*
X12158577Y-17499131D02*
X12168101Y-17489608D01*
X12168101Y-17489608D02*
X12187148Y-17480084D01*
X12444291Y-17680084D02*
X12330006Y-17680084D01*
X12387148Y-17680084D02*
X12387148Y-17480084D01*
X12387148Y-17480084D02*
X12368101Y-17508655D01*
X12368101Y-17508655D02*
X12349053Y-17527703D01*
X12349053Y-17527703D02*
X12330006Y-17537227D01*
X12625244Y-17480084D02*
X12530006Y-17480084D01*
X12530006Y-17480084D02*
X12520482Y-17575322D01*
X12520482Y-17575322D02*
X12530006Y-17565798D01*
X12530006Y-17565798D02*
X12549053Y-17556274D01*
X12549053Y-17556274D02*
X12596672Y-17556274D01*
X12596672Y-17556274D02*
X12615720Y-17565798D01*
X12615720Y-17565798D02*
X12625244Y-17575322D01*
X12625244Y-17575322D02*
X12634767Y-17594370D01*
X12634767Y-17594370D02*
X12634767Y-17641989D01*
X12634767Y-17641989D02*
X12625244Y-17661036D01*
X12625244Y-17661036D02*
X12615720Y-17670560D01*
X12615720Y-17670560D02*
X12596672Y-17680084D01*
X12596672Y-17680084D02*
X12549053Y-17680084D01*
X12549053Y-17680084D02*
X12530006Y-17670560D01*
X12530006Y-17670560D02*
X12520482Y-17661036D01*
X12701434Y-17480084D02*
X12834767Y-17480084D01*
X12834767Y-17480084D02*
X12749053Y-17680084D01*
X12901434Y-17480084D02*
X12901434Y-17518179D01*
X12977625Y-17480084D02*
X12977625Y-17518179D01*
X13272863Y-17756274D02*
X13263339Y-17746750D01*
X13263339Y-17746750D02*
X13244291Y-17718179D01*
X13244291Y-17718179D02*
X13234768Y-17699131D01*
X13234768Y-17699131D02*
X13225244Y-17670560D01*
X13225244Y-17670560D02*
X13215720Y-17622941D01*
X13215720Y-17622941D02*
X13215720Y-17584846D01*
X13215720Y-17584846D02*
X13225244Y-17537227D01*
X13225244Y-17537227D02*
X13234768Y-17508655D01*
X13234768Y-17508655D02*
X13244291Y-17489608D01*
X13244291Y-17489608D02*
X13263339Y-17461036D01*
X13263339Y-17461036D02*
X13272863Y-17451512D01*
X13339529Y-17499131D02*
X13349053Y-17489608D01*
X13349053Y-17489608D02*
X13368101Y-17480084D01*
X13368101Y-17480084D02*
X13415720Y-17480084D01*
X13415720Y-17480084D02*
X13434768Y-17489608D01*
X13434768Y-17489608D02*
X13444291Y-17499131D01*
X13444291Y-17499131D02*
X13453815Y-17518179D01*
X13453815Y-17518179D02*
X13453815Y-17537227D01*
X13453815Y-17537227D02*
X13444291Y-17565798D01*
X13444291Y-17565798D02*
X13330006Y-17680084D01*
X13330006Y-17680084D02*
X13453815Y-17680084D01*
X13530006Y-17499131D02*
X13539529Y-17489608D01*
X13539529Y-17489608D02*
X13558577Y-17480084D01*
X13558577Y-17480084D02*
X13606196Y-17480084D01*
X13606196Y-17480084D02*
X13625244Y-17489608D01*
X13625244Y-17489608D02*
X13634768Y-17499131D01*
X13634768Y-17499131D02*
X13644291Y-17518179D01*
X13644291Y-17518179D02*
X13644291Y-17537227D01*
X13644291Y-17537227D02*
X13634768Y-17565798D01*
X13634768Y-17565798D02*
X13520482Y-17680084D01*
X13520482Y-17680084D02*
X13644291Y-17680084D01*
X13882387Y-17680084D02*
X13882387Y-17480084D01*
X13968101Y-17680084D02*
X13968101Y-17575322D01*
X13968101Y-17575322D02*
X13958577Y-17556274D01*
X13958577Y-17556274D02*
X13939530Y-17546750D01*
X13939530Y-17546750D02*
X13910958Y-17546750D01*
X13910958Y-17546750D02*
X13891910Y-17556274D01*
X13891910Y-17556274D02*
X13882387Y-17565798D01*
X14091910Y-17680084D02*
X14072863Y-17670560D01*
X14072863Y-17670560D02*
X14063339Y-17661036D01*
X14063339Y-17661036D02*
X14053815Y-17641989D01*
X14053815Y-17641989D02*
X14053815Y-17584846D01*
X14053815Y-17584846D02*
X14063339Y-17565798D01*
X14063339Y-17565798D02*
X14072863Y-17556274D01*
X14072863Y-17556274D02*
X14091910Y-17546750D01*
X14091910Y-17546750D02*
X14120482Y-17546750D01*
X14120482Y-17546750D02*
X14139530Y-17556274D01*
X14139530Y-17556274D02*
X14149053Y-17565798D01*
X14149053Y-17565798D02*
X14158577Y-17584846D01*
X14158577Y-17584846D02*
X14158577Y-17641989D01*
X14158577Y-17641989D02*
X14149053Y-17661036D01*
X14149053Y-17661036D02*
X14139530Y-17670560D01*
X14139530Y-17670560D02*
X14120482Y-17680084D01*
X14120482Y-17680084D02*
X14091910Y-17680084D01*
X14272863Y-17680084D02*
X14253815Y-17670560D01*
X14253815Y-17670560D02*
X14244291Y-17651512D01*
X14244291Y-17651512D02*
X14244291Y-17480084D01*
X14425244Y-17670560D02*
X14406196Y-17680084D01*
X14406196Y-17680084D02*
X14368101Y-17680084D01*
X14368101Y-17680084D02*
X14349053Y-17670560D01*
X14349053Y-17670560D02*
X14339530Y-17651512D01*
X14339530Y-17651512D02*
X14339530Y-17575322D01*
X14339530Y-17575322D02*
X14349053Y-17556274D01*
X14349053Y-17556274D02*
X14368101Y-17546750D01*
X14368101Y-17546750D02*
X14406196Y-17546750D01*
X14406196Y-17546750D02*
X14425244Y-17556274D01*
X14425244Y-17556274D02*
X14434768Y-17575322D01*
X14434768Y-17575322D02*
X14434768Y-17594370D01*
X14434768Y-17594370D02*
X14339530Y-17613417D01*
X14510958Y-17670560D02*
X14530006Y-17680084D01*
X14530006Y-17680084D02*
X14568101Y-17680084D01*
X14568101Y-17680084D02*
X14587149Y-17670560D01*
X14587149Y-17670560D02*
X14596672Y-17651512D01*
X14596672Y-17651512D02*
X14596672Y-17641989D01*
X14596672Y-17641989D02*
X14587149Y-17622941D01*
X14587149Y-17622941D02*
X14568101Y-17613417D01*
X14568101Y-17613417D02*
X14539530Y-17613417D01*
X14539530Y-17613417D02*
X14520482Y-17603893D01*
X14520482Y-17603893D02*
X14510958Y-17584846D01*
X14510958Y-17584846D02*
X14510958Y-17575322D01*
X14510958Y-17575322D02*
X14520482Y-17556274D01*
X14520482Y-17556274D02*
X14539530Y-17546750D01*
X14539530Y-17546750D02*
X14568101Y-17546750D01*
X14568101Y-17546750D02*
X14587149Y-17556274D01*
X14663339Y-17756274D02*
X14672863Y-17746750D01*
X14672863Y-17746750D02*
X14691911Y-17718179D01*
X14691911Y-17718179D02*
X14701434Y-17699131D01*
X14701434Y-17699131D02*
X14710958Y-17670560D01*
X14710958Y-17670560D02*
X14720482Y-17622941D01*
X14720482Y-17622941D02*
X14720482Y-17584846D01*
X14720482Y-17584846D02*
X14710958Y-17537227D01*
X14710958Y-17537227D02*
X14701434Y-17508655D01*
X14701434Y-17508655D02*
X14691911Y-17489608D01*
X14691911Y-17489608D02*
X14672863Y-17461036D01*
X14672863Y-17461036D02*
X14663339Y-17451512D01*
D14*
X9672800Y-17827600D02*
X9672800Y-17877600D01*
X9647800Y-17852600D02*
X9697800Y-17852600D01*
D11*
X9996672Y-17744084D02*
X10015720Y-17744084D01*
X10015720Y-17744084D02*
X10034767Y-17753608D01*
X10034767Y-17753608D02*
X10044291Y-17763131D01*
X10044291Y-17763131D02*
X10053815Y-17782179D01*
X10053815Y-17782179D02*
X10063339Y-17820274D01*
X10063339Y-17820274D02*
X10063339Y-17867893D01*
X10063339Y-17867893D02*
X10053815Y-17905989D01*
X10053815Y-17905989D02*
X10044291Y-17925036D01*
X10044291Y-17925036D02*
X10034767Y-17934560D01*
X10034767Y-17934560D02*
X10015720Y-17944084D01*
X10015720Y-17944084D02*
X9996672Y-17944084D01*
X9996672Y-17944084D02*
X9977624Y-17934560D01*
X9977624Y-17934560D02*
X9968101Y-17925036D01*
X9968101Y-17925036D02*
X9958577Y-17905989D01*
X9958577Y-17905989D02*
X9949053Y-17867893D01*
X9949053Y-17867893D02*
X9949053Y-17820274D01*
X9949053Y-17820274D02*
X9958577Y-17782179D01*
X9958577Y-17782179D02*
X9968101Y-17763131D01*
X9968101Y-17763131D02*
X9977624Y-17753608D01*
X9977624Y-17753608D02*
X9996672Y-17744084D01*
X10149053Y-17925036D02*
X10158577Y-17934560D01*
X10158577Y-17934560D02*
X10149053Y-17944084D01*
X10149053Y-17944084D02*
X10139529Y-17934560D01*
X10139529Y-17934560D02*
X10149053Y-17925036D01*
X10149053Y-17925036D02*
X10149053Y-17944084D01*
X10339529Y-17744084D02*
X10244291Y-17744084D01*
X10244291Y-17744084D02*
X10234767Y-17839322D01*
X10234767Y-17839322D02*
X10244291Y-17829798D01*
X10244291Y-17829798D02*
X10263339Y-17820274D01*
X10263339Y-17820274D02*
X10310958Y-17820274D01*
X10310958Y-17820274D02*
X10330005Y-17829798D01*
X10330005Y-17829798D02*
X10339529Y-17839322D01*
X10339529Y-17839322D02*
X10349053Y-17858370D01*
X10349053Y-17858370D02*
X10349053Y-17905989D01*
X10349053Y-17905989D02*
X10339529Y-17925036D01*
X10339529Y-17925036D02*
X10330005Y-17934560D01*
X10330005Y-17934560D02*
X10310958Y-17944084D01*
X10310958Y-17944084D02*
X10263339Y-17944084D01*
X10263339Y-17944084D02*
X10244291Y-17934560D01*
X10244291Y-17934560D02*
X10234767Y-17925036D01*
X10472863Y-17744084D02*
X10491910Y-17744084D01*
X10491910Y-17744084D02*
X10510958Y-17753608D01*
X10510958Y-17753608D02*
X10520482Y-17763131D01*
X10520482Y-17763131D02*
X10530005Y-17782179D01*
X10530005Y-17782179D02*
X10539529Y-17820274D01*
X10539529Y-17820274D02*
X10539529Y-17867893D01*
X10539529Y-17867893D02*
X10530005Y-17905989D01*
X10530005Y-17905989D02*
X10520482Y-17925036D01*
X10520482Y-17925036D02*
X10510958Y-17934560D01*
X10510958Y-17934560D02*
X10491910Y-17944084D01*
X10491910Y-17944084D02*
X10472863Y-17944084D01*
X10472863Y-17944084D02*
X10453815Y-17934560D01*
X10453815Y-17934560D02*
X10444291Y-17925036D01*
X10444291Y-17925036D02*
X10434767Y-17905989D01*
X10434767Y-17905989D02*
X10425244Y-17867893D01*
X10425244Y-17867893D02*
X10425244Y-17820274D01*
X10425244Y-17820274D02*
X10434767Y-17782179D01*
X10434767Y-17782179D02*
X10444291Y-17763131D01*
X10444291Y-17763131D02*
X10453815Y-17753608D01*
X10453815Y-17753608D02*
X10472863Y-17744084D01*
X10663339Y-17744084D02*
X10682386Y-17744084D01*
X10682386Y-17744084D02*
X10701434Y-17753608D01*
X10701434Y-17753608D02*
X10710958Y-17763131D01*
X10710958Y-17763131D02*
X10720482Y-17782179D01*
X10720482Y-17782179D02*
X10730005Y-17820274D01*
X10730005Y-17820274D02*
X10730005Y-17867893D01*
X10730005Y-17867893D02*
X10720482Y-17905989D01*
X10720482Y-17905989D02*
X10710958Y-17925036D01*
X10710958Y-17925036D02*
X10701434Y-17934560D01*
X10701434Y-17934560D02*
X10682386Y-17944084D01*
X10682386Y-17944084D02*
X10663339Y-17944084D01*
X10663339Y-17944084D02*
X10644291Y-17934560D01*
X10644291Y-17934560D02*
X10634767Y-17925036D01*
X10634767Y-17925036D02*
X10625244Y-17905989D01*
X10625244Y-17905989D02*
X10615720Y-17867893D01*
X10615720Y-17867893D02*
X10615720Y-17820274D01*
X10615720Y-17820274D02*
X10625244Y-17782179D01*
X10625244Y-17782179D02*
X10634767Y-17763131D01*
X10634767Y-17763131D02*
X10644291Y-17753608D01*
X10644291Y-17753608D02*
X10663339Y-17744084D01*
X10815720Y-17944084D02*
X10815720Y-17810750D01*
X10815720Y-17829798D02*
X10825244Y-17820274D01*
X10825244Y-17820274D02*
X10844291Y-17810750D01*
X10844291Y-17810750D02*
X10872863Y-17810750D01*
X10872863Y-17810750D02*
X10891910Y-17820274D01*
X10891910Y-17820274D02*
X10901434Y-17839322D01*
X10901434Y-17839322D02*
X10901434Y-17944084D01*
X10901434Y-17839322D02*
X10910958Y-17820274D01*
X10910958Y-17820274D02*
X10930005Y-17810750D01*
X10930005Y-17810750D02*
X10958577Y-17810750D01*
X10958577Y-17810750D02*
X10977625Y-17820274D01*
X10977625Y-17820274D02*
X10987148Y-17839322D01*
X10987148Y-17839322D02*
X10987148Y-17944084D01*
X11082386Y-17944084D02*
X11082386Y-17810750D01*
X11082386Y-17829798D02*
X11091910Y-17820274D01*
X11091910Y-17820274D02*
X11110958Y-17810750D01*
X11110958Y-17810750D02*
X11139529Y-17810750D01*
X11139529Y-17810750D02*
X11158577Y-17820274D01*
X11158577Y-17820274D02*
X11168101Y-17839322D01*
X11168101Y-17839322D02*
X11168101Y-17944084D01*
X11168101Y-17839322D02*
X11177625Y-17820274D01*
X11177625Y-17820274D02*
X11196672Y-17810750D01*
X11196672Y-17810750D02*
X11225243Y-17810750D01*
X11225243Y-17810750D02*
X11244291Y-17820274D01*
X11244291Y-17820274D02*
X11253815Y-17839322D01*
X11253815Y-17839322D02*
X11253815Y-17944084D01*
X11644291Y-17734560D02*
X11472863Y-17991703D01*
X11901434Y-17744084D02*
X11920482Y-17744084D01*
X11920482Y-17744084D02*
X11939529Y-17753608D01*
X11939529Y-17753608D02*
X11949053Y-17763131D01*
X11949053Y-17763131D02*
X11958577Y-17782179D01*
X11958577Y-17782179D02*
X11968101Y-17820274D01*
X11968101Y-17820274D02*
X11968101Y-17867893D01*
X11968101Y-17867893D02*
X11958577Y-17905989D01*
X11958577Y-17905989D02*
X11949053Y-17925036D01*
X11949053Y-17925036D02*
X11939529Y-17934560D01*
X11939529Y-17934560D02*
X11920482Y-17944084D01*
X11920482Y-17944084D02*
X11901434Y-17944084D01*
X11901434Y-17944084D02*
X11882386Y-17934560D01*
X11882386Y-17934560D02*
X11872863Y-17925036D01*
X11872863Y-17925036D02*
X11863339Y-17905989D01*
X11863339Y-17905989D02*
X11853815Y-17867893D01*
X11853815Y-17867893D02*
X11853815Y-17820274D01*
X11853815Y-17820274D02*
X11863339Y-17782179D01*
X11863339Y-17782179D02*
X11872863Y-17763131D01*
X11872863Y-17763131D02*
X11882386Y-17753608D01*
X11882386Y-17753608D02*
X11901434Y-17744084D01*
X12053815Y-17925036D02*
X12063339Y-17934560D01*
X12063339Y-17934560D02*
X12053815Y-17944084D01*
X12053815Y-17944084D02*
X12044291Y-17934560D01*
X12044291Y-17934560D02*
X12053815Y-17925036D01*
X12053815Y-17925036D02*
X12053815Y-17944084D01*
X12187148Y-17744084D02*
X12206196Y-17744084D01*
X12206196Y-17744084D02*
X12225244Y-17753608D01*
X12225244Y-17753608D02*
X12234767Y-17763131D01*
X12234767Y-17763131D02*
X12244291Y-17782179D01*
X12244291Y-17782179D02*
X12253815Y-17820274D01*
X12253815Y-17820274D02*
X12253815Y-17867893D01*
X12253815Y-17867893D02*
X12244291Y-17905989D01*
X12244291Y-17905989D02*
X12234767Y-17925036D01*
X12234767Y-17925036D02*
X12225244Y-17934560D01*
X12225244Y-17934560D02*
X12206196Y-17944084D01*
X12206196Y-17944084D02*
X12187148Y-17944084D01*
X12187148Y-17944084D02*
X12168101Y-17934560D01*
X12168101Y-17934560D02*
X12158577Y-17925036D01*
X12158577Y-17925036D02*
X12149053Y-17905989D01*
X12149053Y-17905989D02*
X12139529Y-17867893D01*
X12139529Y-17867893D02*
X12139529Y-17820274D01*
X12139529Y-17820274D02*
X12149053Y-17782179D01*
X12149053Y-17782179D02*
X12158577Y-17763131D01*
X12158577Y-17763131D02*
X12168101Y-17753608D01*
X12168101Y-17753608D02*
X12187148Y-17744084D01*
X12444291Y-17944084D02*
X12330006Y-17944084D01*
X12387148Y-17944084D02*
X12387148Y-17744084D01*
X12387148Y-17744084D02*
X12368101Y-17772655D01*
X12368101Y-17772655D02*
X12349053Y-17791703D01*
X12349053Y-17791703D02*
X12330006Y-17801227D01*
X12539529Y-17944084D02*
X12577625Y-17944084D01*
X12577625Y-17944084D02*
X12596672Y-17934560D01*
X12596672Y-17934560D02*
X12606196Y-17925036D01*
X12606196Y-17925036D02*
X12625244Y-17896465D01*
X12625244Y-17896465D02*
X12634767Y-17858370D01*
X12634767Y-17858370D02*
X12634767Y-17782179D01*
X12634767Y-17782179D02*
X12625244Y-17763131D01*
X12625244Y-17763131D02*
X12615720Y-17753608D01*
X12615720Y-17753608D02*
X12596672Y-17744084D01*
X12596672Y-17744084D02*
X12558577Y-17744084D01*
X12558577Y-17744084D02*
X12539529Y-17753608D01*
X12539529Y-17753608D02*
X12530006Y-17763131D01*
X12530006Y-17763131D02*
X12520482Y-17782179D01*
X12520482Y-17782179D02*
X12520482Y-17829798D01*
X12520482Y-17829798D02*
X12530006Y-17848846D01*
X12530006Y-17848846D02*
X12539529Y-17858370D01*
X12539529Y-17858370D02*
X12558577Y-17867893D01*
X12558577Y-17867893D02*
X12596672Y-17867893D01*
X12596672Y-17867893D02*
X12615720Y-17858370D01*
X12615720Y-17858370D02*
X12625244Y-17848846D01*
X12625244Y-17848846D02*
X12634767Y-17829798D01*
X12701434Y-17744084D02*
X12834767Y-17744084D01*
X12834767Y-17744084D02*
X12749053Y-17944084D01*
X12901434Y-17744084D02*
X12901434Y-17782179D01*
X12977625Y-17744084D02*
X12977625Y-17782179D01*
X13272863Y-18020274D02*
X13263339Y-18010750D01*
X13263339Y-18010750D02*
X13244291Y-17982179D01*
X13244291Y-17982179D02*
X13234768Y-17963131D01*
X13234768Y-17963131D02*
X13225244Y-17934560D01*
X13225244Y-17934560D02*
X13215720Y-17886941D01*
X13215720Y-17886941D02*
X13215720Y-17848846D01*
X13215720Y-17848846D02*
X13225244Y-17801227D01*
X13225244Y-17801227D02*
X13234768Y-17772655D01*
X13234768Y-17772655D02*
X13244291Y-17753608D01*
X13244291Y-17753608D02*
X13263339Y-17725036D01*
X13263339Y-17725036D02*
X13272863Y-17715512D01*
X13444291Y-17744084D02*
X13349053Y-17744084D01*
X13349053Y-17744084D02*
X13339529Y-17839322D01*
X13339529Y-17839322D02*
X13349053Y-17829798D01*
X13349053Y-17829798D02*
X13368101Y-17820274D01*
X13368101Y-17820274D02*
X13415720Y-17820274D01*
X13415720Y-17820274D02*
X13434768Y-17829798D01*
X13434768Y-17829798D02*
X13444291Y-17839322D01*
X13444291Y-17839322D02*
X13453815Y-17858370D01*
X13453815Y-17858370D02*
X13453815Y-17905989D01*
X13453815Y-17905989D02*
X13444291Y-17925036D01*
X13444291Y-17925036D02*
X13434768Y-17934560D01*
X13434768Y-17934560D02*
X13415720Y-17944084D01*
X13415720Y-17944084D02*
X13368101Y-17944084D01*
X13368101Y-17944084D02*
X13349053Y-17934560D01*
X13349053Y-17934560D02*
X13339529Y-17925036D01*
X13691910Y-17944084D02*
X13691910Y-17744084D01*
X13777625Y-17944084D02*
X13777625Y-17839322D01*
X13777625Y-17839322D02*
X13768101Y-17820274D01*
X13768101Y-17820274D02*
X13749053Y-17810750D01*
X13749053Y-17810750D02*
X13720482Y-17810750D01*
X13720482Y-17810750D02*
X13701434Y-17820274D01*
X13701434Y-17820274D02*
X13691910Y-17829798D01*
X13901434Y-17944084D02*
X13882387Y-17934560D01*
X13882387Y-17934560D02*
X13872863Y-17925036D01*
X13872863Y-17925036D02*
X13863339Y-17905989D01*
X13863339Y-17905989D02*
X13863339Y-17848846D01*
X13863339Y-17848846D02*
X13872863Y-17829798D01*
X13872863Y-17829798D02*
X13882387Y-17820274D01*
X13882387Y-17820274D02*
X13901434Y-17810750D01*
X13901434Y-17810750D02*
X13930006Y-17810750D01*
X13930006Y-17810750D02*
X13949053Y-17820274D01*
X13949053Y-17820274D02*
X13958577Y-17829798D01*
X13958577Y-17829798D02*
X13968101Y-17848846D01*
X13968101Y-17848846D02*
X13968101Y-17905989D01*
X13968101Y-17905989D02*
X13958577Y-17925036D01*
X13958577Y-17925036D02*
X13949053Y-17934560D01*
X13949053Y-17934560D02*
X13930006Y-17944084D01*
X13930006Y-17944084D02*
X13901434Y-17944084D01*
X14082387Y-17944084D02*
X14063339Y-17934560D01*
X14063339Y-17934560D02*
X14053815Y-17915512D01*
X14053815Y-17915512D02*
X14053815Y-17744084D01*
X14234768Y-17934560D02*
X14215720Y-17944084D01*
X14215720Y-17944084D02*
X14177625Y-17944084D01*
X14177625Y-17944084D02*
X14158577Y-17934560D01*
X14158577Y-17934560D02*
X14149053Y-17915512D01*
X14149053Y-17915512D02*
X14149053Y-17839322D01*
X14149053Y-17839322D02*
X14158577Y-17820274D01*
X14158577Y-17820274D02*
X14177625Y-17810750D01*
X14177625Y-17810750D02*
X14215720Y-17810750D01*
X14215720Y-17810750D02*
X14234768Y-17820274D01*
X14234768Y-17820274D02*
X14244291Y-17839322D01*
X14244291Y-17839322D02*
X14244291Y-17858370D01*
X14244291Y-17858370D02*
X14149053Y-17877417D01*
X14320482Y-17934560D02*
X14339530Y-17944084D01*
X14339530Y-17944084D02*
X14377625Y-17944084D01*
X14377625Y-17944084D02*
X14396672Y-17934560D01*
X14396672Y-17934560D02*
X14406196Y-17915512D01*
X14406196Y-17915512D02*
X14406196Y-17905989D01*
X14406196Y-17905989D02*
X14396672Y-17886941D01*
X14396672Y-17886941D02*
X14377625Y-17877417D01*
X14377625Y-17877417D02*
X14349053Y-17877417D01*
X14349053Y-17877417D02*
X14330006Y-17867893D01*
X14330006Y-17867893D02*
X14320482Y-17848846D01*
X14320482Y-17848846D02*
X14320482Y-17839322D01*
X14320482Y-17839322D02*
X14330006Y-17820274D01*
X14330006Y-17820274D02*
X14349053Y-17810750D01*
X14349053Y-17810750D02*
X14377625Y-17810750D01*
X14377625Y-17810750D02*
X14396672Y-17820274D01*
X14472863Y-18020274D02*
X14482387Y-18010750D01*
X14482387Y-18010750D02*
X14501434Y-17982179D01*
X14501434Y-17982179D02*
X14510958Y-17963131D01*
X14510958Y-17963131D02*
X14520482Y-17934560D01*
X14520482Y-17934560D02*
X14530006Y-17886941D01*
X14530006Y-17886941D02*
X14530006Y-17848846D01*
X14530006Y-17848846D02*
X14520482Y-17801227D01*
X14520482Y-17801227D02*
X14510958Y-17772655D01*
X14510958Y-17772655D02*
X14501434Y-17753608D01*
X14501434Y-17753608D02*
X14482387Y-17725036D01*
X14482387Y-17725036D02*
X14472863Y-17715512D01*
M02*
