G04 #@! TF.GenerationSoftware,KiCad,Pcbnew,7.0.6*
G04 #@! TF.CreationDate,2024-03-05T17:24:43-08:00*
G04 #@! TF.ProjectId,procon_button_board,70726f63-6f6e-45f6-9275-74746f6e5f62,rev?*
G04 #@! TF.SameCoordinates,Original*
G04 #@! TF.FileFunction,Other,User*
%FSLAX46Y46*%
G04 Gerber Fmt 4.6, Leading zero omitted, Abs format (unit mm)*
G04 Created by KiCad (PCBNEW 7.0.6) date 2024-03-05 17:24:43*
%MOMM*%
%LPD*%
G01*
G04 APERTURE LIST*
%ADD10C,0.050000*%
G04 APERTURE END LIST*
D10*
X144974720Y-165859612D02*
X144974720Y-162659612D01*
X147774720Y-165859612D02*
X144974720Y-165859612D01*
X147774720Y-165859612D02*
X147774720Y-162659612D01*
X144974720Y-162659612D02*
X147774720Y-162659612D01*
X135830720Y-165859612D02*
X135830720Y-162659612D01*
X138630720Y-165859612D02*
X135830720Y-165859612D01*
X138630720Y-165859612D02*
X138630720Y-162659612D01*
X135830720Y-162659612D02*
X138630720Y-162659612D01*
X138878720Y-165859612D02*
X138878720Y-162659612D01*
X141678720Y-165859612D02*
X138878720Y-165859612D01*
X141678720Y-165859612D02*
X141678720Y-162659612D01*
X138878720Y-162659612D02*
X141678720Y-162659612D01*
X132782720Y-165859612D02*
X132782720Y-162659612D01*
X135582720Y-165859612D02*
X132782720Y-165859612D01*
X135582720Y-165859612D02*
X135582720Y-162659612D01*
X132782720Y-162659612D02*
X135582720Y-162659612D01*
X141926720Y-165859612D02*
X141926720Y-162659612D01*
X144726720Y-165859612D02*
X141926720Y-165859612D01*
X144726720Y-165859612D02*
X144726720Y-162659612D01*
X141926720Y-162659612D02*
X144726720Y-162659612D01*
X148022720Y-165859612D02*
X148022720Y-162659612D01*
X150822720Y-165859612D02*
X148022720Y-165859612D01*
X150822720Y-165859612D02*
X150822720Y-162659612D01*
X148022720Y-162659612D02*
X150822720Y-162659612D01*
M02*
