G04 #@! TF.GenerationSoftware,KiCad,Pcbnew,8.0.2*
G04 #@! TF.CreationDate,2024-09-01T00:41:49-07:00*
G04 #@! TF.ProjectId,procon_button_board,70726f63-6f6e-45f6-9275-74746f6e5f62,rev?*
G04 #@! TF.SameCoordinates,Original*
G04 #@! TF.FileFunction,Copper,L2,Inr*
G04 #@! TF.FilePolarity,Positive*
%FSLAX46Y46*%
G04 Gerber Fmt 4.6, Leading zero omitted, Abs format (unit mm)*
G04 Created by KiCad (PCBNEW 8.0.2) date 2024-09-01 00:41:49*
%MOMM*%
%LPD*%
G01*
G04 APERTURE LIST*
G04 #@! TA.AperFunction,ViaPad*
%ADD10C,0.800000*%
G04 #@! TD*
G04 #@! TA.AperFunction,ViaPad*
%ADD11C,0.650000*%
G04 #@! TD*
G04 #@! TA.AperFunction,ViaPad*
%ADD12C,1.500000*%
G04 #@! TD*
G04 #@! TA.AperFunction,ViaPad*
%ADD13C,1.250000*%
G04 #@! TD*
G04 APERTURE END LIST*
D10*
X145214000Y-131884000D03*
X141024000Y-131774000D03*
X189484000Y-145389600D03*
X189434000Y-150264000D03*
X126562720Y-138605612D03*
D11*
X99384720Y-162735612D03*
X181334234Y-123893767D03*
X122874000Y-157774000D03*
X122498720Y-121841612D03*
X171704000Y-122555000D03*
D10*
X141710917Y-160887606D03*
D11*
X106750720Y-161465612D03*
X118942720Y-153337612D03*
X169418000Y-133731000D03*
D10*
X107258720Y-156385612D03*
D11*
X153374000Y-136264000D03*
D10*
X124704000Y-160484000D03*
D11*
X115132720Y-148511612D03*
D10*
X118824000Y-137304000D03*
X125038720Y-156893612D03*
X185894937Y-135051757D03*
X190125683Y-139881547D03*
X190062720Y-138097612D03*
X131934000Y-148284000D03*
D11*
X113919000Y-156337000D03*
D10*
X131388720Y-155115612D03*
D11*
X117926720Y-145463612D03*
X130372720Y-133271612D03*
X160090720Y-121841612D03*
D10*
X187584000Y-145564000D03*
X129356720Y-159687612D03*
X114144000Y-161494000D03*
D11*
X149860000Y-132461000D03*
D10*
X150842087Y-161464691D03*
D11*
X180954000Y-144864000D03*
X147193000Y-142875000D03*
X123514720Y-148511612D03*
X163830000Y-129921000D03*
D10*
X125494000Y-140374000D03*
X143764000Y-153670000D03*
D11*
X116334000Y-157294000D03*
X193432979Y-134393539D03*
D10*
X122755581Y-138503280D03*
D11*
X138303000Y-134493000D03*
D10*
X178404000Y-130464000D03*
D11*
X100946952Y-161373173D03*
X115640720Y-153591612D03*
D10*
X155752800Y-125145800D03*
D11*
X123504000Y-154804000D03*
X185236720Y-145717612D03*
X124454000Y-154004000D03*
X125726872Y-123395697D03*
X155346400Y-134334000D03*
X173579679Y-135300648D03*
X163392720Y-123063000D03*
X197174720Y-135557612D03*
X121482720Y-146225612D03*
X185236720Y-124889612D03*
X134239000Y-134620000D03*
X101924720Y-160957612D03*
X114624720Y-152067612D03*
X101162720Y-152575612D03*
X147898720Y-165209612D03*
X101747324Y-157686249D03*
X102178720Y-154607612D03*
X158058720Y-116253612D03*
X157550720Y-127175612D03*
X127832720Y-116253612D03*
D12*
X132029200Y-127812800D03*
D11*
X128594720Y-127683612D03*
X103080657Y-158348830D03*
X144850720Y-165209612D03*
X103702720Y-153337612D03*
D13*
X104227219Y-165552532D03*
D11*
X142849600Y-140716000D03*
D10*
X128727900Y-154353612D03*
D11*
X105199223Y-154153663D03*
D12*
X125944000Y-142534000D03*
D10*
X124554000Y-159253572D03*
D11*
X128714653Y-141267635D03*
D10*
X115194000Y-159084000D03*
D11*
X113314000Y-147014000D03*
X110814000Y-154374000D03*
X105357449Y-158975997D03*
X141802720Y-165209612D03*
X135706720Y-165209612D03*
X106157243Y-159380831D03*
D12*
X186309000Y-144145000D03*
D11*
X188284720Y-144193612D03*
X147802600Y-134772400D03*
X192214000Y-123274000D03*
D10*
X199144000Y-133624000D03*
D11*
X191764000Y-133694000D03*
X130118720Y-138351612D03*
D10*
X130054000Y-155044000D03*
D11*
X189046720Y-133779612D03*
X166694720Y-123619612D03*
D10*
X174154000Y-123254000D03*
D13*
X147987385Y-161597812D03*
D11*
X141753211Y-139354258D03*
X144272000Y-144653000D03*
D13*
X136143221Y-161833702D03*
X144500157Y-161945912D03*
D11*
X143425971Y-141587729D03*
X143510000Y-143637000D03*
D13*
X139885396Y-160369374D03*
D11*
X135028817Y-155203798D03*
D12*
X161772602Y-119345941D03*
D11*
X156591000Y-119761000D03*
X148919230Y-160614197D03*
X147736989Y-157287885D03*
D12*
X178474000Y-114475612D03*
D11*
X149910800Y-137591800D03*
X169742720Y-114983612D03*
X135996469Y-155618506D03*
X150438720Y-131239612D03*
D12*
X150571200Y-129844800D03*
D11*
X145612720Y-157909612D03*
D12*
X170924659Y-124371252D03*
D11*
X168980720Y-124889612D03*
X146374376Y-157366877D03*
X149250400Y-136956800D03*
X147074758Y-160698843D03*
X127832720Y-140383612D03*
X121394000Y-137364000D03*
X129425838Y-156526572D03*
D12*
X114294000Y-143064000D03*
D11*
X143491167Y-156695445D03*
X148615400Y-136296400D03*
X178562000Y-122758200D03*
D12*
X194437000Y-122555000D03*
D11*
X189300720Y-121841612D03*
X168218720Y-122603612D03*
D12*
X115594000Y-162604000D03*
D11*
X143326720Y-160703612D03*
X132658720Y-159687612D03*
D12*
X132144000Y-146394000D03*
D11*
X139515616Y-161471318D03*
X132404720Y-151559612D03*
X127140349Y-121050669D03*
X133468723Y-154436917D03*
X141548720Y-156893612D03*
D12*
X124148000Y-119635612D03*
D11*
X137484720Y-156639612D03*
D12*
X132232400Y-131267200D03*
D11*
X127905066Y-131272542D03*
X134284974Y-153564714D03*
D12*
X180467000Y-135255000D03*
D11*
X147980400Y-135661400D03*
X177634335Y-121110921D03*
X138771393Y-156665823D03*
X179394720Y-134541612D03*
X167456720Y-121841612D03*
X135499804Y-160857483D03*
X110052720Y-155115612D03*
D12*
X105844000Y-151044000D03*
D11*
X124395011Y-161542444D03*
X113164000Y-154264000D03*
X107004720Y-153337612D03*
X115739662Y-160096670D03*
X124276720Y-144701612D03*
X123629229Y-125152363D03*
X126400528Y-121917191D03*
X126428426Y-133955211D03*
X148640800Y-128955800D03*
X151942800Y-125298200D03*
X177870720Y-134541612D03*
X177850800Y-124510800D03*
X189808720Y-124127612D03*
X190316720Y-134541612D03*
X180104000Y-143454000D03*
G04 #@! TA.AperFunction,Conductor*
G36*
X129286933Y-112616185D02*
G01*
X129326648Y-112657417D01*
X130472742Y-114596962D01*
X130553410Y-114733476D01*
X130561214Y-114749100D01*
X130562800Y-114752929D01*
X130566821Y-114758946D01*
X130571647Y-114764339D01*
X130574951Y-114766821D01*
X130588145Y-114778274D01*
X130591071Y-114781200D01*
X130591074Y-114781201D01*
X130597092Y-114785222D01*
X130603608Y-114788353D01*
X130603610Y-114788355D01*
X130606240Y-114789031D01*
X130607612Y-114789384D01*
X130624194Y-114794920D01*
X130628008Y-114796500D01*
X130635106Y-114797912D01*
X130642329Y-114798312D01*
X130642330Y-114798311D01*
X130642332Y-114798312D01*
X130646425Y-114797730D01*
X130663854Y-114796500D01*
X155017708Y-114796500D01*
X155031334Y-114797251D01*
X155036734Y-114797848D01*
X155036736Y-114797847D01*
X155036737Y-114797848D01*
X155047014Y-114796960D01*
X155057688Y-114796500D01*
X155067988Y-114796500D01*
X155067991Y-114796500D01*
X155067993Y-114796498D01*
X155072314Y-114795638D01*
X155076557Y-114794407D01*
X155076569Y-114794406D01*
X155085729Y-114789649D01*
X155095404Y-114785144D01*
X155104929Y-114781200D01*
X155104933Y-114781195D01*
X155108598Y-114778746D01*
X155112047Y-114775984D01*
X155112053Y-114775982D01*
X155115333Y-114772081D01*
X155118686Y-114768094D01*
X155125903Y-114760225D01*
X155133200Y-114752929D01*
X155133201Y-114752925D01*
X155133203Y-114752924D01*
X155136211Y-114748422D01*
X155144416Y-114737494D01*
X155181511Y-114693382D01*
X156315836Y-113344454D01*
X156907636Y-112640694D01*
X156965849Y-112602053D01*
X157002541Y-112596500D01*
X166442850Y-112596500D01*
X166509889Y-112616185D01*
X166538109Y-112641117D01*
X167710994Y-114048580D01*
X167720886Y-114062242D01*
X167723370Y-114066216D01*
X167728159Y-114071307D01*
X167733590Y-114075695D01*
X167733591Y-114075696D01*
X167737208Y-114077594D01*
X167737728Y-114077867D01*
X167752104Y-114086709D01*
X167755919Y-114089430D01*
X167762292Y-114092300D01*
X167768988Y-114094276D01*
X167768990Y-114094276D01*
X167768992Y-114094277D01*
X167773652Y-114094700D01*
X167790301Y-114097365D01*
X167794880Y-114098422D01*
X167794881Y-114098421D01*
X167794882Y-114098422D01*
X167801854Y-114098633D01*
X167808803Y-114097896D01*
X167808809Y-114097897D01*
X167813281Y-114096503D01*
X167829686Y-114092593D01*
X167834313Y-114091819D01*
X167834316Y-114091816D01*
X167840843Y-114089344D01*
X167846979Y-114086005D01*
X167846979Y-114086004D01*
X167846981Y-114086004D01*
X167850578Y-114083005D01*
X167864231Y-114073119D01*
X170196666Y-112615347D01*
X170262386Y-112596500D01*
X187739393Y-112596500D01*
X187806432Y-112616185D01*
X187836615Y-112643533D01*
X188491116Y-113470271D01*
X188590256Y-113595501D01*
X188699786Y-113733854D01*
X188705309Y-113743252D01*
X188706018Y-113742779D01*
X188712800Y-113752930D01*
X188717733Y-113757862D01*
X188727277Y-113768579D01*
X188731614Y-113774057D01*
X188736135Y-113777903D01*
X188741070Y-113781200D01*
X188747514Y-113783869D01*
X188760434Y-113790118D01*
X188766535Y-113793519D01*
X188766536Y-113793519D01*
X188772182Y-113795341D01*
X188778007Y-113796500D01*
X188778009Y-113796500D01*
X188784986Y-113796500D01*
X188799307Y-113797329D01*
X188806249Y-113798137D01*
X188806249Y-113798136D01*
X188806250Y-113798137D01*
X188818420Y-113797154D01*
X188818488Y-113798004D01*
X188829288Y-113796500D01*
X191155671Y-113796500D01*
X191178171Y-113796500D01*
X191187027Y-113796817D01*
X191373144Y-113810143D01*
X191390665Y-113812665D01*
X191568657Y-113851431D01*
X191585648Y-113856426D01*
X191756297Y-113920157D01*
X191772393Y-113927517D01*
X191932228Y-114014914D01*
X191947112Y-114024494D01*
X192035831Y-114091012D01*
X192092850Y-114133763D01*
X192106226Y-114145373D01*
X192234917Y-114274299D01*
X192246501Y-114287694D01*
X192351865Y-114428762D01*
X192355500Y-114433628D01*
X192365057Y-114448537D01*
X192445935Y-114597097D01*
X192454218Y-114612310D01*
X192458170Y-114620231D01*
X192972717Y-115750912D01*
X195939042Y-122269207D01*
X195940648Y-122274308D01*
X195945684Y-122284886D01*
X195945684Y-122284887D01*
X195956418Y-122307432D01*
X195957289Y-122309302D01*
X195959146Y-122313382D01*
X195967705Y-122332191D01*
X195968835Y-122333515D01*
X195977280Y-122339328D01*
X195991595Y-122350831D01*
X195994032Y-122353106D01*
X195994033Y-122353106D01*
X195994035Y-122353108D01*
X196004413Y-122359539D01*
X196004402Y-122359556D01*
X196012656Y-122363860D01*
X196018162Y-122365814D01*
X196019271Y-122366061D01*
X196019419Y-122365158D01*
X196031470Y-122367126D01*
X196031474Y-122367128D01*
X196031477Y-122367127D01*
X196031478Y-122367128D01*
X196035000Y-122367007D01*
X196053618Y-122367766D01*
X196534169Y-122423772D01*
X196543149Y-122425154D01*
X197027252Y-122518029D01*
X197036098Y-122520065D01*
X197512077Y-122648252D01*
X197520752Y-122650934D01*
X197986024Y-122813735D01*
X197994493Y-122817053D01*
X198276665Y-122939733D01*
X198446521Y-123013581D01*
X198454741Y-123017520D01*
X198891109Y-123246721D01*
X198899017Y-123251253D01*
X199317371Y-123511889D01*
X199324925Y-123516990D01*
X199393312Y-123566924D01*
X199720941Y-123806148D01*
X199723000Y-123807651D01*
X199730158Y-123813292D01*
X199735258Y-123817625D01*
X200105805Y-124132409D01*
X200112530Y-124138561D01*
X200463734Y-124484422D01*
X200469988Y-124491052D01*
X200794818Y-124861754D01*
X200800570Y-124868826D01*
X201097304Y-125262405D01*
X201102520Y-125269880D01*
X201369537Y-125684187D01*
X201374190Y-125692025D01*
X201610053Y-126124832D01*
X201614117Y-126132990D01*
X201817550Y-126581949D01*
X201821004Y-126590384D01*
X201980736Y-127025375D01*
X201990904Y-127053063D01*
X201993728Y-127061722D01*
X202109234Y-127465841D01*
X202122726Y-127513046D01*
X202124285Y-127524179D01*
X202125118Y-127524014D01*
X202127499Y-127535988D01*
X202127500Y-127535990D01*
X202127500Y-127535991D01*
X202128652Y-127538774D01*
X202134485Y-127556543D01*
X202136864Y-127566197D01*
X202137840Y-127567969D01*
X202155344Y-127585473D01*
X202157095Y-127587259D01*
X202174169Y-127605037D01*
X202174170Y-127605037D01*
X202174171Y-127605038D01*
X202188088Y-127609069D01*
X202201033Y-127613610D01*
X202208009Y-127616500D01*
X202208013Y-127616500D01*
X202219988Y-127618883D01*
X202219794Y-127619857D01*
X202220146Y-127619908D01*
X202225899Y-127620023D01*
X202225902Y-127620024D01*
X202225904Y-127620023D01*
X202226183Y-127620029D01*
X202255257Y-127616500D01*
X205401071Y-127616500D01*
X205421907Y-127616500D01*
X205434061Y-127617097D01*
X205591335Y-127632587D01*
X205615163Y-127637326D01*
X205760544Y-127681427D01*
X205782989Y-127690724D01*
X205916967Y-127762337D01*
X205937174Y-127775839D01*
X206007858Y-127833848D01*
X206054601Y-127872208D01*
X206071791Y-127889398D01*
X206168159Y-128006824D01*
X206181663Y-128027034D01*
X206253272Y-128161003D01*
X206262575Y-128183462D01*
X206306671Y-128328830D01*
X206311413Y-128352670D01*
X206326903Y-128509937D01*
X206327500Y-128522092D01*
X206327500Y-132174744D01*
X206307815Y-132241783D01*
X206304804Y-132246253D01*
X192612977Y-151643009D01*
X192558235Y-151686426D01*
X192511673Y-151695500D01*
X179959501Y-151695500D01*
X179959493Y-151695499D01*
X179945059Y-151695499D01*
X179923001Y-151695499D01*
X179913275Y-151695117D01*
X179851227Y-151690235D01*
X179708922Y-151679038D01*
X179689704Y-151675994D01*
X179495146Y-151629288D01*
X179476640Y-151623276D01*
X179291772Y-151546705D01*
X179274435Y-151537871D01*
X179103835Y-151433331D01*
X179088093Y-151421894D01*
X178935936Y-151291943D01*
X178922176Y-151278184D01*
X178914656Y-151269379D01*
X178792226Y-151126035D01*
X178780791Y-151110296D01*
X178700420Y-150979146D01*
X178676239Y-150939687D01*
X178667406Y-150922350D01*
X178664154Y-150914500D01*
X178590834Y-150737493D01*
X178584822Y-150718989D01*
X178570485Y-150659273D01*
X178538109Y-150524422D01*
X178535066Y-150505206D01*
X178534800Y-150501824D01*
X178519161Y-150303125D01*
X178518840Y-150289587D01*
X178519634Y-150263999D01*
X188778722Y-150263999D01*
X188778722Y-150264000D01*
X188797762Y-150420818D01*
X188837055Y-150524424D01*
X188853780Y-150568523D01*
X188943517Y-150698530D01*
X189061760Y-150803283D01*
X189061762Y-150803284D01*
X189201634Y-150876696D01*
X189355014Y-150914500D01*
X189355015Y-150914500D01*
X189512985Y-150914500D01*
X189666365Y-150876696D01*
X189704359Y-150856755D01*
X189806240Y-150803283D01*
X189924483Y-150698530D01*
X190014220Y-150568523D01*
X190070237Y-150420818D01*
X190089278Y-150264000D01*
X190070237Y-150107182D01*
X190069392Y-150104955D01*
X190041234Y-150030708D01*
X190014220Y-149959477D01*
X189924483Y-149829470D01*
X189806240Y-149724717D01*
X189806238Y-149724716D01*
X189806237Y-149724715D01*
X189666365Y-149651303D01*
X189512986Y-149613500D01*
X189512985Y-149613500D01*
X189355015Y-149613500D01*
X189355014Y-149613500D01*
X189201634Y-149651303D01*
X189061762Y-149724715D01*
X188943516Y-149829471D01*
X188853781Y-149959475D01*
X188853780Y-149959476D01*
X188797762Y-150107181D01*
X188778722Y-150263999D01*
X178519634Y-150263999D01*
X178530572Y-149911377D01*
X178516871Y-149135651D01*
X178465477Y-148361508D01*
X178376511Y-147590779D01*
X178373855Y-147574687D01*
X178250187Y-146825297D01*
X178250183Y-146825277D01*
X178209422Y-146636063D01*
X178086797Y-146066838D01*
X178009177Y-145776009D01*
X177993591Y-145717611D01*
X184656254Y-145717611D01*
X184656254Y-145717612D01*
X184676032Y-145867846D01*
X184676033Y-145867848D01*
X184731723Y-146002296D01*
X184734022Y-146007845D01*
X184826269Y-146128063D01*
X184946487Y-146220310D01*
X185086484Y-146278299D01*
X185161602Y-146288188D01*
X185236719Y-146298078D01*
X185236720Y-146298078D01*
X185236721Y-146298078D01*
X185286798Y-146291485D01*
X185386956Y-146278299D01*
X185526953Y-146220310D01*
X185647171Y-146128063D01*
X185739418Y-146007845D01*
X185797407Y-145867848D01*
X185817186Y-145717612D01*
X185810249Y-145664924D01*
X185804403Y-145620516D01*
X185797407Y-145567376D01*
X185739418Y-145427379D01*
X185710428Y-145389599D01*
X188828722Y-145389599D01*
X188828722Y-145389600D01*
X188847762Y-145546418D01*
X188899606Y-145683116D01*
X188903780Y-145694123D01*
X188993517Y-145824130D01*
X189111760Y-145928883D01*
X189111762Y-145928884D01*
X189251634Y-146002296D01*
X189405014Y-146040100D01*
X189405015Y-146040100D01*
X189562985Y-146040100D01*
X189716365Y-146002296D01*
X189856240Y-145928883D01*
X189974483Y-145824130D01*
X190064220Y-145694123D01*
X190120237Y-145546418D01*
X190139278Y-145389600D01*
X190120237Y-145232782D01*
X190109439Y-145204311D01*
X190096199Y-145169398D01*
X190064220Y-145085077D01*
X189974483Y-144955070D01*
X189856240Y-144850317D01*
X189856238Y-144850316D01*
X189856237Y-144850315D01*
X189716365Y-144776903D01*
X189562986Y-144739100D01*
X189562985Y-144739100D01*
X189405015Y-144739100D01*
X189405014Y-144739100D01*
X189251634Y-144776903D01*
X189111762Y-144850315D01*
X188993516Y-144955071D01*
X188903781Y-145085075D01*
X188903780Y-145085076D01*
X188847762Y-145232781D01*
X188828722Y-145389599D01*
X185710428Y-145389599D01*
X185647171Y-145307161D01*
X185526953Y-145214914D01*
X185526949Y-145214912D01*
X185386956Y-145156925D01*
X185386954Y-145156924D01*
X185236721Y-145137146D01*
X185236719Y-145137146D01*
X185086485Y-145156924D01*
X185086483Y-145156925D01*
X184946490Y-145214912D01*
X184946487Y-145214913D01*
X184946487Y-145214914D01*
X184826269Y-145307161D01*
X184748912Y-145407975D01*
X184734020Y-145427382D01*
X184676033Y-145567375D01*
X184676032Y-145567377D01*
X184656254Y-145717611D01*
X177993591Y-145717611D01*
X177886740Y-145317254D01*
X177886725Y-145317205D01*
X177772977Y-144961424D01*
X177650465Y-144578233D01*
X177640415Y-144551377D01*
X177488347Y-144145000D01*
X185303659Y-144145000D01*
X185322975Y-144341129D01*
X185380188Y-144529733D01*
X185473086Y-144703532D01*
X185473090Y-144703539D01*
X185598116Y-144855883D01*
X185750460Y-144980909D01*
X185750467Y-144980913D01*
X185924266Y-145073811D01*
X185924269Y-145073811D01*
X185924273Y-145073814D01*
X186112868Y-145131024D01*
X186309000Y-145150341D01*
X186505132Y-145131024D01*
X186693727Y-145073814D01*
X186867538Y-144980910D01*
X187019883Y-144855883D01*
X187144910Y-144703538D01*
X187226242Y-144551377D01*
X187237811Y-144529733D01*
X187237811Y-144529732D01*
X187237814Y-144529727D01*
X187295024Y-144341132D01*
X187309553Y-144193611D01*
X187704254Y-144193611D01*
X187704254Y-144193612D01*
X187724032Y-144343846D01*
X187724033Y-144343848D01*
X187752006Y-144411382D01*
X187782022Y-144483845D01*
X187874269Y-144604063D01*
X187994487Y-144696310D01*
X188134484Y-144754299D01*
X188192850Y-144761983D01*
X188284719Y-144774078D01*
X188284720Y-144774078D01*
X188284721Y-144774078D01*
X188376590Y-144761983D01*
X188434956Y-144754299D01*
X188574953Y-144696310D01*
X188695171Y-144604063D01*
X188787418Y-144483845D01*
X188845407Y-144343848D01*
X188865186Y-144193612D01*
X188858249Y-144140924D01*
X188845407Y-144043377D01*
X188845407Y-144043376D01*
X188787418Y-143903379D01*
X188695171Y-143783161D01*
X188574953Y-143690914D01*
X188574949Y-143690912D01*
X188434956Y-143632925D01*
X188434954Y-143632924D01*
X188284721Y-143613146D01*
X188284719Y-143613146D01*
X188134485Y-143632924D01*
X188134483Y-143632925D01*
X187994490Y-143690912D01*
X187994487Y-143690913D01*
X187994487Y-143690914D01*
X187874269Y-143783161D01*
X187801895Y-143877481D01*
X187782020Y-143903382D01*
X187724033Y-144043375D01*
X187724032Y-144043377D01*
X187704254Y-144193611D01*
X187309553Y-144193611D01*
X187314341Y-144145000D01*
X187295024Y-143948868D01*
X187237814Y-143760273D01*
X187237811Y-143760269D01*
X187237811Y-143760266D01*
X187144913Y-143586467D01*
X187144909Y-143586460D01*
X187019883Y-143434116D01*
X186867539Y-143309090D01*
X186867532Y-143309086D01*
X186693733Y-143216188D01*
X186693727Y-143216186D01*
X186505132Y-143158976D01*
X186505129Y-143158975D01*
X186309000Y-143139659D01*
X186112870Y-143158975D01*
X185924266Y-143216188D01*
X185750467Y-143309086D01*
X185750460Y-143309090D01*
X185598116Y-143434116D01*
X185473090Y-143586460D01*
X185473086Y-143586467D01*
X185380188Y-143760266D01*
X185322975Y-143948870D01*
X185303659Y-144145000D01*
X177488347Y-144145000D01*
X177378560Y-143851611D01*
X177378546Y-143851576D01*
X177207302Y-143453999D01*
X179523534Y-143453999D01*
X179523534Y-143454000D01*
X179543312Y-143604234D01*
X179543313Y-143604236D01*
X179579215Y-143690912D01*
X179601302Y-143744233D01*
X179693549Y-143864451D01*
X179813767Y-143956698D01*
X179953764Y-144014687D01*
X180028882Y-144024576D01*
X180103999Y-144034466D01*
X180104000Y-144034466D01*
X180104001Y-144034466D01*
X180154078Y-144027873D01*
X180254236Y-144014687D01*
X180394233Y-143956698D01*
X180514451Y-143864451D01*
X180606698Y-143744233D01*
X180664687Y-143604236D01*
X180684466Y-143454000D01*
X180664687Y-143303764D01*
X180606698Y-143163767D01*
X180514451Y-143043549D01*
X180394233Y-142951302D01*
X180394229Y-142951300D01*
X180254236Y-142893313D01*
X180254234Y-142893312D01*
X180104001Y-142873534D01*
X180103999Y-142873534D01*
X179953765Y-142893312D01*
X179953763Y-142893313D01*
X179813770Y-142951300D01*
X179813767Y-142951301D01*
X179813767Y-142951302D01*
X179693549Y-143043549D01*
X179604979Y-143158976D01*
X179601300Y-143163770D01*
X179543313Y-143303763D01*
X179543312Y-143303765D01*
X179523534Y-143453999D01*
X177207302Y-143453999D01*
X177123798Y-143260129D01*
X177071641Y-143139035D01*
X176730453Y-142442236D01*
X176402811Y-141848101D01*
X176355799Y-141762851D01*
X176355797Y-141762849D01*
X176355796Y-141762846D01*
X176252905Y-141595999D01*
X193222357Y-141595999D01*
X193222357Y-141596000D01*
X193242884Y-141817535D01*
X193242885Y-141817537D01*
X193303769Y-142031523D01*
X193303775Y-142031538D01*
X193402938Y-142230683D01*
X193402943Y-142230691D01*
X193537020Y-142408238D01*
X193701437Y-142558123D01*
X193701439Y-142558125D01*
X193890595Y-142675245D01*
X193890596Y-142675245D01*
X193890599Y-142675247D01*
X194098060Y-142755618D01*
X194316757Y-142796500D01*
X194316759Y-142796500D01*
X194539241Y-142796500D01*
X194539243Y-142796500D01*
X194757940Y-142755618D01*
X194965401Y-142675247D01*
X195154562Y-142558124D01*
X195318981Y-142408236D01*
X195453058Y-142230689D01*
X195552229Y-142031528D01*
X195613115Y-141817536D01*
X195633643Y-141596000D01*
X195632876Y-141587728D01*
X195613115Y-141374464D01*
X195613114Y-141374462D01*
X195612243Y-141371401D01*
X195552229Y-141160472D01*
X195552224Y-141160461D01*
X195453061Y-140961316D01*
X195453056Y-140961308D01*
X195318979Y-140783761D01*
X195154562Y-140633876D01*
X195154560Y-140633874D01*
X194965404Y-140516754D01*
X194965398Y-140516752D01*
X194757940Y-140436382D01*
X194539243Y-140395500D01*
X194316757Y-140395500D01*
X194098060Y-140436382D01*
X193966864Y-140487207D01*
X193890601Y-140516752D01*
X193890595Y-140516754D01*
X193701439Y-140633874D01*
X193701437Y-140633876D01*
X193537020Y-140783761D01*
X193402943Y-140961308D01*
X193402938Y-140961316D01*
X193303775Y-141160461D01*
X193303769Y-141160476D01*
X193242885Y-141374462D01*
X193242884Y-141374464D01*
X193222357Y-141595999D01*
X176252905Y-141595999D01*
X175948556Y-141102472D01*
X175509696Y-140462675D01*
X175040253Y-139844968D01*
X175040249Y-139844963D01*
X175040233Y-139844943D01*
X174541356Y-139250833D01*
X174541344Y-139250819D01*
X174498000Y-139204023D01*
X174014130Y-138681611D01*
X173954359Y-138623065D01*
X173459878Y-138138714D01*
X173459870Y-138138706D01*
X173208720Y-137915578D01*
X173208617Y-137915413D01*
X172876077Y-137619873D01*
X172876070Y-137619867D01*
X172876064Y-137619862D01*
X172263295Y-137127192D01*
X171626999Y-136665307D01*
X170968721Y-136235329D01*
X170968714Y-136235325D01*
X170968705Y-136235319D01*
X170290080Y-135838314D01*
X170290050Y-135838297D01*
X169592678Y-135475199D01*
X169592671Y-135475195D01*
X169592664Y-135475192D01*
X169592638Y-135475180D01*
X169212840Y-135300647D01*
X172999213Y-135300647D01*
X172999213Y-135300648D01*
X173018991Y-135450882D01*
X173018992Y-135450884D01*
X173043960Y-135511163D01*
X173076981Y-135590881D01*
X173169228Y-135711099D01*
X173289446Y-135803346D01*
X173429443Y-135861335D01*
X173504561Y-135871224D01*
X173579678Y-135881114D01*
X173579679Y-135881114D01*
X173579680Y-135881114D01*
X173629757Y-135874521D01*
X173729915Y-135861335D01*
X173869912Y-135803346D01*
X173990130Y-135711099D01*
X174082377Y-135590881D01*
X174140366Y-135450884D01*
X174160145Y-135300648D01*
X174156977Y-135276588D01*
X174144637Y-135182851D01*
X174140366Y-135150412D01*
X174082377Y-135010415D01*
X173990130Y-134890197D01*
X173869912Y-134797950D01*
X173869908Y-134797948D01*
X173729915Y-134739961D01*
X173729913Y-134739960D01*
X173579680Y-134720182D01*
X173579678Y-134720182D01*
X173429444Y-134739960D01*
X173429442Y-134739961D01*
X173289449Y-134797948D01*
X173289446Y-134797949D01*
X173289446Y-134797950D01*
X173169228Y-134890197D01*
X173083708Y-135001649D01*
X173076979Y-135010418D01*
X173018992Y-135150411D01*
X173018991Y-135150413D01*
X172999213Y-135300647D01*
X169212840Y-135300647D01*
X168878208Y-135146870D01*
X168148496Y-134854164D01*
X168148461Y-134854151D01*
X167405212Y-134597749D01*
X167212104Y-134541611D01*
X177290254Y-134541611D01*
X177290254Y-134541612D01*
X177310032Y-134691846D01*
X177310033Y-134691848D01*
X177343398Y-134772399D01*
X177368022Y-134831845D01*
X177460269Y-134952063D01*
X177580487Y-135044310D01*
X177720484Y-135102299D01*
X177789636Y-135111403D01*
X177870719Y-135122078D01*
X177870720Y-135122078D01*
X177870721Y-135122078D01*
X177951804Y-135111403D01*
X178020956Y-135102299D01*
X178160953Y-135044310D01*
X178281171Y-134952063D01*
X178373418Y-134831845D01*
X178431407Y-134691848D01*
X178451186Y-134541612D01*
X178451186Y-134541611D01*
X178814254Y-134541611D01*
X178814254Y-134541612D01*
X178834032Y-134691846D01*
X178834033Y-134691848D01*
X178867398Y-134772399D01*
X178892022Y-134831845D01*
X178984269Y-134952063D01*
X179104487Y-135044310D01*
X179244484Y-135102299D01*
X179354745Y-135116815D01*
X179418642Y-135145081D01*
X179457113Y-135203406D01*
X179461964Y-135251899D01*
X179461659Y-135254998D01*
X179461659Y-135254999D01*
X179480975Y-135451129D01*
X179480976Y-135451132D01*
X179523367Y-135590877D01*
X179538188Y-135639733D01*
X179631086Y-135813532D01*
X179631090Y-135813539D01*
X179756116Y-135965883D01*
X179908460Y-136090909D01*
X179908467Y-136090913D01*
X180082266Y-136183811D01*
X180082269Y-136183811D01*
X180082273Y-136183814D01*
X180270868Y-136241024D01*
X180467000Y-136260341D01*
X180663132Y-136241024D01*
X180851727Y-136183814D01*
X181025538Y-136090910D01*
X181177883Y-135965883D01*
X181302910Y-135813538D01*
X181395814Y-135639727D01*
X181420724Y-135557611D01*
X196594254Y-135557611D01*
X196594254Y-135557612D01*
X196614032Y-135707846D01*
X196614033Y-135707848D01*
X196668069Y-135838303D01*
X196672022Y-135847845D01*
X196764269Y-135968063D01*
X196884487Y-136060310D01*
X197024484Y-136118299D01*
X197099602Y-136128188D01*
X197174719Y-136138078D01*
X197174720Y-136138078D01*
X197174721Y-136138078D01*
X197224798Y-136131485D01*
X197324956Y-136118299D01*
X197464953Y-136060310D01*
X197585171Y-135968063D01*
X197677418Y-135847845D01*
X197735407Y-135707848D01*
X197755186Y-135557612D01*
X197749070Y-135511160D01*
X197735407Y-135407377D01*
X197735407Y-135407376D01*
X197677418Y-135267379D01*
X197585171Y-135147161D01*
X197464953Y-135054914D01*
X197464949Y-135054912D01*
X197324956Y-134996925D01*
X197324954Y-134996924D01*
X197174721Y-134977146D01*
X197174719Y-134977146D01*
X197024485Y-134996924D01*
X197024483Y-134996925D01*
X196884490Y-135054912D01*
X196884487Y-135054913D01*
X196884487Y-135054914D01*
X196764269Y-135147161D01*
X196681523Y-135254998D01*
X196672020Y-135267382D01*
X196614033Y-135407375D01*
X196614032Y-135407377D01*
X196594254Y-135557611D01*
X181420724Y-135557611D01*
X181453024Y-135451132D01*
X181472341Y-135255000D01*
X181453024Y-135058868D01*
X181395814Y-134870273D01*
X181395811Y-134870269D01*
X181395811Y-134870266D01*
X181302913Y-134696467D01*
X181302909Y-134696460D01*
X181177883Y-134544116D01*
X181174831Y-134541611D01*
X189736254Y-134541611D01*
X189736254Y-134541612D01*
X189756032Y-134691846D01*
X189756033Y-134691848D01*
X189789398Y-134772399D01*
X189814022Y-134831845D01*
X189906269Y-134952063D01*
X190026487Y-135044310D01*
X190166484Y-135102299D01*
X190235636Y-135111403D01*
X190316719Y-135122078D01*
X190316720Y-135122078D01*
X190316721Y-135122078D01*
X190397804Y-135111403D01*
X190466956Y-135102299D01*
X190606953Y-135044310D01*
X190727171Y-134952063D01*
X190819418Y-134831845D01*
X190877407Y-134691848D01*
X190897186Y-134541612D01*
X190890071Y-134487572D01*
X190877407Y-134391377D01*
X190877407Y-134391376D01*
X190819418Y-134251379D01*
X190727171Y-134131161D01*
X190606953Y-134038914D01*
X190606949Y-134038912D01*
X190466956Y-133980925D01*
X190466954Y-133980924D01*
X190316721Y-133961146D01*
X190316719Y-133961146D01*
X190166485Y-133980924D01*
X190166483Y-133980925D01*
X190026490Y-134038912D01*
X190026487Y-134038913D01*
X190026487Y-134038914D01*
X189906269Y-134131161D01*
X189846120Y-134209549D01*
X189814020Y-134251382D01*
X189756033Y-134391375D01*
X189756032Y-134391377D01*
X189736254Y-134541611D01*
X181174831Y-134541611D01*
X181025539Y-134419090D01*
X181025532Y-134419086D01*
X180851733Y-134326188D01*
X180851727Y-134326186D01*
X180681230Y-134274466D01*
X180663129Y-134268975D01*
X180467000Y-134249659D01*
X180270870Y-134268975D01*
X180082263Y-134326189D01*
X180076945Y-134329032D01*
X180008542Y-134343269D01*
X179943299Y-134318265D01*
X179903938Y-134267120D01*
X179897419Y-134251382D01*
X179897418Y-134251379D01*
X179805171Y-134131161D01*
X179684953Y-134038914D01*
X179684949Y-134038912D01*
X179544956Y-133980925D01*
X179544954Y-133980924D01*
X179394721Y-133961146D01*
X179394719Y-133961146D01*
X179244485Y-133980924D01*
X179244483Y-133980925D01*
X179104490Y-134038912D01*
X179104487Y-134038913D01*
X179104487Y-134038914D01*
X178984269Y-134131161D01*
X178924120Y-134209549D01*
X178892020Y-134251382D01*
X178834033Y-134391375D01*
X178834032Y-134391377D01*
X178814254Y-134541611D01*
X178451186Y-134541611D01*
X178444071Y-134487572D01*
X178431407Y-134391377D01*
X178431407Y-134391376D01*
X178373418Y-134251379D01*
X178281171Y-134131161D01*
X178160953Y-134038914D01*
X178160949Y-134038912D01*
X178020956Y-133980925D01*
X178020954Y-133980924D01*
X177870721Y-133961146D01*
X177870719Y-133961146D01*
X177720485Y-133980924D01*
X177720483Y-133980925D01*
X177580490Y-134038912D01*
X177580487Y-134038913D01*
X177580487Y-134038914D01*
X177460269Y-134131161D01*
X177400120Y-134209549D01*
X177368020Y-134251382D01*
X177310033Y-134391375D01*
X177310032Y-134391377D01*
X177290254Y-134541611D01*
X167212104Y-134541611D01*
X166650192Y-134378259D01*
X166650161Y-134378251D01*
X165885295Y-134196237D01*
X165112365Y-134052117D01*
X165112346Y-134052114D01*
X164333257Y-133946247D01*
X163549890Y-133878890D01*
X163549836Y-133878886D01*
X162764152Y-133850205D01*
X162764140Y-133850205D01*
X162764136Y-133850205D01*
X162065292Y-133859146D01*
X161977935Y-133860264D01*
X161977912Y-133860265D01*
X161193178Y-133909042D01*
X160411779Y-133996421D01*
X159635688Y-134122180D01*
X159635654Y-134122187D01*
X158866637Y-134286040D01*
X158106664Y-134487569D01*
X157357512Y-134726302D01*
X157357499Y-134726306D01*
X156621036Y-135001649D01*
X155899020Y-135312942D01*
X155193230Y-135659420D01*
X154505339Y-136040262D01*
X153837070Y-136454514D01*
X153190006Y-136901195D01*
X152565731Y-137379210D01*
X151965777Y-137887388D01*
X151965765Y-137887399D01*
X151391569Y-138424521D01*
X151391567Y-138424523D01*
X150844529Y-138989280D01*
X150844484Y-138989330D01*
X150325995Y-139580278D01*
X150325952Y-139580329D01*
X149837160Y-140196162D01*
X149379276Y-140835358D01*
X148953452Y-141496312D01*
X148560697Y-142177455D01*
X148560689Y-142177471D01*
X148201997Y-142877076D01*
X148201984Y-142877104D01*
X148201978Y-142877116D01*
X148201974Y-142877125D01*
X148074591Y-143158976D01*
X147878152Y-143593621D01*
X147590029Y-144325181D01*
X147338292Y-145070056D01*
X147203052Y-145546418D01*
X147126755Y-145815161D01*
X147123552Y-145826442D01*
X146946347Y-146592438D01*
X146946343Y-146592454D01*
X146946343Y-146592459D01*
X146870481Y-147014000D01*
X146807082Y-147366291D01*
X146807077Y-147366324D01*
X146706113Y-148146029D01*
X146706112Y-148146040D01*
X146643680Y-148929783D01*
X146643677Y-148929847D01*
X146619931Y-149715715D01*
X146619931Y-149715743D01*
X146634931Y-150501824D01*
X146634934Y-150501898D01*
X146688638Y-151286263D01*
X146780927Y-152067102D01*
X146911569Y-152842438D01*
X146911573Y-152842455D01*
X147080247Y-153610388D01*
X147080255Y-153610423D01*
X147286556Y-154369114D01*
X147529989Y-155116743D01*
X147809959Y-155851475D01*
X148125787Y-156571526D01*
X148137710Y-156595432D01*
X148150014Y-156664209D01*
X148123180Y-156728721D01*
X148065729Y-156768484D01*
X147995900Y-156770875D01*
X147979292Y-156765333D01*
X147887228Y-156727199D01*
X147887223Y-156727197D01*
X147736990Y-156707419D01*
X147736988Y-156707419D01*
X147586754Y-156727197D01*
X147586752Y-156727198D01*
X147446759Y-156785185D01*
X147446756Y-156785186D01*
X147446756Y-156785187D01*
X147326538Y-156877434D01*
X147286322Y-156929845D01*
X147234289Y-156997655D01*
X147176302Y-157137648D01*
X147176302Y-157137649D01*
X147170632Y-157180715D01*
X147142365Y-157244611D01*
X147084040Y-157283081D01*
X147014175Y-157283912D01*
X146954952Y-157246839D01*
X146933132Y-157211980D01*
X146921356Y-157183551D01*
X146881471Y-157087259D01*
X146877076Y-157076648D01*
X146877076Y-157076647D01*
X146876789Y-157076273D01*
X146784827Y-156956426D01*
X146664609Y-156864179D01*
X146664605Y-156864177D01*
X146524612Y-156806190D01*
X146524610Y-156806189D01*
X146374377Y-156786411D01*
X146374375Y-156786411D01*
X146224141Y-156806189D01*
X146224139Y-156806190D01*
X146084146Y-156864177D01*
X146084143Y-156864178D01*
X146084143Y-156864179D01*
X145963925Y-156956426D01*
X145892075Y-157050063D01*
X145871676Y-157076647D01*
X145813688Y-157216641D01*
X145811891Y-157230298D01*
X145783624Y-157294195D01*
X145725299Y-157332665D01*
X145672767Y-157337051D01*
X145612721Y-157329146D01*
X145612719Y-157329146D01*
X145462485Y-157348924D01*
X145462483Y-157348925D01*
X145322490Y-157406912D01*
X145322487Y-157406913D01*
X145322487Y-157406914D01*
X145234958Y-157474078D01*
X145202269Y-157499161D01*
X145110020Y-157619382D01*
X145052033Y-157759375D01*
X145052032Y-157759377D01*
X145032254Y-157909611D01*
X145032254Y-157909612D01*
X145052032Y-158059846D01*
X145052033Y-158059848D01*
X145109503Y-158198594D01*
X145110022Y-158199845D01*
X145202269Y-158320063D01*
X145322487Y-158412310D01*
X145462484Y-158470299D01*
X145537602Y-158480188D01*
X145612719Y-158490078D01*
X145612720Y-158490078D01*
X145612721Y-158490078D01*
X145662798Y-158483485D01*
X145762956Y-158470299D01*
X145902953Y-158412310D01*
X146023171Y-158320063D01*
X146115418Y-158199845D01*
X146173407Y-158059848D01*
X146175205Y-158046190D01*
X146203467Y-157982298D01*
X146261790Y-157943824D01*
X146314326Y-157939437D01*
X146374376Y-157947343D01*
X146524612Y-157927564D01*
X146664609Y-157869575D01*
X146784827Y-157777328D01*
X146877074Y-157657110D01*
X146935063Y-157517113D01*
X146940732Y-157474047D01*
X146968998Y-157410152D01*
X147027322Y-157371680D01*
X147097186Y-157370848D01*
X147156410Y-157407920D01*
X147178232Y-157442780D01*
X147209020Y-157517110D01*
X147234291Y-157578118D01*
X147326538Y-157698336D01*
X147446756Y-157790583D01*
X147586753Y-157848572D01*
X147661871Y-157858461D01*
X147736988Y-157868351D01*
X147736989Y-157868351D01*
X147736990Y-157868351D01*
X147787067Y-157861758D01*
X147887225Y-157848572D01*
X148027222Y-157790583D01*
X148147440Y-157698336D01*
X148239687Y-157578118D01*
X148297676Y-157438121D01*
X148300433Y-157417177D01*
X148328699Y-157353281D01*
X148387024Y-157314810D01*
X148456888Y-157313979D01*
X148516112Y-157351051D01*
X148531476Y-157372622D01*
X148861853Y-157960610D01*
X149280285Y-158626244D01*
X149280302Y-158626270D01*
X149728041Y-159266226D01*
X149731034Y-159270504D01*
X150212961Y-159891759D01*
X150724908Y-160488517D01*
X151265632Y-161059330D01*
X151462755Y-161247845D01*
X151539045Y-161320804D01*
X151539050Y-161320809D01*
X151540853Y-161322533D01*
X151546130Y-161327582D01*
X151553074Y-161334782D01*
X151639531Y-161431999D01*
X151651577Y-161447972D01*
X151718577Y-161553575D01*
X151727897Y-161571278D01*
X151777041Y-161686279D01*
X151783393Y-161705251D01*
X151813403Y-161826661D01*
X151816621Y-161846408D01*
X151823703Y-161933859D01*
X151826954Y-161974017D01*
X151827095Y-161975752D01*
X151827500Y-161985760D01*
X151827500Y-165789907D01*
X151826903Y-165802062D01*
X151811413Y-165959329D01*
X151806671Y-165983169D01*
X151762575Y-166128537D01*
X151753272Y-166150996D01*
X151681663Y-166284965D01*
X151668159Y-166305175D01*
X151571791Y-166422601D01*
X151554601Y-166439791D01*
X151437175Y-166536159D01*
X151416965Y-166549663D01*
X151282996Y-166621272D01*
X151260537Y-166630575D01*
X151115169Y-166674671D01*
X151091329Y-166679413D01*
X150975425Y-166690828D01*
X150934060Y-166694903D01*
X150921907Y-166695500D01*
X132434093Y-166695500D01*
X132421939Y-166694903D01*
X132264671Y-166679413D01*
X132240830Y-166674671D01*
X132095462Y-166630575D01*
X132073005Y-166621273D01*
X131939034Y-166549663D01*
X131918824Y-166536159D01*
X131801398Y-166439791D01*
X131784208Y-166422601D01*
X131687840Y-166305175D01*
X131674336Y-166284965D01*
X131662525Y-166262868D01*
X131602724Y-166150989D01*
X131593427Y-166128544D01*
X131549326Y-165983163D01*
X131544587Y-165959335D01*
X131529097Y-165802061D01*
X131528500Y-165789907D01*
X131528500Y-165209611D01*
X135126254Y-165209611D01*
X135126254Y-165209612D01*
X135146032Y-165359846D01*
X135146033Y-165359848D01*
X135204022Y-165499845D01*
X135296269Y-165620063D01*
X135416487Y-165712310D01*
X135556484Y-165770299D01*
X135631602Y-165780188D01*
X135706719Y-165790078D01*
X135706720Y-165790078D01*
X135706721Y-165790078D01*
X135756798Y-165783485D01*
X135856956Y-165770299D01*
X135996953Y-165712310D01*
X136117171Y-165620063D01*
X136209418Y-165499845D01*
X136267407Y-165359848D01*
X136287186Y-165209612D01*
X136287186Y-165209611D01*
X141222254Y-165209611D01*
X141222254Y-165209612D01*
X141242032Y-165359846D01*
X141242033Y-165359848D01*
X141300022Y-165499845D01*
X141392269Y-165620063D01*
X141512487Y-165712310D01*
X141652484Y-165770299D01*
X141727602Y-165780188D01*
X141802719Y-165790078D01*
X141802720Y-165790078D01*
X141802721Y-165790078D01*
X141852798Y-165783485D01*
X141952956Y-165770299D01*
X142092953Y-165712310D01*
X142213171Y-165620063D01*
X142305418Y-165499845D01*
X142363407Y-165359848D01*
X142383186Y-165209612D01*
X142383186Y-165209611D01*
X144270254Y-165209611D01*
X144270254Y-165209612D01*
X144290032Y-165359846D01*
X144290033Y-165359848D01*
X144348022Y-165499845D01*
X144440269Y-165620063D01*
X144560487Y-165712310D01*
X144700484Y-165770299D01*
X144775602Y-165780188D01*
X144850719Y-165790078D01*
X144850720Y-165790078D01*
X144850721Y-165790078D01*
X144900798Y-165783485D01*
X145000956Y-165770299D01*
X145140953Y-165712310D01*
X145261171Y-165620063D01*
X145353418Y-165499845D01*
X145411407Y-165359848D01*
X145431186Y-165209612D01*
X145431186Y-165209611D01*
X147318254Y-165209611D01*
X147318254Y-165209612D01*
X147338032Y-165359846D01*
X147338033Y-165359848D01*
X147396022Y-165499845D01*
X147488269Y-165620063D01*
X147608487Y-165712310D01*
X147748484Y-165770299D01*
X147823602Y-165780188D01*
X147898719Y-165790078D01*
X147898720Y-165790078D01*
X147898721Y-165790078D01*
X147948798Y-165783485D01*
X148048956Y-165770299D01*
X148188953Y-165712310D01*
X148309171Y-165620063D01*
X148401418Y-165499845D01*
X148459407Y-165359848D01*
X148479186Y-165209612D01*
X148477257Y-165194963D01*
X148459407Y-165059377D01*
X148459407Y-165059376D01*
X148401418Y-164919379D01*
X148309171Y-164799161D01*
X148188953Y-164706914D01*
X148188949Y-164706912D01*
X148048956Y-164648925D01*
X148048954Y-164648924D01*
X147898721Y-164629146D01*
X147898719Y-164629146D01*
X147748485Y-164648924D01*
X147748483Y-164648925D01*
X147608490Y-164706912D01*
X147608487Y-164706913D01*
X147608487Y-164706914D01*
X147488269Y-164799161D01*
X147399494Y-164914855D01*
X147396020Y-164919382D01*
X147338033Y-165059375D01*
X147338032Y-165059377D01*
X147318254Y-165209611D01*
X145431186Y-165209611D01*
X145429257Y-165194963D01*
X145411407Y-165059377D01*
X145411407Y-165059376D01*
X145353418Y-164919379D01*
X145261171Y-164799161D01*
X145140953Y-164706914D01*
X145140949Y-164706912D01*
X145000956Y-164648925D01*
X145000954Y-164648924D01*
X144850721Y-164629146D01*
X144850719Y-164629146D01*
X144700485Y-164648924D01*
X144700483Y-164648925D01*
X144560490Y-164706912D01*
X144560487Y-164706913D01*
X144560487Y-164706914D01*
X144440269Y-164799161D01*
X144351494Y-164914855D01*
X144348020Y-164919382D01*
X144290033Y-165059375D01*
X144290032Y-165059377D01*
X144270254Y-165209611D01*
X142383186Y-165209611D01*
X142381257Y-165194963D01*
X142363407Y-165059377D01*
X142363407Y-165059376D01*
X142305418Y-164919379D01*
X142213171Y-164799161D01*
X142092953Y-164706914D01*
X142092949Y-164706912D01*
X141952956Y-164648925D01*
X141952954Y-164648924D01*
X141802721Y-164629146D01*
X141802719Y-164629146D01*
X141652485Y-164648924D01*
X141652483Y-164648925D01*
X141512490Y-164706912D01*
X141512487Y-164706913D01*
X141512487Y-164706914D01*
X141392269Y-164799161D01*
X141303494Y-164914855D01*
X141300020Y-164919382D01*
X141242033Y-165059375D01*
X141242032Y-165059377D01*
X141222254Y-165209611D01*
X136287186Y-165209611D01*
X136285257Y-165194963D01*
X136267407Y-165059377D01*
X136267407Y-165059376D01*
X136209418Y-164919379D01*
X136117171Y-164799161D01*
X135996953Y-164706914D01*
X135996949Y-164706912D01*
X135856956Y-164648925D01*
X135856954Y-164648924D01*
X135706721Y-164629146D01*
X135706719Y-164629146D01*
X135556485Y-164648924D01*
X135556483Y-164648925D01*
X135416490Y-164706912D01*
X135416487Y-164706913D01*
X135416487Y-164706914D01*
X135296269Y-164799161D01*
X135207494Y-164914855D01*
X135204020Y-164919382D01*
X135146033Y-165059375D01*
X135146032Y-165059377D01*
X135126254Y-165209611D01*
X131528500Y-165209611D01*
X131528500Y-165194974D01*
X131528499Y-165194963D01*
X131493684Y-164919382D01*
X131490642Y-164895302D01*
X131427384Y-164648925D01*
X131415525Y-164602737D01*
X131415524Y-164602734D01*
X131304336Y-164321904D01*
X131304335Y-164321903D01*
X131304334Y-164321901D01*
X131304332Y-164321896D01*
X131158816Y-164057205D01*
X131158810Y-164057198D01*
X131158808Y-164057193D01*
X130981280Y-163812846D01*
X130981272Y-163812836D01*
X130774505Y-163592652D01*
X130771328Y-163590024D01*
X130541768Y-163400115D01*
X130541767Y-163400114D01*
X130541763Y-163400111D01*
X130286738Y-163238268D01*
X130286732Y-163238265D01*
X130013436Y-163109661D01*
X130013431Y-163109659D01*
X129726164Y-163016320D01*
X129726161Y-163016319D01*
X129726160Y-163016319D01*
X129577808Y-162988019D01*
X129429453Y-162959719D01*
X129429446Y-162959718D01*
X129128005Y-162940754D01*
X129127995Y-162940754D01*
X128826553Y-162959718D01*
X128826546Y-162959719D01*
X128529835Y-163016320D01*
X128242568Y-163109659D01*
X128242563Y-163109661D01*
X127969267Y-163238265D01*
X127969261Y-163238268D01*
X127714236Y-163400111D01*
X127481494Y-163592652D01*
X127274727Y-163812836D01*
X127274719Y-163812846D01*
X127097191Y-164057193D01*
X127097184Y-164057205D01*
X126951664Y-164321903D01*
X126951663Y-164321904D01*
X126840475Y-164602734D01*
X126840474Y-164602737D01*
X126765357Y-164895304D01*
X126727500Y-165194963D01*
X126727500Y-165789907D01*
X126726903Y-165802062D01*
X126711413Y-165959329D01*
X126706671Y-165983169D01*
X126662575Y-166128537D01*
X126653272Y-166150996D01*
X126581663Y-166284965D01*
X126568159Y-166305175D01*
X126471791Y-166422601D01*
X126454601Y-166439791D01*
X126337175Y-166536159D01*
X126316965Y-166549663D01*
X126182996Y-166621272D01*
X126160537Y-166630575D01*
X126015169Y-166674671D01*
X125991329Y-166679413D01*
X125875425Y-166690828D01*
X125834060Y-166694903D01*
X125821907Y-166695500D01*
X102484093Y-166695500D01*
X102471939Y-166694903D01*
X102314671Y-166679413D01*
X102290830Y-166674671D01*
X102145462Y-166630575D01*
X102123005Y-166621273D01*
X101989034Y-166549663D01*
X101968824Y-166536159D01*
X101851398Y-166439791D01*
X101834208Y-166422601D01*
X101737840Y-166305175D01*
X101724336Y-166284965D01*
X101712525Y-166262868D01*
X101652724Y-166150989D01*
X101643427Y-166128544D01*
X101599326Y-165983163D01*
X101594587Y-165959335D01*
X101579097Y-165802061D01*
X101578500Y-165789907D01*
X101578500Y-165599721D01*
X101578499Y-165599716D01*
X101570179Y-165552532D01*
X103346897Y-165552532D01*
X103366134Y-165735561D01*
X103366135Y-165735564D01*
X103423002Y-165910585D01*
X103423005Y-165910591D01*
X103515024Y-166069972D01*
X103567756Y-166128537D01*
X103638168Y-166206738D01*
X103638170Y-166206740D01*
X103787053Y-166314910D01*
X103787054Y-166314910D01*
X103787058Y-166314913D01*
X103924172Y-166375960D01*
X103955180Y-166389766D01*
X103955185Y-166389768D01*
X104135200Y-166428032D01*
X104319238Y-166428032D01*
X104499253Y-166389768D01*
X104667380Y-166314913D01*
X104816269Y-166206739D01*
X104939414Y-166069972D01*
X105031433Y-165910591D01*
X105088304Y-165735561D01*
X105107541Y-165552532D01*
X105088304Y-165369503D01*
X105042695Y-165229134D01*
X105031435Y-165194478D01*
X105031432Y-165194472D01*
X104955162Y-165062369D01*
X104939414Y-165035092D01*
X104816269Y-164898325D01*
X104816267Y-164898323D01*
X104667384Y-164790153D01*
X104667381Y-164790151D01*
X104667380Y-164790151D01*
X104606331Y-164762970D01*
X104499257Y-164715297D01*
X104499252Y-164715295D01*
X104319238Y-164677032D01*
X104135200Y-164677032D01*
X103955185Y-164715295D01*
X103955180Y-164715297D01*
X103787058Y-164790151D01*
X103787053Y-164790153D01*
X103638170Y-164898323D01*
X103638168Y-164898325D01*
X103515023Y-165035093D01*
X103423005Y-165194472D01*
X103423002Y-165194478D01*
X103369271Y-165359848D01*
X103366134Y-165369503D01*
X103346897Y-165552532D01*
X101570179Y-165552532D01*
X101545062Y-165410082D01*
X101479202Y-165229132D01*
X101382921Y-165062368D01*
X101348608Y-165021475D01*
X101259144Y-164914855D01*
X101121264Y-164799161D01*
X101111632Y-164791079D01*
X101056044Y-164758985D01*
X100944872Y-164694800D01*
X100944869Y-164694799D01*
X100944868Y-164694798D01*
X100896056Y-164677032D01*
X100763917Y-164628937D01*
X100574283Y-164595500D01*
X100574281Y-164595500D01*
X100497991Y-164595500D01*
X98834093Y-164595500D01*
X98821939Y-164594903D01*
X98664671Y-164579413D01*
X98640830Y-164574671D01*
X98495462Y-164530575D01*
X98473005Y-164521273D01*
X98339034Y-164449663D01*
X98318824Y-164436159D01*
X98201398Y-164339791D01*
X98184208Y-164322601D01*
X98183629Y-164321896D01*
X98087839Y-164205174D01*
X98074336Y-164184965D01*
X98062525Y-164162868D01*
X98002724Y-164050989D01*
X97993427Y-164028544D01*
X97949326Y-163883163D01*
X97944587Y-163859335D01*
X97929097Y-163702061D01*
X97928500Y-163689907D01*
X97928500Y-162604000D01*
X114588659Y-162604000D01*
X114607975Y-162800129D01*
X114607976Y-162800132D01*
X114656386Y-162959719D01*
X114665188Y-162988733D01*
X114758086Y-163162532D01*
X114758090Y-163162539D01*
X114883116Y-163314883D01*
X115035460Y-163439909D01*
X115035467Y-163439913D01*
X115209266Y-163532811D01*
X115209269Y-163532811D01*
X115209273Y-163532814D01*
X115397868Y-163590024D01*
X115594000Y-163609341D01*
X115790132Y-163590024D01*
X115978727Y-163532814D01*
X116152538Y-163439910D01*
X116304883Y-163314883D01*
X116429910Y-163162538D01*
X116522814Y-162988727D01*
X116580024Y-162800132D01*
X116599341Y-162604000D01*
X116580024Y-162407868D01*
X116522814Y-162219273D01*
X116522811Y-162219269D01*
X116522811Y-162219266D01*
X116429913Y-162045467D01*
X116429909Y-162045460D01*
X116304883Y-161893116D01*
X116152539Y-161768090D01*
X116152532Y-161768086D01*
X115978733Y-161675188D01*
X115978727Y-161675186D01*
X115801927Y-161621554D01*
X115790129Y-161617975D01*
X115594000Y-161598659D01*
X115397870Y-161617975D01*
X115209266Y-161675188D01*
X115035467Y-161768086D01*
X115035460Y-161768090D01*
X114883116Y-161893116D01*
X114758090Y-162045460D01*
X114758086Y-162045467D01*
X114665188Y-162219266D01*
X114607975Y-162407870D01*
X114588659Y-162604000D01*
X97928500Y-162604000D01*
X97928500Y-161373172D01*
X100366486Y-161373172D01*
X100366486Y-161373173D01*
X100386264Y-161523407D01*
X100386265Y-161523409D01*
X100438979Y-161650673D01*
X100444254Y-161663406D01*
X100536501Y-161783624D01*
X100656719Y-161875871D01*
X100796716Y-161933860D01*
X100871834Y-161943749D01*
X100946951Y-161953639D01*
X100946952Y-161953639D01*
X100946953Y-161953639D01*
X101005644Y-161945912D01*
X101097188Y-161933860D01*
X101237185Y-161875871D01*
X101357403Y-161783624D01*
X101449650Y-161663406D01*
X101499754Y-161542443D01*
X123814545Y-161542443D01*
X123814545Y-161542444D01*
X123834323Y-161692678D01*
X123834324Y-161692680D01*
X123870841Y-161780841D01*
X123892313Y-161832677D01*
X123984560Y-161952895D01*
X124104778Y-162045142D01*
X124244775Y-162103131D01*
X124319893Y-162113020D01*
X124395010Y-162122910D01*
X124395011Y-162122910D01*
X124395012Y-162122910D01*
X124453194Y-162115250D01*
X124545247Y-162103131D01*
X124685244Y-162045142D01*
X124805462Y-161952895D01*
X124897709Y-161832677D01*
X124955698Y-161692680D01*
X124975477Y-161542444D01*
X124975058Y-161539265D01*
X124955698Y-161392209D01*
X124955698Y-161392208D01*
X124897709Y-161252211D01*
X124805462Y-161131993D01*
X124685244Y-161039746D01*
X124685240Y-161039744D01*
X124545247Y-160981757D01*
X124545245Y-160981756D01*
X124395012Y-160961978D01*
X124395010Y-160961978D01*
X124244776Y-160981756D01*
X124244774Y-160981757D01*
X124104781Y-161039744D01*
X124104778Y-161039745D01*
X124104778Y-161039746D01*
X123984560Y-161131993D01*
X123895667Y-161247841D01*
X123892311Y-161252214D01*
X123834324Y-161392207D01*
X123834323Y-161392209D01*
X123814545Y-161542443D01*
X101499754Y-161542443D01*
X101501071Y-161539264D01*
X101544912Y-161484861D01*
X101611206Y-161462796D01*
X101663084Y-161472156D01*
X101736545Y-161502584D01*
X101774484Y-161518299D01*
X101849602Y-161528188D01*
X101924719Y-161538078D01*
X101924720Y-161538078D01*
X101924721Y-161538078D01*
X101984969Y-161530146D01*
X102074956Y-161518299D01*
X102214953Y-161460310D01*
X102335171Y-161368063D01*
X102427418Y-161247845D01*
X102485407Y-161107848D01*
X102505186Y-160957612D01*
X102492004Y-160857482D01*
X134919338Y-160857482D01*
X134919338Y-160857483D01*
X134939116Y-161007717D01*
X134939117Y-161007719D01*
X134990494Y-161131755D01*
X134997106Y-161147716D01*
X135089353Y-161267934D01*
X135209571Y-161360181D01*
X135224730Y-161366460D01*
X135250819Y-161377267D01*
X135305222Y-161421108D01*
X135327287Y-161487403D01*
X135321297Y-161530146D01*
X135299036Y-161598659D01*
X135282136Y-161650673D01*
X135262899Y-161833702D01*
X135282136Y-162016731D01*
X135282137Y-162016734D01*
X135339004Y-162191755D01*
X135339007Y-162191761D01*
X135431026Y-162351142D01*
X135482104Y-162407870D01*
X135554170Y-162487908D01*
X135554172Y-162487910D01*
X135703055Y-162596080D01*
X135703056Y-162596080D01*
X135703060Y-162596083D01*
X135840174Y-162657130D01*
X135871182Y-162670936D01*
X135871187Y-162670938D01*
X136051202Y-162709202D01*
X136235240Y-162709202D01*
X136415255Y-162670938D01*
X136583382Y-162596083D01*
X136732271Y-162487909D01*
X136855416Y-162351142D01*
X136947435Y-162191761D01*
X137004306Y-162016731D01*
X137023543Y-161833702D01*
X137004306Y-161650673D01*
X136947435Y-161475643D01*
X136944937Y-161471317D01*
X138935150Y-161471317D01*
X138935150Y-161471318D01*
X138954928Y-161621552D01*
X138954929Y-161621554D01*
X138989597Y-161705251D01*
X139012918Y-161761551D01*
X139105165Y-161881769D01*
X139225383Y-161974016D01*
X139365380Y-162032005D01*
X139440498Y-162041894D01*
X139515615Y-162051784D01*
X139515616Y-162051784D01*
X139515617Y-162051784D01*
X139566067Y-162045142D01*
X139665852Y-162032005D01*
X139805849Y-161974016D01*
X139842475Y-161945912D01*
X143619835Y-161945912D01*
X143639072Y-162128941D01*
X143639073Y-162128944D01*
X143695940Y-162303965D01*
X143695943Y-162303971D01*
X143787962Y-162463352D01*
X143897484Y-162584989D01*
X143911106Y-162600118D01*
X143911108Y-162600120D01*
X144059991Y-162708290D01*
X144059992Y-162708290D01*
X144059996Y-162708293D01*
X144197110Y-162769340D01*
X144228118Y-162783146D01*
X144228123Y-162783148D01*
X144408138Y-162821412D01*
X144592176Y-162821412D01*
X144772191Y-162783148D01*
X144940318Y-162708293D01*
X145089207Y-162600119D01*
X145212352Y-162463352D01*
X145304371Y-162303971D01*
X145361242Y-162128941D01*
X145380479Y-161945912D01*
X145361242Y-161762883D01*
X145304371Y-161587853D01*
X145212352Y-161428472D01*
X145089207Y-161291705D01*
X145089205Y-161291703D01*
X144940322Y-161183533D01*
X144940319Y-161183531D01*
X144940318Y-161183531D01*
X144879269Y-161156350D01*
X144772195Y-161108677D01*
X144772190Y-161108675D01*
X144592176Y-161070412D01*
X144408138Y-161070412D01*
X144228123Y-161108675D01*
X144228118Y-161108677D01*
X144059996Y-161183531D01*
X144059991Y-161183533D01*
X143911108Y-161291703D01*
X143911106Y-161291705D01*
X143787961Y-161428473D01*
X143695943Y-161587852D01*
X143695940Y-161587858D01*
X143639073Y-161762879D01*
X143639072Y-161762883D01*
X143619835Y-161945912D01*
X139842475Y-161945912D01*
X139926067Y-161881769D01*
X140018314Y-161761551D01*
X140076303Y-161621554D01*
X140096082Y-161471318D01*
X140078639Y-161338829D01*
X140089404Y-161269797D01*
X140135784Y-161217541D01*
X140151854Y-161210065D01*
X140151493Y-161209254D01*
X140218331Y-161179495D01*
X140325557Y-161131755D01*
X140474446Y-161023581D01*
X140597591Y-160886814D01*
X140689610Y-160727433D01*
X140697350Y-160703611D01*
X142746254Y-160703611D01*
X142746254Y-160703612D01*
X142766032Y-160853846D01*
X142766033Y-160853848D01*
X142822046Y-160989076D01*
X142824022Y-160993845D01*
X142916269Y-161114063D01*
X143036487Y-161206310D01*
X143176484Y-161264299D01*
X143235647Y-161272088D01*
X143326719Y-161284078D01*
X143326720Y-161284078D01*
X143326721Y-161284078D01*
X143376798Y-161277485D01*
X143476956Y-161264299D01*
X143616953Y-161206310D01*
X143737171Y-161114063D01*
X143829418Y-160993845D01*
X143887407Y-160853848D01*
X143907186Y-160703612D01*
X143906558Y-160698842D01*
X146494292Y-160698842D01*
X146494292Y-160698843D01*
X146514070Y-160849077D01*
X146514071Y-160849079D01*
X146561143Y-160962722D01*
X146572060Y-160989076D01*
X146664307Y-161109294D01*
X146784525Y-161201541D01*
X146924522Y-161259530D01*
X147019916Y-161272088D01*
X147083810Y-161300354D01*
X147122282Y-161358678D01*
X147124497Y-161408060D01*
X147126980Y-161408321D01*
X147126301Y-161414779D01*
X147126300Y-161414783D01*
X147107063Y-161597812D01*
X147126300Y-161780841D01*
X147126301Y-161780844D01*
X147183168Y-161955865D01*
X147183171Y-161955871D01*
X147275190Y-162115252D01*
X147344079Y-162191761D01*
X147398334Y-162252018D01*
X147398336Y-162252020D01*
X147547219Y-162360190D01*
X147547220Y-162360190D01*
X147547224Y-162360193D01*
X147684338Y-162421240D01*
X147715346Y-162435046D01*
X147715351Y-162435048D01*
X147895366Y-162473312D01*
X148079404Y-162473312D01*
X148259419Y-162435048D01*
X148427546Y-162360193D01*
X148576435Y-162252019D01*
X148699580Y-162115252D01*
X148791599Y-161955871D01*
X148848470Y-161780841D01*
X148867707Y-161597812D01*
X148848470Y-161414783D01*
X148828856Y-161354420D01*
X148826862Y-161284582D01*
X148862942Y-161224749D01*
X148925642Y-161193920D01*
X148930568Y-161193170D01*
X149069466Y-161174884D01*
X149209463Y-161116895D01*
X149329681Y-161024648D01*
X149421928Y-160904430D01*
X149479917Y-160764433D01*
X149499696Y-160614197D01*
X149479917Y-160463961D01*
X149421928Y-160323964D01*
X149329681Y-160203746D01*
X149209463Y-160111499D01*
X149209459Y-160111497D01*
X149069466Y-160053510D01*
X149069464Y-160053509D01*
X148919231Y-160033731D01*
X148919229Y-160033731D01*
X148768995Y-160053509D01*
X148768993Y-160053510D01*
X148629000Y-160111497D01*
X148628997Y-160111498D01*
X148628997Y-160111499D01*
X148508779Y-160203746D01*
X148443828Y-160288392D01*
X148416530Y-160323967D01*
X148358543Y-160463960D01*
X148358542Y-160463962D01*
X148338764Y-160614196D01*
X148338764Y-160622324D01*
X148335772Y-160622324D01*
X148327194Y-160677248D01*
X148280802Y-160729492D01*
X148213528Y-160748362D01*
X148189252Y-160745661D01*
X148079404Y-160722312D01*
X147895366Y-160722312D01*
X147895365Y-160722312D01*
X147795976Y-160743437D01*
X147726309Y-160738121D01*
X147670576Y-160695983D01*
X147647257Y-160638334D01*
X147635445Y-160548607D01*
X147577456Y-160408610D01*
X147485209Y-160288392D01*
X147364991Y-160196145D01*
X147364987Y-160196143D01*
X147224994Y-160138156D01*
X147224992Y-160138155D01*
X147074759Y-160118377D01*
X147074757Y-160118377D01*
X146924523Y-160138155D01*
X146924521Y-160138156D01*
X146784528Y-160196143D01*
X146784525Y-160196144D01*
X146784525Y-160196145D01*
X146664307Y-160288392D01*
X146581027Y-160396925D01*
X146572058Y-160408613D01*
X146514071Y-160548606D01*
X146514070Y-160548608D01*
X146494292Y-160698842D01*
X143906558Y-160698842D01*
X143887407Y-160553376D01*
X143829418Y-160413379D01*
X143737171Y-160293161D01*
X143616953Y-160200914D01*
X143616949Y-160200912D01*
X143476956Y-160142925D01*
X143476954Y-160142924D01*
X143326721Y-160123146D01*
X143326719Y-160123146D01*
X143176485Y-160142924D01*
X143176483Y-160142925D01*
X143036490Y-160200912D01*
X143036487Y-160200913D01*
X143036487Y-160200914D01*
X142916269Y-160293161D01*
X142827682Y-160408610D01*
X142824020Y-160413382D01*
X142766033Y-160553375D01*
X142766032Y-160553377D01*
X142746254Y-160703611D01*
X140697350Y-160703611D01*
X140746481Y-160552403D01*
X140765718Y-160369374D01*
X140746481Y-160186345D01*
X140703320Y-160053509D01*
X140689612Y-160011320D01*
X140689609Y-160011314D01*
X140670286Y-159977845D01*
X140597591Y-159851934D01*
X140474446Y-159715167D01*
X140474444Y-159715165D01*
X140325561Y-159606995D01*
X140325558Y-159606993D01*
X140325557Y-159606993D01*
X140215733Y-159558096D01*
X140157434Y-159532139D01*
X140157429Y-159532137D01*
X139977415Y-159493874D01*
X139793377Y-159493874D01*
X139613362Y-159532137D01*
X139613357Y-159532139D01*
X139445235Y-159606993D01*
X139445230Y-159606995D01*
X139296347Y-159715165D01*
X139296345Y-159715167D01*
X139173200Y-159851935D01*
X139081182Y-160011314D01*
X139081179Y-160011320D01*
X139038419Y-160142924D01*
X139024311Y-160186345D01*
X139005074Y-160369374D01*
X139024311Y-160552403D01*
X139024312Y-160552406D01*
X139081179Y-160727427D01*
X139081182Y-160727433D01*
X139167579Y-160877077D01*
X139184052Y-160944977D01*
X139161199Y-161011004D01*
X139135680Y-161037451D01*
X139105165Y-161060867D01*
X139017677Y-161174884D01*
X139012916Y-161181088D01*
X138954929Y-161321081D01*
X138954928Y-161321083D01*
X138935150Y-161471317D01*
X136944937Y-161471317D01*
X136855416Y-161316262D01*
X136732271Y-161179495D01*
X136732269Y-161179493D01*
X136583386Y-161071323D01*
X136583383Y-161071321D01*
X136583382Y-161071321D01*
X136522333Y-161044140D01*
X136415259Y-160996467D01*
X136415254Y-160996465D01*
X136235240Y-160958202D01*
X136202275Y-160958202D01*
X136135236Y-160938517D01*
X136089481Y-160885713D01*
X136079336Y-160850388D01*
X136073673Y-160807375D01*
X136060491Y-160707247D01*
X136002502Y-160567250D01*
X135910255Y-160447032D01*
X135790037Y-160354785D01*
X135790033Y-160354783D01*
X135650040Y-160296796D01*
X135650038Y-160296795D01*
X135499805Y-160277017D01*
X135499803Y-160277017D01*
X135349569Y-160296795D01*
X135349567Y-160296796D01*
X135209574Y-160354783D01*
X135209571Y-160354784D01*
X135209571Y-160354785D01*
X135089353Y-160447032D01*
X135008497Y-160552406D01*
X134997104Y-160567253D01*
X134939117Y-160707246D01*
X134939116Y-160707248D01*
X134919338Y-160857482D01*
X102492004Y-160857482D01*
X102485407Y-160807376D01*
X102427418Y-160667379D01*
X102335171Y-160547161D01*
X102214953Y-160454914D01*
X102214949Y-160454912D01*
X102074956Y-160396925D01*
X102074954Y-160396924D01*
X101924721Y-160377146D01*
X101924719Y-160377146D01*
X101774485Y-160396924D01*
X101774483Y-160396925D01*
X101634490Y-160454912D01*
X101634487Y-160454913D01*
X101634487Y-160454914D01*
X101590695Y-160488517D01*
X101514269Y-160547161D01*
X101422020Y-160667382D01*
X101370600Y-160791520D01*
X101326758Y-160845924D01*
X101260464Y-160867988D01*
X101208587Y-160858628D01*
X101097191Y-160812487D01*
X101097186Y-160812485D01*
X100946953Y-160792707D01*
X100946951Y-160792707D01*
X100796717Y-160812485D01*
X100796715Y-160812486D01*
X100656722Y-160870473D01*
X100656719Y-160870474D01*
X100656719Y-160870475D01*
X100536501Y-160962722D01*
X100461192Y-161060867D01*
X100444252Y-161082943D01*
X100386265Y-161222936D01*
X100386264Y-161222938D01*
X100366486Y-161373172D01*
X97928500Y-161373172D01*
X97928500Y-158975996D01*
X104776983Y-158975996D01*
X104776983Y-158975997D01*
X104796761Y-159126231D01*
X104796762Y-159126233D01*
X104844224Y-159240817D01*
X104854751Y-159266230D01*
X104946998Y-159386448D01*
X105067216Y-159478695D01*
X105207213Y-159536684D01*
X105282331Y-159546573D01*
X105357448Y-159556463D01*
X105357449Y-159556463D01*
X105499834Y-159537717D01*
X105568866Y-159548482D01*
X105621122Y-159594862D01*
X105630578Y-159613203D01*
X105654545Y-159671064D01*
X105746792Y-159791282D01*
X105867010Y-159883529D01*
X106007007Y-159941518D01*
X106082125Y-159951407D01*
X106157242Y-159961297D01*
X106157243Y-159961297D01*
X106157244Y-159961297D01*
X106207321Y-159954704D01*
X106307479Y-159941518D01*
X106447476Y-159883529D01*
X106567694Y-159791282D01*
X106659941Y-159671064D01*
X106717930Y-159531067D01*
X106737709Y-159380831D01*
X106717930Y-159230595D01*
X106659941Y-159090598D01*
X106654877Y-159083999D01*
X114538722Y-159083999D01*
X114538722Y-159084000D01*
X114557762Y-159240818D01*
X114605997Y-159368000D01*
X114613780Y-159388523D01*
X114703517Y-159518530D01*
X114821760Y-159623283D01*
X114821762Y-159623284D01*
X114961634Y-159696696D01*
X115009198Y-159708419D01*
X115112596Y-159733903D01*
X115172976Y-159769058D01*
X115204765Y-159831278D01*
X115197870Y-159900806D01*
X115197483Y-159901751D01*
X115178975Y-159946434D01*
X115178974Y-159946435D01*
X115159196Y-160096669D01*
X115159196Y-160096670D01*
X115178974Y-160246904D01*
X115178975Y-160246906D01*
X115210893Y-160323964D01*
X115236964Y-160386903D01*
X115329211Y-160507121D01*
X115449429Y-160599368D01*
X115589426Y-160657357D01*
X115664544Y-160667246D01*
X115739661Y-160677136D01*
X115739662Y-160677136D01*
X115739663Y-160677136D01*
X115789740Y-160670543D01*
X115889898Y-160657357D01*
X116029895Y-160599368D01*
X116150113Y-160507121D01*
X116242360Y-160386903D01*
X116300349Y-160246906D01*
X116320128Y-160096670D01*
X116300349Y-159946434D01*
X116242360Y-159806437D01*
X116150113Y-159686219D01*
X116029895Y-159593972D01*
X116029891Y-159593970D01*
X115889898Y-159535983D01*
X115881753Y-159534910D01*
X115817859Y-159506642D01*
X115779390Y-159448316D01*
X115778561Y-159378451D01*
X115781993Y-159368026D01*
X115825400Y-159253571D01*
X123898722Y-159253571D01*
X123898722Y-159253572D01*
X123917762Y-159410390D01*
X123965660Y-159536684D01*
X123973780Y-159558095D01*
X124063517Y-159688102D01*
X124181760Y-159792855D01*
X124181762Y-159792856D01*
X124321634Y-159866268D01*
X124475014Y-159904072D01*
X124475015Y-159904072D01*
X124632985Y-159904072D01*
X124786365Y-159866268D01*
X124840514Y-159837848D01*
X124926240Y-159792855D01*
X125044483Y-159688102D01*
X125044822Y-159687611D01*
X132078254Y-159687611D01*
X132078254Y-159687612D01*
X132098032Y-159837846D01*
X132098033Y-159837848D01*
X132149167Y-159961297D01*
X132156022Y-159977845D01*
X132248269Y-160098063D01*
X132368487Y-160190310D01*
X132508484Y-160248299D01*
X132583602Y-160258188D01*
X132658719Y-160268078D01*
X132658720Y-160268078D01*
X132658721Y-160268078D01*
X132708798Y-160261485D01*
X132808956Y-160248299D01*
X132948953Y-160190310D01*
X133069171Y-160098063D01*
X133161418Y-159977845D01*
X133219407Y-159837848D01*
X133239186Y-159687612D01*
X133237007Y-159671064D01*
X133219407Y-159537377D01*
X133219407Y-159537376D01*
X133161418Y-159397379D01*
X133069171Y-159277161D01*
X132948953Y-159184914D01*
X132948949Y-159184912D01*
X132808956Y-159126925D01*
X132808954Y-159126924D01*
X132658721Y-159107146D01*
X132658719Y-159107146D01*
X132508485Y-159126924D01*
X132508483Y-159126925D01*
X132368490Y-159184912D01*
X132368487Y-159184913D01*
X132368487Y-159184914D01*
X132248269Y-159277161D01*
X132162818Y-159388523D01*
X132156020Y-159397382D01*
X132098033Y-159537375D01*
X132098032Y-159537377D01*
X132078254Y-159687611D01*
X125044822Y-159687611D01*
X125134220Y-159558095D01*
X125190237Y-159410390D01*
X125209278Y-159253572D01*
X125207730Y-159240818D01*
X125190237Y-159096753D01*
X125144440Y-158975997D01*
X125134220Y-158949049D01*
X125044483Y-158819042D01*
X124926240Y-158714289D01*
X124926238Y-158714288D01*
X124926237Y-158714287D01*
X124786365Y-158640875D01*
X124632986Y-158603072D01*
X124632985Y-158603072D01*
X124475015Y-158603072D01*
X124475014Y-158603072D01*
X124321634Y-158640875D01*
X124181762Y-158714287D01*
X124063516Y-158819043D01*
X123973781Y-158949047D01*
X123973780Y-158949048D01*
X123917762Y-159096753D01*
X123898722Y-159253571D01*
X115825400Y-159253571D01*
X115830237Y-159240818D01*
X115849278Y-159084000D01*
X115830237Y-158927182D01*
X115774220Y-158779477D01*
X115684483Y-158649470D01*
X115566240Y-158544717D01*
X115566238Y-158544716D01*
X115566237Y-158544715D01*
X115426365Y-158471303D01*
X115272986Y-158433500D01*
X115272985Y-158433500D01*
X115115015Y-158433500D01*
X115115014Y-158433500D01*
X114961634Y-158471303D01*
X114821762Y-158544715D01*
X114703516Y-158649471D01*
X114613781Y-158779475D01*
X114613780Y-158779476D01*
X114557762Y-158927181D01*
X114538722Y-159083999D01*
X106654877Y-159083999D01*
X106567694Y-158970380D01*
X106447476Y-158878133D01*
X106447472Y-158878131D01*
X106307479Y-158820144D01*
X106307477Y-158820143D01*
X106157244Y-158800365D01*
X106157242Y-158800365D01*
X106014859Y-158819110D01*
X105945824Y-158808344D01*
X105893568Y-158761964D01*
X105884117Y-158743634D01*
X105860147Y-158685764D01*
X105767900Y-158565546D01*
X105647682Y-158473299D01*
X105647678Y-158473297D01*
X105507685Y-158415310D01*
X105507683Y-158415309D01*
X105357450Y-158395531D01*
X105357448Y-158395531D01*
X105207214Y-158415309D01*
X105207212Y-158415310D01*
X105067219Y-158473297D01*
X105067216Y-158473298D01*
X105067216Y-158473299D01*
X105033639Y-158499064D01*
X104946998Y-158565546D01*
X104854749Y-158685767D01*
X104796762Y-158825760D01*
X104796761Y-158825762D01*
X104776983Y-158975996D01*
X97928500Y-158975996D01*
X97928500Y-158348829D01*
X102500191Y-158348829D01*
X102500191Y-158348830D01*
X102519969Y-158499064D01*
X102519970Y-158499066D01*
X102538878Y-158544715D01*
X102577959Y-158639063D01*
X102670206Y-158759281D01*
X102790424Y-158851528D01*
X102930421Y-158909517D01*
X103005539Y-158919406D01*
X103080656Y-158929296D01*
X103080657Y-158929296D01*
X103080658Y-158929296D01*
X103130735Y-158922703D01*
X103230893Y-158909517D01*
X103370890Y-158851528D01*
X103491108Y-158759281D01*
X103583355Y-158639063D01*
X103641344Y-158499066D01*
X103661123Y-158348830D01*
X103641344Y-158198594D01*
X103583355Y-158058597D01*
X103491108Y-157938379D01*
X103370890Y-157846132D01*
X103370886Y-157846130D01*
X103230893Y-157788143D01*
X103230891Y-157788142D01*
X103080658Y-157768364D01*
X103080656Y-157768364D01*
X102930422Y-157788142D01*
X102930420Y-157788143D01*
X102790427Y-157846130D01*
X102790424Y-157846131D01*
X102790424Y-157846132D01*
X102670206Y-157938379D01*
X102587476Y-158046195D01*
X102577957Y-158058600D01*
X102519970Y-158198593D01*
X102519969Y-158198595D01*
X102500191Y-158348829D01*
X97928500Y-158348829D01*
X97928500Y-157686248D01*
X101166858Y-157686248D01*
X101166858Y-157686249D01*
X101186636Y-157836483D01*
X101186637Y-157836485D01*
X101238051Y-157960610D01*
X101244626Y-157976482D01*
X101336873Y-158096700D01*
X101457091Y-158188947D01*
X101597088Y-158246936D01*
X101672206Y-158256825D01*
X101747323Y-158266715D01*
X101747324Y-158266715D01*
X101747325Y-158266715D01*
X101797402Y-158260122D01*
X101897560Y-158246936D01*
X102037557Y-158188947D01*
X102157775Y-158096700D01*
X102250022Y-157976482D01*
X102308011Y-157836485D01*
X102327790Y-157686249D01*
X102308011Y-157536013D01*
X102250022Y-157396016D01*
X102157775Y-157275798D01*
X102037557Y-157183551D01*
X102037553Y-157183549D01*
X101897560Y-157125562D01*
X101897558Y-157125561D01*
X101747325Y-157105783D01*
X101747323Y-157105783D01*
X101597089Y-157125561D01*
X101597087Y-157125562D01*
X101457094Y-157183549D01*
X101457091Y-157183550D01*
X101457091Y-157183551D01*
X101336873Y-157275798D01*
X101280761Y-157348925D01*
X101244624Y-157396019D01*
X101186637Y-157536012D01*
X101186636Y-157536014D01*
X101166858Y-157686248D01*
X97928500Y-157686248D01*
X97928500Y-156526571D01*
X128845372Y-156526571D01*
X128845372Y-156526572D01*
X128865150Y-156676806D01*
X128865151Y-156676808D01*
X128918742Y-156806189D01*
X128923140Y-156816805D01*
X129015387Y-156937023D01*
X129135605Y-157029270D01*
X129275602Y-157087259D01*
X129350720Y-157097148D01*
X129425837Y-157107038D01*
X129425838Y-157107038D01*
X129425839Y-157107038D01*
X129475916Y-157100445D01*
X129576074Y-157087259D01*
X129716071Y-157029270D01*
X129836289Y-156937023D01*
X129928536Y-156816805D01*
X129986525Y-156676808D01*
X129991422Y-156639611D01*
X136904254Y-156639611D01*
X136904254Y-156639612D01*
X136924032Y-156789846D01*
X136924033Y-156789848D01*
X136967013Y-156893612D01*
X136982022Y-156929845D01*
X137074269Y-157050063D01*
X137194487Y-157142310D01*
X137334484Y-157200299D01*
X137409602Y-157210188D01*
X137484719Y-157220078D01*
X137484720Y-157220078D01*
X137484721Y-157220078D01*
X137546230Y-157211980D01*
X137634956Y-157200299D01*
X137774953Y-157142310D01*
X137895171Y-157050063D01*
X137987418Y-156929845D01*
X137991065Y-156921038D01*
X138008067Y-156879995D01*
X138051908Y-156825591D01*
X138118202Y-156803526D01*
X138185901Y-156820805D01*
X138233512Y-156871942D01*
X138237189Y-156879995D01*
X138268692Y-156956051D01*
X138268692Y-156956052D01*
X138268694Y-156956055D01*
X138268695Y-156956056D01*
X138360942Y-157076274D01*
X138481160Y-157168521D01*
X138621157Y-157226510D01*
X138649930Y-157230298D01*
X138771392Y-157246289D01*
X138771393Y-157246289D01*
X138771394Y-157246289D01*
X138821471Y-157239696D01*
X138921629Y-157226510D01*
X139061626Y-157168521D01*
X139181844Y-157076274D01*
X139274091Y-156956056D01*
X139299957Y-156893611D01*
X140968254Y-156893611D01*
X140968254Y-156893612D01*
X140988032Y-157043846D01*
X140988033Y-157043848D01*
X141044725Y-157180715D01*
X141046022Y-157183845D01*
X141138269Y-157304063D01*
X141258487Y-157396310D01*
X141398484Y-157454299D01*
X141473602Y-157464188D01*
X141548719Y-157474078D01*
X141548720Y-157474078D01*
X141548721Y-157474078D01*
X141598798Y-157467485D01*
X141698956Y-157454299D01*
X141838953Y-157396310D01*
X141959171Y-157304063D01*
X142051418Y-157183845D01*
X142109407Y-157043848D01*
X142129186Y-156893612D01*
X142122875Y-156845679D01*
X142117677Y-156806190D01*
X142109407Y-156743376D01*
X142089553Y-156695444D01*
X142910701Y-156695444D01*
X142910701Y-156695445D01*
X142930479Y-156845679D01*
X142930480Y-156845681D01*
X142988469Y-156985678D01*
X143080716Y-157105896D01*
X143200934Y-157198143D01*
X143340931Y-157256132D01*
X143416049Y-157266021D01*
X143491166Y-157275911D01*
X143491167Y-157275911D01*
X143491168Y-157275911D01*
X143541245Y-157269318D01*
X143641403Y-157256132D01*
X143781400Y-157198143D01*
X143901618Y-157105896D01*
X143993865Y-156985678D01*
X144051854Y-156845681D01*
X144071633Y-156695445D01*
X144051854Y-156545209D01*
X143993865Y-156405212D01*
X143901618Y-156284994D01*
X143781400Y-156192747D01*
X143781396Y-156192745D01*
X143641403Y-156134758D01*
X143641401Y-156134757D01*
X143491168Y-156114979D01*
X143491166Y-156114979D01*
X143340932Y-156134757D01*
X143340930Y-156134758D01*
X143200937Y-156192745D01*
X143200934Y-156192746D01*
X143200934Y-156192747D01*
X143080716Y-156284994D01*
X142999441Y-156390914D01*
X142988467Y-156405215D01*
X142930480Y-156545208D01*
X142930479Y-156545210D01*
X142910701Y-156695444D01*
X142089553Y-156695444D01*
X142051418Y-156603379D01*
X141959171Y-156483161D01*
X141838953Y-156390914D01*
X141838949Y-156390912D01*
X141698956Y-156332925D01*
X141698954Y-156332924D01*
X141548721Y-156313146D01*
X141548719Y-156313146D01*
X141398485Y-156332924D01*
X141398483Y-156332925D01*
X141258490Y-156390912D01*
X141258487Y-156390913D01*
X141258487Y-156390914D01*
X141138269Y-156483161D01*
X141070472Y-156571516D01*
X141046020Y-156603382D01*
X140988033Y-156743375D01*
X140988032Y-156743377D01*
X140968254Y-156893611D01*
X139299957Y-156893611D01*
X139332080Y-156816059D01*
X139351859Y-156665823D01*
X139332080Y-156515587D01*
X139274091Y-156375590D01*
X139181844Y-156255372D01*
X139061626Y-156163125D01*
X139061622Y-156163123D01*
X138921629Y-156105136D01*
X138921627Y-156105135D01*
X138771394Y-156085357D01*
X138771392Y-156085357D01*
X138621158Y-156105135D01*
X138621156Y-156105136D01*
X138481163Y-156163123D01*
X138481160Y-156163124D01*
X138481160Y-156163125D01*
X138460220Y-156179193D01*
X138360942Y-156255372D01*
X138268692Y-156375593D01*
X138268692Y-156375594D01*
X138248044Y-156425442D01*
X138204202Y-156479844D01*
X138137908Y-156501908D01*
X138070209Y-156484628D01*
X138022599Y-156433490D01*
X138018925Y-156425445D01*
X138004622Y-156390912D01*
X137987420Y-156349383D01*
X137987420Y-156349382D01*
X137974792Y-156332925D01*
X137895171Y-156229161D01*
X137774953Y-156136914D01*
X137774949Y-156136912D01*
X137634956Y-156078925D01*
X137634954Y-156078924D01*
X137484721Y-156059146D01*
X137484719Y-156059146D01*
X137334485Y-156078924D01*
X137334483Y-156078925D01*
X137194490Y-156136912D01*
X137194487Y-156136913D01*
X137194487Y-156136914D01*
X137074269Y-156229161D01*
X136994649Y-156332924D01*
X136982020Y-156349382D01*
X136924033Y-156489375D01*
X136924032Y-156489377D01*
X136904254Y-156639611D01*
X129991422Y-156639611D01*
X130006304Y-156526572D01*
X129986525Y-156376336D01*
X129928536Y-156236339D01*
X129836289Y-156116121D01*
X129716071Y-156023874D01*
X129716067Y-156023872D01*
X129576074Y-155965885D01*
X129576072Y-155965884D01*
X129425839Y-155946106D01*
X129425837Y-155946106D01*
X129275603Y-155965884D01*
X129275601Y-155965885D01*
X129135608Y-156023872D01*
X129135605Y-156023873D01*
X129135605Y-156023874D01*
X129015387Y-156116121D01*
X128956590Y-156192747D01*
X128923138Y-156236342D01*
X128865151Y-156376335D01*
X128865150Y-156376337D01*
X128845372Y-156526571D01*
X97928500Y-156526571D01*
X97928500Y-154806524D01*
X97928401Y-154805549D01*
X97928381Y-154792151D01*
X97903246Y-154703609D01*
X97903246Y-154703608D01*
X97854870Y-154625307D01*
X97835512Y-154607611D01*
X101598254Y-154607611D01*
X101598254Y-154607612D01*
X101618032Y-154757846D01*
X101618033Y-154757848D01*
X101673971Y-154892895D01*
X101676022Y-154897845D01*
X101768269Y-155018063D01*
X101888487Y-155110310D01*
X102028484Y-155168299D01*
X102103602Y-155178188D01*
X102178719Y-155188078D01*
X102178720Y-155188078D01*
X102178721Y-155188078D01*
X102228798Y-155181485D01*
X102328956Y-155168299D01*
X102456155Y-155115611D01*
X109472254Y-155115611D01*
X109472254Y-155115612D01*
X109492032Y-155265846D01*
X109492033Y-155265848D01*
X109532973Y-155364687D01*
X109550022Y-155405845D01*
X109642269Y-155526063D01*
X109762487Y-155618310D01*
X109902484Y-155676299D01*
X109977602Y-155686188D01*
X110052719Y-155696078D01*
X110052720Y-155696078D01*
X110052721Y-155696078D01*
X110102798Y-155689485D01*
X110202956Y-155676299D01*
X110342953Y-155618310D01*
X110463171Y-155526063D01*
X110555418Y-155405845D01*
X110613407Y-155265848D01*
X110633186Y-155115612D01*
X110629500Y-155087616D01*
X110640265Y-155018582D01*
X110686644Y-154966326D01*
X110753913Y-154947440D01*
X110768620Y-154948491D01*
X110814000Y-154954466D01*
X110814001Y-154954466D01*
X110867368Y-154947440D01*
X110964236Y-154934687D01*
X111104233Y-154876698D01*
X111224451Y-154784451D01*
X111316698Y-154664233D01*
X111374687Y-154524236D01*
X111394466Y-154374000D01*
X111393822Y-154369112D01*
X111379984Y-154263999D01*
X112583534Y-154263999D01*
X112583534Y-154264000D01*
X112603312Y-154414234D01*
X112603313Y-154414236D01*
X112658079Y-154546454D01*
X112661302Y-154554233D01*
X112753549Y-154674451D01*
X112873767Y-154766698D01*
X113013764Y-154824687D01*
X113088882Y-154834576D01*
X113163999Y-154844466D01*
X113164000Y-154844466D01*
X113164001Y-154844466D01*
X113214078Y-154837873D01*
X113314236Y-154824687D01*
X113364181Y-154803999D01*
X122923534Y-154803999D01*
X122923534Y-154804000D01*
X122943312Y-154954234D01*
X122943313Y-154954236D01*
X122994040Y-155076703D01*
X123001302Y-155094233D01*
X123093549Y-155214451D01*
X123213767Y-155306698D01*
X123353764Y-155364687D01*
X123428882Y-155374576D01*
X123503999Y-155384466D01*
X123504000Y-155384466D01*
X123504001Y-155384466D01*
X123554078Y-155377873D01*
X123654236Y-155364687D01*
X123794233Y-155306698D01*
X123914451Y-155214451D01*
X124006698Y-155094233D01*
X124064687Y-154954236D01*
X124084466Y-154804000D01*
X124066527Y-154667742D01*
X124077292Y-154598710D01*
X124123672Y-154546454D01*
X124190941Y-154527568D01*
X124236915Y-154536997D01*
X124303764Y-154564687D01*
X124330190Y-154568166D01*
X124453999Y-154584466D01*
X124454000Y-154584466D01*
X124454001Y-154584466D01*
X124504960Y-154577757D01*
X124604236Y-154564687D01*
X124744233Y-154506698D01*
X124864451Y-154414451D01*
X124911135Y-154353611D01*
X128072622Y-154353611D01*
X128072622Y-154353612D01*
X128091662Y-154510430D01*
X128128519Y-154607612D01*
X128147680Y-154658135D01*
X128237417Y-154788142D01*
X128355660Y-154892895D01*
X128355662Y-154892896D01*
X128495534Y-154966308D01*
X128648914Y-155004112D01*
X128648915Y-155004112D01*
X128806885Y-155004112D01*
X128960265Y-154966308D01*
X128994210Y-154948492D01*
X129100140Y-154892895D01*
X129210537Y-154795092D01*
X129273769Y-154765371D01*
X129343032Y-154774555D01*
X129396336Y-154819727D01*
X129416756Y-154886546D01*
X129415859Y-154902854D01*
X129398722Y-155043999D01*
X129398722Y-155044000D01*
X129417762Y-155200818D01*
X129457918Y-155306698D01*
X129473780Y-155348523D01*
X129563517Y-155478530D01*
X129681760Y-155583283D01*
X129681762Y-155583284D01*
X129821634Y-155656696D01*
X129975014Y-155694500D01*
X129975015Y-155694500D01*
X130132985Y-155694500D01*
X130286365Y-155656696D01*
X130335604Y-155630853D01*
X130426240Y-155583283D01*
X130544483Y-155478530D01*
X130634220Y-155348523D01*
X130689107Y-155203797D01*
X134448351Y-155203797D01*
X134448351Y-155203798D01*
X134468129Y-155354032D01*
X134468130Y-155354034D01*
X134526119Y-155494031D01*
X134618366Y-155614249D01*
X134738584Y-155706496D01*
X134878581Y-155764485D01*
X134953699Y-155774374D01*
X135028816Y-155784264D01*
X135028817Y-155784264D01*
X135028818Y-155784264D01*
X135078895Y-155777671D01*
X135179053Y-155764485D01*
X135282120Y-155721792D01*
X135351587Y-155714324D01*
X135414066Y-155745599D01*
X135444132Y-155788901D01*
X135470049Y-155851471D01*
X135493771Y-155908739D01*
X135586018Y-156028957D01*
X135706236Y-156121204D01*
X135846233Y-156179193D01*
X135921351Y-156189082D01*
X135996468Y-156198972D01*
X135996469Y-156198972D01*
X135996470Y-156198972D01*
X136046547Y-156192379D01*
X136146705Y-156179193D01*
X136286702Y-156121204D01*
X136406920Y-156028957D01*
X136499167Y-155908739D01*
X136557156Y-155768742D01*
X136576935Y-155618506D01*
X136576374Y-155614248D01*
X136564764Y-155526062D01*
X136557156Y-155468270D01*
X136499167Y-155328273D01*
X136406920Y-155208055D01*
X136286702Y-155115808D01*
X136286698Y-155115806D01*
X136146705Y-155057819D01*
X136146703Y-155057818D01*
X135996470Y-155038040D01*
X135996468Y-155038040D01*
X135846234Y-155057818D01*
X135846229Y-155057820D01*
X135743166Y-155100510D01*
X135673697Y-155107979D01*
X135611218Y-155076703D01*
X135581153Y-155033401D01*
X135531517Y-154913569D01*
X135531517Y-154913568D01*
X135531515Y-154913565D01*
X135439268Y-154793347D01*
X135319050Y-154701100D01*
X135319046Y-154701098D01*
X135179053Y-154643111D01*
X135179051Y-154643110D01*
X135028818Y-154623332D01*
X135028816Y-154623332D01*
X134878582Y-154643110D01*
X134878580Y-154643111D01*
X134738587Y-154701098D01*
X134738584Y-154701099D01*
X134738584Y-154701100D01*
X134618366Y-154793347D01*
X134538182Y-154897845D01*
X134526117Y-154913568D01*
X134468130Y-155053561D01*
X134468129Y-155053563D01*
X134448351Y-155203797D01*
X130689107Y-155203797D01*
X130690237Y-155200818D01*
X130709278Y-155044000D01*
X130703645Y-154997603D01*
X130690237Y-154887181D01*
X130663988Y-154817970D01*
X130634220Y-154739477D01*
X130544483Y-154609470D01*
X130426240Y-154504717D01*
X130426238Y-154504716D01*
X130426237Y-154504715D01*
X130297059Y-154436916D01*
X132888257Y-154436916D01*
X132888257Y-154436917D01*
X132908035Y-154587151D01*
X132908036Y-154587153D01*
X132964023Y-154722318D01*
X132966025Y-154727150D01*
X133058272Y-154847368D01*
X133178490Y-154939615D01*
X133318487Y-154997604D01*
X133367920Y-155004112D01*
X133468722Y-155017383D01*
X133468723Y-155017383D01*
X133468724Y-155017383D01*
X133518801Y-155010790D01*
X133618959Y-154997604D01*
X133758956Y-154939615D01*
X133879174Y-154847368D01*
X133971421Y-154727150D01*
X134029410Y-154587153D01*
X134049189Y-154436917D01*
X134029410Y-154286681D01*
X134029407Y-154286676D01*
X134028795Y-154284386D01*
X134028842Y-154282374D01*
X134028349Y-154278623D01*
X134028933Y-154278545D01*
X134030457Y-154214536D01*
X134069618Y-154156673D01*
X134133846Y-154129168D01*
X134164748Y-154129351D01*
X134284974Y-154145180D01*
X134284975Y-154145180D01*
X134335052Y-154138587D01*
X134435210Y-154125401D01*
X134575207Y-154067412D01*
X134695425Y-153975165D01*
X134787672Y-153854947D01*
X134845661Y-153714950D01*
X134865440Y-153564714D01*
X134845661Y-153414478D01*
X134787672Y-153274481D01*
X134695425Y-153154263D01*
X134575207Y-153062016D01*
X134575203Y-153062014D01*
X134435210Y-153004027D01*
X134435208Y-153004026D01*
X134284975Y-152984248D01*
X134284973Y-152984248D01*
X134134739Y-153004026D01*
X134134737Y-153004027D01*
X133994744Y-153062014D01*
X133994741Y-153062015D01*
X133994741Y-153062016D01*
X133973505Y-153078311D01*
X133874523Y-153154263D01*
X133782274Y-153274484D01*
X133724287Y-153414477D01*
X133724286Y-153414479D01*
X133704508Y-153564713D01*
X133704508Y-153564714D01*
X133724286Y-153714948D01*
X133724904Y-153717252D01*
X133724855Y-153719269D01*
X133725348Y-153723008D01*
X133724764Y-153723084D01*
X133723237Y-153787102D01*
X133684071Y-153844962D01*
X133619841Y-153872463D01*
X133588942Y-153872278D01*
X133468724Y-153856451D01*
X133468722Y-153856451D01*
X133318488Y-153876229D01*
X133318486Y-153876230D01*
X133178493Y-153934217D01*
X133178490Y-153934218D01*
X133178490Y-153934219D01*
X133058272Y-154026466D01*
X132979325Y-154129352D01*
X132966023Y-154146687D01*
X132908036Y-154286680D01*
X132908035Y-154286682D01*
X132888257Y-154436916D01*
X130297059Y-154436916D01*
X130286365Y-154431303D01*
X130132986Y-154393500D01*
X130132985Y-154393500D01*
X129975015Y-154393500D01*
X129975014Y-154393500D01*
X129821634Y-154431303D01*
X129681761Y-154504715D01*
X129681759Y-154504717D01*
X129571362Y-154602519D01*
X129508129Y-154632240D01*
X129438866Y-154623056D01*
X129385563Y-154577883D01*
X129365143Y-154511064D01*
X129366040Y-154494757D01*
X129383178Y-154353612D01*
X129383178Y-154353611D01*
X129364137Y-154196793D01*
X129332648Y-154113764D01*
X129308120Y-154049089D01*
X129218383Y-153919082D01*
X129100140Y-153814329D01*
X129100138Y-153814328D01*
X129100137Y-153814327D01*
X128960265Y-153740915D01*
X128806886Y-153703112D01*
X128806885Y-153703112D01*
X128648915Y-153703112D01*
X128648914Y-153703112D01*
X128495534Y-153740915D01*
X128355662Y-153814327D01*
X128237416Y-153919083D01*
X128147681Y-154049087D01*
X128147680Y-154049088D01*
X128091662Y-154196793D01*
X128072622Y-154353611D01*
X124911135Y-154353611D01*
X124956698Y-154294233D01*
X125014687Y-154154236D01*
X125034466Y-154004000D01*
X125034390Y-154003426D01*
X125017645Y-153876230D01*
X125014687Y-153853764D01*
X124956698Y-153713767D01*
X124864451Y-153593549D01*
X124744233Y-153501302D01*
X124744229Y-153501300D01*
X124604236Y-153443313D01*
X124604234Y-153443312D01*
X124454001Y-153423534D01*
X124453999Y-153423534D01*
X124303765Y-153443312D01*
X124303763Y-153443313D01*
X124163770Y-153501300D01*
X124163767Y-153501301D01*
X124163767Y-153501302D01*
X124043549Y-153593549D01*
X123959325Y-153703312D01*
X123951300Y-153713770D01*
X123893313Y-153853763D01*
X123893312Y-153853765D01*
X123873534Y-154003999D01*
X123873534Y-154004001D01*
X123891472Y-154140255D01*
X123880706Y-154209290D01*
X123834326Y-154261546D01*
X123767057Y-154280431D01*
X123721080Y-154271001D01*
X123704178Y-154264000D01*
X123654236Y-154243313D01*
X123654234Y-154243312D01*
X123504001Y-154223534D01*
X123503999Y-154223534D01*
X123353765Y-154243312D01*
X123353763Y-154243313D01*
X123213770Y-154301300D01*
X123213767Y-154301301D01*
X123213767Y-154301302D01*
X123093549Y-154393549D01*
X123006726Y-154506699D01*
X123001300Y-154513770D01*
X122943313Y-154653763D01*
X122943312Y-154653765D01*
X122923534Y-154803999D01*
X113364181Y-154803999D01*
X113454233Y-154766698D01*
X113574451Y-154674451D01*
X113666698Y-154554233D01*
X113724687Y-154414236D01*
X113744466Y-154264000D01*
X113744301Y-154262750D01*
X113726422Y-154126943D01*
X113724687Y-154113764D01*
X113666698Y-153973767D01*
X113574451Y-153853549D01*
X113454233Y-153761302D01*
X113454229Y-153761300D01*
X113314236Y-153703313D01*
X113314234Y-153703312D01*
X113164001Y-153683534D01*
X113163999Y-153683534D01*
X113013765Y-153703312D01*
X113013763Y-153703313D01*
X112873770Y-153761300D01*
X112873767Y-153761301D01*
X112873767Y-153761302D01*
X112753549Y-153853549D01*
X112691649Y-153934219D01*
X112661300Y-153973770D01*
X112603313Y-154113763D01*
X112603312Y-154113765D01*
X112583534Y-154263999D01*
X111379984Y-154263999D01*
X111377261Y-154243313D01*
X111374687Y-154223764D01*
X111316698Y-154083767D01*
X111224451Y-153963549D01*
X111104233Y-153871302D01*
X111104229Y-153871300D01*
X110964236Y-153813313D01*
X110964234Y-153813312D01*
X110814001Y-153793534D01*
X110813999Y-153793534D01*
X110663765Y-153813312D01*
X110663763Y-153813313D01*
X110523770Y-153871300D01*
X110523767Y-153871301D01*
X110523767Y-153871302D01*
X110403549Y-153963549D01*
X110372511Y-154003999D01*
X110311300Y-154083770D01*
X110253313Y-154223763D01*
X110253312Y-154223765D01*
X110233534Y-154373999D01*
X110233534Y-154374002D01*
X110237219Y-154401996D01*
X110226453Y-154471031D01*
X110180072Y-154523287D01*
X110112803Y-154542171D01*
X110098096Y-154541119D01*
X110052723Y-154535146D01*
X110052719Y-154535146D01*
X109902485Y-154554924D01*
X109902483Y-154554925D01*
X109762490Y-154612912D01*
X109762487Y-154612913D01*
X109762487Y-154612914D01*
X109642269Y-154705161D01*
X109573262Y-154795093D01*
X109550020Y-154825382D01*
X109492033Y-154965375D01*
X109492032Y-154965377D01*
X109472254Y-155115611D01*
X102456155Y-155115611D01*
X102468953Y-155110310D01*
X102589171Y-155018063D01*
X102681418Y-154897845D01*
X102739407Y-154757848D01*
X102759186Y-154607612D01*
X102758515Y-154602519D01*
X102746392Y-154510430D01*
X102739407Y-154457376D01*
X102681418Y-154317379D01*
X102589171Y-154197161D01*
X102532482Y-154153662D01*
X104618757Y-154153662D01*
X104618757Y-154153663D01*
X104638535Y-154303897D01*
X104638536Y-154303899D01*
X104693633Y-154436916D01*
X104696525Y-154443896D01*
X104788772Y-154564114D01*
X104908990Y-154656361D01*
X105048987Y-154714350D01*
X105109510Y-154722318D01*
X105199222Y-154734129D01*
X105199223Y-154734129D01*
X105199224Y-154734129D01*
X105252264Y-154727146D01*
X105349459Y-154714350D01*
X105489456Y-154656361D01*
X105609674Y-154564114D01*
X105701921Y-154443896D01*
X105759910Y-154303899D01*
X105779689Y-154153663D01*
X105779509Y-154152299D01*
X105768334Y-154067412D01*
X105759910Y-154003427D01*
X105701921Y-153863430D01*
X105609674Y-153743212D01*
X105489456Y-153650965D01*
X105489452Y-153650963D01*
X105349459Y-153592976D01*
X105349457Y-153592975D01*
X105199224Y-153573197D01*
X105199222Y-153573197D01*
X105048988Y-153592975D01*
X105048986Y-153592976D01*
X104908993Y-153650963D01*
X104908990Y-153650964D01*
X104908990Y-153650965D01*
X104788772Y-153743212D01*
X104703035Y-153854947D01*
X104696523Y-153863433D01*
X104638536Y-154003426D01*
X104638535Y-154003428D01*
X104618757Y-154153662D01*
X102532482Y-154153662D01*
X102468953Y-154104914D01*
X102468949Y-154104912D01*
X102328956Y-154046925D01*
X102328954Y-154046924D01*
X102178721Y-154027146D01*
X102178719Y-154027146D01*
X102028485Y-154046924D01*
X102028483Y-154046925D01*
X101888490Y-154104912D01*
X101888487Y-154104913D01*
X101888487Y-154104914D01*
X101768269Y-154197161D01*
X101688359Y-154301302D01*
X101676020Y-154317382D01*
X101618033Y-154457375D01*
X101618032Y-154457377D01*
X101598254Y-154607611D01*
X97835512Y-154607611D01*
X97802854Y-154577757D01*
X97797045Y-154568166D01*
X97774618Y-154556951D01*
X97774603Y-154556942D01*
X97745813Y-154542546D01*
X97721728Y-154530501D01*
X97721727Y-154530501D01*
X97708833Y-154524053D01*
X97708808Y-154524043D01*
X97210364Y-154274817D01*
X97190944Y-154262750D01*
X97189355Y-154261546D01*
X97180673Y-154254969D01*
X97150029Y-154221255D01*
X97149388Y-154220216D01*
X97133011Y-154177822D01*
X97132269Y-154173841D01*
X97130602Y-154164900D01*
X97128502Y-154142156D01*
X97128506Y-154126943D01*
X97128504Y-154126941D01*
X97128508Y-154111439D01*
X97128500Y-154111367D01*
X97128500Y-153337611D01*
X103122254Y-153337611D01*
X103122254Y-153337612D01*
X103142032Y-153487846D01*
X103142033Y-153487848D01*
X103192805Y-153610423D01*
X103200022Y-153627845D01*
X103292269Y-153748063D01*
X103412487Y-153840310D01*
X103552484Y-153898299D01*
X103627602Y-153908188D01*
X103702719Y-153918078D01*
X103702720Y-153918078D01*
X103702721Y-153918078D01*
X103752798Y-153911485D01*
X103852956Y-153898299D01*
X103992953Y-153840310D01*
X104113171Y-153748063D01*
X104205418Y-153627845D01*
X104263407Y-153487848D01*
X104283186Y-153337612D01*
X104283186Y-153337611D01*
X106424254Y-153337611D01*
X106424254Y-153337612D01*
X106444032Y-153487846D01*
X106444033Y-153487848D01*
X106494805Y-153610423D01*
X106502022Y-153627845D01*
X106594269Y-153748063D01*
X106714487Y-153840310D01*
X106854484Y-153898299D01*
X106929602Y-153908188D01*
X107004719Y-153918078D01*
X107004720Y-153918078D01*
X107004721Y-153918078D01*
X107054798Y-153911485D01*
X107154956Y-153898299D01*
X107294953Y-153840310D01*
X107415171Y-153748063D01*
X107507418Y-153627845D01*
X107522427Y-153591611D01*
X115060254Y-153591611D01*
X115060254Y-153591612D01*
X115080032Y-153741846D01*
X115080033Y-153741848D01*
X115135695Y-153876229D01*
X115138022Y-153881845D01*
X115230269Y-154002063D01*
X115350487Y-154094310D01*
X115490484Y-154152299D01*
X115523708Y-154156673D01*
X115640719Y-154172078D01*
X115640720Y-154172078D01*
X115640721Y-154172078D01*
X115695181Y-154164908D01*
X115790956Y-154152299D01*
X115930953Y-154094310D01*
X116051171Y-154002063D01*
X116143418Y-153881845D01*
X116201407Y-153741848D01*
X116221186Y-153591612D01*
X116201407Y-153441376D01*
X116143418Y-153301379D01*
X116051171Y-153181161D01*
X115930953Y-153088914D01*
X115930949Y-153088912D01*
X115790956Y-153030925D01*
X115790954Y-153030924D01*
X115640721Y-153011146D01*
X115640719Y-153011146D01*
X115490485Y-153030924D01*
X115490483Y-153030925D01*
X115350490Y-153088912D01*
X115350487Y-153088913D01*
X115350487Y-153088914D01*
X115230269Y-153181161D01*
X115158660Y-153274484D01*
X115138020Y-153301382D01*
X115080033Y-153441375D01*
X115080032Y-153441377D01*
X115060254Y-153591611D01*
X107522427Y-153591611D01*
X107565407Y-153487848D01*
X107585186Y-153337612D01*
X107565407Y-153187376D01*
X107507418Y-153047379D01*
X107415171Y-152927161D01*
X107294953Y-152834914D01*
X107294949Y-152834912D01*
X107154956Y-152776925D01*
X107154954Y-152776924D01*
X107004721Y-152757146D01*
X107004719Y-152757146D01*
X106854485Y-152776924D01*
X106854483Y-152776925D01*
X106714490Y-152834912D01*
X106714487Y-152834913D01*
X106714487Y-152834914D01*
X106594269Y-152927161D01*
X106514649Y-153030924D01*
X106502020Y-153047382D01*
X106444033Y-153187375D01*
X106444032Y-153187377D01*
X106424254Y-153337611D01*
X104283186Y-153337611D01*
X104263407Y-153187376D01*
X104205418Y-153047379D01*
X104113171Y-152927161D01*
X103992953Y-152834914D01*
X103992949Y-152834912D01*
X103852956Y-152776925D01*
X103852954Y-152776924D01*
X103702721Y-152757146D01*
X103702719Y-152757146D01*
X103552485Y-152776924D01*
X103552483Y-152776925D01*
X103412490Y-152834912D01*
X103412487Y-152834913D01*
X103412487Y-152834914D01*
X103292269Y-152927161D01*
X103212649Y-153030924D01*
X103200020Y-153047382D01*
X103142033Y-153187375D01*
X103142032Y-153187377D01*
X103122254Y-153337611D01*
X97128500Y-153337611D01*
X97128500Y-152575611D01*
X100582254Y-152575611D01*
X100582254Y-152575612D01*
X100602032Y-152725846D01*
X100602033Y-152725848D01*
X100616629Y-152761087D01*
X100660022Y-152865845D01*
X100752269Y-152986063D01*
X100872487Y-153078310D01*
X101012484Y-153136299D01*
X101087602Y-153146188D01*
X101162719Y-153156078D01*
X101162720Y-153156078D01*
X101162721Y-153156078D01*
X101212798Y-153149485D01*
X101312956Y-153136299D01*
X101452953Y-153078310D01*
X101573171Y-152986063D01*
X101665418Y-152865845D01*
X101723407Y-152725848D01*
X101743186Y-152575612D01*
X101723407Y-152425376D01*
X101665418Y-152285379D01*
X101573171Y-152165161D01*
X101452953Y-152072914D01*
X101452949Y-152072912D01*
X101440151Y-152067611D01*
X114044254Y-152067611D01*
X114044254Y-152067612D01*
X114064032Y-152217846D01*
X114064033Y-152217848D01*
X114103713Y-152313645D01*
X114122022Y-152357845D01*
X114214269Y-152478063D01*
X114334487Y-152570310D01*
X114474484Y-152628299D01*
X114549602Y-152638188D01*
X114624719Y-152648078D01*
X114624720Y-152648078D01*
X114624721Y-152648078D01*
X114674798Y-152641485D01*
X114774956Y-152628299D01*
X114914953Y-152570310D01*
X115035171Y-152478063D01*
X115127418Y-152357845D01*
X115185407Y-152217848D01*
X115205186Y-152067612D01*
X115205119Y-152067106D01*
X115185407Y-151917377D01*
X115185407Y-151917376D01*
X115127418Y-151777379D01*
X115035171Y-151657161D01*
X114914953Y-151564914D01*
X114914949Y-151564912D01*
X114902151Y-151559611D01*
X131824254Y-151559611D01*
X131824254Y-151559612D01*
X131844032Y-151709846D01*
X131844033Y-151709848D01*
X131889694Y-151820084D01*
X131902022Y-151849845D01*
X131994269Y-151970063D01*
X132114487Y-152062310D01*
X132254484Y-152120299D01*
X132308900Y-152127463D01*
X132404719Y-152140078D01*
X132404720Y-152140078D01*
X132404721Y-152140078D01*
X132454798Y-152133485D01*
X132554956Y-152120299D01*
X132694953Y-152062310D01*
X132815171Y-151970063D01*
X132907418Y-151849845D01*
X132965407Y-151709848D01*
X132985186Y-151559612D01*
X132983673Y-151548123D01*
X132966464Y-151417402D01*
X132965407Y-151409376D01*
X132907418Y-151269379D01*
X132815171Y-151149161D01*
X132694953Y-151056914D01*
X132694949Y-151056912D01*
X132554956Y-150998925D01*
X132554954Y-150998924D01*
X132404721Y-150979146D01*
X132404719Y-150979146D01*
X132254485Y-150998924D01*
X132254483Y-150998925D01*
X132114490Y-151056912D01*
X132114487Y-151056913D01*
X132114487Y-151056914D01*
X131994269Y-151149161D01*
X131924467Y-151240129D01*
X131902020Y-151269382D01*
X131844033Y-151409375D01*
X131844032Y-151409377D01*
X131824254Y-151559611D01*
X114902151Y-151559611D01*
X114774956Y-151506925D01*
X114774954Y-151506924D01*
X114624721Y-151487146D01*
X114624719Y-151487146D01*
X114474485Y-151506924D01*
X114474483Y-151506925D01*
X114334490Y-151564912D01*
X114334487Y-151564913D01*
X114334487Y-151564914D01*
X114214269Y-151657161D01*
X114123077Y-151776005D01*
X114122020Y-151777382D01*
X114064033Y-151917375D01*
X114064032Y-151917377D01*
X114044254Y-152067611D01*
X101440151Y-152067611D01*
X101312956Y-152014925D01*
X101312954Y-152014924D01*
X101162721Y-151995146D01*
X101162719Y-151995146D01*
X101012485Y-152014924D01*
X101012483Y-152014925D01*
X100872490Y-152072912D01*
X100872487Y-152072913D01*
X100872487Y-152072914D01*
X100784958Y-152140078D01*
X100752269Y-152165161D01*
X100660020Y-152285382D01*
X100602033Y-152425375D01*
X100602032Y-152425377D01*
X100582254Y-152575611D01*
X97128500Y-152575611D01*
X97128500Y-150585999D01*
X99522357Y-150585999D01*
X99522357Y-150586000D01*
X99542884Y-150807535D01*
X99542885Y-150807537D01*
X99603769Y-151021523D01*
X99603775Y-151021538D01*
X99702938Y-151220683D01*
X99702943Y-151220691D01*
X99837020Y-151398238D01*
X99989088Y-151536866D01*
X99999881Y-151546705D01*
X100001437Y-151548123D01*
X100001439Y-151548125D01*
X100190595Y-151665245D01*
X100190596Y-151665245D01*
X100190599Y-151665247D01*
X100398060Y-151745618D01*
X100616757Y-151786500D01*
X100616759Y-151786500D01*
X100839241Y-151786500D01*
X100839243Y-151786500D01*
X101057940Y-151745618D01*
X101265401Y-151665247D01*
X101454562Y-151548124D01*
X101618981Y-151398236D01*
X101753058Y-151220689D01*
X101841039Y-151044000D01*
X104838659Y-151044000D01*
X104857975Y-151240129D01*
X104857976Y-151240132D01*
X104911748Y-151417395D01*
X104915188Y-151428733D01*
X105008086Y-151602532D01*
X105008090Y-151602539D01*
X105133116Y-151754883D01*
X105285460Y-151879909D01*
X105285467Y-151879913D01*
X105459266Y-151972811D01*
X105459269Y-151972811D01*
X105459273Y-151972814D01*
X105647868Y-152030024D01*
X105844000Y-152049341D01*
X106040132Y-152030024D01*
X106228727Y-151972814D01*
X106402538Y-151879910D01*
X106554883Y-151754883D01*
X106679910Y-151602538D01*
X106772814Y-151428727D01*
X106830024Y-151240132D01*
X106849341Y-151044000D01*
X106830024Y-150847868D01*
X106772814Y-150659273D01*
X106772811Y-150659269D01*
X106772811Y-150659266D01*
X106712268Y-150545999D01*
X136722341Y-150545999D01*
X136722341Y-150546000D01*
X136742936Y-150781403D01*
X136742938Y-150781413D01*
X136804094Y-151009655D01*
X136804096Y-151009659D01*
X136804097Y-151009663D01*
X136820109Y-151044000D01*
X136903965Y-151223830D01*
X136903967Y-151223834D01*
X136951658Y-151291943D01*
X137039505Y-151417401D01*
X137206599Y-151584495D01*
X137261984Y-151623276D01*
X137400165Y-151720032D01*
X137400167Y-151720033D01*
X137400170Y-151720035D01*
X137614337Y-151819903D01*
X137614343Y-151819904D01*
X137614344Y-151819905D01*
X137615042Y-151820092D01*
X137842592Y-151881063D01*
X138019034Y-151896500D01*
X138077999Y-151901659D01*
X138078000Y-151901659D01*
X138078001Y-151901659D01*
X138117234Y-151898226D01*
X138313408Y-151881063D01*
X138541663Y-151819903D01*
X138755830Y-151720035D01*
X138949401Y-151584495D01*
X139116495Y-151417401D01*
X139252035Y-151223830D01*
X139351903Y-151009663D01*
X139413063Y-150781408D01*
X139433659Y-150546000D01*
X139413063Y-150310592D01*
X139351903Y-150082337D01*
X139252035Y-149868171D01*
X139224937Y-149829470D01*
X139132135Y-149696935D01*
X141176264Y-149696935D01*
X141177500Y-149707950D01*
X141177500Y-151704059D01*
X141176265Y-151715071D01*
X141177408Y-151744742D01*
X141177500Y-151749512D01*
X141177500Y-151768844D01*
X141178180Y-151774611D01*
X141178612Y-151776007D01*
X141182801Y-151782658D01*
X141192437Y-151801284D01*
X141192799Y-151802158D01*
X141196542Y-151807760D01*
X141206385Y-151820084D01*
X141266606Y-151915609D01*
X141266612Y-151915618D01*
X141378463Y-152049340D01*
X141443812Y-152127467D01*
X141443816Y-152127471D01*
X141443822Y-152127477D01*
X141552842Y-152226968D01*
X141647822Y-152313647D01*
X141874956Y-152470789D01*
X142121109Y-152596056D01*
X142381837Y-152687184D01*
X142652430Y-152742527D01*
X142928000Y-152761087D01*
X143203570Y-152742527D01*
X143474163Y-152687184D01*
X143734891Y-152596056D01*
X143981044Y-152470789D01*
X144208178Y-152313647D01*
X144412188Y-152127467D01*
X144589392Y-151915612D01*
X144649613Y-151820084D01*
X144659458Y-151807758D01*
X144663198Y-151802162D01*
X144663198Y-151802161D01*
X144663200Y-151802160D01*
X144663556Y-151801299D01*
X144673199Y-151782656D01*
X144677389Y-151776005D01*
X144677389Y-151776000D01*
X144677822Y-151774602D01*
X144678500Y-151768858D01*
X144678499Y-151749524D01*
X144678591Y-151744740D01*
X144679734Y-151715061D01*
X144678499Y-151704047D01*
X144678499Y-149707947D01*
X144679734Y-149696932D01*
X144678591Y-149667229D01*
X144678499Y-149662460D01*
X144678499Y-149643132D01*
X144677821Y-149637388D01*
X144677389Y-149635995D01*
X144677389Y-149635994D01*
X144673196Y-149629338D01*
X144663553Y-149610695D01*
X144663199Y-149609840D01*
X144663198Y-149609839D01*
X144659460Y-149604244D01*
X144649617Y-149591921D01*
X144589392Y-149496387D01*
X144412188Y-149284532D01*
X144331543Y-149210936D01*
X144208170Y-149098346D01*
X143981046Y-148941211D01*
X143734891Y-148815943D01*
X143734886Y-148815941D01*
X143551198Y-148751740D01*
X143474162Y-148724815D01*
X143474159Y-148724814D01*
X143474155Y-148724813D01*
X143203576Y-148669472D01*
X143203572Y-148669471D01*
X143203569Y-148669471D01*
X142927999Y-148650912D01*
X142652429Y-148669472D01*
X142652425Y-148669472D01*
X142652421Y-148669473D01*
X142381842Y-148724814D01*
X142381830Y-148724818D01*
X142121111Y-148815942D01*
X142121106Y-148815944D01*
X141874951Y-148941212D01*
X141647826Y-149098348D01*
X141647819Y-149098353D01*
X141443820Y-149284523D01*
X141443807Y-149284537D01*
X141266609Y-149496385D01*
X141266606Y-149496389D01*
X141206381Y-149591921D01*
X141196538Y-149604245D01*
X141192797Y-149609845D01*
X141192436Y-149610717D01*
X141182802Y-149629339D01*
X141178611Y-149635992D01*
X141178180Y-149637383D01*
X141177500Y-149643156D01*
X141177500Y-149662462D01*
X141177408Y-149667231D01*
X141176264Y-149696935D01*
X139132135Y-149696935D01*
X139116494Y-149674597D01*
X138949402Y-149507506D01*
X138949395Y-149507501D01*
X138948325Y-149506752D01*
X138910521Y-149480281D01*
X138755834Y-149371967D01*
X138755830Y-149371965D01*
X138687000Y-149339869D01*
X138541663Y-149272097D01*
X138541659Y-149272096D01*
X138541655Y-149272094D01*
X138313413Y-149210938D01*
X138313403Y-149210936D01*
X138078001Y-149190341D01*
X138077999Y-149190341D01*
X137842596Y-149210936D01*
X137842586Y-149210938D01*
X137614344Y-149272094D01*
X137614335Y-149272098D01*
X137400171Y-149371964D01*
X137400169Y-149371965D01*
X137206597Y-149507505D01*
X137039505Y-149674597D01*
X136903965Y-149868169D01*
X136903964Y-149868171D01*
X136804098Y-150082335D01*
X136804094Y-150082344D01*
X136742938Y-150310586D01*
X136742936Y-150310596D01*
X136722341Y-150545999D01*
X106712268Y-150545999D01*
X106679913Y-150485467D01*
X106679909Y-150485460D01*
X106554883Y-150333116D01*
X106402539Y-150208090D01*
X106402532Y-150208086D01*
X106228733Y-150115188D01*
X106228727Y-150115186D01*
X106040132Y-150057976D01*
X106040129Y-150057975D01*
X105844000Y-150038659D01*
X105647870Y-150057975D01*
X105459266Y-150115188D01*
X105285467Y-150208086D01*
X105285460Y-150208090D01*
X105133116Y-150333116D01*
X105008090Y-150485460D01*
X105008086Y-150485467D01*
X104915188Y-150659266D01*
X104857975Y-150847870D01*
X104838659Y-151044000D01*
X101841039Y-151044000D01*
X101852229Y-151021528D01*
X101913115Y-150807536D01*
X101933643Y-150586000D01*
X101926156Y-150505206D01*
X101913115Y-150364464D01*
X101913114Y-150364462D01*
X101904195Y-150333116D01*
X101852229Y-150150472D01*
X101852224Y-150150461D01*
X101753061Y-149951316D01*
X101753056Y-149951308D01*
X101618979Y-149773761D01*
X101454562Y-149623876D01*
X101454560Y-149623874D01*
X101265404Y-149506754D01*
X101265398Y-149506752D01*
X101238648Y-149496389D01*
X101057940Y-149426382D01*
X100839243Y-149385500D01*
X100616757Y-149385500D01*
X100398060Y-149426382D01*
X100266864Y-149477207D01*
X100190601Y-149506752D01*
X100190595Y-149506754D01*
X100001439Y-149623874D01*
X100001437Y-149623876D01*
X99837020Y-149773761D01*
X99702943Y-149951308D01*
X99702938Y-149951316D01*
X99603775Y-150150461D01*
X99603769Y-150150476D01*
X99542885Y-150364462D01*
X99542884Y-150364464D01*
X99522357Y-150585999D01*
X97128500Y-150585999D01*
X97128500Y-147013999D01*
X112733534Y-147013999D01*
X112733534Y-147014000D01*
X112753312Y-147164234D01*
X112753313Y-147164236D01*
X112811302Y-147304233D01*
X112903549Y-147424451D01*
X113023767Y-147516698D01*
X113163764Y-147574687D01*
X113238882Y-147584576D01*
X113313999Y-147594466D01*
X113314000Y-147594466D01*
X113314001Y-147594466D01*
X113364078Y-147587873D01*
X113464236Y-147574687D01*
X113604233Y-147516698D01*
X113724451Y-147424451D01*
X113816698Y-147304233D01*
X113874687Y-147164236D01*
X113894466Y-147014000D01*
X113886374Y-146952539D01*
X113874687Y-146863765D01*
X113874687Y-146863764D01*
X113816698Y-146723767D01*
X113724451Y-146603549D01*
X113604233Y-146511302D01*
X113604229Y-146511300D01*
X113464236Y-146453313D01*
X113464234Y-146453312D01*
X113314001Y-146433534D01*
X113313999Y-146433534D01*
X113163765Y-146453312D01*
X113163763Y-146453313D01*
X113023770Y-146511300D01*
X113023767Y-146511301D01*
X113023767Y-146511302D01*
X112921038Y-146590129D01*
X112903549Y-146603549D01*
X112811300Y-146723770D01*
X112753313Y-146863763D01*
X112753312Y-146863765D01*
X112733534Y-147013999D01*
X97128500Y-147013999D01*
X97128500Y-146225611D01*
X120902254Y-146225611D01*
X120902254Y-146225612D01*
X120922032Y-146375846D01*
X120922033Y-146375848D01*
X120980022Y-146515845D01*
X121072269Y-146636063D01*
X121192487Y-146728310D01*
X121332484Y-146786299D01*
X121407602Y-146796188D01*
X121482719Y-146806078D01*
X121482720Y-146806078D01*
X121482721Y-146806078D01*
X121532798Y-146799485D01*
X121632956Y-146786299D01*
X121772953Y-146728310D01*
X121893171Y-146636063D01*
X121985418Y-146515845D01*
X122035888Y-146394000D01*
X131138659Y-146394000D01*
X131157975Y-146590129D01*
X131215188Y-146778733D01*
X131308086Y-146952532D01*
X131308090Y-146952539D01*
X131433116Y-147104883D01*
X131585460Y-147229909D01*
X131585467Y-147229913D01*
X131759266Y-147322811D01*
X131759269Y-147322811D01*
X131759273Y-147322814D01*
X131947868Y-147380024D01*
X132144000Y-147399341D01*
X132340132Y-147380024D01*
X132528727Y-147322814D01*
X132702538Y-147229910D01*
X132854883Y-147104883D01*
X132979910Y-146952538D01*
X133047928Y-146825286D01*
X133072811Y-146778733D01*
X133072811Y-146778732D01*
X133072814Y-146778727D01*
X133130024Y-146590132D01*
X133149341Y-146394000D01*
X133130024Y-146197868D01*
X133072814Y-146009273D01*
X133072811Y-146009269D01*
X133072811Y-146009266D01*
X132979913Y-145835467D01*
X132979909Y-145835460D01*
X132854883Y-145683116D01*
X132702539Y-145558090D01*
X132702532Y-145558086D01*
X132528733Y-145465188D01*
X132528727Y-145465186D01*
X132340132Y-145407976D01*
X132340129Y-145407975D01*
X132144000Y-145388659D01*
X131947870Y-145407975D01*
X131759266Y-145465188D01*
X131585467Y-145558086D01*
X131585460Y-145558090D01*
X131433116Y-145683116D01*
X131308090Y-145835460D01*
X131308086Y-145835467D01*
X131215188Y-146009266D01*
X131157975Y-146197870D01*
X131138659Y-146394000D01*
X122035888Y-146394000D01*
X122043407Y-146375848D01*
X122063186Y-146225612D01*
X122059533Y-146197868D01*
X122043407Y-146075377D01*
X122043407Y-146075376D01*
X121985418Y-145935379D01*
X121893171Y-145815161D01*
X121772953Y-145722914D01*
X121772949Y-145722912D01*
X121632956Y-145664925D01*
X121632954Y-145664924D01*
X121482721Y-145645146D01*
X121482719Y-145645146D01*
X121332485Y-145664924D01*
X121332483Y-145664925D01*
X121192490Y-145722912D01*
X121072269Y-145815161D01*
X120980020Y-145935382D01*
X120922033Y-146075375D01*
X120922032Y-146075377D01*
X120902254Y-146225611D01*
X97128500Y-146225611D01*
X97128500Y-145802092D01*
X97129097Y-145789938D01*
X97130469Y-145776009D01*
X97144587Y-145632662D01*
X97149326Y-145608838D01*
X97193428Y-145463451D01*
X97202722Y-145441014D01*
X97274340Y-145307027D01*
X97287835Y-145286830D01*
X97384213Y-145169392D01*
X97401392Y-145152213D01*
X97518830Y-145055835D01*
X97539027Y-145042340D01*
X97673014Y-144970722D01*
X97695451Y-144961428D01*
X97840838Y-144917326D01*
X97864662Y-144912587D01*
X98021939Y-144897097D01*
X98034093Y-144896500D01*
X101561654Y-144896500D01*
X101561713Y-144896492D01*
X101894936Y-144896508D01*
X102627885Y-144859699D01*
X103358065Y-144786173D01*
X103915556Y-144701611D01*
X123696254Y-144701611D01*
X123696254Y-144701612D01*
X123716032Y-144851846D01*
X123716033Y-144851848D01*
X123769493Y-144980913D01*
X123774022Y-144991845D01*
X123866269Y-145112063D01*
X123986487Y-145204310D01*
X124126484Y-145262299D01*
X124201602Y-145272188D01*
X124276719Y-145282078D01*
X124276720Y-145282078D01*
X124276721Y-145282078D01*
X124326798Y-145275485D01*
X124426956Y-145262299D01*
X124566953Y-145204310D01*
X124687171Y-145112063D01*
X124779418Y-144991845D01*
X124837407Y-144851848D01*
X124857186Y-144701612D01*
X124837407Y-144551376D01*
X124779418Y-144411379D01*
X124687171Y-144291161D01*
X124566953Y-144198914D01*
X124566949Y-144198912D01*
X124426956Y-144140925D01*
X124426954Y-144140924D01*
X124276721Y-144121146D01*
X124276719Y-144121146D01*
X124126485Y-144140924D01*
X124126483Y-144140925D01*
X123986490Y-144198912D01*
X123986487Y-144198913D01*
X123986487Y-144198914D01*
X123866269Y-144291161D01*
X123811324Y-144362767D01*
X123774020Y-144411382D01*
X123716033Y-144551375D01*
X123716032Y-144551377D01*
X123696254Y-144701611D01*
X103915556Y-144701611D01*
X104083637Y-144676116D01*
X104802777Y-144529805D01*
X105513673Y-144347609D01*
X105513691Y-144347603D01*
X105513700Y-144347601D01*
X105985789Y-144201012D01*
X106214535Y-144129984D01*
X106903600Y-143877481D01*
X107579133Y-143590733D01*
X108239433Y-143270464D01*
X108615766Y-143064000D01*
X113288659Y-143064000D01*
X113307975Y-143260129D01*
X113365188Y-143448733D01*
X113458086Y-143622532D01*
X113458090Y-143622539D01*
X113583116Y-143774883D01*
X113735460Y-143899909D01*
X113735467Y-143899913D01*
X113909266Y-143992811D01*
X113909269Y-143992811D01*
X113909273Y-143992814D01*
X114097868Y-144050024D01*
X114294000Y-144069341D01*
X114490132Y-144050024D01*
X114678727Y-143992814D01*
X114852538Y-143899910D01*
X115004883Y-143774883D01*
X115118042Y-143636999D01*
X142929534Y-143636999D01*
X142929534Y-143637000D01*
X142949312Y-143787234D01*
X142949313Y-143787236D01*
X142997422Y-143903382D01*
X143007302Y-143927233D01*
X143099549Y-144047451D01*
X143219767Y-144139698D01*
X143359764Y-144197687D01*
X143385020Y-144201012D01*
X143509999Y-144217466D01*
X143510000Y-144217466D01*
X143634978Y-144201012D01*
X143704013Y-144211777D01*
X143756269Y-144258157D01*
X143775154Y-144325426D01*
X143765724Y-144371403D01*
X143711314Y-144502760D01*
X143711312Y-144502765D01*
X143691534Y-144652999D01*
X143691534Y-144653000D01*
X143711312Y-144803234D01*
X143711313Y-144803236D01*
X143758571Y-144917328D01*
X143769302Y-144943233D01*
X143861549Y-145063451D01*
X143981767Y-145155698D01*
X144121764Y-145213687D01*
X144196882Y-145223576D01*
X144271999Y-145233466D01*
X144272000Y-145233466D01*
X144272001Y-145233466D01*
X144322078Y-145226873D01*
X144422236Y-145213687D01*
X144562233Y-145155698D01*
X144682451Y-145063451D01*
X144774698Y-144943233D01*
X144832687Y-144803236D01*
X144852466Y-144653000D01*
X144848507Y-144622932D01*
X144836247Y-144529805D01*
X144832687Y-144502764D01*
X144774698Y-144362767D01*
X144682451Y-144242549D01*
X144562233Y-144150302D01*
X144562229Y-144150300D01*
X144422236Y-144092313D01*
X144422234Y-144092312D01*
X144272001Y-144072534D01*
X144271999Y-144072534D01*
X144147021Y-144088987D01*
X144077985Y-144078221D01*
X144025730Y-144031841D01*
X144006845Y-143964572D01*
X144016274Y-143918599D01*
X144070687Y-143787236D01*
X144090466Y-143637000D01*
X144089929Y-143632924D01*
X144070687Y-143486765D01*
X144070687Y-143486764D01*
X144012698Y-143346767D01*
X143920451Y-143226549D01*
X143800233Y-143134302D01*
X143800229Y-143134300D01*
X143660236Y-143076313D01*
X143660234Y-143076312D01*
X143510001Y-143056534D01*
X143509999Y-143056534D01*
X143359765Y-143076312D01*
X143359763Y-143076313D01*
X143219770Y-143134300D01*
X143219767Y-143134301D01*
X143219767Y-143134302D01*
X143181368Y-143163767D01*
X143099549Y-143226549D01*
X143007300Y-143346770D01*
X142949313Y-143486763D01*
X142949312Y-143486765D01*
X142929534Y-143636999D01*
X115118042Y-143636999D01*
X115129910Y-143622538D01*
X115202483Y-143486763D01*
X115222811Y-143448733D01*
X115222811Y-143448732D01*
X115222814Y-143448727D01*
X115280024Y-143260132D01*
X115299341Y-143064000D01*
X115280024Y-142867868D01*
X115222814Y-142679273D01*
X115222811Y-142679269D01*
X115222811Y-142679266D01*
X115145164Y-142534000D01*
X124938659Y-142534000D01*
X124957975Y-142730129D01*
X124957976Y-142730132D01*
X125014810Y-142917489D01*
X125015188Y-142918733D01*
X125108086Y-143092532D01*
X125108090Y-143092539D01*
X125233116Y-143244883D01*
X125385460Y-143369909D01*
X125385467Y-143369913D01*
X125559266Y-143462811D01*
X125559269Y-143462811D01*
X125559273Y-143462814D01*
X125747868Y-143520024D01*
X125944000Y-143539341D01*
X126140132Y-143520024D01*
X126328727Y-143462814D01*
X126502538Y-143369910D01*
X126654883Y-143244883D01*
X126779910Y-143092538D01*
X126872814Y-142918727D01*
X126930024Y-142730132D01*
X126949341Y-142534000D01*
X126930024Y-142337868D01*
X126872814Y-142149273D01*
X126872811Y-142149269D01*
X126872811Y-142149266D01*
X126779913Y-141975467D01*
X126779909Y-141975460D01*
X126654883Y-141823116D01*
X126502539Y-141698090D01*
X126502532Y-141698086D01*
X126328733Y-141605188D01*
X126328727Y-141605186D01*
X126202997Y-141567046D01*
X126140129Y-141547975D01*
X125944000Y-141528659D01*
X125747870Y-141547975D01*
X125559266Y-141605188D01*
X125385467Y-141698086D01*
X125385460Y-141698090D01*
X125233116Y-141823116D01*
X125108090Y-141975460D01*
X125108086Y-141975467D01*
X125015188Y-142149266D01*
X124957975Y-142337870D01*
X124938659Y-142534000D01*
X115145164Y-142534000D01*
X115129913Y-142505467D01*
X115129909Y-142505460D01*
X115004883Y-142353116D01*
X114852539Y-142228090D01*
X114852532Y-142228086D01*
X114678733Y-142135188D01*
X114678727Y-142135186D01*
X114490132Y-142077976D01*
X114490129Y-142077975D01*
X114294000Y-142058659D01*
X114097870Y-142077975D01*
X113909266Y-142135188D01*
X113735467Y-142228086D01*
X113735460Y-142228090D01*
X113583116Y-142353116D01*
X113458090Y-142505460D01*
X113458086Y-142505467D01*
X113365188Y-142679266D01*
X113307975Y-142867870D01*
X113288659Y-143064000D01*
X108615766Y-143064000D01*
X108882838Y-142917479D01*
X109507728Y-142532666D01*
X110112531Y-142116995D01*
X110695723Y-141671512D01*
X111138744Y-141296466D01*
X111255807Y-141197365D01*
X111255812Y-141197359D01*
X111255837Y-141197339D01*
X111791463Y-140695668D01*
X111791472Y-140695658D01*
X111791478Y-140695653D01*
X112092813Y-140383611D01*
X127252254Y-140383611D01*
X127252254Y-140383612D01*
X127272032Y-140533846D01*
X127272033Y-140533848D01*
X127285253Y-140565765D01*
X127330022Y-140673845D01*
X127422269Y-140794063D01*
X127542487Y-140886310D01*
X127682484Y-140944299D01*
X127757602Y-140954188D01*
X127832719Y-140964078D01*
X127832720Y-140964078D01*
X127832721Y-140964078D01*
X127870279Y-140959133D01*
X127982956Y-140944299D01*
X127999359Y-140937504D01*
X128068824Y-140930035D01*
X128131304Y-140961308D01*
X128166958Y-141021396D01*
X128164466Y-141091221D01*
X128161373Y-141099514D01*
X128153968Y-141117392D01*
X128153965Y-141117400D01*
X128134187Y-141267634D01*
X128134187Y-141267635D01*
X128153965Y-141417869D01*
X128153966Y-141417871D01*
X128207857Y-141547976D01*
X128211955Y-141557868D01*
X128304202Y-141678086D01*
X128424420Y-141770333D01*
X128564417Y-141828322D01*
X128639535Y-141838211D01*
X128714652Y-141848101D01*
X128714653Y-141848101D01*
X128714654Y-141848101D01*
X128764731Y-141841508D01*
X128864889Y-141828322D01*
X129004886Y-141770333D01*
X129125104Y-141678086D01*
X129217351Y-141557868D01*
X129275340Y-141417871D01*
X129295119Y-141267635D01*
X129275340Y-141117399D01*
X129217351Y-140977402D01*
X129125104Y-140857184D01*
X129004886Y-140764937D01*
X129004882Y-140764935D01*
X128886740Y-140715999D01*
X142269134Y-140715999D01*
X142269134Y-140716000D01*
X142288912Y-140866234D01*
X142288913Y-140866236D01*
X142334959Y-140977402D01*
X142346902Y-141006233D01*
X142439149Y-141126451D01*
X142559367Y-141218698D01*
X142699364Y-141276687D01*
X142761065Y-141284810D01*
X142824961Y-141313077D01*
X142863432Y-141371401D01*
X142864468Y-141429187D01*
X142866345Y-141429435D01*
X142845505Y-141587728D01*
X142845505Y-141587729D01*
X142865283Y-141737963D01*
X142865284Y-141737965D01*
X142898243Y-141817536D01*
X142923273Y-141877962D01*
X143015520Y-141998180D01*
X143135738Y-142090427D01*
X143275735Y-142148416D01*
X143350853Y-142158305D01*
X143425970Y-142168195D01*
X143425971Y-142168195D01*
X143425972Y-142168195D01*
X143494530Y-142159169D01*
X143576207Y-142148416D01*
X143716204Y-142090427D01*
X143836422Y-141998180D01*
X143928669Y-141877962D01*
X143986658Y-141737965D01*
X144006437Y-141587729D01*
X143986658Y-141437493D01*
X143928669Y-141297496D01*
X143836422Y-141177278D01*
X143716204Y-141085031D01*
X143716200Y-141085029D01*
X143609199Y-141040708D01*
X143576207Y-141027042D01*
X143565444Y-141025625D01*
X143514504Y-141018918D01*
X143450608Y-140990650D01*
X143412137Y-140932325D01*
X143411107Y-140874541D01*
X143409226Y-140874294D01*
X143430066Y-140716000D01*
X143430066Y-140715999D01*
X143410287Y-140565765D01*
X143410287Y-140565764D01*
X143352298Y-140425767D01*
X143260051Y-140305549D01*
X143139833Y-140213302D01*
X143139829Y-140213300D01*
X142999836Y-140155313D01*
X142999834Y-140155312D01*
X142849601Y-140135534D01*
X142849599Y-140135534D01*
X142699365Y-140155312D01*
X142699363Y-140155313D01*
X142559370Y-140213300D01*
X142559367Y-140213301D01*
X142559367Y-140213302D01*
X142533206Y-140233376D01*
X142439149Y-140305549D01*
X142346900Y-140425770D01*
X142288913Y-140565763D01*
X142288912Y-140565765D01*
X142269134Y-140715999D01*
X128886740Y-140715999D01*
X128864889Y-140706948D01*
X128864887Y-140706947D01*
X128714654Y-140687169D01*
X128714652Y-140687169D01*
X128564418Y-140706947D01*
X128564413Y-140706949D01*
X128548011Y-140713743D01*
X128478541Y-140721210D01*
X128416063Y-140689934D01*
X128380412Y-140629844D01*
X128382908Y-140560019D01*
X128385995Y-140551741D01*
X128393407Y-140533848D01*
X128413186Y-140383612D01*
X128393407Y-140233376D01*
X128335418Y-140093379D01*
X128243171Y-139973161D01*
X128122953Y-139880914D01*
X128122949Y-139880912D01*
X127982956Y-139822925D01*
X127982954Y-139822924D01*
X127832721Y-139803146D01*
X127832719Y-139803146D01*
X127682485Y-139822924D01*
X127682483Y-139822925D01*
X127542490Y-139880912D01*
X127542487Y-139880913D01*
X127542487Y-139880914D01*
X127498137Y-139914945D01*
X127422269Y-139973161D01*
X127330020Y-140093382D01*
X127272033Y-140233375D01*
X127272032Y-140233377D01*
X127252254Y-140383611D01*
X112092813Y-140383611D01*
X112168196Y-140305549D01*
X112301253Y-140167764D01*
X112783922Y-139614954D01*
X112989438Y-139354257D01*
X141172745Y-139354257D01*
X141172745Y-139354258D01*
X141192523Y-139504492D01*
X141192524Y-139504494D01*
X141250513Y-139644491D01*
X141342760Y-139764709D01*
X141462978Y-139856956D01*
X141602975Y-139914945D01*
X141678093Y-139924834D01*
X141753210Y-139934724D01*
X141753211Y-139934724D01*
X141753212Y-139934724D01*
X141803289Y-139928131D01*
X141903447Y-139914945D01*
X142043444Y-139856956D01*
X142163662Y-139764709D01*
X142255909Y-139644491D01*
X142313898Y-139504494D01*
X142333677Y-139354258D01*
X142313898Y-139204022D01*
X142255909Y-139064025D01*
X142163662Y-138943807D01*
X142043444Y-138851560D01*
X142043440Y-138851558D01*
X141903447Y-138793571D01*
X141903445Y-138793570D01*
X141753212Y-138773792D01*
X141753210Y-138773792D01*
X141602976Y-138793570D01*
X141602974Y-138793571D01*
X141462981Y-138851558D01*
X141462978Y-138851559D01*
X141462978Y-138851560D01*
X141342760Y-138943807D01*
X141270000Y-139038630D01*
X141250511Y-139064028D01*
X141192524Y-139204021D01*
X141192523Y-139204023D01*
X141172745Y-139354257D01*
X112989438Y-139354257D01*
X113238257Y-139038630D01*
X113619373Y-138501848D01*
X113663095Y-138440268D01*
X113663095Y-138440266D01*
X113663112Y-138440244D01*
X113719577Y-138351611D01*
X129538254Y-138351611D01*
X129538254Y-138351612D01*
X129558032Y-138501846D01*
X129558033Y-138501848D01*
X129616022Y-138641845D01*
X129708269Y-138762063D01*
X129828487Y-138854310D01*
X129968484Y-138912299D01*
X130043602Y-138922188D01*
X130118719Y-138932078D01*
X130118720Y-138932078D01*
X130118721Y-138932078D01*
X130168798Y-138925485D01*
X130268956Y-138912299D01*
X130408953Y-138854310D01*
X130529171Y-138762063D01*
X130621418Y-138641845D01*
X130679407Y-138501848D01*
X130699186Y-138351612D01*
X130679407Y-138201376D01*
X130621418Y-138061379D01*
X130529171Y-137941161D01*
X130408953Y-137848914D01*
X130408949Y-137848912D01*
X130268956Y-137790925D01*
X130268954Y-137790924D01*
X130118721Y-137771146D01*
X130118719Y-137771146D01*
X129968485Y-137790924D01*
X129968483Y-137790925D01*
X129828490Y-137848912D01*
X129828487Y-137848913D01*
X129828487Y-137848914D01*
X129708269Y-137941161D01*
X129639087Y-138031321D01*
X129616020Y-138061382D01*
X129558033Y-138201375D01*
X129558032Y-138201377D01*
X129538254Y-138351611D01*
X113719577Y-138351611D01*
X114057420Y-137821302D01*
X114317467Y-137363999D01*
X120813534Y-137363999D01*
X120813534Y-137364000D01*
X120833312Y-137514234D01*
X120833313Y-137514236D01*
X120885963Y-137641345D01*
X120891302Y-137654233D01*
X120983549Y-137774451D01*
X121103767Y-137866698D01*
X121243764Y-137924687D01*
X121318882Y-137934576D01*
X121393999Y-137944466D01*
X121394000Y-137944466D01*
X121394001Y-137944466D01*
X121444078Y-137937873D01*
X121544236Y-137924687D01*
X121684233Y-137866698D01*
X121804451Y-137774451D01*
X121896698Y-137654233D01*
X121954687Y-137514236D01*
X121974466Y-137364000D01*
X121954687Y-137213764D01*
X121896698Y-137073767D01*
X121804451Y-136953549D01*
X121684233Y-136861302D01*
X121684229Y-136861300D01*
X121544236Y-136803313D01*
X121544234Y-136803312D01*
X121394001Y-136783534D01*
X121393999Y-136783534D01*
X121243765Y-136803312D01*
X121243763Y-136803313D01*
X121103770Y-136861300D01*
X121103767Y-136861301D01*
X121103767Y-136861302D01*
X120983549Y-136953549D01*
X120937159Y-137014006D01*
X120891300Y-137073770D01*
X120833313Y-137213763D01*
X120833312Y-137213765D01*
X120813534Y-137363999D01*
X114317467Y-137363999D01*
X114420187Y-137183361D01*
X114750500Y-136528027D01*
X115047527Y-135856951D01*
X115047533Y-135856934D01*
X115047538Y-135856924D01*
X115310515Y-135171837D01*
X115310516Y-135171833D01*
X115310521Y-135171821D01*
X115491149Y-134619999D01*
X133658534Y-134619999D01*
X133658534Y-134620000D01*
X133678312Y-134770234D01*
X133678313Y-134770236D01*
X133729862Y-134894687D01*
X133736302Y-134910233D01*
X133828549Y-135030451D01*
X133948767Y-135122698D01*
X134088764Y-135180687D01*
X134163882Y-135190576D01*
X134238999Y-135200466D01*
X134239000Y-135200466D01*
X134239001Y-135200466D01*
X134289078Y-135193873D01*
X134389236Y-135180687D01*
X134529233Y-135122698D01*
X134649451Y-135030451D01*
X134741698Y-134910233D01*
X134798791Y-134772399D01*
X147222134Y-134772399D01*
X147222134Y-134772400D01*
X147241912Y-134922634D01*
X147241913Y-134922636D01*
X147296704Y-135054914D01*
X147299902Y-135062633D01*
X147392149Y-135182851D01*
X147440773Y-135220162D01*
X147481974Y-135276588D01*
X147486129Y-135346334D01*
X147479846Y-135365988D01*
X147419714Y-135511160D01*
X147419712Y-135511165D01*
X147399934Y-135661399D01*
X147399934Y-135661400D01*
X147419712Y-135811634D01*
X147419713Y-135811636D01*
X147450494Y-135885949D01*
X147477702Y-135951633D01*
X147569949Y-136071851D01*
X147690167Y-136164098D01*
X147830164Y-136222087D01*
X147934256Y-136235791D01*
X147998151Y-136264056D01*
X148036623Y-136322380D01*
X148041009Y-136342544D01*
X148054712Y-136446634D01*
X148054713Y-136446636D01*
X148096015Y-136546349D01*
X148112702Y-136586633D01*
X148204949Y-136706851D01*
X148325167Y-136799098D01*
X148465164Y-136857087D01*
X148565853Y-136870343D01*
X148629748Y-136898608D01*
X148668220Y-136956932D01*
X148672606Y-136977096D01*
X148689712Y-137107034D01*
X148689713Y-137107036D01*
X148720494Y-137181349D01*
X148747702Y-137247033D01*
X148839949Y-137367251D01*
X148960167Y-137459498D01*
X149100164Y-137517487D01*
X149230104Y-137534594D01*
X149293998Y-137562859D01*
X149332470Y-137621183D01*
X149336856Y-137641345D01*
X149350113Y-137742035D01*
X149350113Y-137742036D01*
X149394383Y-137848914D01*
X149408102Y-137882033D01*
X149500349Y-138002251D01*
X149620567Y-138094498D01*
X149760564Y-138152487D01*
X149835682Y-138162376D01*
X149910799Y-138172266D01*
X149910800Y-138172266D01*
X149910801Y-138172266D01*
X149960878Y-138165673D01*
X150061036Y-138152487D01*
X150201033Y-138094498D01*
X150321251Y-138002251D01*
X150413498Y-137882033D01*
X150471487Y-137742036D01*
X150491266Y-137591800D01*
X150471487Y-137441564D01*
X150413498Y-137301567D01*
X150321251Y-137181349D01*
X150201033Y-137089102D01*
X150201029Y-137089100D01*
X150061036Y-137031113D01*
X150061034Y-137031112D01*
X149931096Y-137014006D01*
X149867199Y-136985739D01*
X149828728Y-136927415D01*
X149824343Y-136907259D01*
X149811087Y-136806564D01*
X149753098Y-136666567D01*
X149660851Y-136546349D01*
X149540633Y-136454102D01*
X149540629Y-136454100D01*
X149400636Y-136396113D01*
X149299945Y-136382856D01*
X149236049Y-136354589D01*
X149197579Y-136296264D01*
X149193194Y-136276110D01*
X149176087Y-136146164D01*
X149118098Y-136006167D01*
X149025851Y-135885949D01*
X148905633Y-135793702D01*
X148905629Y-135793700D01*
X148765636Y-135735713D01*
X148661542Y-135722008D01*
X148597646Y-135693741D01*
X148559176Y-135635416D01*
X148554791Y-135615262D01*
X148541087Y-135511164D01*
X148483098Y-135371167D01*
X148390851Y-135250949D01*
X148342227Y-135213638D01*
X148301025Y-135157210D01*
X148296870Y-135087464D01*
X148303153Y-135067810D01*
X148305296Y-135062634D01*
X148305298Y-135062633D01*
X148363287Y-134922636D01*
X148383066Y-134772400D01*
X148379386Y-134744451D01*
X148363287Y-134622165D01*
X148363287Y-134622164D01*
X148305298Y-134482167D01*
X148213051Y-134361949D01*
X148176626Y-134333999D01*
X154765934Y-134333999D01*
X154765934Y-134334000D01*
X154785712Y-134484234D01*
X154785713Y-134484236D01*
X154842844Y-134622163D01*
X154843702Y-134624233D01*
X154935949Y-134744451D01*
X155056167Y-134836698D01*
X155196164Y-134894687D01*
X155271282Y-134904576D01*
X155346399Y-134914466D01*
X155346400Y-134914466D01*
X155346401Y-134914466D01*
X155396478Y-134907873D01*
X155496636Y-134894687D01*
X155636633Y-134836698D01*
X155756851Y-134744451D01*
X155849098Y-134624233D01*
X155907087Y-134484236D01*
X155926866Y-134334000D01*
X155924794Y-134318265D01*
X155914056Y-134236696D01*
X155907087Y-134183764D01*
X155849098Y-134043767D01*
X155756851Y-133923549D01*
X155636633Y-133831302D01*
X155636629Y-133831300D01*
X155511841Y-133779611D01*
X188466254Y-133779611D01*
X188466254Y-133779612D01*
X188486032Y-133929846D01*
X188486033Y-133929848D01*
X188542201Y-134065450D01*
X188544022Y-134069845D01*
X188636269Y-134190063D01*
X188756487Y-134282310D01*
X188896484Y-134340299D01*
X188971602Y-134350188D01*
X189046719Y-134360078D01*
X189046720Y-134360078D01*
X189046721Y-134360078D01*
X189096798Y-134353485D01*
X189196956Y-134340299D01*
X189336953Y-134282310D01*
X189457171Y-134190063D01*
X189549418Y-134069845D01*
X189607407Y-133929848D01*
X189627186Y-133779612D01*
X189615915Y-133693999D01*
X191183534Y-133693999D01*
X191183534Y-133694000D01*
X191203312Y-133844234D01*
X191203313Y-133844236D01*
X191259931Y-133980925D01*
X191261302Y-133984233D01*
X191353549Y-134104451D01*
X191473767Y-134196698D01*
X191613764Y-134254687D01*
X191688882Y-134264576D01*
X191763999Y-134274466D01*
X191764000Y-134274466D01*
X191764001Y-134274466D01*
X191819798Y-134267120D01*
X191914236Y-134254687D01*
X192054233Y-134196698D01*
X192174451Y-134104451D01*
X192266698Y-133984233D01*
X192324687Y-133844236D01*
X192344466Y-133694000D01*
X192335250Y-133623999D01*
X198488722Y-133623999D01*
X198488722Y-133624000D01*
X198507762Y-133780818D01*
X198556392Y-133909042D01*
X198563780Y-133928523D01*
X198653517Y-134058530D01*
X198771760Y-134163283D01*
X198771762Y-134163284D01*
X198911634Y-134236696D01*
X199065014Y-134274500D01*
X199065015Y-134274500D01*
X199222985Y-134274500D01*
X199376365Y-134236696D01*
X199516240Y-134163283D01*
X199634483Y-134058530D01*
X199724220Y-133928523D01*
X199780237Y-133780818D01*
X199799278Y-133624000D01*
X199780237Y-133467182D01*
X199724220Y-133319477D01*
X199634483Y-133189470D01*
X199516240Y-133084717D01*
X199516238Y-133084716D01*
X199516237Y-133084715D01*
X199376365Y-133011303D01*
X199222986Y-132973500D01*
X199222985Y-132973500D01*
X199065015Y-132973500D01*
X199065014Y-132973500D01*
X198911634Y-133011303D01*
X198771762Y-133084715D01*
X198653516Y-133189471D01*
X198563781Y-133319475D01*
X198563780Y-133319476D01*
X198507762Y-133467181D01*
X198488722Y-133623999D01*
X192335250Y-133623999D01*
X192324687Y-133543764D01*
X192266698Y-133403767D01*
X192174451Y-133283549D01*
X192054233Y-133191302D01*
X192054229Y-133191300D01*
X191914236Y-133133313D01*
X191914234Y-133133312D01*
X191764001Y-133113534D01*
X191763999Y-133113534D01*
X191613765Y-133133312D01*
X191613763Y-133133313D01*
X191473770Y-133191300D01*
X191473767Y-133191301D01*
X191473767Y-133191302D01*
X191353549Y-133283549D01*
X191268395Y-133394524D01*
X191261300Y-133403770D01*
X191203313Y-133543763D01*
X191203312Y-133543765D01*
X191183534Y-133693999D01*
X189615915Y-133693999D01*
X189607407Y-133629376D01*
X189549418Y-133489379D01*
X189457171Y-133369161D01*
X189336953Y-133276914D01*
X189336949Y-133276912D01*
X189196956Y-133218925D01*
X189196954Y-133218924D01*
X189046721Y-133199146D01*
X189046719Y-133199146D01*
X188896485Y-133218924D01*
X188896483Y-133218925D01*
X188756490Y-133276912D01*
X188756487Y-133276913D01*
X188756487Y-133276914D01*
X188636269Y-133369161D01*
X188561055Y-133467182D01*
X188544020Y-133489382D01*
X188486033Y-133629375D01*
X188486032Y-133629377D01*
X188466254Y-133779611D01*
X155511841Y-133779611D01*
X155496636Y-133773313D01*
X155496634Y-133773312D01*
X155346401Y-133753534D01*
X155346399Y-133753534D01*
X155196165Y-133773312D01*
X155196163Y-133773313D01*
X155056170Y-133831300D01*
X155056167Y-133831301D01*
X155056167Y-133831302D01*
X154935949Y-133923549D01*
X154847428Y-134038912D01*
X154843700Y-134043770D01*
X154785713Y-134183763D01*
X154785712Y-134183765D01*
X154765934Y-134333999D01*
X148176626Y-134333999D01*
X148092833Y-134269702D01*
X148092829Y-134269700D01*
X147952836Y-134211713D01*
X147952834Y-134211712D01*
X147802601Y-134191934D01*
X147802599Y-134191934D01*
X147652365Y-134211712D01*
X147652363Y-134211713D01*
X147512370Y-134269700D01*
X147512367Y-134269701D01*
X147512367Y-134269702D01*
X147392149Y-134361949D01*
X147305884Y-134474372D01*
X147299900Y-134482170D01*
X147241913Y-134622163D01*
X147241912Y-134622165D01*
X147222134Y-134772399D01*
X134798791Y-134772399D01*
X134799687Y-134770236D01*
X134819466Y-134620000D01*
X134799687Y-134469764D01*
X134741698Y-134329767D01*
X134649451Y-134209549D01*
X134529233Y-134117302D01*
X134529229Y-134117300D01*
X134389236Y-134059313D01*
X134389234Y-134059312D01*
X134239001Y-134039534D01*
X134238999Y-134039534D01*
X134088765Y-134059312D01*
X134088763Y-134059313D01*
X133948770Y-134117300D01*
X133948767Y-134117301D01*
X133948767Y-134117302D01*
X133828549Y-134209549D01*
X133739049Y-134326188D01*
X133736300Y-134329770D01*
X133678313Y-134469763D01*
X133678312Y-134469765D01*
X133658534Y-134619999D01*
X115491149Y-134619999D01*
X115538820Y-134474363D01*
X115680355Y-133955210D01*
X125847960Y-133955210D01*
X125847960Y-133955211D01*
X125867738Y-134105445D01*
X125867739Y-134105447D01*
X125911755Y-134211712D01*
X125925728Y-134245444D01*
X126017975Y-134365662D01*
X126138193Y-134457909D01*
X126278190Y-134515898D01*
X126353308Y-134525787D01*
X126428425Y-134535677D01*
X126428426Y-134535677D01*
X126428427Y-134535677D01*
X126478504Y-134529084D01*
X126578662Y-134515898D01*
X126718659Y-134457909D01*
X126838877Y-134365662D01*
X126931124Y-134245444D01*
X126989113Y-134105447D01*
X127008892Y-133955211D01*
X127005378Y-133928523D01*
X126994282Y-133844236D01*
X126989113Y-133804975D01*
X126931124Y-133664978D01*
X126838877Y-133544760D01*
X126718659Y-133452513D01*
X126718655Y-133452511D01*
X126578662Y-133394524D01*
X126578660Y-133394523D01*
X126428427Y-133374745D01*
X126428425Y-133374745D01*
X126278191Y-133394523D01*
X126278189Y-133394524D01*
X126138196Y-133452511D01*
X126138193Y-133452512D01*
X126138193Y-133452513D01*
X126017975Y-133544760D01*
X125957173Y-133623999D01*
X125925726Y-133664981D01*
X125867739Y-133804974D01*
X125867738Y-133804976D01*
X125847960Y-133955210D01*
X115680355Y-133955210D01*
X115731849Y-133766331D01*
X115889122Y-133049509D01*
X116010243Y-132325701D01*
X116060149Y-131895999D01*
X119642341Y-131895999D01*
X119642341Y-131896000D01*
X119662936Y-132131403D01*
X119662938Y-132131413D01*
X119724094Y-132359655D01*
X119724096Y-132359659D01*
X119724097Y-132359663D01*
X119736703Y-132386696D01*
X119823965Y-132573830D01*
X119823967Y-132573834D01*
X119880401Y-132654429D01*
X119959505Y-132767401D01*
X120126599Y-132934495D01*
X120182304Y-132973500D01*
X120320165Y-133070032D01*
X120320167Y-133070033D01*
X120320170Y-133070035D01*
X120534337Y-133169903D01*
X120762592Y-133231063D01*
X120950918Y-133247539D01*
X120997999Y-133251659D01*
X120998000Y-133251659D01*
X120998001Y-133251659D01*
X121037234Y-133248226D01*
X121233408Y-133231063D01*
X121461663Y-133169903D01*
X121675830Y-133070035D01*
X121869401Y-132934495D01*
X122036495Y-132767401D01*
X122172035Y-132573830D01*
X122271903Y-132359663D01*
X122333063Y-132131408D01*
X122353659Y-131896000D01*
X122333063Y-131660592D01*
X122271903Y-131432337D01*
X122197388Y-131272541D01*
X127324600Y-131272541D01*
X127324600Y-131272542D01*
X127344378Y-131422776D01*
X127344379Y-131422778D01*
X127402368Y-131562775D01*
X127494615Y-131682993D01*
X127614833Y-131775240D01*
X127754830Y-131833229D01*
X127829948Y-131843118D01*
X127905065Y-131853008D01*
X127905066Y-131853008D01*
X127905067Y-131853008D01*
X127955144Y-131846415D01*
X128055302Y-131833229D01*
X128195299Y-131775240D01*
X128315517Y-131682993D01*
X128407764Y-131562775D01*
X128465753Y-131422778D01*
X128485532Y-131272542D01*
X128484829Y-131267200D01*
X131227059Y-131267200D01*
X131246375Y-131463329D01*
X131303588Y-131651933D01*
X131396486Y-131825732D01*
X131396490Y-131825739D01*
X131521516Y-131978083D01*
X131673860Y-132103109D01*
X131673867Y-132103113D01*
X131847666Y-132196011D01*
X131847669Y-132196011D01*
X131847673Y-132196014D01*
X132036268Y-132253224D01*
X132232400Y-132272541D01*
X132428532Y-132253224D01*
X132617127Y-132196014D01*
X132656921Y-132174744D01*
X132737996Y-132131408D01*
X132790938Y-132103110D01*
X132943283Y-131978083D01*
X133068310Y-131825738D01*
X133095965Y-131773999D01*
X140368722Y-131773999D01*
X140368722Y-131774000D01*
X140387762Y-131930818D01*
X140405688Y-131978083D01*
X140443780Y-132078523D01*
X140533517Y-132208530D01*
X140651760Y-132313283D01*
X140651762Y-132313284D01*
X140791634Y-132386696D01*
X140945014Y-132424500D01*
X140945015Y-132424500D01*
X141102985Y-132424500D01*
X141256365Y-132386696D01*
X141396240Y-132313283D01*
X141514483Y-132208530D01*
X141604220Y-132078523D01*
X141660237Y-131930818D01*
X141665922Y-131883999D01*
X144558722Y-131883999D01*
X144558722Y-131884000D01*
X144577762Y-132040818D01*
X144612117Y-132131403D01*
X144633780Y-132188523D01*
X144723517Y-132318530D01*
X144841760Y-132423283D01*
X144841762Y-132423284D01*
X144981634Y-132496696D01*
X145135014Y-132534500D01*
X145135015Y-132534500D01*
X145292985Y-132534500D01*
X145446365Y-132496696D01*
X145586240Y-132423283D01*
X145704483Y-132318530D01*
X145794220Y-132188523D01*
X145850237Y-132040818D01*
X145869278Y-131884000D01*
X145850237Y-131727182D01*
X145794220Y-131579477D01*
X145704483Y-131449470D01*
X145586240Y-131344717D01*
X145586238Y-131344716D01*
X145586237Y-131344715D01*
X145446365Y-131271303D01*
X145292986Y-131233500D01*
X145292985Y-131233500D01*
X145135015Y-131233500D01*
X145135014Y-131233500D01*
X144981634Y-131271303D01*
X144841762Y-131344715D01*
X144841760Y-131344717D01*
X144742849Y-131432344D01*
X144723516Y-131449471D01*
X144633781Y-131579475D01*
X144633780Y-131579476D01*
X144577762Y-131727181D01*
X144558722Y-131883999D01*
X141665922Y-131883999D01*
X141679278Y-131774000D01*
X141664230Y-131650063D01*
X141660237Y-131617181D01*
X141638992Y-131561164D01*
X141604220Y-131469477D01*
X141514483Y-131339470D01*
X141396240Y-131234717D01*
X141396238Y-131234716D01*
X141396237Y-131234715D01*
X141256365Y-131161303D01*
X141102986Y-131123500D01*
X141102985Y-131123500D01*
X140945015Y-131123500D01*
X140945014Y-131123500D01*
X140791634Y-131161303D01*
X140651762Y-131234715D01*
X140533516Y-131339471D01*
X140443781Y-131469475D01*
X140443780Y-131469476D01*
X140387762Y-131617181D01*
X140368722Y-131773999D01*
X133095965Y-131773999D01*
X133144609Y-131682993D01*
X133161211Y-131651933D01*
X133161211Y-131651932D01*
X133161214Y-131651927D01*
X133218424Y-131463332D01*
X133237741Y-131267200D01*
X133218424Y-131071068D01*
X133161214Y-130882473D01*
X133161211Y-130882469D01*
X133161211Y-130882466D01*
X133068313Y-130708667D01*
X133068309Y-130708660D01*
X132943283Y-130556316D01*
X132790939Y-130431290D01*
X132790932Y-130431286D01*
X132617133Y-130338388D01*
X132617127Y-130338386D01*
X132428532Y-130281176D01*
X132428529Y-130281175D01*
X132232400Y-130261859D01*
X132036270Y-130281175D01*
X131847666Y-130338388D01*
X131673867Y-130431286D01*
X131673860Y-130431290D01*
X131521516Y-130556316D01*
X131396490Y-130708660D01*
X131396486Y-130708667D01*
X131303588Y-130882466D01*
X131246375Y-131071070D01*
X131227059Y-131267200D01*
X128484829Y-131267200D01*
X128465753Y-131122306D01*
X128407764Y-130982309D01*
X128315517Y-130862091D01*
X128195299Y-130769844D01*
X128195295Y-130769842D01*
X128055302Y-130711855D01*
X128055300Y-130711854D01*
X127905067Y-130692076D01*
X127905065Y-130692076D01*
X127754831Y-130711854D01*
X127754829Y-130711855D01*
X127614836Y-130769842D01*
X127614833Y-130769843D01*
X127614833Y-130769844D01*
X127494615Y-130862091D01*
X127405154Y-130978679D01*
X127402366Y-130982312D01*
X127344379Y-131122305D01*
X127344378Y-131122307D01*
X127324600Y-131272541D01*
X122197388Y-131272541D01*
X122172035Y-131218171D01*
X122132217Y-131161304D01*
X122036494Y-131024597D01*
X121869402Y-130857506D01*
X121869395Y-130857501D01*
X121846026Y-130841138D01*
X121783547Y-130797389D01*
X121675834Y-130721967D01*
X121675830Y-130721965D01*
X121611733Y-130692076D01*
X121461663Y-130622097D01*
X121461659Y-130622096D01*
X121461655Y-130622094D01*
X121233413Y-130560938D01*
X121233403Y-130560936D01*
X120998001Y-130540341D01*
X120997999Y-130540341D01*
X120762596Y-130560936D01*
X120762586Y-130560938D01*
X120534344Y-130622094D01*
X120534335Y-130622098D01*
X120320171Y-130721964D01*
X120320169Y-130721965D01*
X120126597Y-130857505D01*
X119959505Y-131024597D01*
X119823965Y-131218169D01*
X119823964Y-131218171D01*
X119724098Y-131432335D01*
X119724094Y-131432344D01*
X119662938Y-131660586D01*
X119662936Y-131660596D01*
X119642341Y-131895999D01*
X116060149Y-131895999D01*
X116094907Y-131596729D01*
X116142902Y-130864428D01*
X116148010Y-130528867D01*
X116148500Y-130524275D01*
X116148500Y-130497721D01*
X116148514Y-130495831D01*
X116148531Y-130494738D01*
X116148899Y-130470609D01*
X116148898Y-130470607D01*
X116149084Y-130458400D01*
X116148500Y-130453676D01*
X116148500Y-129844800D01*
X149565859Y-129844800D01*
X149585175Y-130040929D01*
X149642388Y-130229533D01*
X149735286Y-130403332D01*
X149735290Y-130403339D01*
X149860316Y-130555683D01*
X149999367Y-130669799D01*
X150038701Y-130727544D01*
X150040572Y-130797389D01*
X150019078Y-130841138D01*
X149936022Y-130949378D01*
X149936020Y-130949381D01*
X149878033Y-131089375D01*
X149878032Y-131089377D01*
X149858254Y-131239611D01*
X149858254Y-131239612D01*
X149878032Y-131389846D01*
X149878033Y-131389848D01*
X149911016Y-131469477D01*
X149936022Y-131529845D01*
X150028269Y-131650063D01*
X150148487Y-131742310D01*
X150288484Y-131800299D01*
X150363602Y-131810188D01*
X150438719Y-131820078D01*
X150438720Y-131820078D01*
X150438721Y-131820078D01*
X150488798Y-131813485D01*
X150588956Y-131800299D01*
X150728953Y-131742310D01*
X150849171Y-131650063D01*
X150941418Y-131529845D01*
X150999407Y-131389848D01*
X151019186Y-131239612D01*
X150999407Y-131089376D01*
X150941418Y-130949379D01*
X150938967Y-130946185D01*
X150937737Y-130943005D01*
X150937356Y-130942344D01*
X150937459Y-130942284D01*
X150913772Y-130881019D01*
X150927809Y-130812574D01*
X150976621Y-130762582D01*
X150978814Y-130761380D01*
X151129738Y-130680710D01*
X151282083Y-130555683D01*
X151407110Y-130403338D01*
X151500014Y-130229527D01*
X151557224Y-130040932D01*
X151576541Y-129844800D01*
X151557224Y-129648668D01*
X151500014Y-129460073D01*
X151500011Y-129460069D01*
X151500011Y-129460066D01*
X151407113Y-129286267D01*
X151407109Y-129286260D01*
X151282083Y-129133916D01*
X151129739Y-129008890D01*
X151129732Y-129008886D01*
X150955933Y-128915988D01*
X150955927Y-128915986D01*
X150767332Y-128858776D01*
X150767329Y-128858775D01*
X150571200Y-128839459D01*
X150375070Y-128858775D01*
X150186466Y-128915988D01*
X150012667Y-129008886D01*
X150012660Y-129008890D01*
X149860316Y-129133916D01*
X149735290Y-129286260D01*
X149735286Y-129286267D01*
X149642388Y-129460066D01*
X149585175Y-129648670D01*
X149565859Y-129844800D01*
X116148500Y-129844800D01*
X116148500Y-128955799D01*
X148060334Y-128955799D01*
X148060334Y-128955800D01*
X148080112Y-129106034D01*
X148080113Y-129106036D01*
X148138102Y-129246033D01*
X148230349Y-129366251D01*
X148350567Y-129458498D01*
X148490564Y-129516487D01*
X148565682Y-129526376D01*
X148640799Y-129536266D01*
X148640800Y-129536266D01*
X148640801Y-129536266D01*
X148690878Y-129529673D01*
X148791036Y-129516487D01*
X148931033Y-129458498D01*
X149051251Y-129366251D01*
X149143498Y-129246033D01*
X149201487Y-129106036D01*
X149221266Y-128955800D01*
X149201487Y-128805564D01*
X149143498Y-128665567D01*
X149051251Y-128545349D01*
X148931033Y-128453102D01*
X148931029Y-128453100D01*
X148791036Y-128395113D01*
X148791034Y-128395112D01*
X148640801Y-128375334D01*
X148640799Y-128375334D01*
X148490565Y-128395112D01*
X148490563Y-128395113D01*
X148350570Y-128453100D01*
X148230349Y-128545349D01*
X148138100Y-128665570D01*
X148080113Y-128805563D01*
X148080112Y-128805565D01*
X148060334Y-128955799D01*
X116148500Y-128955799D01*
X116148500Y-127683611D01*
X128014254Y-127683611D01*
X128014254Y-127683612D01*
X128034032Y-127833846D01*
X128034033Y-127833848D01*
X128092022Y-127973845D01*
X128184269Y-128094063D01*
X128304487Y-128186310D01*
X128444484Y-128244299D01*
X128519602Y-128254188D01*
X128594719Y-128264078D01*
X128594720Y-128264078D01*
X128594721Y-128264078D01*
X128644798Y-128257485D01*
X128744956Y-128244299D01*
X128884953Y-128186310D01*
X129005171Y-128094063D01*
X129097418Y-127973845D01*
X129155407Y-127833848D01*
X129158178Y-127812800D01*
X131023859Y-127812800D01*
X131043175Y-128008929D01*
X131043176Y-128008932D01*
X131096983Y-128186310D01*
X131100388Y-128197533D01*
X131193286Y-128371332D01*
X131193290Y-128371339D01*
X131318316Y-128523683D01*
X131470660Y-128648709D01*
X131470667Y-128648713D01*
X131644466Y-128741611D01*
X131644469Y-128741611D01*
X131644473Y-128741614D01*
X131833068Y-128798824D01*
X132029200Y-128818141D01*
X132225332Y-128798824D01*
X132413927Y-128741614D01*
X132587738Y-128648710D01*
X132740083Y-128523683D01*
X132865110Y-128371338D01*
X132958014Y-128197527D01*
X133015224Y-128008932D01*
X133034541Y-127812800D01*
X133015224Y-127616668D01*
X132958014Y-127428073D01*
X132958011Y-127428069D01*
X132958011Y-127428066D01*
X132865113Y-127254267D01*
X132865109Y-127254260D01*
X132800563Y-127175611D01*
X156970254Y-127175611D01*
X156970254Y-127175612D01*
X156990032Y-127325846D01*
X156990033Y-127325848D01*
X157018006Y-127393382D01*
X157048022Y-127465845D01*
X157140269Y-127586063D01*
X157260487Y-127678310D01*
X157400484Y-127736299D01*
X157475602Y-127746188D01*
X157550719Y-127756078D01*
X157550720Y-127756078D01*
X157550721Y-127756078D01*
X157600798Y-127749485D01*
X157700956Y-127736299D01*
X157840953Y-127678310D01*
X157961171Y-127586063D01*
X158053418Y-127465845D01*
X158111407Y-127325848D01*
X158131186Y-127175612D01*
X158124249Y-127122924D01*
X158111407Y-127025377D01*
X158111407Y-127025376D01*
X158053418Y-126885379D01*
X157961171Y-126765161D01*
X157840953Y-126672914D01*
X157840949Y-126672912D01*
X157700956Y-126614925D01*
X157700954Y-126614924D01*
X157550721Y-126595146D01*
X157550719Y-126595146D01*
X157400485Y-126614924D01*
X157400483Y-126614925D01*
X157260490Y-126672912D01*
X157260487Y-126672913D01*
X157260487Y-126672914D01*
X157140269Y-126765161D01*
X157049090Y-126883988D01*
X157048020Y-126885382D01*
X156990033Y-127025375D01*
X156990032Y-127025377D01*
X156970254Y-127175611D01*
X132800563Y-127175611D01*
X132740083Y-127101916D01*
X132587739Y-126976890D01*
X132587732Y-126976886D01*
X132413933Y-126883988D01*
X132413927Y-126883986D01*
X132225332Y-126826776D01*
X132225329Y-126826775D01*
X132029200Y-126807459D01*
X131833070Y-126826775D01*
X131644466Y-126883988D01*
X131470667Y-126976886D01*
X131470660Y-126976890D01*
X131318316Y-127101916D01*
X131193290Y-127254260D01*
X131193286Y-127254267D01*
X131100388Y-127428066D01*
X131043175Y-127616670D01*
X131023859Y-127812800D01*
X129158178Y-127812800D01*
X129175186Y-127683612D01*
X129155407Y-127533376D01*
X129097418Y-127393379D01*
X129005171Y-127273161D01*
X128884953Y-127180914D01*
X128884949Y-127180912D01*
X128744956Y-127122925D01*
X128744954Y-127122924D01*
X128594721Y-127103146D01*
X128594719Y-127103146D01*
X128444485Y-127122924D01*
X128444483Y-127122925D01*
X128304490Y-127180912D01*
X128184269Y-127273161D01*
X128092020Y-127393382D01*
X128034033Y-127533375D01*
X128034032Y-127533377D01*
X128014254Y-127683611D01*
X116148500Y-127683611D01*
X116148500Y-125152362D01*
X123048763Y-125152362D01*
X123048763Y-125152363D01*
X123068541Y-125302597D01*
X123068542Y-125302599D01*
X123099191Y-125376593D01*
X123126531Y-125442596D01*
X123218778Y-125562814D01*
X123338996Y-125655061D01*
X123478993Y-125713050D01*
X123554111Y-125722939D01*
X123629228Y-125732829D01*
X123629229Y-125732829D01*
X123629230Y-125732829D01*
X123679307Y-125726236D01*
X123779465Y-125713050D01*
X123919462Y-125655061D01*
X124039680Y-125562814D01*
X124131927Y-125442596D01*
X124189916Y-125302599D01*
X124209695Y-125152363D01*
X124189916Y-125002127D01*
X124131927Y-124862130D01*
X124039680Y-124741912D01*
X123919462Y-124649665D01*
X123919458Y-124649663D01*
X123779465Y-124591676D01*
X123779463Y-124591675D01*
X123629230Y-124571897D01*
X123629228Y-124571897D01*
X123478994Y-124591675D01*
X123478992Y-124591676D01*
X123338999Y-124649663D01*
X123338996Y-124649664D01*
X123338996Y-124649665D01*
X123218778Y-124741912D01*
X123166861Y-124809572D01*
X123126529Y-124862133D01*
X123068542Y-125002126D01*
X123068541Y-125002128D01*
X123048763Y-125152362D01*
X116148500Y-125152362D01*
X116148500Y-123395696D01*
X125146406Y-123395696D01*
X125146406Y-123395697D01*
X125166184Y-123545931D01*
X125166185Y-123545933D01*
X125212610Y-123658014D01*
X125224174Y-123685930D01*
X125316421Y-123806148D01*
X125436639Y-123898395D01*
X125576636Y-123956384D01*
X125651754Y-123966273D01*
X125726871Y-123976163D01*
X125726872Y-123976163D01*
X125726873Y-123976163D01*
X125776950Y-123969570D01*
X125877108Y-123956384D01*
X126017105Y-123898395D01*
X126137323Y-123806148D01*
X126229570Y-123685930D01*
X126283391Y-123555995D01*
X141112592Y-123555995D01*
X141112592Y-123556004D01*
X141132196Y-123817620D01*
X141132197Y-123817625D01*
X141190576Y-124073402D01*
X141190578Y-124073411D01*
X141190580Y-124073416D01*
X141286432Y-124317643D01*
X141417614Y-124544857D01*
X141532005Y-124688299D01*
X141581198Y-124749985D01*
X141729674Y-124887749D01*
X141773521Y-124928433D01*
X141990296Y-125076228D01*
X141990301Y-125076230D01*
X141990302Y-125076231D01*
X141990303Y-125076232D01*
X142115843Y-125136688D01*
X142226673Y-125190061D01*
X142226674Y-125190061D01*
X142226677Y-125190063D01*
X142477385Y-125267396D01*
X142736818Y-125306500D01*
X142999182Y-125306500D01*
X143054254Y-125298199D01*
X151362334Y-125298199D01*
X151362334Y-125298200D01*
X151382112Y-125448434D01*
X151382113Y-125448436D01*
X151436745Y-125580330D01*
X151440102Y-125588433D01*
X151532349Y-125708651D01*
X151652567Y-125800898D01*
X151792564Y-125858887D01*
X151867682Y-125868776D01*
X151942799Y-125878666D01*
X151942800Y-125878666D01*
X151942801Y-125878666D01*
X151992878Y-125872073D01*
X152093036Y-125858887D01*
X152233033Y-125800898D01*
X152353251Y-125708651D01*
X152445498Y-125588433D01*
X152503487Y-125448436D01*
X152523266Y-125298200D01*
X152518553Y-125262405D01*
X152503487Y-125147965D01*
X152503487Y-125147964D01*
X152502590Y-125145799D01*
X155097522Y-125145799D01*
X155097522Y-125145800D01*
X155116562Y-125302618D01*
X155171864Y-125448434D01*
X155172580Y-125450323D01*
X155262317Y-125580330D01*
X155380560Y-125685083D01*
X155380562Y-125685084D01*
X155520434Y-125758496D01*
X155673814Y-125796300D01*
X155673815Y-125796300D01*
X155831785Y-125796300D01*
X155985165Y-125758496D01*
X156125040Y-125685083D01*
X156243283Y-125580330D01*
X156333020Y-125450323D01*
X156389037Y-125302618D01*
X156408078Y-125145800D01*
X156401457Y-125091266D01*
X156389037Y-124988981D01*
X156351351Y-124889612D01*
X156351351Y-124889611D01*
X168400254Y-124889611D01*
X168400254Y-124889612D01*
X168420032Y-125039846D01*
X168420033Y-125039848D01*
X168466638Y-125152363D01*
X168478022Y-125179845D01*
X168570269Y-125300063D01*
X168690487Y-125392310D01*
X168830484Y-125450299D01*
X168905602Y-125460188D01*
X168980719Y-125470078D01*
X168980720Y-125470078D01*
X168980721Y-125470078D01*
X169030798Y-125463485D01*
X169130956Y-125450299D01*
X169270953Y-125392310D01*
X169391171Y-125300063D01*
X169483418Y-125179845D01*
X169541407Y-125039848D01*
X169561186Y-124889612D01*
X169558449Y-124868826D01*
X169551296Y-124814494D01*
X169541407Y-124739376D01*
X169483418Y-124599379D01*
X169391171Y-124479161D01*
X169270953Y-124386914D01*
X169270949Y-124386912D01*
X169233142Y-124371252D01*
X169919318Y-124371252D01*
X169938634Y-124567381D01*
X169950505Y-124606515D01*
X169990243Y-124737513D01*
X169995847Y-124755985D01*
X170088745Y-124929784D01*
X170088749Y-124929791D01*
X170213775Y-125082135D01*
X170366119Y-125207161D01*
X170366126Y-125207165D01*
X170539925Y-125300063D01*
X170539928Y-125300063D01*
X170539932Y-125300066D01*
X170728527Y-125357276D01*
X170924659Y-125376593D01*
X171120791Y-125357276D01*
X171309386Y-125300066D01*
X171309394Y-125300062D01*
X171483191Y-125207165D01*
X171483197Y-125207162D01*
X171635542Y-125082135D01*
X171760569Y-124929790D01*
X171829393Y-124801029D01*
X171853470Y-124755985D01*
X171853470Y-124755984D01*
X171853473Y-124755979D01*
X171910683Y-124567384D01*
X171916256Y-124510799D01*
X177270334Y-124510799D01*
X177270334Y-124510800D01*
X177290112Y-124661034D01*
X177290113Y-124661036D01*
X177322562Y-124739376D01*
X177348102Y-124801033D01*
X177440349Y-124921251D01*
X177560567Y-125013498D01*
X177700564Y-125071487D01*
X177736606Y-125076232D01*
X177850799Y-125091266D01*
X177850800Y-125091266D01*
X177850801Y-125091266D01*
X177900878Y-125084673D01*
X178001036Y-125071487D01*
X178141033Y-125013498D01*
X178261251Y-124921251D01*
X178285529Y-124889611D01*
X184656254Y-124889611D01*
X184656254Y-124889612D01*
X184676032Y-125039846D01*
X184676033Y-125039848D01*
X184722638Y-125152363D01*
X184734022Y-125179845D01*
X184826269Y-125300063D01*
X184946487Y-125392310D01*
X185086484Y-125450299D01*
X185161602Y-125460188D01*
X185236719Y-125470078D01*
X185236720Y-125470078D01*
X185236721Y-125470078D01*
X185286798Y-125463485D01*
X185386956Y-125450299D01*
X185526953Y-125392310D01*
X185647171Y-125300063D01*
X185739418Y-125179845D01*
X185797407Y-125039848D01*
X185817186Y-124889612D01*
X185814449Y-124868826D01*
X185807296Y-124814494D01*
X185797407Y-124739376D01*
X185739418Y-124599379D01*
X185647171Y-124479161D01*
X185526953Y-124386914D01*
X185526949Y-124386912D01*
X185386956Y-124328925D01*
X185386954Y-124328924D01*
X185236721Y-124309146D01*
X185236719Y-124309146D01*
X185086485Y-124328924D01*
X185086483Y-124328925D01*
X184946490Y-124386912D01*
X184946487Y-124386913D01*
X184946487Y-124386914D01*
X184826269Y-124479161D01*
X184775859Y-124544857D01*
X184734020Y-124599382D01*
X184676033Y-124739375D01*
X184676032Y-124739377D01*
X184656254Y-124889611D01*
X178285529Y-124889611D01*
X178353498Y-124801033D01*
X178411487Y-124661036D01*
X178431266Y-124510800D01*
X178411487Y-124360564D01*
X178353498Y-124220567D01*
X178282170Y-124127611D01*
X189228254Y-124127611D01*
X189228254Y-124127612D01*
X189248032Y-124277846D01*
X189248033Y-124277848D01*
X189306022Y-124417845D01*
X189398269Y-124538063D01*
X189518487Y-124630310D01*
X189658484Y-124688299D01*
X189733602Y-124698188D01*
X189808719Y-124708078D01*
X189808720Y-124708078D01*
X189808721Y-124708078D01*
X189858798Y-124701485D01*
X189958956Y-124688299D01*
X190098953Y-124630310D01*
X190219171Y-124538063D01*
X190311418Y-124417845D01*
X190369407Y-124277848D01*
X190389186Y-124127612D01*
X190369407Y-123977376D01*
X190311418Y-123837379D01*
X190219171Y-123717161D01*
X190098953Y-123624914D01*
X190098949Y-123624912D01*
X189958956Y-123566925D01*
X189958954Y-123566924D01*
X189808721Y-123547146D01*
X189808719Y-123547146D01*
X189658485Y-123566924D01*
X189658483Y-123566925D01*
X189518490Y-123624912D01*
X189518487Y-123624913D01*
X189518487Y-123624914D01*
X189398269Y-123717161D01*
X189308089Y-123834686D01*
X189306020Y-123837382D01*
X189248033Y-123977375D01*
X189248032Y-123977377D01*
X189228254Y-124127611D01*
X178282170Y-124127611D01*
X178261251Y-124100349D01*
X178141033Y-124008102D01*
X178141029Y-124008100D01*
X178001036Y-123950113D01*
X178001034Y-123950112D01*
X177850801Y-123930334D01*
X177850799Y-123930334D01*
X177700565Y-123950112D01*
X177700563Y-123950113D01*
X177560570Y-124008100D01*
X177560567Y-124008101D01*
X177560567Y-124008102D01*
X177440349Y-124100349D01*
X177382974Y-124175122D01*
X177348100Y-124220570D01*
X177290113Y-124360563D01*
X177290112Y-124360565D01*
X177270334Y-124510799D01*
X171916256Y-124510799D01*
X171930000Y-124371252D01*
X171910683Y-124175120D01*
X171853473Y-123986525D01*
X171853470Y-123986521D01*
X171853470Y-123986518D01*
X171760572Y-123812719D01*
X171760568Y-123812712D01*
X171635542Y-123660368D01*
X171483198Y-123535342D01*
X171483191Y-123535338D01*
X171309392Y-123442440D01*
X171309386Y-123442438D01*
X171183656Y-123404298D01*
X171120788Y-123385227D01*
X170924659Y-123365911D01*
X170728529Y-123385227D01*
X170539925Y-123442440D01*
X170366126Y-123535338D01*
X170366119Y-123535342D01*
X170213775Y-123660368D01*
X170088749Y-123812712D01*
X170088745Y-123812719D01*
X169995847Y-123986518D01*
X169938634Y-124175122D01*
X169919318Y-124371252D01*
X169233142Y-124371252D01*
X169130956Y-124328925D01*
X169130954Y-124328924D01*
X168980721Y-124309146D01*
X168980719Y-124309146D01*
X168830485Y-124328924D01*
X168830483Y-124328925D01*
X168690490Y-124386912D01*
X168690487Y-124386913D01*
X168690487Y-124386914D01*
X168570269Y-124479161D01*
X168519859Y-124544857D01*
X168478020Y-124599382D01*
X168420033Y-124739375D01*
X168420032Y-124739377D01*
X168400254Y-124889611D01*
X156351351Y-124889611D01*
X156333020Y-124841277D01*
X156243283Y-124711270D01*
X156125040Y-124606517D01*
X156125038Y-124606516D01*
X156125037Y-124606515D01*
X155985165Y-124533103D01*
X155831786Y-124495300D01*
X155831785Y-124495300D01*
X155673815Y-124495300D01*
X155673814Y-124495300D01*
X155520434Y-124533103D01*
X155380562Y-124606515D01*
X155262316Y-124711271D01*
X155172581Y-124841275D01*
X155172580Y-124841276D01*
X155116562Y-124988981D01*
X155097522Y-125145799D01*
X152502590Y-125145799D01*
X152445498Y-125007967D01*
X152353251Y-124887749D01*
X152233033Y-124795502D01*
X152233029Y-124795500D01*
X152093036Y-124737513D01*
X152093034Y-124737512D01*
X151942801Y-124717734D01*
X151942799Y-124717734D01*
X151792565Y-124737512D01*
X151792563Y-124737513D01*
X151652570Y-124795500D01*
X151652567Y-124795501D01*
X151652567Y-124795502D01*
X151532349Y-124887749D01*
X151444583Y-125002128D01*
X151440100Y-125007970D01*
X151382113Y-125147963D01*
X151382112Y-125147965D01*
X151362334Y-125298199D01*
X143054254Y-125298199D01*
X143258615Y-125267396D01*
X143509323Y-125190063D01*
X143745704Y-125076228D01*
X143962479Y-124928433D01*
X144154805Y-124749981D01*
X144318386Y-124544857D01*
X144449568Y-124317643D01*
X144545420Y-124073416D01*
X144603802Y-123817630D01*
X144604170Y-123812719D01*
X144623408Y-123556004D01*
X144623408Y-123555995D01*
X144603803Y-123294379D01*
X144603802Y-123294374D01*
X144603802Y-123294370D01*
X144550993Y-123062999D01*
X162812254Y-123062999D01*
X162812254Y-123063000D01*
X162832032Y-123213234D01*
X162832033Y-123213236D01*
X162880142Y-123329382D01*
X162890022Y-123353233D01*
X162982269Y-123473451D01*
X163102487Y-123565698D01*
X163242484Y-123623687D01*
X163317602Y-123633576D01*
X163392719Y-123643466D01*
X163392720Y-123643466D01*
X163392721Y-123643466D01*
X163442798Y-123636873D01*
X163542956Y-123623687D01*
X163552796Y-123619611D01*
X166114254Y-123619611D01*
X166114254Y-123619612D01*
X166134032Y-123769846D01*
X166134033Y-123769848D01*
X166187279Y-123898396D01*
X166192022Y-123909845D01*
X166284269Y-124030063D01*
X166404487Y-124122310D01*
X166544484Y-124180299D01*
X166619602Y-124190188D01*
X166694719Y-124200078D01*
X166694720Y-124200078D01*
X166694721Y-124200078D01*
X166744798Y-124193485D01*
X166844956Y-124180299D01*
X166984953Y-124122310D01*
X167105171Y-124030063D01*
X167197418Y-123909845D01*
X167255407Y-123769848D01*
X167275186Y-123619612D01*
X167268249Y-123566924D01*
X167264091Y-123535338D01*
X167255407Y-123469376D01*
X167197418Y-123329379D01*
X167139577Y-123253999D01*
X173498722Y-123253999D01*
X173498722Y-123254000D01*
X173517762Y-123410818D01*
X173569004Y-123545931D01*
X173573780Y-123558523D01*
X173663517Y-123688530D01*
X173781760Y-123793283D01*
X173781762Y-123793284D01*
X173921634Y-123866696D01*
X174075014Y-123904500D01*
X174075015Y-123904500D01*
X174232985Y-123904500D01*
X174386365Y-123866696D01*
X174479851Y-123817630D01*
X174526240Y-123793283D01*
X174644483Y-123688530D01*
X174734220Y-123558523D01*
X174790237Y-123410818D01*
X174809278Y-123254000D01*
X174808945Y-123251253D01*
X174790237Y-123097181D01*
X174747785Y-122985246D01*
X174734220Y-122949477D01*
X174644483Y-122819470D01*
X174575322Y-122758199D01*
X177981534Y-122758199D01*
X177981534Y-122758200D01*
X178001312Y-122908434D01*
X178001313Y-122908436D01*
X178055227Y-123038597D01*
X178059302Y-123048433D01*
X178151549Y-123168651D01*
X178271767Y-123260898D01*
X178411764Y-123318887D01*
X178486882Y-123328776D01*
X178561999Y-123338666D01*
X178562000Y-123338666D01*
X178562001Y-123338666D01*
X178612078Y-123332073D01*
X178712236Y-123318887D01*
X178820605Y-123273999D01*
X191633534Y-123273999D01*
X191633534Y-123274000D01*
X191653312Y-123424234D01*
X191653313Y-123424236D01*
X191708936Y-123558523D01*
X191711302Y-123564233D01*
X191803549Y-123684451D01*
X191923767Y-123776698D01*
X192063764Y-123834687D01*
X192084212Y-123837379D01*
X192213999Y-123854466D01*
X192214000Y-123854466D01*
X192214001Y-123854466D01*
X192264078Y-123847873D01*
X192364236Y-123834687D01*
X192504233Y-123776698D01*
X192624451Y-123684451D01*
X192716698Y-123564233D01*
X192774687Y-123424236D01*
X192794466Y-123274000D01*
X192774687Y-123123764D01*
X192716698Y-122983767D01*
X192624451Y-122863549D01*
X192504233Y-122771302D01*
X192504229Y-122771300D01*
X192364236Y-122713313D01*
X192364234Y-122713312D01*
X192214001Y-122693534D01*
X192213999Y-122693534D01*
X192063765Y-122713312D01*
X192063763Y-122713313D01*
X191923770Y-122771300D01*
X191923767Y-122771301D01*
X191923767Y-122771302D01*
X191803549Y-122863549D01*
X191737616Y-122949475D01*
X191711300Y-122983770D01*
X191653313Y-123123763D01*
X191653312Y-123123765D01*
X191633534Y-123273999D01*
X178820605Y-123273999D01*
X178852233Y-123260898D01*
X178972451Y-123168651D01*
X179064698Y-123048433D01*
X179122687Y-122908436D01*
X179142466Y-122758200D01*
X179141535Y-122751132D01*
X179122687Y-122607965D01*
X179122687Y-122607964D01*
X179100748Y-122555000D01*
X193431659Y-122555000D01*
X193450975Y-122751129D01*
X193508188Y-122939733D01*
X193601086Y-123113532D01*
X193601090Y-123113539D01*
X193726116Y-123265883D01*
X193878460Y-123390909D01*
X193878467Y-123390913D01*
X194052266Y-123483811D01*
X194052269Y-123483811D01*
X194052273Y-123483814D01*
X194240868Y-123541024D01*
X194437000Y-123560341D01*
X194633132Y-123541024D01*
X194821727Y-123483814D01*
X194848741Y-123469375D01*
X194995532Y-123390913D01*
X194995538Y-123390910D01*
X195147883Y-123265883D01*
X195272910Y-123113538D01*
X195365814Y-122939727D01*
X195423024Y-122751132D01*
X195442341Y-122555000D01*
X195423024Y-122358868D01*
X195365814Y-122170273D01*
X195365811Y-122170269D01*
X195365811Y-122170266D01*
X195272913Y-121996467D01*
X195272909Y-121996460D01*
X195147883Y-121844116D01*
X194995539Y-121719090D01*
X194995532Y-121719086D01*
X194821733Y-121626188D01*
X194821727Y-121626186D01*
X194633132Y-121568976D01*
X194633129Y-121568975D01*
X194437000Y-121549659D01*
X194240870Y-121568975D01*
X194052266Y-121626188D01*
X193878467Y-121719086D01*
X193878460Y-121719090D01*
X193726116Y-121844116D01*
X193601090Y-121996460D01*
X193601086Y-121996467D01*
X193508188Y-122170266D01*
X193450975Y-122358870D01*
X193431659Y-122555000D01*
X179100748Y-122555000D01*
X179064698Y-122467967D01*
X178972451Y-122347749D01*
X178852233Y-122255502D01*
X178852229Y-122255500D01*
X178712236Y-122197513D01*
X178712234Y-122197512D01*
X178562001Y-122177734D01*
X178561999Y-122177734D01*
X178411765Y-122197512D01*
X178411763Y-122197513D01*
X178271770Y-122255500D01*
X178271767Y-122255501D01*
X178271767Y-122255502D01*
X178151549Y-122347749D01*
X178070498Y-122453377D01*
X178059300Y-122467970D01*
X178001313Y-122607963D01*
X178001312Y-122607965D01*
X177981534Y-122758199D01*
X174575322Y-122758199D01*
X174526240Y-122714717D01*
X174526238Y-122714716D01*
X174526237Y-122714715D01*
X174386365Y-122641303D01*
X174232986Y-122603500D01*
X174232985Y-122603500D01*
X174075015Y-122603500D01*
X174075014Y-122603500D01*
X173921634Y-122641303D01*
X173781762Y-122714715D01*
X173663516Y-122819471D01*
X173573781Y-122949475D01*
X173573780Y-122949476D01*
X173517762Y-123097181D01*
X173498722Y-123253999D01*
X167139577Y-123253999D01*
X167105171Y-123209161D01*
X166984953Y-123116914D01*
X166984949Y-123116912D01*
X166844956Y-123058925D01*
X166844954Y-123058924D01*
X166694721Y-123039146D01*
X166694719Y-123039146D01*
X166544485Y-123058924D01*
X166544483Y-123058925D01*
X166404490Y-123116912D01*
X166404487Y-123116913D01*
X166404487Y-123116914D01*
X166284269Y-123209161D01*
X166218883Y-123294374D01*
X166192020Y-123329382D01*
X166134033Y-123469375D01*
X166134032Y-123469377D01*
X166114254Y-123619611D01*
X163552796Y-123619611D01*
X163682953Y-123565698D01*
X163803171Y-123473451D01*
X163895418Y-123353233D01*
X163953407Y-123213236D01*
X163973186Y-123063000D01*
X163972649Y-123058924D01*
X163958240Y-122949475D01*
X163953407Y-122912764D01*
X163895418Y-122772767D01*
X163803171Y-122652549D01*
X163682953Y-122560302D01*
X163682949Y-122560300D01*
X163542956Y-122502313D01*
X163542954Y-122502312D01*
X163392721Y-122482534D01*
X163392719Y-122482534D01*
X163242485Y-122502312D01*
X163242483Y-122502313D01*
X163102490Y-122560300D01*
X163102487Y-122560301D01*
X163102487Y-122560302D01*
X162982269Y-122652549D01*
X162901201Y-122758199D01*
X162890020Y-122772770D01*
X162832033Y-122912763D01*
X162832032Y-122912765D01*
X162812254Y-123062999D01*
X144550993Y-123062999D01*
X144545420Y-123038584D01*
X144449568Y-122794357D01*
X144318386Y-122567143D01*
X144154805Y-122362019D01*
X144154804Y-122362018D01*
X144154801Y-122362014D01*
X143962479Y-122183567D01*
X143886611Y-122131841D01*
X143745704Y-122035772D01*
X143745700Y-122035770D01*
X143745697Y-122035768D01*
X143745696Y-122035767D01*
X143509325Y-121921938D01*
X143509327Y-121921938D01*
X143258623Y-121844606D01*
X143258619Y-121844605D01*
X143258615Y-121844604D01*
X143238758Y-121841611D01*
X166876254Y-121841611D01*
X166876254Y-121841612D01*
X166896032Y-121991846D01*
X166896033Y-121991848D01*
X166954022Y-122131845D01*
X167046269Y-122252063D01*
X167166487Y-122344310D01*
X167306484Y-122402299D01*
X167381602Y-122412188D01*
X167456719Y-122422078D01*
X167456720Y-122422078D01*
X167505559Y-122415648D01*
X167574593Y-122426413D01*
X167626849Y-122472793D01*
X167645735Y-122540062D01*
X167644683Y-122554771D01*
X167638254Y-122603609D01*
X167638254Y-122603612D01*
X167658032Y-122753846D01*
X167658033Y-122753848D01*
X167715671Y-122892999D01*
X167716022Y-122893845D01*
X167808269Y-123014063D01*
X167928487Y-123106310D01*
X168068484Y-123164299D01*
X168101541Y-123168651D01*
X168218719Y-123184078D01*
X168218720Y-123184078D01*
X168218721Y-123184078D01*
X168268798Y-123177485D01*
X168368956Y-123164299D01*
X168508953Y-123106310D01*
X168629171Y-123014063D01*
X168721418Y-122893845D01*
X168779407Y-122753848D01*
X168799186Y-122603612D01*
X168779407Y-122453376D01*
X168721418Y-122313379D01*
X168629171Y-122193161D01*
X168508953Y-122100914D01*
X168508949Y-122100912D01*
X168368956Y-122042925D01*
X168368954Y-122042924D01*
X168218721Y-122023146D01*
X168218717Y-122023146D01*
X168169879Y-122029575D01*
X168100843Y-122018809D01*
X168048588Y-121972428D01*
X168029704Y-121905159D01*
X168030756Y-121890450D01*
X168037186Y-121841611D01*
X188720254Y-121841611D01*
X188720254Y-121841612D01*
X188740032Y-121991846D01*
X188740033Y-121991848D01*
X188798022Y-122131845D01*
X188890269Y-122252063D01*
X189010487Y-122344310D01*
X189150484Y-122402299D01*
X189225602Y-122412188D01*
X189300719Y-122422078D01*
X189300720Y-122422078D01*
X189300721Y-122422078D01*
X189350798Y-122415485D01*
X189450956Y-122402299D01*
X189590953Y-122344310D01*
X189711171Y-122252063D01*
X189803418Y-122131845D01*
X189861407Y-121991848D01*
X189881186Y-121841612D01*
X189861407Y-121691376D01*
X189803418Y-121551379D01*
X189711171Y-121431161D01*
X189590953Y-121338914D01*
X189590949Y-121338912D01*
X189450956Y-121280925D01*
X189450954Y-121280924D01*
X189300721Y-121261146D01*
X189300719Y-121261146D01*
X189150485Y-121280924D01*
X189150483Y-121280925D01*
X189010490Y-121338912D01*
X189010487Y-121338913D01*
X189010487Y-121338914D01*
X188890269Y-121431161D01*
X188821048Y-121521372D01*
X188798020Y-121551382D01*
X188740033Y-121691375D01*
X188740032Y-121691377D01*
X188720254Y-121841611D01*
X168037186Y-121841611D01*
X168017407Y-121691377D01*
X168017407Y-121691376D01*
X167959418Y-121551379D01*
X167867171Y-121431161D01*
X167746953Y-121338914D01*
X167746949Y-121338912D01*
X167606956Y-121280925D01*
X167606954Y-121280924D01*
X167456721Y-121261146D01*
X167456719Y-121261146D01*
X167306485Y-121280924D01*
X167306483Y-121280925D01*
X167166490Y-121338912D01*
X167166487Y-121338913D01*
X167166487Y-121338914D01*
X167046269Y-121431161D01*
X166977048Y-121521372D01*
X166954020Y-121551382D01*
X166896033Y-121691375D01*
X166896032Y-121691377D01*
X166876254Y-121841611D01*
X143238758Y-121841611D01*
X143133823Y-121825794D01*
X142999187Y-121805500D01*
X142999182Y-121805500D01*
X142736818Y-121805500D01*
X142736812Y-121805500D01*
X142575247Y-121829853D01*
X142477385Y-121844604D01*
X142477382Y-121844605D01*
X142477376Y-121844606D01*
X142226673Y-121921938D01*
X141990303Y-122035767D01*
X141990302Y-122035768D01*
X141990296Y-122035771D01*
X141990296Y-122035772D01*
X141964839Y-122053128D01*
X141773520Y-122183567D01*
X141581198Y-122362014D01*
X141417614Y-122567143D01*
X141286432Y-122794356D01*
X141190582Y-123038578D01*
X141190576Y-123038597D01*
X141132197Y-123294374D01*
X141132196Y-123294379D01*
X141112592Y-123555995D01*
X126283391Y-123555995D01*
X126287559Y-123545933D01*
X126307338Y-123395697D01*
X126301747Y-123353233D01*
X126293999Y-123294379D01*
X126287559Y-123245461D01*
X126229570Y-123105464D01*
X126137323Y-122985246D01*
X126017105Y-122892999D01*
X126017101Y-122892997D01*
X125877108Y-122835010D01*
X125877106Y-122835009D01*
X125726873Y-122815231D01*
X125726871Y-122815231D01*
X125576637Y-122835009D01*
X125576635Y-122835010D01*
X125436642Y-122892997D01*
X125436639Y-122892998D01*
X125436639Y-122892999D01*
X125363037Y-122949476D01*
X125316421Y-122985246D01*
X125224172Y-123105467D01*
X125166185Y-123245460D01*
X125166184Y-123245462D01*
X125146406Y-123395696D01*
X116148500Y-123395696D01*
X116148500Y-121917190D01*
X125820062Y-121917190D01*
X125820062Y-121917191D01*
X125839840Y-122067425D01*
X125839841Y-122067427D01*
X125893724Y-122197513D01*
X125897830Y-122207424D01*
X125990077Y-122327642D01*
X126110295Y-122419889D01*
X126250292Y-122477878D01*
X126285658Y-122482534D01*
X126400527Y-122497657D01*
X126400528Y-122497657D01*
X126400529Y-122497657D01*
X126450606Y-122491064D01*
X126550764Y-122477878D01*
X126690761Y-122419889D01*
X126810979Y-122327642D01*
X126903226Y-122207424D01*
X126961215Y-122067427D01*
X126980994Y-121917191D01*
X126961215Y-121766955D01*
X126961213Y-121766951D01*
X126960951Y-121764957D01*
X126971716Y-121695922D01*
X127018096Y-121643666D01*
X127085365Y-121624780D01*
X127100057Y-121625830D01*
X127140349Y-121631135D01*
X127290585Y-121611356D01*
X127430582Y-121553367D01*
X127550800Y-121461120D01*
X127643047Y-121340902D01*
X127701036Y-121200905D01*
X127712883Y-121110920D01*
X177053869Y-121110920D01*
X177053869Y-121110921D01*
X177073647Y-121261155D01*
X177073648Y-121261157D01*
X177107145Y-121342027D01*
X177131637Y-121401154D01*
X177223884Y-121521372D01*
X177344102Y-121613619D01*
X177484099Y-121671608D01*
X177559217Y-121681497D01*
X177634334Y-121691387D01*
X177634335Y-121691387D01*
X177634336Y-121691387D01*
X177684413Y-121684794D01*
X177784571Y-121671608D01*
X177924568Y-121613619D01*
X178044786Y-121521372D01*
X178137033Y-121401154D01*
X178195022Y-121261157D01*
X178214801Y-121110921D01*
X178195022Y-120960685D01*
X178137033Y-120820688D01*
X178044786Y-120700470D01*
X177924568Y-120608223D01*
X177924564Y-120608221D01*
X177784571Y-120550234D01*
X177784569Y-120550233D01*
X177634336Y-120530455D01*
X177634334Y-120530455D01*
X177484100Y-120550233D01*
X177484098Y-120550234D01*
X177344105Y-120608221D01*
X177223884Y-120700470D01*
X177131635Y-120820691D01*
X177073648Y-120960684D01*
X177073647Y-120960686D01*
X177053869Y-121110920D01*
X127712883Y-121110920D01*
X127720815Y-121050669D01*
X127701036Y-120900433D01*
X127643047Y-120760436D01*
X127550800Y-120640218D01*
X127430582Y-120547971D01*
X127430578Y-120547969D01*
X127290585Y-120489982D01*
X127290583Y-120489981D01*
X127140350Y-120470203D01*
X127140348Y-120470203D01*
X126990114Y-120489981D01*
X126990112Y-120489982D01*
X126850119Y-120547969D01*
X126850116Y-120547970D01*
X126850116Y-120547971D01*
X126754114Y-120621636D01*
X126729898Y-120640218D01*
X126637649Y-120760439D01*
X126579662Y-120900432D01*
X126579661Y-120900434D01*
X126559883Y-121050668D01*
X126559883Y-121050670D01*
X126579925Y-121202903D01*
X126569159Y-121271938D01*
X126522779Y-121324194D01*
X126455511Y-121343079D01*
X126440801Y-121342027D01*
X126400528Y-121336725D01*
X126400527Y-121336725D01*
X126250293Y-121356503D01*
X126250291Y-121356504D01*
X126110298Y-121414491D01*
X126110295Y-121414492D01*
X126110295Y-121414493D01*
X125990077Y-121506740D01*
X125898423Y-121626186D01*
X125897828Y-121626961D01*
X125839841Y-121766954D01*
X125839840Y-121766956D01*
X125820062Y-121917190D01*
X116148500Y-121917190D01*
X116148500Y-119635612D01*
X123142659Y-119635612D01*
X123161975Y-119831741D01*
X123219188Y-120020345D01*
X123312086Y-120194144D01*
X123312090Y-120194151D01*
X123437116Y-120346495D01*
X123589460Y-120471521D01*
X123589467Y-120471525D01*
X123763266Y-120564423D01*
X123763269Y-120564423D01*
X123763273Y-120564426D01*
X123951868Y-120621636D01*
X124148000Y-120640953D01*
X124344132Y-120621636D01*
X124532727Y-120564426D01*
X124559279Y-120550234D01*
X124672002Y-120489982D01*
X124706538Y-120471522D01*
X124858883Y-120346495D01*
X124983910Y-120194150D01*
X125076814Y-120020339D01*
X125134024Y-119831744D01*
X125140992Y-119760999D01*
X156010534Y-119760999D01*
X156010534Y-119761000D01*
X156030312Y-119911234D01*
X156030313Y-119911236D01*
X156075507Y-120020345D01*
X156088302Y-120051233D01*
X156180549Y-120171451D01*
X156300767Y-120263698D01*
X156440764Y-120321687D01*
X156515882Y-120331576D01*
X156590999Y-120341466D01*
X156591000Y-120341466D01*
X156591001Y-120341466D01*
X156663167Y-120331965D01*
X156741236Y-120321687D01*
X156881233Y-120263698D01*
X157001451Y-120171451D01*
X157093698Y-120051233D01*
X157151687Y-119911236D01*
X157171466Y-119761000D01*
X157167473Y-119730674D01*
X157151687Y-119610765D01*
X157151687Y-119610764D01*
X157093698Y-119470767D01*
X157001451Y-119350549D01*
X156995446Y-119345941D01*
X160767261Y-119345941D01*
X160786577Y-119542070D01*
X160843790Y-119730674D01*
X160936688Y-119904473D01*
X160936692Y-119904480D01*
X161061718Y-120056824D01*
X161214062Y-120181850D01*
X161214069Y-120181854D01*
X161387868Y-120274752D01*
X161387871Y-120274752D01*
X161387875Y-120274755D01*
X161576470Y-120331965D01*
X161772602Y-120351282D01*
X161968734Y-120331965D01*
X162157329Y-120274755D01*
X162178014Y-120263699D01*
X162331134Y-120181854D01*
X162331140Y-120181851D01*
X162483485Y-120056824D01*
X162608512Y-119904479D01*
X162701416Y-119730668D01*
X162758626Y-119542073D01*
X162777943Y-119345941D01*
X162758626Y-119149809D01*
X162701416Y-118961214D01*
X162701413Y-118961210D01*
X162701413Y-118961207D01*
X162608515Y-118787408D01*
X162608511Y-118787401D01*
X162483485Y-118635057D01*
X162331141Y-118510031D01*
X162331134Y-118510027D01*
X162157335Y-118417129D01*
X162157329Y-118417127D01*
X161968734Y-118359917D01*
X161968731Y-118359916D01*
X161772602Y-118340600D01*
X161576472Y-118359916D01*
X161387868Y-118417129D01*
X161214069Y-118510027D01*
X161214062Y-118510031D01*
X161061718Y-118635057D01*
X160936692Y-118787401D01*
X160936688Y-118787408D01*
X160843790Y-118961207D01*
X160786577Y-119149811D01*
X160767261Y-119345941D01*
X156995446Y-119345941D01*
X156881233Y-119258302D01*
X156881229Y-119258300D01*
X156741236Y-119200313D01*
X156741234Y-119200312D01*
X156591001Y-119180534D01*
X156590999Y-119180534D01*
X156440765Y-119200312D01*
X156440763Y-119200313D01*
X156300770Y-119258300D01*
X156300767Y-119258301D01*
X156300767Y-119258302D01*
X156180549Y-119350549D01*
X156112310Y-119439480D01*
X156088300Y-119470770D01*
X156030313Y-119610763D01*
X156030312Y-119610765D01*
X156010534Y-119760999D01*
X125140992Y-119760999D01*
X125153341Y-119635612D01*
X125134024Y-119439480D01*
X125076814Y-119250885D01*
X125076811Y-119250881D01*
X125076811Y-119250878D01*
X124983913Y-119077079D01*
X124983909Y-119077072D01*
X124858883Y-118924728D01*
X124706539Y-118799702D01*
X124706532Y-118799698D01*
X124532733Y-118706800D01*
X124532727Y-118706798D01*
X124344132Y-118649588D01*
X124344129Y-118649587D01*
X124148000Y-118630271D01*
X123951870Y-118649587D01*
X123763266Y-118706800D01*
X123589467Y-118799698D01*
X123589460Y-118799702D01*
X123437116Y-118924728D01*
X123312090Y-119077072D01*
X123312086Y-119077079D01*
X123219188Y-119250878D01*
X123161975Y-119439482D01*
X123142659Y-119635612D01*
X116148500Y-119635612D01*
X116148500Y-116253611D01*
X127252254Y-116253611D01*
X127252254Y-116253612D01*
X127272032Y-116403846D01*
X127272033Y-116403848D01*
X127330022Y-116543845D01*
X127422269Y-116664063D01*
X127542487Y-116756310D01*
X127682484Y-116814299D01*
X127757602Y-116824188D01*
X127832719Y-116834078D01*
X127832720Y-116834078D01*
X127832721Y-116834078D01*
X127882798Y-116827485D01*
X127982956Y-116814299D01*
X128122953Y-116756310D01*
X128243171Y-116664063D01*
X128335418Y-116543845D01*
X128393407Y-116403848D01*
X128413186Y-116253612D01*
X128413186Y-116253611D01*
X157478254Y-116253611D01*
X157478254Y-116253612D01*
X157498032Y-116403846D01*
X157498033Y-116403848D01*
X157556022Y-116543845D01*
X157648269Y-116664063D01*
X157768487Y-116756310D01*
X157908484Y-116814299D01*
X157983602Y-116824188D01*
X158058719Y-116834078D01*
X158058720Y-116834078D01*
X158058721Y-116834078D01*
X158108798Y-116827485D01*
X158208956Y-116814299D01*
X158348953Y-116756310D01*
X158469171Y-116664063D01*
X158561418Y-116543845D01*
X158619407Y-116403848D01*
X158639186Y-116253612D01*
X158619407Y-116103376D01*
X158561418Y-115963379D01*
X158469171Y-115843161D01*
X158348953Y-115750914D01*
X158348949Y-115750912D01*
X158208956Y-115692925D01*
X158208954Y-115692924D01*
X158058721Y-115673146D01*
X158058719Y-115673146D01*
X157908485Y-115692924D01*
X157908483Y-115692925D01*
X157768490Y-115750912D01*
X157648269Y-115843161D01*
X157556020Y-115963382D01*
X157498033Y-116103375D01*
X157498032Y-116103377D01*
X157478254Y-116253611D01*
X128413186Y-116253611D01*
X128393407Y-116103376D01*
X128335418Y-115963379D01*
X128243171Y-115843161D01*
X128122953Y-115750914D01*
X128122949Y-115750912D01*
X127982956Y-115692925D01*
X127982954Y-115692924D01*
X127832721Y-115673146D01*
X127832719Y-115673146D01*
X127682485Y-115692924D01*
X127682483Y-115692925D01*
X127542490Y-115750912D01*
X127422269Y-115843161D01*
X127330020Y-115963382D01*
X127272033Y-116103375D01*
X127272032Y-116103377D01*
X127252254Y-116253611D01*
X116148500Y-116253611D01*
X116148500Y-115502092D01*
X116149097Y-115489938D01*
X116150469Y-115476009D01*
X116164587Y-115332662D01*
X116169326Y-115308838D01*
X116213428Y-115163451D01*
X116222722Y-115141014D01*
X116294340Y-115007027D01*
X116307835Y-114986830D01*
X116310477Y-114983611D01*
X169162254Y-114983611D01*
X169162254Y-114983612D01*
X169182032Y-115133846D01*
X169182033Y-115133848D01*
X169240022Y-115273845D01*
X169332269Y-115394063D01*
X169452487Y-115486310D01*
X169592484Y-115544299D01*
X169667602Y-115554188D01*
X169742719Y-115564078D01*
X169742720Y-115564078D01*
X169742721Y-115564078D01*
X169792798Y-115557485D01*
X169892956Y-115544299D01*
X170032953Y-115486310D01*
X170153171Y-115394063D01*
X170245418Y-115273845D01*
X170303407Y-115133848D01*
X170323186Y-114983612D01*
X170303407Y-114833376D01*
X170245418Y-114693379D01*
X170153171Y-114573161D01*
X170032953Y-114480914D01*
X170032949Y-114480912D01*
X170020154Y-114475612D01*
X177468659Y-114475612D01*
X177487975Y-114671741D01*
X177487976Y-114671744D01*
X177542719Y-114852208D01*
X177545188Y-114860345D01*
X177638086Y-115034144D01*
X177638090Y-115034151D01*
X177763116Y-115186495D01*
X177915460Y-115311521D01*
X177915467Y-115311525D01*
X178089266Y-115404423D01*
X178089269Y-115404423D01*
X178089273Y-115404426D01*
X178277868Y-115461636D01*
X178474000Y-115480953D01*
X178670132Y-115461636D01*
X178858727Y-115404426D01*
X178867534Y-115399719D01*
X179032532Y-115311525D01*
X179032538Y-115311522D01*
X179184883Y-115186495D01*
X179309910Y-115034150D01*
X179397972Y-114869398D01*
X179402811Y-114860345D01*
X179402811Y-114860344D01*
X179402814Y-114860339D01*
X179460024Y-114671744D01*
X179479341Y-114475612D01*
X179460024Y-114279480D01*
X179402814Y-114090885D01*
X179402811Y-114090881D01*
X179402811Y-114090878D01*
X179309913Y-113917079D01*
X179309909Y-113917072D01*
X179184883Y-113764728D01*
X179032539Y-113639702D01*
X179032532Y-113639698D01*
X178858733Y-113546800D01*
X178858727Y-113546798D01*
X178670132Y-113489588D01*
X178670129Y-113489587D01*
X178474000Y-113470271D01*
X178277870Y-113489587D01*
X178089266Y-113546800D01*
X177915467Y-113639698D01*
X177915460Y-113639702D01*
X177763116Y-113764728D01*
X177638090Y-113917072D01*
X177638086Y-113917079D01*
X177545188Y-114090878D01*
X177487975Y-114279482D01*
X177468659Y-114475612D01*
X170020154Y-114475612D01*
X169892956Y-114422925D01*
X169892954Y-114422924D01*
X169742721Y-114403146D01*
X169742719Y-114403146D01*
X169592485Y-114422924D01*
X169592483Y-114422925D01*
X169452490Y-114480912D01*
X169452487Y-114480913D01*
X169452487Y-114480914D01*
X169340478Y-114566862D01*
X169332269Y-114573161D01*
X169240020Y-114693382D01*
X169182033Y-114833375D01*
X169182032Y-114833377D01*
X169162254Y-114983611D01*
X116310477Y-114983611D01*
X116404213Y-114869392D01*
X116421392Y-114852213D01*
X116538830Y-114755835D01*
X116559027Y-114742340D01*
X116693014Y-114670722D01*
X116715451Y-114661428D01*
X116860838Y-114617326D01*
X116884662Y-114612587D01*
X117041939Y-114597097D01*
X117054093Y-114596500D01*
X117074929Y-114596500D01*
X117445251Y-114596500D01*
X117448276Y-114596537D01*
X117465695Y-114596962D01*
X117467835Y-114596563D01*
X117467987Y-114596500D01*
X117467991Y-114596500D01*
X117483975Y-114589878D01*
X117486748Y-114588770D01*
X117502834Y-114582563D01*
X117502834Y-114582562D01*
X117502976Y-114582508D01*
X117504822Y-114581306D01*
X117504927Y-114581200D01*
X117504929Y-114581200D01*
X117511266Y-114574861D01*
X117517153Y-114568976D01*
X117519319Y-114566862D01*
X117554798Y-114533073D01*
X118019095Y-114090885D01*
X119552283Y-112630707D01*
X119614404Y-112598727D01*
X119637800Y-112596500D01*
X129219894Y-112596500D01*
X129286933Y-112616185D01*
G37*
G04 #@! TD.AperFunction*
M02*
