G04 #@! TF.GenerationSoftware,KiCad,Pcbnew,7.0.6*
G04 #@! TF.CreationDate,2023-12-22T13:42:26-08:00*
G04 #@! TF.ProjectId,procon_button_board,70726f63-6f6e-45f6-9275-74746f6e5f62,rev?*
G04 #@! TF.SameCoordinates,Original*
G04 #@! TF.FileFunction,AssemblyDrawing,Bot*
%FSLAX46Y46*%
G04 Gerber Fmt 4.6, Leading zero omitted, Abs format (unit mm)*
G04 Created by KiCad (PCBNEW 7.0.6) date 2023-12-22 13:42:26*
%MOMM*%
%LPD*%
G01*
G04 APERTURE LIST*
%ADD10C,0.150000*%
%ADD11C,0.075000*%
%ADD12C,0.100000*%
G04 APERTURE END LIST*
D10*
X144305729Y-159950088D02*
X144353348Y-160092945D01*
X144353348Y-160092945D02*
X144400967Y-160140564D01*
X144400967Y-160140564D02*
X144496205Y-160188183D01*
X144496205Y-160188183D02*
X144639062Y-160188183D01*
X144639062Y-160188183D02*
X144734300Y-160140564D01*
X144734300Y-160140564D02*
X144781920Y-160092945D01*
X144781920Y-160092945D02*
X144829539Y-159997707D01*
X144829539Y-159997707D02*
X144829539Y-159616755D01*
X144829539Y-159616755D02*
X143829539Y-159616755D01*
X143829539Y-159616755D02*
X143829539Y-159950088D01*
X143829539Y-159950088D02*
X143877158Y-160045326D01*
X143877158Y-160045326D02*
X143924777Y-160092945D01*
X143924777Y-160092945D02*
X144020015Y-160140564D01*
X144020015Y-160140564D02*
X144115253Y-160140564D01*
X144115253Y-160140564D02*
X144210491Y-160092945D01*
X144210491Y-160092945D02*
X144258110Y-160045326D01*
X144258110Y-160045326D02*
X144305729Y-159950088D01*
X144305729Y-159950088D02*
X144305729Y-159616755D01*
X144543824Y-160569136D02*
X144543824Y-161045326D01*
X144829539Y-160473898D02*
X143829539Y-160807231D01*
X143829539Y-160807231D02*
X144829539Y-161140564D01*
X144781920Y-161426279D02*
X144829539Y-161569136D01*
X144829539Y-161569136D02*
X144829539Y-161807231D01*
X144829539Y-161807231D02*
X144781920Y-161902469D01*
X144781920Y-161902469D02*
X144734300Y-161950088D01*
X144734300Y-161950088D02*
X144639062Y-161997707D01*
X144639062Y-161997707D02*
X144543824Y-161997707D01*
X144543824Y-161997707D02*
X144448586Y-161950088D01*
X144448586Y-161950088D02*
X144400967Y-161902469D01*
X144400967Y-161902469D02*
X144353348Y-161807231D01*
X144353348Y-161807231D02*
X144305729Y-161616755D01*
X144305729Y-161616755D02*
X144258110Y-161521517D01*
X144258110Y-161521517D02*
X144210491Y-161473898D01*
X144210491Y-161473898D02*
X144115253Y-161426279D01*
X144115253Y-161426279D02*
X144020015Y-161426279D01*
X144020015Y-161426279D02*
X143924777Y-161473898D01*
X143924777Y-161473898D02*
X143877158Y-161521517D01*
X143877158Y-161521517D02*
X143829539Y-161616755D01*
X143829539Y-161616755D02*
X143829539Y-161854850D01*
X143829539Y-161854850D02*
X143877158Y-161997707D01*
X144829539Y-162950088D02*
X144829539Y-162378660D01*
X144829539Y-162664374D02*
X143829539Y-162664374D01*
X143829539Y-162664374D02*
X143972396Y-162569136D01*
X143972396Y-162569136D02*
X144067634Y-162473898D01*
X144067634Y-162473898D02*
X144115253Y-162378660D01*
X143829539Y-163807231D02*
X143829539Y-163616755D01*
X143829539Y-163616755D02*
X143877158Y-163521517D01*
X143877158Y-163521517D02*
X143924777Y-163473898D01*
X143924777Y-163473898D02*
X144067634Y-163378660D01*
X144067634Y-163378660D02*
X144258110Y-163331041D01*
X144258110Y-163331041D02*
X144639062Y-163331041D01*
X144639062Y-163331041D02*
X144734300Y-163378660D01*
X144734300Y-163378660D02*
X144781920Y-163426279D01*
X144781920Y-163426279D02*
X144829539Y-163521517D01*
X144829539Y-163521517D02*
X144829539Y-163711993D01*
X144829539Y-163711993D02*
X144781920Y-163807231D01*
X144781920Y-163807231D02*
X144734300Y-163854850D01*
X144734300Y-163854850D02*
X144639062Y-163902469D01*
X144639062Y-163902469D02*
X144400967Y-163902469D01*
X144400967Y-163902469D02*
X144305729Y-163854850D01*
X144305729Y-163854850D02*
X144258110Y-163807231D01*
X144258110Y-163807231D02*
X144210491Y-163711993D01*
X144210491Y-163711993D02*
X144210491Y-163521517D01*
X144210491Y-163521517D02*
X144258110Y-163426279D01*
X144258110Y-163426279D02*
X144305729Y-163378660D01*
X144305729Y-163378660D02*
X144400967Y-163331041D01*
X143829539Y-164188184D02*
X144829539Y-164521517D01*
X144829539Y-164521517D02*
X143829539Y-164854850D01*
X144353348Y-165378660D02*
X144829539Y-165378660D01*
X143829539Y-165045327D02*
X144353348Y-165378660D01*
X144353348Y-165378660D02*
X143829539Y-165711993D01*
X144781920Y-166092946D02*
X144829539Y-166092946D01*
X144829539Y-166092946D02*
X144924777Y-166045327D01*
X144924777Y-166045327D02*
X144972396Y-165997708D01*
X144829539Y-167045326D02*
X144829539Y-166473898D01*
X144829539Y-166759612D02*
X143829539Y-166759612D01*
X143829539Y-166759612D02*
X143972396Y-166664374D01*
X143972396Y-166664374D02*
X144067634Y-166569136D01*
X144067634Y-166569136D02*
X144115253Y-166473898D01*
X144829539Y-167997707D02*
X144829539Y-167426279D01*
X144829539Y-167711993D02*
X143829539Y-167711993D01*
X143829539Y-167711993D02*
X143972396Y-167616755D01*
X143972396Y-167616755D02*
X144067634Y-167521517D01*
X144067634Y-167521517D02*
X144115253Y-167426279D01*
X143829539Y-168902469D02*
X143829539Y-168426279D01*
X143829539Y-168426279D02*
X144305729Y-168378660D01*
X144305729Y-168378660D02*
X144258110Y-168426279D01*
X144258110Y-168426279D02*
X144210491Y-168521517D01*
X144210491Y-168521517D02*
X144210491Y-168759612D01*
X144210491Y-168759612D02*
X144258110Y-168854850D01*
X144258110Y-168854850D02*
X144305729Y-168902469D01*
X144305729Y-168902469D02*
X144400967Y-168950088D01*
X144400967Y-168950088D02*
X144639062Y-168950088D01*
X144639062Y-168950088D02*
X144734300Y-168902469D01*
X144734300Y-168902469D02*
X144781920Y-168854850D01*
X144781920Y-168854850D02*
X144829539Y-168759612D01*
X144829539Y-168759612D02*
X144829539Y-168521517D01*
X144829539Y-168521517D02*
X144781920Y-168426279D01*
X144781920Y-168426279D02*
X144734300Y-168378660D01*
D11*
X146743767Y-164487021D02*
X146743767Y-163987021D01*
X146743767Y-163987021D02*
X146624719Y-163987021D01*
X146624719Y-163987021D02*
X146553291Y-164010831D01*
X146553291Y-164010831D02*
X146505672Y-164058450D01*
X146505672Y-164058450D02*
X146481862Y-164106069D01*
X146481862Y-164106069D02*
X146458053Y-164201307D01*
X146458053Y-164201307D02*
X146458053Y-164272735D01*
X146458053Y-164272735D02*
X146481862Y-164367973D01*
X146481862Y-164367973D02*
X146505672Y-164415592D01*
X146505672Y-164415592D02*
X146553291Y-164463212D01*
X146553291Y-164463212D02*
X146624719Y-164487021D01*
X146624719Y-164487021D02*
X146743767Y-164487021D01*
X146267576Y-164034640D02*
X146243767Y-164010831D01*
X146243767Y-164010831D02*
X146196148Y-163987021D01*
X146196148Y-163987021D02*
X146077100Y-163987021D01*
X146077100Y-163987021D02*
X146029481Y-164010831D01*
X146029481Y-164010831D02*
X146005672Y-164034640D01*
X146005672Y-164034640D02*
X145981862Y-164082259D01*
X145981862Y-164082259D02*
X145981862Y-164129878D01*
X145981862Y-164129878D02*
X146005672Y-164201307D01*
X146005672Y-164201307D02*
X146291386Y-164487021D01*
X146291386Y-164487021D02*
X145981862Y-164487021D01*
D10*
X135161729Y-159950088D02*
X135209348Y-160092945D01*
X135209348Y-160092945D02*
X135256967Y-160140564D01*
X135256967Y-160140564D02*
X135352205Y-160188183D01*
X135352205Y-160188183D02*
X135495062Y-160188183D01*
X135495062Y-160188183D02*
X135590300Y-160140564D01*
X135590300Y-160140564D02*
X135637920Y-160092945D01*
X135637920Y-160092945D02*
X135685539Y-159997707D01*
X135685539Y-159997707D02*
X135685539Y-159616755D01*
X135685539Y-159616755D02*
X134685539Y-159616755D01*
X134685539Y-159616755D02*
X134685539Y-159950088D01*
X134685539Y-159950088D02*
X134733158Y-160045326D01*
X134733158Y-160045326D02*
X134780777Y-160092945D01*
X134780777Y-160092945D02*
X134876015Y-160140564D01*
X134876015Y-160140564D02*
X134971253Y-160140564D01*
X134971253Y-160140564D02*
X135066491Y-160092945D01*
X135066491Y-160092945D02*
X135114110Y-160045326D01*
X135114110Y-160045326D02*
X135161729Y-159950088D01*
X135161729Y-159950088D02*
X135161729Y-159616755D01*
X135399824Y-160569136D02*
X135399824Y-161045326D01*
X135685539Y-160473898D02*
X134685539Y-160807231D01*
X134685539Y-160807231D02*
X135685539Y-161140564D01*
X135637920Y-161426279D02*
X135685539Y-161569136D01*
X135685539Y-161569136D02*
X135685539Y-161807231D01*
X135685539Y-161807231D02*
X135637920Y-161902469D01*
X135637920Y-161902469D02*
X135590300Y-161950088D01*
X135590300Y-161950088D02*
X135495062Y-161997707D01*
X135495062Y-161997707D02*
X135399824Y-161997707D01*
X135399824Y-161997707D02*
X135304586Y-161950088D01*
X135304586Y-161950088D02*
X135256967Y-161902469D01*
X135256967Y-161902469D02*
X135209348Y-161807231D01*
X135209348Y-161807231D02*
X135161729Y-161616755D01*
X135161729Y-161616755D02*
X135114110Y-161521517D01*
X135114110Y-161521517D02*
X135066491Y-161473898D01*
X135066491Y-161473898D02*
X134971253Y-161426279D01*
X134971253Y-161426279D02*
X134876015Y-161426279D01*
X134876015Y-161426279D02*
X134780777Y-161473898D01*
X134780777Y-161473898D02*
X134733158Y-161521517D01*
X134733158Y-161521517D02*
X134685539Y-161616755D01*
X134685539Y-161616755D02*
X134685539Y-161854850D01*
X134685539Y-161854850D02*
X134733158Y-161997707D01*
X135685539Y-162950088D02*
X135685539Y-162378660D01*
X135685539Y-162664374D02*
X134685539Y-162664374D01*
X134685539Y-162664374D02*
X134828396Y-162569136D01*
X134828396Y-162569136D02*
X134923634Y-162473898D01*
X134923634Y-162473898D02*
X134971253Y-162378660D01*
X134685539Y-163807231D02*
X134685539Y-163616755D01*
X134685539Y-163616755D02*
X134733158Y-163521517D01*
X134733158Y-163521517D02*
X134780777Y-163473898D01*
X134780777Y-163473898D02*
X134923634Y-163378660D01*
X134923634Y-163378660D02*
X135114110Y-163331041D01*
X135114110Y-163331041D02*
X135495062Y-163331041D01*
X135495062Y-163331041D02*
X135590300Y-163378660D01*
X135590300Y-163378660D02*
X135637920Y-163426279D01*
X135637920Y-163426279D02*
X135685539Y-163521517D01*
X135685539Y-163521517D02*
X135685539Y-163711993D01*
X135685539Y-163711993D02*
X135637920Y-163807231D01*
X135637920Y-163807231D02*
X135590300Y-163854850D01*
X135590300Y-163854850D02*
X135495062Y-163902469D01*
X135495062Y-163902469D02*
X135256967Y-163902469D01*
X135256967Y-163902469D02*
X135161729Y-163854850D01*
X135161729Y-163854850D02*
X135114110Y-163807231D01*
X135114110Y-163807231D02*
X135066491Y-163711993D01*
X135066491Y-163711993D02*
X135066491Y-163521517D01*
X135066491Y-163521517D02*
X135114110Y-163426279D01*
X135114110Y-163426279D02*
X135161729Y-163378660D01*
X135161729Y-163378660D02*
X135256967Y-163331041D01*
X134685539Y-164188184D02*
X135685539Y-164521517D01*
X135685539Y-164521517D02*
X134685539Y-164854850D01*
X135209348Y-165378660D02*
X135685539Y-165378660D01*
X134685539Y-165045327D02*
X135209348Y-165378660D01*
X135209348Y-165378660D02*
X134685539Y-165711993D01*
X135637920Y-166092946D02*
X135685539Y-166092946D01*
X135685539Y-166092946D02*
X135780777Y-166045327D01*
X135780777Y-166045327D02*
X135828396Y-165997708D01*
X135685539Y-167045326D02*
X135685539Y-166473898D01*
X135685539Y-166759612D02*
X134685539Y-166759612D01*
X134685539Y-166759612D02*
X134828396Y-166664374D01*
X134828396Y-166664374D02*
X134923634Y-166569136D01*
X134923634Y-166569136D02*
X134971253Y-166473898D01*
X135685539Y-167997707D02*
X135685539Y-167426279D01*
X135685539Y-167711993D02*
X134685539Y-167711993D01*
X134685539Y-167711993D02*
X134828396Y-167616755D01*
X134828396Y-167616755D02*
X134923634Y-167521517D01*
X134923634Y-167521517D02*
X134971253Y-167426279D01*
X134685539Y-168902469D02*
X134685539Y-168426279D01*
X134685539Y-168426279D02*
X135161729Y-168378660D01*
X135161729Y-168378660D02*
X135114110Y-168426279D01*
X135114110Y-168426279D02*
X135066491Y-168521517D01*
X135066491Y-168521517D02*
X135066491Y-168759612D01*
X135066491Y-168759612D02*
X135114110Y-168854850D01*
X135114110Y-168854850D02*
X135161729Y-168902469D01*
X135161729Y-168902469D02*
X135256967Y-168950088D01*
X135256967Y-168950088D02*
X135495062Y-168950088D01*
X135495062Y-168950088D02*
X135590300Y-168902469D01*
X135590300Y-168902469D02*
X135637920Y-168854850D01*
X135637920Y-168854850D02*
X135685539Y-168759612D01*
X135685539Y-168759612D02*
X135685539Y-168521517D01*
X135685539Y-168521517D02*
X135637920Y-168426279D01*
X135637920Y-168426279D02*
X135590300Y-168378660D01*
D11*
X137599767Y-164487021D02*
X137599767Y-163987021D01*
X137599767Y-163987021D02*
X137480719Y-163987021D01*
X137480719Y-163987021D02*
X137409291Y-164010831D01*
X137409291Y-164010831D02*
X137361672Y-164058450D01*
X137361672Y-164058450D02*
X137337862Y-164106069D01*
X137337862Y-164106069D02*
X137314053Y-164201307D01*
X137314053Y-164201307D02*
X137314053Y-164272735D01*
X137314053Y-164272735D02*
X137337862Y-164367973D01*
X137337862Y-164367973D02*
X137361672Y-164415592D01*
X137361672Y-164415592D02*
X137409291Y-164463212D01*
X137409291Y-164463212D02*
X137480719Y-164487021D01*
X137480719Y-164487021D02*
X137599767Y-164487021D01*
X136861672Y-163987021D02*
X137099767Y-163987021D01*
X137099767Y-163987021D02*
X137123576Y-164225116D01*
X137123576Y-164225116D02*
X137099767Y-164201307D01*
X137099767Y-164201307D02*
X137052148Y-164177497D01*
X137052148Y-164177497D02*
X136933100Y-164177497D01*
X136933100Y-164177497D02*
X136885481Y-164201307D01*
X136885481Y-164201307D02*
X136861672Y-164225116D01*
X136861672Y-164225116D02*
X136837862Y-164272735D01*
X136837862Y-164272735D02*
X136837862Y-164391783D01*
X136837862Y-164391783D02*
X136861672Y-164439402D01*
X136861672Y-164439402D02*
X136885481Y-164463212D01*
X136885481Y-164463212D02*
X136933100Y-164487021D01*
X136933100Y-164487021D02*
X137052148Y-164487021D01*
X137052148Y-164487021D02*
X137099767Y-164463212D01*
X137099767Y-164463212D02*
X137123576Y-164439402D01*
D10*
X138209729Y-159950088D02*
X138257348Y-160092945D01*
X138257348Y-160092945D02*
X138304967Y-160140564D01*
X138304967Y-160140564D02*
X138400205Y-160188183D01*
X138400205Y-160188183D02*
X138543062Y-160188183D01*
X138543062Y-160188183D02*
X138638300Y-160140564D01*
X138638300Y-160140564D02*
X138685920Y-160092945D01*
X138685920Y-160092945D02*
X138733539Y-159997707D01*
X138733539Y-159997707D02*
X138733539Y-159616755D01*
X138733539Y-159616755D02*
X137733539Y-159616755D01*
X137733539Y-159616755D02*
X137733539Y-159950088D01*
X137733539Y-159950088D02*
X137781158Y-160045326D01*
X137781158Y-160045326D02*
X137828777Y-160092945D01*
X137828777Y-160092945D02*
X137924015Y-160140564D01*
X137924015Y-160140564D02*
X138019253Y-160140564D01*
X138019253Y-160140564D02*
X138114491Y-160092945D01*
X138114491Y-160092945D02*
X138162110Y-160045326D01*
X138162110Y-160045326D02*
X138209729Y-159950088D01*
X138209729Y-159950088D02*
X138209729Y-159616755D01*
X138447824Y-160569136D02*
X138447824Y-161045326D01*
X138733539Y-160473898D02*
X137733539Y-160807231D01*
X137733539Y-160807231D02*
X138733539Y-161140564D01*
X138685920Y-161426279D02*
X138733539Y-161569136D01*
X138733539Y-161569136D02*
X138733539Y-161807231D01*
X138733539Y-161807231D02*
X138685920Y-161902469D01*
X138685920Y-161902469D02*
X138638300Y-161950088D01*
X138638300Y-161950088D02*
X138543062Y-161997707D01*
X138543062Y-161997707D02*
X138447824Y-161997707D01*
X138447824Y-161997707D02*
X138352586Y-161950088D01*
X138352586Y-161950088D02*
X138304967Y-161902469D01*
X138304967Y-161902469D02*
X138257348Y-161807231D01*
X138257348Y-161807231D02*
X138209729Y-161616755D01*
X138209729Y-161616755D02*
X138162110Y-161521517D01*
X138162110Y-161521517D02*
X138114491Y-161473898D01*
X138114491Y-161473898D02*
X138019253Y-161426279D01*
X138019253Y-161426279D02*
X137924015Y-161426279D01*
X137924015Y-161426279D02*
X137828777Y-161473898D01*
X137828777Y-161473898D02*
X137781158Y-161521517D01*
X137781158Y-161521517D02*
X137733539Y-161616755D01*
X137733539Y-161616755D02*
X137733539Y-161854850D01*
X137733539Y-161854850D02*
X137781158Y-161997707D01*
X138733539Y-162950088D02*
X138733539Y-162378660D01*
X138733539Y-162664374D02*
X137733539Y-162664374D01*
X137733539Y-162664374D02*
X137876396Y-162569136D01*
X137876396Y-162569136D02*
X137971634Y-162473898D01*
X137971634Y-162473898D02*
X138019253Y-162378660D01*
X137733539Y-163807231D02*
X137733539Y-163616755D01*
X137733539Y-163616755D02*
X137781158Y-163521517D01*
X137781158Y-163521517D02*
X137828777Y-163473898D01*
X137828777Y-163473898D02*
X137971634Y-163378660D01*
X137971634Y-163378660D02*
X138162110Y-163331041D01*
X138162110Y-163331041D02*
X138543062Y-163331041D01*
X138543062Y-163331041D02*
X138638300Y-163378660D01*
X138638300Y-163378660D02*
X138685920Y-163426279D01*
X138685920Y-163426279D02*
X138733539Y-163521517D01*
X138733539Y-163521517D02*
X138733539Y-163711993D01*
X138733539Y-163711993D02*
X138685920Y-163807231D01*
X138685920Y-163807231D02*
X138638300Y-163854850D01*
X138638300Y-163854850D02*
X138543062Y-163902469D01*
X138543062Y-163902469D02*
X138304967Y-163902469D01*
X138304967Y-163902469D02*
X138209729Y-163854850D01*
X138209729Y-163854850D02*
X138162110Y-163807231D01*
X138162110Y-163807231D02*
X138114491Y-163711993D01*
X138114491Y-163711993D02*
X138114491Y-163521517D01*
X138114491Y-163521517D02*
X138162110Y-163426279D01*
X138162110Y-163426279D02*
X138209729Y-163378660D01*
X138209729Y-163378660D02*
X138304967Y-163331041D01*
X137733539Y-164188184D02*
X138733539Y-164521517D01*
X138733539Y-164521517D02*
X137733539Y-164854850D01*
X138257348Y-165378660D02*
X138733539Y-165378660D01*
X137733539Y-165045327D02*
X138257348Y-165378660D01*
X138257348Y-165378660D02*
X137733539Y-165711993D01*
X138685920Y-166092946D02*
X138733539Y-166092946D01*
X138733539Y-166092946D02*
X138828777Y-166045327D01*
X138828777Y-166045327D02*
X138876396Y-165997708D01*
X138733539Y-167045326D02*
X138733539Y-166473898D01*
X138733539Y-166759612D02*
X137733539Y-166759612D01*
X137733539Y-166759612D02*
X137876396Y-166664374D01*
X137876396Y-166664374D02*
X137971634Y-166569136D01*
X137971634Y-166569136D02*
X138019253Y-166473898D01*
X138733539Y-167997707D02*
X138733539Y-167426279D01*
X138733539Y-167711993D02*
X137733539Y-167711993D01*
X137733539Y-167711993D02*
X137876396Y-167616755D01*
X137876396Y-167616755D02*
X137971634Y-167521517D01*
X137971634Y-167521517D02*
X138019253Y-167426279D01*
X137733539Y-168902469D02*
X137733539Y-168426279D01*
X137733539Y-168426279D02*
X138209729Y-168378660D01*
X138209729Y-168378660D02*
X138162110Y-168426279D01*
X138162110Y-168426279D02*
X138114491Y-168521517D01*
X138114491Y-168521517D02*
X138114491Y-168759612D01*
X138114491Y-168759612D02*
X138162110Y-168854850D01*
X138162110Y-168854850D02*
X138209729Y-168902469D01*
X138209729Y-168902469D02*
X138304967Y-168950088D01*
X138304967Y-168950088D02*
X138543062Y-168950088D01*
X138543062Y-168950088D02*
X138638300Y-168902469D01*
X138638300Y-168902469D02*
X138685920Y-168854850D01*
X138685920Y-168854850D02*
X138733539Y-168759612D01*
X138733539Y-168759612D02*
X138733539Y-168521517D01*
X138733539Y-168521517D02*
X138685920Y-168426279D01*
X138685920Y-168426279D02*
X138638300Y-168378660D01*
D11*
X140647767Y-164487021D02*
X140647767Y-163987021D01*
X140647767Y-163987021D02*
X140528719Y-163987021D01*
X140528719Y-163987021D02*
X140457291Y-164010831D01*
X140457291Y-164010831D02*
X140409672Y-164058450D01*
X140409672Y-164058450D02*
X140385862Y-164106069D01*
X140385862Y-164106069D02*
X140362053Y-164201307D01*
X140362053Y-164201307D02*
X140362053Y-164272735D01*
X140362053Y-164272735D02*
X140385862Y-164367973D01*
X140385862Y-164367973D02*
X140409672Y-164415592D01*
X140409672Y-164415592D02*
X140457291Y-164463212D01*
X140457291Y-164463212D02*
X140528719Y-164487021D01*
X140528719Y-164487021D02*
X140647767Y-164487021D01*
X139933481Y-164153688D02*
X139933481Y-164487021D01*
X140052529Y-163963212D02*
X140171576Y-164320354D01*
X140171576Y-164320354D02*
X139862053Y-164320354D01*
D10*
X132113729Y-159950088D02*
X132161348Y-160092945D01*
X132161348Y-160092945D02*
X132208967Y-160140564D01*
X132208967Y-160140564D02*
X132304205Y-160188183D01*
X132304205Y-160188183D02*
X132447062Y-160188183D01*
X132447062Y-160188183D02*
X132542300Y-160140564D01*
X132542300Y-160140564D02*
X132589920Y-160092945D01*
X132589920Y-160092945D02*
X132637539Y-159997707D01*
X132637539Y-159997707D02*
X132637539Y-159616755D01*
X132637539Y-159616755D02*
X131637539Y-159616755D01*
X131637539Y-159616755D02*
X131637539Y-159950088D01*
X131637539Y-159950088D02*
X131685158Y-160045326D01*
X131685158Y-160045326D02*
X131732777Y-160092945D01*
X131732777Y-160092945D02*
X131828015Y-160140564D01*
X131828015Y-160140564D02*
X131923253Y-160140564D01*
X131923253Y-160140564D02*
X132018491Y-160092945D01*
X132018491Y-160092945D02*
X132066110Y-160045326D01*
X132066110Y-160045326D02*
X132113729Y-159950088D01*
X132113729Y-159950088D02*
X132113729Y-159616755D01*
X132351824Y-160569136D02*
X132351824Y-161045326D01*
X132637539Y-160473898D02*
X131637539Y-160807231D01*
X131637539Y-160807231D02*
X132637539Y-161140564D01*
X132589920Y-161426279D02*
X132637539Y-161569136D01*
X132637539Y-161569136D02*
X132637539Y-161807231D01*
X132637539Y-161807231D02*
X132589920Y-161902469D01*
X132589920Y-161902469D02*
X132542300Y-161950088D01*
X132542300Y-161950088D02*
X132447062Y-161997707D01*
X132447062Y-161997707D02*
X132351824Y-161997707D01*
X132351824Y-161997707D02*
X132256586Y-161950088D01*
X132256586Y-161950088D02*
X132208967Y-161902469D01*
X132208967Y-161902469D02*
X132161348Y-161807231D01*
X132161348Y-161807231D02*
X132113729Y-161616755D01*
X132113729Y-161616755D02*
X132066110Y-161521517D01*
X132066110Y-161521517D02*
X132018491Y-161473898D01*
X132018491Y-161473898D02*
X131923253Y-161426279D01*
X131923253Y-161426279D02*
X131828015Y-161426279D01*
X131828015Y-161426279D02*
X131732777Y-161473898D01*
X131732777Y-161473898D02*
X131685158Y-161521517D01*
X131685158Y-161521517D02*
X131637539Y-161616755D01*
X131637539Y-161616755D02*
X131637539Y-161854850D01*
X131637539Y-161854850D02*
X131685158Y-161997707D01*
X132637539Y-162950088D02*
X132637539Y-162378660D01*
X132637539Y-162664374D02*
X131637539Y-162664374D01*
X131637539Y-162664374D02*
X131780396Y-162569136D01*
X131780396Y-162569136D02*
X131875634Y-162473898D01*
X131875634Y-162473898D02*
X131923253Y-162378660D01*
X131637539Y-163807231D02*
X131637539Y-163616755D01*
X131637539Y-163616755D02*
X131685158Y-163521517D01*
X131685158Y-163521517D02*
X131732777Y-163473898D01*
X131732777Y-163473898D02*
X131875634Y-163378660D01*
X131875634Y-163378660D02*
X132066110Y-163331041D01*
X132066110Y-163331041D02*
X132447062Y-163331041D01*
X132447062Y-163331041D02*
X132542300Y-163378660D01*
X132542300Y-163378660D02*
X132589920Y-163426279D01*
X132589920Y-163426279D02*
X132637539Y-163521517D01*
X132637539Y-163521517D02*
X132637539Y-163711993D01*
X132637539Y-163711993D02*
X132589920Y-163807231D01*
X132589920Y-163807231D02*
X132542300Y-163854850D01*
X132542300Y-163854850D02*
X132447062Y-163902469D01*
X132447062Y-163902469D02*
X132208967Y-163902469D01*
X132208967Y-163902469D02*
X132113729Y-163854850D01*
X132113729Y-163854850D02*
X132066110Y-163807231D01*
X132066110Y-163807231D02*
X132018491Y-163711993D01*
X132018491Y-163711993D02*
X132018491Y-163521517D01*
X132018491Y-163521517D02*
X132066110Y-163426279D01*
X132066110Y-163426279D02*
X132113729Y-163378660D01*
X132113729Y-163378660D02*
X132208967Y-163331041D01*
X131637539Y-164188184D02*
X132637539Y-164521517D01*
X132637539Y-164521517D02*
X131637539Y-164854850D01*
X132161348Y-165378660D02*
X132637539Y-165378660D01*
X131637539Y-165045327D02*
X132161348Y-165378660D01*
X132161348Y-165378660D02*
X131637539Y-165711993D01*
X132589920Y-166092946D02*
X132637539Y-166092946D01*
X132637539Y-166092946D02*
X132732777Y-166045327D01*
X132732777Y-166045327D02*
X132780396Y-165997708D01*
X132637539Y-167045326D02*
X132637539Y-166473898D01*
X132637539Y-166759612D02*
X131637539Y-166759612D01*
X131637539Y-166759612D02*
X131780396Y-166664374D01*
X131780396Y-166664374D02*
X131875634Y-166569136D01*
X131875634Y-166569136D02*
X131923253Y-166473898D01*
X132637539Y-167997707D02*
X132637539Y-167426279D01*
X132637539Y-167711993D02*
X131637539Y-167711993D01*
X131637539Y-167711993D02*
X131780396Y-167616755D01*
X131780396Y-167616755D02*
X131875634Y-167521517D01*
X131875634Y-167521517D02*
X131923253Y-167426279D01*
X131637539Y-168902469D02*
X131637539Y-168426279D01*
X131637539Y-168426279D02*
X132113729Y-168378660D01*
X132113729Y-168378660D02*
X132066110Y-168426279D01*
X132066110Y-168426279D02*
X132018491Y-168521517D01*
X132018491Y-168521517D02*
X132018491Y-168759612D01*
X132018491Y-168759612D02*
X132066110Y-168854850D01*
X132066110Y-168854850D02*
X132113729Y-168902469D01*
X132113729Y-168902469D02*
X132208967Y-168950088D01*
X132208967Y-168950088D02*
X132447062Y-168950088D01*
X132447062Y-168950088D02*
X132542300Y-168902469D01*
X132542300Y-168902469D02*
X132589920Y-168854850D01*
X132589920Y-168854850D02*
X132637539Y-168759612D01*
X132637539Y-168759612D02*
X132637539Y-168521517D01*
X132637539Y-168521517D02*
X132589920Y-168426279D01*
X132589920Y-168426279D02*
X132542300Y-168378660D01*
D11*
X134551767Y-164487021D02*
X134551767Y-163987021D01*
X134551767Y-163987021D02*
X134432719Y-163987021D01*
X134432719Y-163987021D02*
X134361291Y-164010831D01*
X134361291Y-164010831D02*
X134313672Y-164058450D01*
X134313672Y-164058450D02*
X134289862Y-164106069D01*
X134289862Y-164106069D02*
X134266053Y-164201307D01*
X134266053Y-164201307D02*
X134266053Y-164272735D01*
X134266053Y-164272735D02*
X134289862Y-164367973D01*
X134289862Y-164367973D02*
X134313672Y-164415592D01*
X134313672Y-164415592D02*
X134361291Y-164463212D01*
X134361291Y-164463212D02*
X134432719Y-164487021D01*
X134432719Y-164487021D02*
X134551767Y-164487021D01*
X133837481Y-163987021D02*
X133932719Y-163987021D01*
X133932719Y-163987021D02*
X133980338Y-164010831D01*
X133980338Y-164010831D02*
X134004148Y-164034640D01*
X134004148Y-164034640D02*
X134051767Y-164106069D01*
X134051767Y-164106069D02*
X134075576Y-164201307D01*
X134075576Y-164201307D02*
X134075576Y-164391783D01*
X134075576Y-164391783D02*
X134051767Y-164439402D01*
X134051767Y-164439402D02*
X134027957Y-164463212D01*
X134027957Y-164463212D02*
X133980338Y-164487021D01*
X133980338Y-164487021D02*
X133885100Y-164487021D01*
X133885100Y-164487021D02*
X133837481Y-164463212D01*
X133837481Y-164463212D02*
X133813672Y-164439402D01*
X133813672Y-164439402D02*
X133789862Y-164391783D01*
X133789862Y-164391783D02*
X133789862Y-164272735D01*
X133789862Y-164272735D02*
X133813672Y-164225116D01*
X133813672Y-164225116D02*
X133837481Y-164201307D01*
X133837481Y-164201307D02*
X133885100Y-164177497D01*
X133885100Y-164177497D02*
X133980338Y-164177497D01*
X133980338Y-164177497D02*
X134027957Y-164201307D01*
X134027957Y-164201307D02*
X134051767Y-164225116D01*
X134051767Y-164225116D02*
X134075576Y-164272735D01*
D10*
X141257729Y-159950088D02*
X141305348Y-160092945D01*
X141305348Y-160092945D02*
X141352967Y-160140564D01*
X141352967Y-160140564D02*
X141448205Y-160188183D01*
X141448205Y-160188183D02*
X141591062Y-160188183D01*
X141591062Y-160188183D02*
X141686300Y-160140564D01*
X141686300Y-160140564D02*
X141733920Y-160092945D01*
X141733920Y-160092945D02*
X141781539Y-159997707D01*
X141781539Y-159997707D02*
X141781539Y-159616755D01*
X141781539Y-159616755D02*
X140781539Y-159616755D01*
X140781539Y-159616755D02*
X140781539Y-159950088D01*
X140781539Y-159950088D02*
X140829158Y-160045326D01*
X140829158Y-160045326D02*
X140876777Y-160092945D01*
X140876777Y-160092945D02*
X140972015Y-160140564D01*
X140972015Y-160140564D02*
X141067253Y-160140564D01*
X141067253Y-160140564D02*
X141162491Y-160092945D01*
X141162491Y-160092945D02*
X141210110Y-160045326D01*
X141210110Y-160045326D02*
X141257729Y-159950088D01*
X141257729Y-159950088D02*
X141257729Y-159616755D01*
X141495824Y-160569136D02*
X141495824Y-161045326D01*
X141781539Y-160473898D02*
X140781539Y-160807231D01*
X140781539Y-160807231D02*
X141781539Y-161140564D01*
X141733920Y-161426279D02*
X141781539Y-161569136D01*
X141781539Y-161569136D02*
X141781539Y-161807231D01*
X141781539Y-161807231D02*
X141733920Y-161902469D01*
X141733920Y-161902469D02*
X141686300Y-161950088D01*
X141686300Y-161950088D02*
X141591062Y-161997707D01*
X141591062Y-161997707D02*
X141495824Y-161997707D01*
X141495824Y-161997707D02*
X141400586Y-161950088D01*
X141400586Y-161950088D02*
X141352967Y-161902469D01*
X141352967Y-161902469D02*
X141305348Y-161807231D01*
X141305348Y-161807231D02*
X141257729Y-161616755D01*
X141257729Y-161616755D02*
X141210110Y-161521517D01*
X141210110Y-161521517D02*
X141162491Y-161473898D01*
X141162491Y-161473898D02*
X141067253Y-161426279D01*
X141067253Y-161426279D02*
X140972015Y-161426279D01*
X140972015Y-161426279D02*
X140876777Y-161473898D01*
X140876777Y-161473898D02*
X140829158Y-161521517D01*
X140829158Y-161521517D02*
X140781539Y-161616755D01*
X140781539Y-161616755D02*
X140781539Y-161854850D01*
X140781539Y-161854850D02*
X140829158Y-161997707D01*
X141781539Y-162950088D02*
X141781539Y-162378660D01*
X141781539Y-162664374D02*
X140781539Y-162664374D01*
X140781539Y-162664374D02*
X140924396Y-162569136D01*
X140924396Y-162569136D02*
X141019634Y-162473898D01*
X141019634Y-162473898D02*
X141067253Y-162378660D01*
X140781539Y-163807231D02*
X140781539Y-163616755D01*
X140781539Y-163616755D02*
X140829158Y-163521517D01*
X140829158Y-163521517D02*
X140876777Y-163473898D01*
X140876777Y-163473898D02*
X141019634Y-163378660D01*
X141019634Y-163378660D02*
X141210110Y-163331041D01*
X141210110Y-163331041D02*
X141591062Y-163331041D01*
X141591062Y-163331041D02*
X141686300Y-163378660D01*
X141686300Y-163378660D02*
X141733920Y-163426279D01*
X141733920Y-163426279D02*
X141781539Y-163521517D01*
X141781539Y-163521517D02*
X141781539Y-163711993D01*
X141781539Y-163711993D02*
X141733920Y-163807231D01*
X141733920Y-163807231D02*
X141686300Y-163854850D01*
X141686300Y-163854850D02*
X141591062Y-163902469D01*
X141591062Y-163902469D02*
X141352967Y-163902469D01*
X141352967Y-163902469D02*
X141257729Y-163854850D01*
X141257729Y-163854850D02*
X141210110Y-163807231D01*
X141210110Y-163807231D02*
X141162491Y-163711993D01*
X141162491Y-163711993D02*
X141162491Y-163521517D01*
X141162491Y-163521517D02*
X141210110Y-163426279D01*
X141210110Y-163426279D02*
X141257729Y-163378660D01*
X141257729Y-163378660D02*
X141352967Y-163331041D01*
X140781539Y-164188184D02*
X141781539Y-164521517D01*
X141781539Y-164521517D02*
X140781539Y-164854850D01*
X141305348Y-165378660D02*
X141781539Y-165378660D01*
X140781539Y-165045327D02*
X141305348Y-165378660D01*
X141305348Y-165378660D02*
X140781539Y-165711993D01*
X141733920Y-166092946D02*
X141781539Y-166092946D01*
X141781539Y-166092946D02*
X141876777Y-166045327D01*
X141876777Y-166045327D02*
X141924396Y-165997708D01*
X141781539Y-167045326D02*
X141781539Y-166473898D01*
X141781539Y-166759612D02*
X140781539Y-166759612D01*
X140781539Y-166759612D02*
X140924396Y-166664374D01*
X140924396Y-166664374D02*
X141019634Y-166569136D01*
X141019634Y-166569136D02*
X141067253Y-166473898D01*
X141781539Y-167997707D02*
X141781539Y-167426279D01*
X141781539Y-167711993D02*
X140781539Y-167711993D01*
X140781539Y-167711993D02*
X140924396Y-167616755D01*
X140924396Y-167616755D02*
X141019634Y-167521517D01*
X141019634Y-167521517D02*
X141067253Y-167426279D01*
X140781539Y-168902469D02*
X140781539Y-168426279D01*
X140781539Y-168426279D02*
X141257729Y-168378660D01*
X141257729Y-168378660D02*
X141210110Y-168426279D01*
X141210110Y-168426279D02*
X141162491Y-168521517D01*
X141162491Y-168521517D02*
X141162491Y-168759612D01*
X141162491Y-168759612D02*
X141210110Y-168854850D01*
X141210110Y-168854850D02*
X141257729Y-168902469D01*
X141257729Y-168902469D02*
X141352967Y-168950088D01*
X141352967Y-168950088D02*
X141591062Y-168950088D01*
X141591062Y-168950088D02*
X141686300Y-168902469D01*
X141686300Y-168902469D02*
X141733920Y-168854850D01*
X141733920Y-168854850D02*
X141781539Y-168759612D01*
X141781539Y-168759612D02*
X141781539Y-168521517D01*
X141781539Y-168521517D02*
X141733920Y-168426279D01*
X141733920Y-168426279D02*
X141686300Y-168378660D01*
D11*
X143695767Y-164487021D02*
X143695767Y-163987021D01*
X143695767Y-163987021D02*
X143576719Y-163987021D01*
X143576719Y-163987021D02*
X143505291Y-164010831D01*
X143505291Y-164010831D02*
X143457672Y-164058450D01*
X143457672Y-164058450D02*
X143433862Y-164106069D01*
X143433862Y-164106069D02*
X143410053Y-164201307D01*
X143410053Y-164201307D02*
X143410053Y-164272735D01*
X143410053Y-164272735D02*
X143433862Y-164367973D01*
X143433862Y-164367973D02*
X143457672Y-164415592D01*
X143457672Y-164415592D02*
X143505291Y-164463212D01*
X143505291Y-164463212D02*
X143576719Y-164487021D01*
X143576719Y-164487021D02*
X143695767Y-164487021D01*
X143243386Y-163987021D02*
X142933862Y-163987021D01*
X142933862Y-163987021D02*
X143100529Y-164177497D01*
X143100529Y-164177497D02*
X143029100Y-164177497D01*
X143029100Y-164177497D02*
X142981481Y-164201307D01*
X142981481Y-164201307D02*
X142957672Y-164225116D01*
X142957672Y-164225116D02*
X142933862Y-164272735D01*
X142933862Y-164272735D02*
X142933862Y-164391783D01*
X142933862Y-164391783D02*
X142957672Y-164439402D01*
X142957672Y-164439402D02*
X142981481Y-164463212D01*
X142981481Y-164463212D02*
X143029100Y-164487021D01*
X143029100Y-164487021D02*
X143171957Y-164487021D01*
X143171957Y-164487021D02*
X143219576Y-164463212D01*
X143219576Y-164463212D02*
X143243386Y-164439402D01*
D10*
X147353729Y-159950088D02*
X147401348Y-160092945D01*
X147401348Y-160092945D02*
X147448967Y-160140564D01*
X147448967Y-160140564D02*
X147544205Y-160188183D01*
X147544205Y-160188183D02*
X147687062Y-160188183D01*
X147687062Y-160188183D02*
X147782300Y-160140564D01*
X147782300Y-160140564D02*
X147829920Y-160092945D01*
X147829920Y-160092945D02*
X147877539Y-159997707D01*
X147877539Y-159997707D02*
X147877539Y-159616755D01*
X147877539Y-159616755D02*
X146877539Y-159616755D01*
X146877539Y-159616755D02*
X146877539Y-159950088D01*
X146877539Y-159950088D02*
X146925158Y-160045326D01*
X146925158Y-160045326D02*
X146972777Y-160092945D01*
X146972777Y-160092945D02*
X147068015Y-160140564D01*
X147068015Y-160140564D02*
X147163253Y-160140564D01*
X147163253Y-160140564D02*
X147258491Y-160092945D01*
X147258491Y-160092945D02*
X147306110Y-160045326D01*
X147306110Y-160045326D02*
X147353729Y-159950088D01*
X147353729Y-159950088D02*
X147353729Y-159616755D01*
X147591824Y-160569136D02*
X147591824Y-161045326D01*
X147877539Y-160473898D02*
X146877539Y-160807231D01*
X146877539Y-160807231D02*
X147877539Y-161140564D01*
X147829920Y-161426279D02*
X147877539Y-161569136D01*
X147877539Y-161569136D02*
X147877539Y-161807231D01*
X147877539Y-161807231D02*
X147829920Y-161902469D01*
X147829920Y-161902469D02*
X147782300Y-161950088D01*
X147782300Y-161950088D02*
X147687062Y-161997707D01*
X147687062Y-161997707D02*
X147591824Y-161997707D01*
X147591824Y-161997707D02*
X147496586Y-161950088D01*
X147496586Y-161950088D02*
X147448967Y-161902469D01*
X147448967Y-161902469D02*
X147401348Y-161807231D01*
X147401348Y-161807231D02*
X147353729Y-161616755D01*
X147353729Y-161616755D02*
X147306110Y-161521517D01*
X147306110Y-161521517D02*
X147258491Y-161473898D01*
X147258491Y-161473898D02*
X147163253Y-161426279D01*
X147163253Y-161426279D02*
X147068015Y-161426279D01*
X147068015Y-161426279D02*
X146972777Y-161473898D01*
X146972777Y-161473898D02*
X146925158Y-161521517D01*
X146925158Y-161521517D02*
X146877539Y-161616755D01*
X146877539Y-161616755D02*
X146877539Y-161854850D01*
X146877539Y-161854850D02*
X146925158Y-161997707D01*
X147877539Y-162950088D02*
X147877539Y-162378660D01*
X147877539Y-162664374D02*
X146877539Y-162664374D01*
X146877539Y-162664374D02*
X147020396Y-162569136D01*
X147020396Y-162569136D02*
X147115634Y-162473898D01*
X147115634Y-162473898D02*
X147163253Y-162378660D01*
X146877539Y-163807231D02*
X146877539Y-163616755D01*
X146877539Y-163616755D02*
X146925158Y-163521517D01*
X146925158Y-163521517D02*
X146972777Y-163473898D01*
X146972777Y-163473898D02*
X147115634Y-163378660D01*
X147115634Y-163378660D02*
X147306110Y-163331041D01*
X147306110Y-163331041D02*
X147687062Y-163331041D01*
X147687062Y-163331041D02*
X147782300Y-163378660D01*
X147782300Y-163378660D02*
X147829920Y-163426279D01*
X147829920Y-163426279D02*
X147877539Y-163521517D01*
X147877539Y-163521517D02*
X147877539Y-163711993D01*
X147877539Y-163711993D02*
X147829920Y-163807231D01*
X147829920Y-163807231D02*
X147782300Y-163854850D01*
X147782300Y-163854850D02*
X147687062Y-163902469D01*
X147687062Y-163902469D02*
X147448967Y-163902469D01*
X147448967Y-163902469D02*
X147353729Y-163854850D01*
X147353729Y-163854850D02*
X147306110Y-163807231D01*
X147306110Y-163807231D02*
X147258491Y-163711993D01*
X147258491Y-163711993D02*
X147258491Y-163521517D01*
X147258491Y-163521517D02*
X147306110Y-163426279D01*
X147306110Y-163426279D02*
X147353729Y-163378660D01*
X147353729Y-163378660D02*
X147448967Y-163331041D01*
X146877539Y-164188184D02*
X147877539Y-164521517D01*
X147877539Y-164521517D02*
X146877539Y-164854850D01*
X147401348Y-165378660D02*
X147877539Y-165378660D01*
X146877539Y-165045327D02*
X147401348Y-165378660D01*
X147401348Y-165378660D02*
X146877539Y-165711993D01*
X147829920Y-166092946D02*
X147877539Y-166092946D01*
X147877539Y-166092946D02*
X147972777Y-166045327D01*
X147972777Y-166045327D02*
X148020396Y-165997708D01*
X147877539Y-167045326D02*
X147877539Y-166473898D01*
X147877539Y-166759612D02*
X146877539Y-166759612D01*
X146877539Y-166759612D02*
X147020396Y-166664374D01*
X147020396Y-166664374D02*
X147115634Y-166569136D01*
X147115634Y-166569136D02*
X147163253Y-166473898D01*
X147877539Y-167997707D02*
X147877539Y-167426279D01*
X147877539Y-167711993D02*
X146877539Y-167711993D01*
X146877539Y-167711993D02*
X147020396Y-167616755D01*
X147020396Y-167616755D02*
X147115634Y-167521517D01*
X147115634Y-167521517D02*
X147163253Y-167426279D01*
X146877539Y-168902469D02*
X146877539Y-168426279D01*
X146877539Y-168426279D02*
X147353729Y-168378660D01*
X147353729Y-168378660D02*
X147306110Y-168426279D01*
X147306110Y-168426279D02*
X147258491Y-168521517D01*
X147258491Y-168521517D02*
X147258491Y-168759612D01*
X147258491Y-168759612D02*
X147306110Y-168854850D01*
X147306110Y-168854850D02*
X147353729Y-168902469D01*
X147353729Y-168902469D02*
X147448967Y-168950088D01*
X147448967Y-168950088D02*
X147687062Y-168950088D01*
X147687062Y-168950088D02*
X147782300Y-168902469D01*
X147782300Y-168902469D02*
X147829920Y-168854850D01*
X147829920Y-168854850D02*
X147877539Y-168759612D01*
X147877539Y-168759612D02*
X147877539Y-168521517D01*
X147877539Y-168521517D02*
X147829920Y-168426279D01*
X147829920Y-168426279D02*
X147782300Y-168378660D01*
D11*
X149791767Y-164487021D02*
X149791767Y-163987021D01*
X149791767Y-163987021D02*
X149672719Y-163987021D01*
X149672719Y-163987021D02*
X149601291Y-164010831D01*
X149601291Y-164010831D02*
X149553672Y-164058450D01*
X149553672Y-164058450D02*
X149529862Y-164106069D01*
X149529862Y-164106069D02*
X149506053Y-164201307D01*
X149506053Y-164201307D02*
X149506053Y-164272735D01*
X149506053Y-164272735D02*
X149529862Y-164367973D01*
X149529862Y-164367973D02*
X149553672Y-164415592D01*
X149553672Y-164415592D02*
X149601291Y-164463212D01*
X149601291Y-164463212D02*
X149672719Y-164487021D01*
X149672719Y-164487021D02*
X149791767Y-164487021D01*
X149029862Y-164487021D02*
X149315576Y-164487021D01*
X149172719Y-164487021D02*
X149172719Y-163987021D01*
X149172719Y-163987021D02*
X149220338Y-164058450D01*
X149220338Y-164058450D02*
X149267957Y-164106069D01*
X149267957Y-164106069D02*
X149315576Y-164129878D01*
D10*
X110559958Y-156256063D02*
X109988530Y-156256063D01*
X110274244Y-157256063D02*
X110274244Y-156256063D01*
X109512339Y-157256063D02*
X109607577Y-157208444D01*
X109607577Y-157208444D02*
X109655196Y-157160824D01*
X109655196Y-157160824D02*
X109702815Y-157065586D01*
X109702815Y-157065586D02*
X109702815Y-156779872D01*
X109702815Y-156779872D02*
X109655196Y-156684634D01*
X109655196Y-156684634D02*
X109607577Y-156637015D01*
X109607577Y-156637015D02*
X109512339Y-156589396D01*
X109512339Y-156589396D02*
X109369482Y-156589396D01*
X109369482Y-156589396D02*
X109274244Y-156637015D01*
X109274244Y-156637015D02*
X109226625Y-156684634D01*
X109226625Y-156684634D02*
X109179006Y-156779872D01*
X109179006Y-156779872D02*
X109179006Y-157065586D01*
X109179006Y-157065586D02*
X109226625Y-157160824D01*
X109226625Y-157160824D02*
X109274244Y-157208444D01*
X109274244Y-157208444D02*
X109369482Y-157256063D01*
X109369482Y-157256063D02*
X109512339Y-157256063D01*
X107655196Y-156732253D02*
X107512339Y-156779872D01*
X107512339Y-156779872D02*
X107464720Y-156827491D01*
X107464720Y-156827491D02*
X107417101Y-156922729D01*
X107417101Y-156922729D02*
X107417101Y-157065586D01*
X107417101Y-157065586D02*
X107464720Y-157160824D01*
X107464720Y-157160824D02*
X107512339Y-157208444D01*
X107512339Y-157208444D02*
X107607577Y-157256063D01*
X107607577Y-157256063D02*
X107988529Y-157256063D01*
X107988529Y-157256063D02*
X107988529Y-156256063D01*
X107988529Y-156256063D02*
X107655196Y-156256063D01*
X107655196Y-156256063D02*
X107559958Y-156303682D01*
X107559958Y-156303682D02*
X107512339Y-156351301D01*
X107512339Y-156351301D02*
X107464720Y-156446539D01*
X107464720Y-156446539D02*
X107464720Y-156541777D01*
X107464720Y-156541777D02*
X107512339Y-156637015D01*
X107512339Y-156637015D02*
X107559958Y-156684634D01*
X107559958Y-156684634D02*
X107655196Y-156732253D01*
X107655196Y-156732253D02*
X107988529Y-156732253D01*
X106559958Y-156589396D02*
X106559958Y-157256063D01*
X106988529Y-156589396D02*
X106988529Y-157113205D01*
X106988529Y-157113205D02*
X106940910Y-157208444D01*
X106940910Y-157208444D02*
X106845672Y-157256063D01*
X106845672Y-157256063D02*
X106702815Y-157256063D01*
X106702815Y-157256063D02*
X106607577Y-157208444D01*
X106607577Y-157208444D02*
X106559958Y-157160824D01*
X106226624Y-156589396D02*
X105845672Y-156589396D01*
X106083767Y-156256063D02*
X106083767Y-157113205D01*
X106083767Y-157113205D02*
X106036148Y-157208444D01*
X106036148Y-157208444D02*
X105940910Y-157256063D01*
X105940910Y-157256063D02*
X105845672Y-157256063D01*
X105655195Y-156589396D02*
X105274243Y-156589396D01*
X105512338Y-156256063D02*
X105512338Y-157113205D01*
X105512338Y-157113205D02*
X105464719Y-157208444D01*
X105464719Y-157208444D02*
X105369481Y-157256063D01*
X105369481Y-157256063D02*
X105274243Y-157256063D01*
X104798052Y-157256063D02*
X104893290Y-157208444D01*
X104893290Y-157208444D02*
X104940909Y-157160824D01*
X104940909Y-157160824D02*
X104988528Y-157065586D01*
X104988528Y-157065586D02*
X104988528Y-156779872D01*
X104988528Y-156779872D02*
X104940909Y-156684634D01*
X104940909Y-156684634D02*
X104893290Y-156637015D01*
X104893290Y-156637015D02*
X104798052Y-156589396D01*
X104798052Y-156589396D02*
X104655195Y-156589396D01*
X104655195Y-156589396D02*
X104559957Y-156637015D01*
X104559957Y-156637015D02*
X104512338Y-156684634D01*
X104512338Y-156684634D02*
X104464719Y-156779872D01*
X104464719Y-156779872D02*
X104464719Y-157065586D01*
X104464719Y-157065586D02*
X104512338Y-157160824D01*
X104512338Y-157160824D02*
X104559957Y-157208444D01*
X104559957Y-157208444D02*
X104655195Y-157256063D01*
X104655195Y-157256063D02*
X104798052Y-157256063D01*
X104036147Y-156589396D02*
X104036147Y-157256063D01*
X104036147Y-156684634D02*
X103988528Y-156637015D01*
X103988528Y-156637015D02*
X103893290Y-156589396D01*
X103893290Y-156589396D02*
X103750433Y-156589396D01*
X103750433Y-156589396D02*
X103655195Y-156637015D01*
X103655195Y-156637015D02*
X103607576Y-156732253D01*
X103607576Y-156732253D02*
X103607576Y-157256063D01*
X102036147Y-156732253D02*
X101893290Y-156779872D01*
X101893290Y-156779872D02*
X101845671Y-156827491D01*
X101845671Y-156827491D02*
X101798052Y-156922729D01*
X101798052Y-156922729D02*
X101798052Y-157065586D01*
X101798052Y-157065586D02*
X101845671Y-157160824D01*
X101845671Y-157160824D02*
X101893290Y-157208444D01*
X101893290Y-157208444D02*
X101988528Y-157256063D01*
X101988528Y-157256063D02*
X102369480Y-157256063D01*
X102369480Y-157256063D02*
X102369480Y-156256063D01*
X102369480Y-156256063D02*
X102036147Y-156256063D01*
X102036147Y-156256063D02*
X101940909Y-156303682D01*
X101940909Y-156303682D02*
X101893290Y-156351301D01*
X101893290Y-156351301D02*
X101845671Y-156446539D01*
X101845671Y-156446539D02*
X101845671Y-156541777D01*
X101845671Y-156541777D02*
X101893290Y-156637015D01*
X101893290Y-156637015D02*
X101940909Y-156684634D01*
X101940909Y-156684634D02*
X102036147Y-156732253D01*
X102036147Y-156732253D02*
X102369480Y-156732253D01*
X101226623Y-157256063D02*
X101321861Y-157208444D01*
X101321861Y-157208444D02*
X101369480Y-157160824D01*
X101369480Y-157160824D02*
X101417099Y-157065586D01*
X101417099Y-157065586D02*
X101417099Y-156779872D01*
X101417099Y-156779872D02*
X101369480Y-156684634D01*
X101369480Y-156684634D02*
X101321861Y-156637015D01*
X101321861Y-156637015D02*
X101226623Y-156589396D01*
X101226623Y-156589396D02*
X101083766Y-156589396D01*
X101083766Y-156589396D02*
X100988528Y-156637015D01*
X100988528Y-156637015D02*
X100940909Y-156684634D01*
X100940909Y-156684634D02*
X100893290Y-156779872D01*
X100893290Y-156779872D02*
X100893290Y-157065586D01*
X100893290Y-157065586D02*
X100940909Y-157160824D01*
X100940909Y-157160824D02*
X100988528Y-157208444D01*
X100988528Y-157208444D02*
X101083766Y-157256063D01*
X101083766Y-157256063D02*
X101226623Y-157256063D01*
X100036147Y-157256063D02*
X100036147Y-156732253D01*
X100036147Y-156732253D02*
X100083766Y-156637015D01*
X100083766Y-156637015D02*
X100179004Y-156589396D01*
X100179004Y-156589396D02*
X100369480Y-156589396D01*
X100369480Y-156589396D02*
X100464718Y-156637015D01*
X100036147Y-157208444D02*
X100131385Y-157256063D01*
X100131385Y-157256063D02*
X100369480Y-157256063D01*
X100369480Y-157256063D02*
X100464718Y-157208444D01*
X100464718Y-157208444D02*
X100512337Y-157113205D01*
X100512337Y-157113205D02*
X100512337Y-157017967D01*
X100512337Y-157017967D02*
X100464718Y-156922729D01*
X100464718Y-156922729D02*
X100369480Y-156875110D01*
X100369480Y-156875110D02*
X100131385Y-156875110D01*
X100131385Y-156875110D02*
X100036147Y-156827491D01*
X99559956Y-157256063D02*
X99559956Y-156589396D01*
X99559956Y-156779872D02*
X99512337Y-156684634D01*
X99512337Y-156684634D02*
X99464718Y-156637015D01*
X99464718Y-156637015D02*
X99369480Y-156589396D01*
X99369480Y-156589396D02*
X99274242Y-156589396D01*
X98512337Y-157256063D02*
X98512337Y-156256063D01*
X98512337Y-157208444D02*
X98607575Y-157256063D01*
X98607575Y-157256063D02*
X98798051Y-157256063D01*
X98798051Y-157256063D02*
X98893289Y-157208444D01*
X98893289Y-157208444D02*
X98940908Y-157160824D01*
X98940908Y-157160824D02*
X98988527Y-157065586D01*
X98988527Y-157065586D02*
X98988527Y-156779872D01*
X98988527Y-156779872D02*
X98940908Y-156684634D01*
X98940908Y-156684634D02*
X98893289Y-156637015D01*
X98893289Y-156637015D02*
X98798051Y-156589396D01*
X98798051Y-156589396D02*
X98607575Y-156589396D01*
X98607575Y-156589396D02*
X98512337Y-156637015D01*
D12*
X146974720Y-164934612D02*
X145274720Y-164934612D01*
X147474720Y-164434612D02*
X146974720Y-164934612D01*
X145274720Y-163584612D02*
X145274720Y-164934612D01*
X147474720Y-163584612D02*
X147474720Y-164434612D01*
X147474720Y-163584612D02*
X145274720Y-163584612D01*
X137830720Y-164934612D02*
X136130720Y-164934612D01*
X138330720Y-164434612D02*
X137830720Y-164934612D01*
X136130720Y-163584612D02*
X136130720Y-164934612D01*
X138330720Y-163584612D02*
X138330720Y-164434612D01*
X138330720Y-163584612D02*
X136130720Y-163584612D01*
X140878720Y-164934612D02*
X139178720Y-164934612D01*
X141378720Y-164434612D02*
X140878720Y-164934612D01*
X139178720Y-163584612D02*
X139178720Y-164934612D01*
X141378720Y-163584612D02*
X141378720Y-164434612D01*
X141378720Y-163584612D02*
X139178720Y-163584612D01*
X134782720Y-164934612D02*
X133082720Y-164934612D01*
X135282720Y-164434612D02*
X134782720Y-164934612D01*
X133082720Y-163584612D02*
X133082720Y-164934612D01*
X135282720Y-163584612D02*
X135282720Y-164434612D01*
X135282720Y-163584612D02*
X133082720Y-163584612D01*
X143926720Y-164934612D02*
X142226720Y-164934612D01*
X144426720Y-164434612D02*
X143926720Y-164934612D01*
X142226720Y-163584612D02*
X142226720Y-164934612D01*
X144426720Y-163584612D02*
X144426720Y-164434612D01*
X144426720Y-163584612D02*
X142226720Y-163584612D01*
X150022720Y-164934612D02*
X148322720Y-164934612D01*
X150522720Y-164434612D02*
X150022720Y-164934612D01*
X148322720Y-163584612D02*
X148322720Y-164934612D01*
X150522720Y-163584612D02*
X150522720Y-164434612D01*
X150522720Y-163584612D02*
X148322720Y-163584612D01*
M02*
