G04 #@! TF.GenerationSoftware,KiCad,Pcbnew,7.0.6*
G04 #@! TF.CreationDate,2023-12-22T13:42:26-08:00*
G04 #@! TF.ProjectId,procon_button_board,70726f63-6f6e-45f6-9275-74746f6e5f62,rev?*
G04 #@! TF.SameCoordinates,Original*
G04 #@! TF.FileFunction,Soldermask,Top*
G04 #@! TF.FilePolarity,Negative*
%FSLAX46Y46*%
G04 Gerber Fmt 4.6, Leading zero omitted, Abs format (unit mm)*
G04 Created by KiCad (PCBNEW 7.0.6) date 2023-12-22 13:42:26*
%MOMM*%
%LPD*%
G01*
G04 APERTURE LIST*
%ADD10C,0.025000*%
%ADD11C,3.050000*%
%ADD12C,3.800000*%
%ADD13R,0.600000X0.650000*%
%ADD14R,0.550000X0.550000*%
G04 APERTURE END LIST*
D10*
X144475200Y-118133298D02*
X145429155Y-118133298D01*
X145429155Y-118802667D01*
X143842541Y-118802667D01*
X143842541Y-116249495D01*
X144475200Y-116249495D01*
X144475200Y-118133298D01*
G36*
X144475200Y-118133298D02*
G01*
X145429155Y-118133298D01*
X145429155Y-118802667D01*
X143842541Y-118802667D01*
X143842541Y-116249495D01*
X144475200Y-116249495D01*
X144475200Y-118133298D01*
G37*
X141709066Y-118802667D02*
X141028205Y-118802667D01*
X141028205Y-117834545D01*
X140788549Y-117834545D01*
X140788549Y-118802667D01*
X140103249Y-118802667D01*
X140103249Y-116250015D01*
X140786263Y-116249495D01*
X140786263Y-117172297D01*
X141028205Y-117172297D01*
X141028205Y-116249495D01*
X141709066Y-116249495D01*
X141709066Y-118802667D01*
G36*
X141709066Y-118802667D02*
G01*
X141028205Y-118802667D01*
X141028205Y-117834545D01*
X140788549Y-117834545D01*
X140788549Y-118802667D01*
X140103249Y-118802667D01*
X140103249Y-116250015D01*
X140786263Y-116249495D01*
X140786263Y-117172297D01*
X141028205Y-117172297D01*
X141028205Y-116249495D01*
X141709066Y-116249495D01*
X141709066Y-118802667D01*
G37*
X143559066Y-118802667D02*
X142878205Y-118802667D01*
X142878205Y-117834545D01*
X142638549Y-117834545D01*
X142638549Y-118802667D01*
X141953249Y-118802667D01*
X141953249Y-116250015D01*
X142636263Y-116249495D01*
X142636263Y-117172297D01*
X142878205Y-117172297D01*
X142878205Y-116249495D01*
X143559066Y-116249495D01*
X143559066Y-118802667D01*
G36*
X143559066Y-118802667D02*
G01*
X142878205Y-118802667D01*
X142878205Y-117834545D01*
X142638549Y-117834545D01*
X142638549Y-118802667D01*
X141953249Y-118802667D01*
X141953249Y-116250015D01*
X142636263Y-116249495D01*
X142636263Y-117172297D01*
X142878205Y-117172297D01*
X142878205Y-116249495D01*
X143559066Y-116249495D01*
X143559066Y-118802667D01*
G37*
D11*
X121003000Y-159421000D02*
G75*
G03*
X121003000Y-159421000I-1525000J0D01*
G01*
D12*
X173178000Y-129346000D02*
G75*
G03*
X173178000Y-129346000I-1900000J0D01*
G01*
X196978000Y-129346000D02*
G75*
G03*
X196978000Y-129346000I-1900000J0D01*
G01*
X185078000Y-139546000D02*
G75*
G03*
X185078000Y-139546000I-1900000J0D01*
G01*
D11*
X112003000Y-150421000D02*
G75*
G03*
X112003000Y-150421000I-1525000J0D01*
G01*
D12*
X185078000Y-119146000D02*
G75*
G03*
X185078000Y-119146000I-1900000J0D01*
G01*
D11*
X130003000Y-150421000D02*
G75*
G03*
X130003000Y-150421000I-1525000J0D01*
G01*
X121003000Y-141421000D02*
G75*
G03*
X121003000Y-141421000I-1525000J0D01*
G01*
D13*
X160198000Y-116611000D03*
X163298000Y-116611000D03*
X160198000Y-119361000D03*
X163298000Y-119361000D03*
X130498000Y-128111000D03*
X133598000Y-128111000D03*
X130498000Y-130861000D03*
X133598000Y-130861000D03*
D14*
X131573000Y-134461000D03*
X132523000Y-134461000D03*
X132523000Y-133511000D03*
X131573000Y-133511000D03*
D13*
X122598000Y-116611000D03*
X125698000Y-116611000D03*
X122598000Y-119361000D03*
X125698000Y-119361000D03*
D14*
X119003000Y-146246000D03*
X119953000Y-146246000D03*
X119953000Y-145296000D03*
X119003000Y-145296000D03*
X119003000Y-155546000D03*
X119953000Y-155546000D03*
X119953000Y-154596000D03*
X119003000Y-154596000D03*
X182703000Y-145271000D03*
X183653000Y-145271000D03*
X183653000Y-144321000D03*
X182703000Y-144321000D03*
X123673000Y-122961000D03*
X124623000Y-122961000D03*
X124623000Y-122011000D03*
X123673000Y-122011000D03*
X170803000Y-135071000D03*
X171753000Y-135071000D03*
X171753000Y-134121000D03*
X170803000Y-134121000D03*
X114353000Y-150896000D03*
X115303000Y-150896000D03*
X115303000Y-149946000D03*
X114353000Y-149946000D03*
X123653000Y-150896000D03*
X124603000Y-150896000D03*
X124603000Y-149946000D03*
X123653000Y-149946000D03*
X194603000Y-135071000D03*
X195553000Y-135071000D03*
X195553000Y-134121000D03*
X194603000Y-134121000D03*
X153223000Y-134461000D03*
X154173000Y-134461000D03*
X154173000Y-133511000D03*
X153223000Y-133511000D03*
X182703000Y-124871000D03*
X183653000Y-124871000D03*
X183653000Y-123921000D03*
X182703000Y-123921000D03*
D13*
X152148000Y-128111000D03*
X155248000Y-128111000D03*
X152148000Y-130861000D03*
X155248000Y-130861000D03*
D14*
X161273000Y-122961000D03*
X162223000Y-122961000D03*
X162223000Y-122011000D03*
X161273000Y-122011000D03*
M02*
