G04 #@! TF.GenerationSoftware,KiCad,Pcbnew,7.0.6*
G04 #@! TF.CreationDate,2023-09-27T17:44:09-07:00*
G04 #@! TF.ProjectId,procon_tactile_button_board,70726f63-6f6e-45f7-9461-6374696c655f,rev?*
G04 #@! TF.SameCoordinates,Original*
G04 #@! TF.FileFunction,AssemblyDrawing,Top*
%FSLAX46Y46*%
G04 Gerber Fmt 4.6, Leading zero omitted, Abs format (unit mm)*
G04 Created by KiCad (PCBNEW 7.0.6) date 2023-09-27 17:44:09*
%MOMM*%
%LPD*%
G01*
G04 APERTURE LIST*
%ADD10C,0.150000*%
G04 APERTURE END LIST*
D10*
X156628952Y-121938019D02*
X157200380Y-121938019D01*
X156914666Y-122938019D02*
X156914666Y-121938019D01*
X158009904Y-122938019D02*
X157533714Y-122938019D01*
X157533714Y-122938019D02*
X157533714Y-121938019D01*
X158248000Y-121938019D02*
X158867047Y-121938019D01*
X158867047Y-121938019D02*
X158533714Y-122318971D01*
X158533714Y-122318971D02*
X158676571Y-122318971D01*
X158676571Y-122318971D02*
X158771809Y-122366590D01*
X158771809Y-122366590D02*
X158819428Y-122414209D01*
X158819428Y-122414209D02*
X158867047Y-122509447D01*
X158867047Y-122509447D02*
X158867047Y-122747542D01*
X158867047Y-122747542D02*
X158819428Y-122842780D01*
X158819428Y-122842780D02*
X158771809Y-122890400D01*
X158771809Y-122890400D02*
X158676571Y-122938019D01*
X158676571Y-122938019D02*
X158390857Y-122938019D01*
X158390857Y-122938019D02*
X158295619Y-122890400D01*
X158295619Y-122890400D02*
X158248000Y-122842780D01*
X159200381Y-121938019D02*
X159819428Y-121938019D01*
X159819428Y-121938019D02*
X159486095Y-122318971D01*
X159486095Y-122318971D02*
X159628952Y-122318971D01*
X159628952Y-122318971D02*
X159724190Y-122366590D01*
X159724190Y-122366590D02*
X159771809Y-122414209D01*
X159771809Y-122414209D02*
X159819428Y-122509447D01*
X159819428Y-122509447D02*
X159819428Y-122747542D01*
X159819428Y-122747542D02*
X159771809Y-122842780D01*
X159771809Y-122842780D02*
X159724190Y-122890400D01*
X159724190Y-122890400D02*
X159628952Y-122938019D01*
X159628952Y-122938019D02*
X159343238Y-122938019D01*
X159343238Y-122938019D02*
X159248000Y-122890400D01*
X159248000Y-122890400D02*
X159200381Y-122842780D01*
X160771809Y-122938019D02*
X160200381Y-122938019D01*
X160486095Y-122938019D02*
X160486095Y-121938019D01*
X160486095Y-121938019D02*
X160390857Y-122080876D01*
X160390857Y-122080876D02*
X160295619Y-122176114D01*
X160295619Y-122176114D02*
X160200381Y-122223733D01*
X161676571Y-121938019D02*
X161200381Y-121938019D01*
X161200381Y-121938019D02*
X161152762Y-122414209D01*
X161152762Y-122414209D02*
X161200381Y-122366590D01*
X161200381Y-122366590D02*
X161295619Y-122318971D01*
X161295619Y-122318971D02*
X161533714Y-122318971D01*
X161533714Y-122318971D02*
X161628952Y-122366590D01*
X161628952Y-122366590D02*
X161676571Y-122414209D01*
X161676571Y-122414209D02*
X161724190Y-122509447D01*
X161724190Y-122509447D02*
X161724190Y-122747542D01*
X161724190Y-122747542D02*
X161676571Y-122842780D01*
X161676571Y-122842780D02*
X161628952Y-122890400D01*
X161628952Y-122890400D02*
X161533714Y-122938019D01*
X161533714Y-122938019D02*
X161295619Y-122938019D01*
X161295619Y-122938019D02*
X161200381Y-122890400D01*
X161200381Y-122890400D02*
X161152762Y-122842780D01*
X162152762Y-122938019D02*
X162152762Y-121938019D01*
X162152762Y-121938019D02*
X162724190Y-122938019D01*
X162724190Y-122938019D02*
X162724190Y-121938019D01*
X163533714Y-122414209D02*
X163200381Y-122414209D01*
X163200381Y-122938019D02*
X163200381Y-121938019D01*
X163200381Y-121938019D02*
X163676571Y-121938019D01*
X164581333Y-122938019D02*
X164009905Y-122938019D01*
X164295619Y-122938019D02*
X164295619Y-121938019D01*
X164295619Y-121938019D02*
X164200381Y-122080876D01*
X164200381Y-122080876D02*
X164105143Y-122176114D01*
X164105143Y-122176114D02*
X164009905Y-122223733D01*
X165200381Y-121938019D02*
X165295619Y-121938019D01*
X165295619Y-121938019D02*
X165390857Y-121985638D01*
X165390857Y-121985638D02*
X165438476Y-122033257D01*
X165438476Y-122033257D02*
X165486095Y-122128495D01*
X165486095Y-122128495D02*
X165533714Y-122318971D01*
X165533714Y-122318971D02*
X165533714Y-122557066D01*
X165533714Y-122557066D02*
X165486095Y-122747542D01*
X165486095Y-122747542D02*
X165438476Y-122842780D01*
X165438476Y-122842780D02*
X165390857Y-122890400D01*
X165390857Y-122890400D02*
X165295619Y-122938019D01*
X165295619Y-122938019D02*
X165200381Y-122938019D01*
X165200381Y-122938019D02*
X165105143Y-122890400D01*
X165105143Y-122890400D02*
X165057524Y-122842780D01*
X165057524Y-122842780D02*
X165009905Y-122747542D01*
X165009905Y-122747542D02*
X164962286Y-122557066D01*
X164962286Y-122557066D02*
X164962286Y-122318971D01*
X164962286Y-122318971D02*
X165009905Y-122128495D01*
X165009905Y-122128495D02*
X165057524Y-122033257D01*
X165057524Y-122033257D02*
X165105143Y-121985638D01*
X165105143Y-121985638D02*
X165200381Y-121938019D01*
X166152762Y-121938019D02*
X166248000Y-121938019D01*
X166248000Y-121938019D02*
X166343238Y-121985638D01*
X166343238Y-121985638D02*
X166390857Y-122033257D01*
X166390857Y-122033257D02*
X166438476Y-122128495D01*
X166438476Y-122128495D02*
X166486095Y-122318971D01*
X166486095Y-122318971D02*
X166486095Y-122557066D01*
X166486095Y-122557066D02*
X166438476Y-122747542D01*
X166438476Y-122747542D02*
X166390857Y-122842780D01*
X166390857Y-122842780D02*
X166343238Y-122890400D01*
X166343238Y-122890400D02*
X166248000Y-122938019D01*
X166248000Y-122938019D02*
X166152762Y-122938019D01*
X166152762Y-122938019D02*
X166057524Y-122890400D01*
X166057524Y-122890400D02*
X166009905Y-122842780D01*
X166009905Y-122842780D02*
X165962286Y-122747542D01*
X165962286Y-122747542D02*
X165914667Y-122557066D01*
X165914667Y-122557066D02*
X165914667Y-122318971D01*
X165914667Y-122318971D02*
X165962286Y-122128495D01*
X165962286Y-122128495D02*
X166009905Y-122033257D01*
X166009905Y-122033257D02*
X166057524Y-121985638D01*
X166057524Y-121985638D02*
X166152762Y-121938019D01*
X167581333Y-123033257D02*
X167486095Y-122985638D01*
X167486095Y-122985638D02*
X167390857Y-122890400D01*
X167390857Y-122890400D02*
X167248000Y-122747542D01*
X167248000Y-122747542D02*
X167152762Y-122699923D01*
X167152762Y-122699923D02*
X167057524Y-122699923D01*
X167105143Y-122938019D02*
X167009905Y-122890400D01*
X167009905Y-122890400D02*
X166914667Y-122795161D01*
X166914667Y-122795161D02*
X166867048Y-122604685D01*
X166867048Y-122604685D02*
X166867048Y-122271352D01*
X166867048Y-122271352D02*
X166914667Y-122080876D01*
X166914667Y-122080876D02*
X167009905Y-121985638D01*
X167009905Y-121985638D02*
X167105143Y-121938019D01*
X167105143Y-121938019D02*
X167295619Y-121938019D01*
X167295619Y-121938019D02*
X167390857Y-121985638D01*
X167390857Y-121985638D02*
X167486095Y-122080876D01*
X167486095Y-122080876D02*
X167533714Y-122271352D01*
X167533714Y-122271352D02*
X167533714Y-122604685D01*
X167533714Y-122604685D02*
X167486095Y-122795161D01*
X167486095Y-122795161D02*
X167390857Y-122890400D01*
X167390857Y-122890400D02*
X167295619Y-122938019D01*
X167295619Y-122938019D02*
X167105143Y-122938019D01*
X160414667Y-124390400D02*
X160557524Y-124438019D01*
X160557524Y-124438019D02*
X160795619Y-124438019D01*
X160795619Y-124438019D02*
X160890857Y-124390400D01*
X160890857Y-124390400D02*
X160938476Y-124342780D01*
X160938476Y-124342780D02*
X160986095Y-124247542D01*
X160986095Y-124247542D02*
X160986095Y-124152304D01*
X160986095Y-124152304D02*
X160938476Y-124057066D01*
X160938476Y-124057066D02*
X160890857Y-124009447D01*
X160890857Y-124009447D02*
X160795619Y-123961828D01*
X160795619Y-123961828D02*
X160605143Y-123914209D01*
X160605143Y-123914209D02*
X160509905Y-123866590D01*
X160509905Y-123866590D02*
X160462286Y-123818971D01*
X160462286Y-123818971D02*
X160414667Y-123723733D01*
X160414667Y-123723733D02*
X160414667Y-123628495D01*
X160414667Y-123628495D02*
X160462286Y-123533257D01*
X160462286Y-123533257D02*
X160509905Y-123485638D01*
X160509905Y-123485638D02*
X160605143Y-123438019D01*
X160605143Y-123438019D02*
X160843238Y-123438019D01*
X160843238Y-123438019D02*
X160986095Y-123485638D01*
X161319429Y-123438019D02*
X161557524Y-124438019D01*
X161557524Y-124438019D02*
X161748000Y-123723733D01*
X161748000Y-123723733D02*
X161938476Y-124438019D01*
X161938476Y-124438019D02*
X162176572Y-123438019D01*
X162986095Y-123771352D02*
X162986095Y-124438019D01*
X162748000Y-123390400D02*
X162509905Y-124104685D01*
X162509905Y-124104685D02*
X163128952Y-124104685D01*
X126928952Y-133438019D02*
X127500380Y-133438019D01*
X127214666Y-134438019D02*
X127214666Y-133438019D01*
X128309904Y-134438019D02*
X127833714Y-134438019D01*
X127833714Y-134438019D02*
X127833714Y-133438019D01*
X128548000Y-133438019D02*
X129167047Y-133438019D01*
X129167047Y-133438019D02*
X128833714Y-133818971D01*
X128833714Y-133818971D02*
X128976571Y-133818971D01*
X128976571Y-133818971D02*
X129071809Y-133866590D01*
X129071809Y-133866590D02*
X129119428Y-133914209D01*
X129119428Y-133914209D02*
X129167047Y-134009447D01*
X129167047Y-134009447D02*
X129167047Y-134247542D01*
X129167047Y-134247542D02*
X129119428Y-134342780D01*
X129119428Y-134342780D02*
X129071809Y-134390400D01*
X129071809Y-134390400D02*
X128976571Y-134438019D01*
X128976571Y-134438019D02*
X128690857Y-134438019D01*
X128690857Y-134438019D02*
X128595619Y-134390400D01*
X128595619Y-134390400D02*
X128548000Y-134342780D01*
X129500381Y-133438019D02*
X130119428Y-133438019D01*
X130119428Y-133438019D02*
X129786095Y-133818971D01*
X129786095Y-133818971D02*
X129928952Y-133818971D01*
X129928952Y-133818971D02*
X130024190Y-133866590D01*
X130024190Y-133866590D02*
X130071809Y-133914209D01*
X130071809Y-133914209D02*
X130119428Y-134009447D01*
X130119428Y-134009447D02*
X130119428Y-134247542D01*
X130119428Y-134247542D02*
X130071809Y-134342780D01*
X130071809Y-134342780D02*
X130024190Y-134390400D01*
X130024190Y-134390400D02*
X129928952Y-134438019D01*
X129928952Y-134438019D02*
X129643238Y-134438019D01*
X129643238Y-134438019D02*
X129548000Y-134390400D01*
X129548000Y-134390400D02*
X129500381Y-134342780D01*
X131071809Y-134438019D02*
X130500381Y-134438019D01*
X130786095Y-134438019D02*
X130786095Y-133438019D01*
X130786095Y-133438019D02*
X130690857Y-133580876D01*
X130690857Y-133580876D02*
X130595619Y-133676114D01*
X130595619Y-133676114D02*
X130500381Y-133723733D01*
X131976571Y-133438019D02*
X131500381Y-133438019D01*
X131500381Y-133438019D02*
X131452762Y-133914209D01*
X131452762Y-133914209D02*
X131500381Y-133866590D01*
X131500381Y-133866590D02*
X131595619Y-133818971D01*
X131595619Y-133818971D02*
X131833714Y-133818971D01*
X131833714Y-133818971D02*
X131928952Y-133866590D01*
X131928952Y-133866590D02*
X131976571Y-133914209D01*
X131976571Y-133914209D02*
X132024190Y-134009447D01*
X132024190Y-134009447D02*
X132024190Y-134247542D01*
X132024190Y-134247542D02*
X131976571Y-134342780D01*
X131976571Y-134342780D02*
X131928952Y-134390400D01*
X131928952Y-134390400D02*
X131833714Y-134438019D01*
X131833714Y-134438019D02*
X131595619Y-134438019D01*
X131595619Y-134438019D02*
X131500381Y-134390400D01*
X131500381Y-134390400D02*
X131452762Y-134342780D01*
X132452762Y-134438019D02*
X132452762Y-133438019D01*
X132452762Y-133438019D02*
X133024190Y-134438019D01*
X133024190Y-134438019D02*
X133024190Y-133438019D01*
X133833714Y-133914209D02*
X133500381Y-133914209D01*
X133500381Y-134438019D02*
X133500381Y-133438019D01*
X133500381Y-133438019D02*
X133976571Y-133438019D01*
X134881333Y-134438019D02*
X134309905Y-134438019D01*
X134595619Y-134438019D02*
X134595619Y-133438019D01*
X134595619Y-133438019D02*
X134500381Y-133580876D01*
X134500381Y-133580876D02*
X134405143Y-133676114D01*
X134405143Y-133676114D02*
X134309905Y-133723733D01*
X135500381Y-133438019D02*
X135595619Y-133438019D01*
X135595619Y-133438019D02*
X135690857Y-133485638D01*
X135690857Y-133485638D02*
X135738476Y-133533257D01*
X135738476Y-133533257D02*
X135786095Y-133628495D01*
X135786095Y-133628495D02*
X135833714Y-133818971D01*
X135833714Y-133818971D02*
X135833714Y-134057066D01*
X135833714Y-134057066D02*
X135786095Y-134247542D01*
X135786095Y-134247542D02*
X135738476Y-134342780D01*
X135738476Y-134342780D02*
X135690857Y-134390400D01*
X135690857Y-134390400D02*
X135595619Y-134438019D01*
X135595619Y-134438019D02*
X135500381Y-134438019D01*
X135500381Y-134438019D02*
X135405143Y-134390400D01*
X135405143Y-134390400D02*
X135357524Y-134342780D01*
X135357524Y-134342780D02*
X135309905Y-134247542D01*
X135309905Y-134247542D02*
X135262286Y-134057066D01*
X135262286Y-134057066D02*
X135262286Y-133818971D01*
X135262286Y-133818971D02*
X135309905Y-133628495D01*
X135309905Y-133628495D02*
X135357524Y-133533257D01*
X135357524Y-133533257D02*
X135405143Y-133485638D01*
X135405143Y-133485638D02*
X135500381Y-133438019D01*
X136452762Y-133438019D02*
X136548000Y-133438019D01*
X136548000Y-133438019D02*
X136643238Y-133485638D01*
X136643238Y-133485638D02*
X136690857Y-133533257D01*
X136690857Y-133533257D02*
X136738476Y-133628495D01*
X136738476Y-133628495D02*
X136786095Y-133818971D01*
X136786095Y-133818971D02*
X136786095Y-134057066D01*
X136786095Y-134057066D02*
X136738476Y-134247542D01*
X136738476Y-134247542D02*
X136690857Y-134342780D01*
X136690857Y-134342780D02*
X136643238Y-134390400D01*
X136643238Y-134390400D02*
X136548000Y-134438019D01*
X136548000Y-134438019D02*
X136452762Y-134438019D01*
X136452762Y-134438019D02*
X136357524Y-134390400D01*
X136357524Y-134390400D02*
X136309905Y-134342780D01*
X136309905Y-134342780D02*
X136262286Y-134247542D01*
X136262286Y-134247542D02*
X136214667Y-134057066D01*
X136214667Y-134057066D02*
X136214667Y-133818971D01*
X136214667Y-133818971D02*
X136262286Y-133628495D01*
X136262286Y-133628495D02*
X136309905Y-133533257D01*
X136309905Y-133533257D02*
X136357524Y-133485638D01*
X136357524Y-133485638D02*
X136452762Y-133438019D01*
X137881333Y-134533257D02*
X137786095Y-134485638D01*
X137786095Y-134485638D02*
X137690857Y-134390400D01*
X137690857Y-134390400D02*
X137548000Y-134247542D01*
X137548000Y-134247542D02*
X137452762Y-134199923D01*
X137452762Y-134199923D02*
X137357524Y-134199923D01*
X137405143Y-134438019D02*
X137309905Y-134390400D01*
X137309905Y-134390400D02*
X137214667Y-134295161D01*
X137214667Y-134295161D02*
X137167048Y-134104685D01*
X137167048Y-134104685D02*
X137167048Y-133771352D01*
X137167048Y-133771352D02*
X137214667Y-133580876D01*
X137214667Y-133580876D02*
X137309905Y-133485638D01*
X137309905Y-133485638D02*
X137405143Y-133438019D01*
X137405143Y-133438019D02*
X137595619Y-133438019D01*
X137595619Y-133438019D02*
X137690857Y-133485638D01*
X137690857Y-133485638D02*
X137786095Y-133580876D01*
X137786095Y-133580876D02*
X137833714Y-133771352D01*
X137833714Y-133771352D02*
X137833714Y-134104685D01*
X137833714Y-134104685D02*
X137786095Y-134295161D01*
X137786095Y-134295161D02*
X137690857Y-134390400D01*
X137690857Y-134390400D02*
X137595619Y-134438019D01*
X137595619Y-134438019D02*
X137405143Y-134438019D01*
X130714667Y-135890400D02*
X130857524Y-135938019D01*
X130857524Y-135938019D02*
X131095619Y-135938019D01*
X131095619Y-135938019D02*
X131190857Y-135890400D01*
X131190857Y-135890400D02*
X131238476Y-135842780D01*
X131238476Y-135842780D02*
X131286095Y-135747542D01*
X131286095Y-135747542D02*
X131286095Y-135652304D01*
X131286095Y-135652304D02*
X131238476Y-135557066D01*
X131238476Y-135557066D02*
X131190857Y-135509447D01*
X131190857Y-135509447D02*
X131095619Y-135461828D01*
X131095619Y-135461828D02*
X130905143Y-135414209D01*
X130905143Y-135414209D02*
X130809905Y-135366590D01*
X130809905Y-135366590D02*
X130762286Y-135318971D01*
X130762286Y-135318971D02*
X130714667Y-135223733D01*
X130714667Y-135223733D02*
X130714667Y-135128495D01*
X130714667Y-135128495D02*
X130762286Y-135033257D01*
X130762286Y-135033257D02*
X130809905Y-134985638D01*
X130809905Y-134985638D02*
X130905143Y-134938019D01*
X130905143Y-134938019D02*
X131143238Y-134938019D01*
X131143238Y-134938019D02*
X131286095Y-134985638D01*
X131619429Y-134938019D02*
X131857524Y-135938019D01*
X131857524Y-135938019D02*
X132048000Y-135223733D01*
X132048000Y-135223733D02*
X132238476Y-135938019D01*
X132238476Y-135938019D02*
X132476572Y-134938019D01*
X132809905Y-135033257D02*
X132857524Y-134985638D01*
X132857524Y-134985638D02*
X132952762Y-134938019D01*
X132952762Y-134938019D02*
X133190857Y-134938019D01*
X133190857Y-134938019D02*
X133286095Y-134985638D01*
X133286095Y-134985638D02*
X133333714Y-135033257D01*
X133333714Y-135033257D02*
X133381333Y-135128495D01*
X133381333Y-135128495D02*
X133381333Y-135223733D01*
X133381333Y-135223733D02*
X133333714Y-135366590D01*
X133333714Y-135366590D02*
X132762286Y-135938019D01*
X132762286Y-135938019D02*
X133381333Y-135938019D01*
X132897333Y-137996819D02*
X132421143Y-137996819D01*
X132421143Y-137996819D02*
X132421143Y-136996819D01*
X133659238Y-136996819D02*
X133468762Y-136996819D01*
X133468762Y-136996819D02*
X133373524Y-137044438D01*
X133373524Y-137044438D02*
X133325905Y-137092057D01*
X133325905Y-137092057D02*
X133230667Y-137234914D01*
X133230667Y-137234914D02*
X133183048Y-137425390D01*
X133183048Y-137425390D02*
X133183048Y-137806342D01*
X133183048Y-137806342D02*
X133230667Y-137901580D01*
X133230667Y-137901580D02*
X133278286Y-137949200D01*
X133278286Y-137949200D02*
X133373524Y-137996819D01*
X133373524Y-137996819D02*
X133564000Y-137996819D01*
X133564000Y-137996819D02*
X133659238Y-137949200D01*
X133659238Y-137949200D02*
X133706857Y-137901580D01*
X133706857Y-137901580D02*
X133754476Y-137806342D01*
X133754476Y-137806342D02*
X133754476Y-137568247D01*
X133754476Y-137568247D02*
X133706857Y-137473009D01*
X133706857Y-137473009D02*
X133659238Y-137425390D01*
X133659238Y-137425390D02*
X133564000Y-137377771D01*
X133564000Y-137377771D02*
X133373524Y-137377771D01*
X133373524Y-137377771D02*
X133278286Y-137425390D01*
X133278286Y-137425390D02*
X133230667Y-137473009D01*
X133230667Y-137473009D02*
X133183048Y-137568247D01*
X119028952Y-121938019D02*
X119600380Y-121938019D01*
X119314666Y-122938019D02*
X119314666Y-121938019D01*
X120409904Y-122938019D02*
X119933714Y-122938019D01*
X119933714Y-122938019D02*
X119933714Y-121938019D01*
X120648000Y-121938019D02*
X121267047Y-121938019D01*
X121267047Y-121938019D02*
X120933714Y-122318971D01*
X120933714Y-122318971D02*
X121076571Y-122318971D01*
X121076571Y-122318971D02*
X121171809Y-122366590D01*
X121171809Y-122366590D02*
X121219428Y-122414209D01*
X121219428Y-122414209D02*
X121267047Y-122509447D01*
X121267047Y-122509447D02*
X121267047Y-122747542D01*
X121267047Y-122747542D02*
X121219428Y-122842780D01*
X121219428Y-122842780D02*
X121171809Y-122890400D01*
X121171809Y-122890400D02*
X121076571Y-122938019D01*
X121076571Y-122938019D02*
X120790857Y-122938019D01*
X120790857Y-122938019D02*
X120695619Y-122890400D01*
X120695619Y-122890400D02*
X120648000Y-122842780D01*
X121600381Y-121938019D02*
X122219428Y-121938019D01*
X122219428Y-121938019D02*
X121886095Y-122318971D01*
X121886095Y-122318971D02*
X122028952Y-122318971D01*
X122028952Y-122318971D02*
X122124190Y-122366590D01*
X122124190Y-122366590D02*
X122171809Y-122414209D01*
X122171809Y-122414209D02*
X122219428Y-122509447D01*
X122219428Y-122509447D02*
X122219428Y-122747542D01*
X122219428Y-122747542D02*
X122171809Y-122842780D01*
X122171809Y-122842780D02*
X122124190Y-122890400D01*
X122124190Y-122890400D02*
X122028952Y-122938019D01*
X122028952Y-122938019D02*
X121743238Y-122938019D01*
X121743238Y-122938019D02*
X121648000Y-122890400D01*
X121648000Y-122890400D02*
X121600381Y-122842780D01*
X123171809Y-122938019D02*
X122600381Y-122938019D01*
X122886095Y-122938019D02*
X122886095Y-121938019D01*
X122886095Y-121938019D02*
X122790857Y-122080876D01*
X122790857Y-122080876D02*
X122695619Y-122176114D01*
X122695619Y-122176114D02*
X122600381Y-122223733D01*
X124076571Y-121938019D02*
X123600381Y-121938019D01*
X123600381Y-121938019D02*
X123552762Y-122414209D01*
X123552762Y-122414209D02*
X123600381Y-122366590D01*
X123600381Y-122366590D02*
X123695619Y-122318971D01*
X123695619Y-122318971D02*
X123933714Y-122318971D01*
X123933714Y-122318971D02*
X124028952Y-122366590D01*
X124028952Y-122366590D02*
X124076571Y-122414209D01*
X124076571Y-122414209D02*
X124124190Y-122509447D01*
X124124190Y-122509447D02*
X124124190Y-122747542D01*
X124124190Y-122747542D02*
X124076571Y-122842780D01*
X124076571Y-122842780D02*
X124028952Y-122890400D01*
X124028952Y-122890400D02*
X123933714Y-122938019D01*
X123933714Y-122938019D02*
X123695619Y-122938019D01*
X123695619Y-122938019D02*
X123600381Y-122890400D01*
X123600381Y-122890400D02*
X123552762Y-122842780D01*
X124552762Y-122938019D02*
X124552762Y-121938019D01*
X124552762Y-121938019D02*
X125124190Y-122938019D01*
X125124190Y-122938019D02*
X125124190Y-121938019D01*
X125933714Y-122414209D02*
X125600381Y-122414209D01*
X125600381Y-122938019D02*
X125600381Y-121938019D01*
X125600381Y-121938019D02*
X126076571Y-121938019D01*
X126981333Y-122938019D02*
X126409905Y-122938019D01*
X126695619Y-122938019D02*
X126695619Y-121938019D01*
X126695619Y-121938019D02*
X126600381Y-122080876D01*
X126600381Y-122080876D02*
X126505143Y-122176114D01*
X126505143Y-122176114D02*
X126409905Y-122223733D01*
X127600381Y-121938019D02*
X127695619Y-121938019D01*
X127695619Y-121938019D02*
X127790857Y-121985638D01*
X127790857Y-121985638D02*
X127838476Y-122033257D01*
X127838476Y-122033257D02*
X127886095Y-122128495D01*
X127886095Y-122128495D02*
X127933714Y-122318971D01*
X127933714Y-122318971D02*
X127933714Y-122557066D01*
X127933714Y-122557066D02*
X127886095Y-122747542D01*
X127886095Y-122747542D02*
X127838476Y-122842780D01*
X127838476Y-122842780D02*
X127790857Y-122890400D01*
X127790857Y-122890400D02*
X127695619Y-122938019D01*
X127695619Y-122938019D02*
X127600381Y-122938019D01*
X127600381Y-122938019D02*
X127505143Y-122890400D01*
X127505143Y-122890400D02*
X127457524Y-122842780D01*
X127457524Y-122842780D02*
X127409905Y-122747542D01*
X127409905Y-122747542D02*
X127362286Y-122557066D01*
X127362286Y-122557066D02*
X127362286Y-122318971D01*
X127362286Y-122318971D02*
X127409905Y-122128495D01*
X127409905Y-122128495D02*
X127457524Y-122033257D01*
X127457524Y-122033257D02*
X127505143Y-121985638D01*
X127505143Y-121985638D02*
X127600381Y-121938019D01*
X128552762Y-121938019D02*
X128648000Y-121938019D01*
X128648000Y-121938019D02*
X128743238Y-121985638D01*
X128743238Y-121985638D02*
X128790857Y-122033257D01*
X128790857Y-122033257D02*
X128838476Y-122128495D01*
X128838476Y-122128495D02*
X128886095Y-122318971D01*
X128886095Y-122318971D02*
X128886095Y-122557066D01*
X128886095Y-122557066D02*
X128838476Y-122747542D01*
X128838476Y-122747542D02*
X128790857Y-122842780D01*
X128790857Y-122842780D02*
X128743238Y-122890400D01*
X128743238Y-122890400D02*
X128648000Y-122938019D01*
X128648000Y-122938019D02*
X128552762Y-122938019D01*
X128552762Y-122938019D02*
X128457524Y-122890400D01*
X128457524Y-122890400D02*
X128409905Y-122842780D01*
X128409905Y-122842780D02*
X128362286Y-122747542D01*
X128362286Y-122747542D02*
X128314667Y-122557066D01*
X128314667Y-122557066D02*
X128314667Y-122318971D01*
X128314667Y-122318971D02*
X128362286Y-122128495D01*
X128362286Y-122128495D02*
X128409905Y-122033257D01*
X128409905Y-122033257D02*
X128457524Y-121985638D01*
X128457524Y-121985638D02*
X128552762Y-121938019D01*
X129981333Y-123033257D02*
X129886095Y-122985638D01*
X129886095Y-122985638D02*
X129790857Y-122890400D01*
X129790857Y-122890400D02*
X129648000Y-122747542D01*
X129648000Y-122747542D02*
X129552762Y-122699923D01*
X129552762Y-122699923D02*
X129457524Y-122699923D01*
X129505143Y-122938019D02*
X129409905Y-122890400D01*
X129409905Y-122890400D02*
X129314667Y-122795161D01*
X129314667Y-122795161D02*
X129267048Y-122604685D01*
X129267048Y-122604685D02*
X129267048Y-122271352D01*
X129267048Y-122271352D02*
X129314667Y-122080876D01*
X129314667Y-122080876D02*
X129409905Y-121985638D01*
X129409905Y-121985638D02*
X129505143Y-121938019D01*
X129505143Y-121938019D02*
X129695619Y-121938019D01*
X129695619Y-121938019D02*
X129790857Y-121985638D01*
X129790857Y-121985638D02*
X129886095Y-122080876D01*
X129886095Y-122080876D02*
X129933714Y-122271352D01*
X129933714Y-122271352D02*
X129933714Y-122604685D01*
X129933714Y-122604685D02*
X129886095Y-122795161D01*
X129886095Y-122795161D02*
X129790857Y-122890400D01*
X129790857Y-122890400D02*
X129695619Y-122938019D01*
X129695619Y-122938019D02*
X129505143Y-122938019D01*
X122814667Y-124390400D02*
X122957524Y-124438019D01*
X122957524Y-124438019D02*
X123195619Y-124438019D01*
X123195619Y-124438019D02*
X123290857Y-124390400D01*
X123290857Y-124390400D02*
X123338476Y-124342780D01*
X123338476Y-124342780D02*
X123386095Y-124247542D01*
X123386095Y-124247542D02*
X123386095Y-124152304D01*
X123386095Y-124152304D02*
X123338476Y-124057066D01*
X123338476Y-124057066D02*
X123290857Y-124009447D01*
X123290857Y-124009447D02*
X123195619Y-123961828D01*
X123195619Y-123961828D02*
X123005143Y-123914209D01*
X123005143Y-123914209D02*
X122909905Y-123866590D01*
X122909905Y-123866590D02*
X122862286Y-123818971D01*
X122862286Y-123818971D02*
X122814667Y-123723733D01*
X122814667Y-123723733D02*
X122814667Y-123628495D01*
X122814667Y-123628495D02*
X122862286Y-123533257D01*
X122862286Y-123533257D02*
X122909905Y-123485638D01*
X122909905Y-123485638D02*
X123005143Y-123438019D01*
X123005143Y-123438019D02*
X123243238Y-123438019D01*
X123243238Y-123438019D02*
X123386095Y-123485638D01*
X123719429Y-123438019D02*
X123957524Y-124438019D01*
X123957524Y-124438019D02*
X124148000Y-123723733D01*
X124148000Y-123723733D02*
X124338476Y-124438019D01*
X124338476Y-124438019D02*
X124576572Y-123438019D01*
X125481333Y-124438019D02*
X124909905Y-124438019D01*
X125195619Y-124438019D02*
X125195619Y-123438019D01*
X125195619Y-123438019D02*
X125100381Y-123580876D01*
X125100381Y-123580876D02*
X125005143Y-123676114D01*
X125005143Y-123676114D02*
X124909905Y-123723733D01*
X120327333Y-149781819D02*
X119851143Y-149781819D01*
X119851143Y-149781819D02*
X119851143Y-148781819D01*
X121089238Y-149115152D02*
X121089238Y-149781819D01*
X120851143Y-148734200D02*
X120613048Y-149448485D01*
X120613048Y-149448485D02*
X121232095Y-149448485D01*
X120327333Y-159081819D02*
X119851143Y-159081819D01*
X119851143Y-159081819D02*
X119851143Y-158081819D01*
X120613048Y-158177057D02*
X120660667Y-158129438D01*
X120660667Y-158129438D02*
X120755905Y-158081819D01*
X120755905Y-158081819D02*
X120994000Y-158081819D01*
X120994000Y-158081819D02*
X121089238Y-158129438D01*
X121089238Y-158129438D02*
X121136857Y-158177057D01*
X121136857Y-158177057D02*
X121184476Y-158272295D01*
X121184476Y-158272295D02*
X121184476Y-158367533D01*
X121184476Y-158367533D02*
X121136857Y-158510390D01*
X121136857Y-158510390D02*
X120565429Y-159081819D01*
X120565429Y-159081819D02*
X121184476Y-159081819D01*
X183551142Y-148806819D02*
X183074952Y-148806819D01*
X183074952Y-148806819D02*
X183074952Y-147806819D01*
X184408285Y-148806819D02*
X183836857Y-148806819D01*
X184122571Y-148806819D02*
X184122571Y-147806819D01*
X184122571Y-147806819D02*
X184027333Y-147949676D01*
X184027333Y-147949676D02*
X183932095Y-148044914D01*
X183932095Y-148044914D02*
X183836857Y-148092533D01*
X184789238Y-147902057D02*
X184836857Y-147854438D01*
X184836857Y-147854438D02*
X184932095Y-147806819D01*
X184932095Y-147806819D02*
X185170190Y-147806819D01*
X185170190Y-147806819D02*
X185265428Y-147854438D01*
X185265428Y-147854438D02*
X185313047Y-147902057D01*
X185313047Y-147902057D02*
X185360666Y-147997295D01*
X185360666Y-147997295D02*
X185360666Y-148092533D01*
X185360666Y-148092533D02*
X185313047Y-148235390D01*
X185313047Y-148235390D02*
X184741619Y-148806819D01*
X184741619Y-148806819D02*
X185360666Y-148806819D01*
X124997333Y-126496819D02*
X124521143Y-126496819D01*
X124521143Y-126496819D02*
X124521143Y-125496819D01*
X125806857Y-125496819D02*
X125330667Y-125496819D01*
X125330667Y-125496819D02*
X125283048Y-125973009D01*
X125283048Y-125973009D02*
X125330667Y-125925390D01*
X125330667Y-125925390D02*
X125425905Y-125877771D01*
X125425905Y-125877771D02*
X125664000Y-125877771D01*
X125664000Y-125877771D02*
X125759238Y-125925390D01*
X125759238Y-125925390D02*
X125806857Y-125973009D01*
X125806857Y-125973009D02*
X125854476Y-126068247D01*
X125854476Y-126068247D02*
X125854476Y-126306342D01*
X125854476Y-126306342D02*
X125806857Y-126401580D01*
X125806857Y-126401580D02*
X125759238Y-126449200D01*
X125759238Y-126449200D02*
X125664000Y-126496819D01*
X125664000Y-126496819D02*
X125425905Y-126496819D01*
X125425905Y-126496819D02*
X125330667Y-126449200D01*
X125330667Y-126449200D02*
X125283048Y-126401580D01*
X139390857Y-124382819D02*
X139390857Y-123382819D01*
X139390857Y-123859009D02*
X139962285Y-123859009D01*
X139962285Y-124382819D02*
X139962285Y-123382819D01*
X140438476Y-124382819D02*
X140438476Y-123382819D01*
X140438476Y-123859009D02*
X141009904Y-123859009D01*
X141009904Y-124382819D02*
X141009904Y-123382819D01*
X141962285Y-124382819D02*
X141486095Y-124382819D01*
X141486095Y-124382819D02*
X141486095Y-123382819D01*
X142057524Y-124478057D02*
X142819428Y-124478057D01*
X143533714Y-124382819D02*
X143057524Y-124382819D01*
X143057524Y-124382819D02*
X143057524Y-123382819D01*
X144009905Y-124382819D02*
X143914667Y-124335200D01*
X143914667Y-124335200D02*
X143867048Y-124287580D01*
X143867048Y-124287580D02*
X143819429Y-124192342D01*
X143819429Y-124192342D02*
X143819429Y-123906628D01*
X143819429Y-123906628D02*
X143867048Y-123811390D01*
X143867048Y-123811390D02*
X143914667Y-123763771D01*
X143914667Y-123763771D02*
X144009905Y-123716152D01*
X144009905Y-123716152D02*
X144152762Y-123716152D01*
X144152762Y-123716152D02*
X144248000Y-123763771D01*
X144248000Y-123763771D02*
X144295619Y-123811390D01*
X144295619Y-123811390D02*
X144343238Y-123906628D01*
X144343238Y-123906628D02*
X144343238Y-124192342D01*
X144343238Y-124192342D02*
X144295619Y-124287580D01*
X144295619Y-124287580D02*
X144248000Y-124335200D01*
X144248000Y-124335200D02*
X144152762Y-124382819D01*
X144152762Y-124382819D02*
X144009905Y-124382819D01*
X145200381Y-123716152D02*
X145200381Y-124525676D01*
X145200381Y-124525676D02*
X145152762Y-124620914D01*
X145152762Y-124620914D02*
X145105143Y-124668533D01*
X145105143Y-124668533D02*
X145009905Y-124716152D01*
X145009905Y-124716152D02*
X144867048Y-124716152D01*
X144867048Y-124716152D02*
X144771810Y-124668533D01*
X145200381Y-124335200D02*
X145105143Y-124382819D01*
X145105143Y-124382819D02*
X144914667Y-124382819D01*
X144914667Y-124382819D02*
X144819429Y-124335200D01*
X144819429Y-124335200D02*
X144771810Y-124287580D01*
X144771810Y-124287580D02*
X144724191Y-124192342D01*
X144724191Y-124192342D02*
X144724191Y-123906628D01*
X144724191Y-123906628D02*
X144771810Y-123811390D01*
X144771810Y-123811390D02*
X144819429Y-123763771D01*
X144819429Y-123763771D02*
X144914667Y-123716152D01*
X144914667Y-123716152D02*
X145105143Y-123716152D01*
X145105143Y-123716152D02*
X145200381Y-123763771D01*
X145819429Y-124382819D02*
X145724191Y-124335200D01*
X145724191Y-124335200D02*
X145676572Y-124287580D01*
X145676572Y-124287580D02*
X145628953Y-124192342D01*
X145628953Y-124192342D02*
X145628953Y-123906628D01*
X145628953Y-123906628D02*
X145676572Y-123811390D01*
X145676572Y-123811390D02*
X145724191Y-123763771D01*
X145724191Y-123763771D02*
X145819429Y-123716152D01*
X145819429Y-123716152D02*
X145962286Y-123716152D01*
X145962286Y-123716152D02*
X146057524Y-123763771D01*
X146057524Y-123763771D02*
X146105143Y-123811390D01*
X146105143Y-123811390D02*
X146152762Y-123906628D01*
X146152762Y-123906628D02*
X146152762Y-124192342D01*
X146152762Y-124192342D02*
X146105143Y-124287580D01*
X146105143Y-124287580D02*
X146057524Y-124335200D01*
X146057524Y-124335200D02*
X145962286Y-124382819D01*
X145962286Y-124382819D02*
X145819429Y-124382819D01*
X141414666Y-125882819D02*
X141081333Y-125406628D01*
X140843238Y-125882819D02*
X140843238Y-124882819D01*
X140843238Y-124882819D02*
X141224190Y-124882819D01*
X141224190Y-124882819D02*
X141319428Y-124930438D01*
X141319428Y-124930438D02*
X141367047Y-124978057D01*
X141367047Y-124978057D02*
X141414666Y-125073295D01*
X141414666Y-125073295D02*
X141414666Y-125216152D01*
X141414666Y-125216152D02*
X141367047Y-125311390D01*
X141367047Y-125311390D02*
X141319428Y-125359009D01*
X141319428Y-125359009D02*
X141224190Y-125406628D01*
X141224190Y-125406628D02*
X140843238Y-125406628D01*
X141843238Y-125359009D02*
X142176571Y-125359009D01*
X142319428Y-125882819D02*
X141843238Y-125882819D01*
X141843238Y-125882819D02*
X141843238Y-124882819D01*
X141843238Y-124882819D02*
X142319428Y-124882819D01*
X143081333Y-125359009D02*
X142748000Y-125359009D01*
X142748000Y-125882819D02*
X142748000Y-124882819D01*
X142748000Y-124882819D02*
X143224190Y-124882819D01*
X143748000Y-124882819D02*
X143748000Y-125120914D01*
X143509905Y-125025676D02*
X143748000Y-125120914D01*
X143748000Y-125120914D02*
X143986095Y-125025676D01*
X143605143Y-125311390D02*
X143748000Y-125120914D01*
X143748000Y-125120914D02*
X143890857Y-125311390D01*
X144509905Y-124882819D02*
X144509905Y-125120914D01*
X144271810Y-125025676D02*
X144509905Y-125120914D01*
X144509905Y-125120914D02*
X144748000Y-125025676D01*
X144367048Y-125311390D02*
X144509905Y-125120914D01*
X144509905Y-125120914D02*
X144652762Y-125311390D01*
X172127333Y-138606819D02*
X171651143Y-138606819D01*
X171651143Y-138606819D02*
X171651143Y-137606819D01*
X172508286Y-138606819D02*
X172698762Y-138606819D01*
X172698762Y-138606819D02*
X172794000Y-138559200D01*
X172794000Y-138559200D02*
X172841619Y-138511580D01*
X172841619Y-138511580D02*
X172936857Y-138368723D01*
X172936857Y-138368723D02*
X172984476Y-138178247D01*
X172984476Y-138178247D02*
X172984476Y-137797295D01*
X172984476Y-137797295D02*
X172936857Y-137702057D01*
X172936857Y-137702057D02*
X172889238Y-137654438D01*
X172889238Y-137654438D02*
X172794000Y-137606819D01*
X172794000Y-137606819D02*
X172603524Y-137606819D01*
X172603524Y-137606819D02*
X172508286Y-137654438D01*
X172508286Y-137654438D02*
X172460667Y-137702057D01*
X172460667Y-137702057D02*
X172413048Y-137797295D01*
X172413048Y-137797295D02*
X172413048Y-138035390D01*
X172413048Y-138035390D02*
X172460667Y-138130628D01*
X172460667Y-138130628D02*
X172508286Y-138178247D01*
X172508286Y-138178247D02*
X172603524Y-138225866D01*
X172603524Y-138225866D02*
X172794000Y-138225866D01*
X172794000Y-138225866D02*
X172889238Y-138178247D01*
X172889238Y-138178247D02*
X172936857Y-138130628D01*
X172936857Y-138130628D02*
X172984476Y-138035390D01*
X121168475Y-150888980D02*
X121168475Y-151888980D01*
X121168475Y-151888980D02*
X120930380Y-151888980D01*
X120930380Y-151888980D02*
X120787523Y-151841361D01*
X120787523Y-151841361D02*
X120692285Y-151746123D01*
X120692285Y-151746123D02*
X120644666Y-151650885D01*
X120644666Y-151650885D02*
X120597047Y-151460409D01*
X120597047Y-151460409D02*
X120597047Y-151317552D01*
X120597047Y-151317552D02*
X120644666Y-151127076D01*
X120644666Y-151127076D02*
X120692285Y-151031838D01*
X120692285Y-151031838D02*
X120787523Y-150936600D01*
X120787523Y-150936600D02*
X120930380Y-150888980D01*
X120930380Y-150888980D02*
X121168475Y-150888980D01*
X120168475Y-150888980D02*
X120168475Y-151888980D01*
X120168475Y-151888980D02*
X119787523Y-151888980D01*
X119787523Y-151888980D02*
X119692285Y-151841361D01*
X119692285Y-151841361D02*
X119644666Y-151793742D01*
X119644666Y-151793742D02*
X119597047Y-151698504D01*
X119597047Y-151698504D02*
X119597047Y-151555647D01*
X119597047Y-151555647D02*
X119644666Y-151460409D01*
X119644666Y-151460409D02*
X119692285Y-151412790D01*
X119692285Y-151412790D02*
X119787523Y-151365171D01*
X119787523Y-151365171D02*
X120168475Y-151365171D01*
X119216094Y-151174695D02*
X118739904Y-151174695D01*
X119311332Y-150888980D02*
X118977999Y-151888980D01*
X118977999Y-151888980D02*
X118644666Y-150888980D01*
X118311332Y-150888980D02*
X118311332Y-151888980D01*
X118311332Y-151888980D02*
X118073237Y-151888980D01*
X118073237Y-151888980D02*
X117930380Y-151841361D01*
X117930380Y-151841361D02*
X117835142Y-151746123D01*
X117835142Y-151746123D02*
X117787523Y-151650885D01*
X117787523Y-151650885D02*
X117739904Y-151460409D01*
X117739904Y-151460409D02*
X117739904Y-151317552D01*
X117739904Y-151317552D02*
X117787523Y-151127076D01*
X117787523Y-151127076D02*
X117835142Y-151031838D01*
X117835142Y-151031838D02*
X117930380Y-150936600D01*
X117930380Y-150936600D02*
X118073237Y-150888980D01*
X118073237Y-150888980D02*
X118311332Y-150888980D01*
X121287523Y-150933800D02*
X121144666Y-150886180D01*
X121144666Y-150886180D02*
X120906571Y-150886180D01*
X120906571Y-150886180D02*
X120811333Y-150933800D01*
X120811333Y-150933800D02*
X120763714Y-150981419D01*
X120763714Y-150981419D02*
X120716095Y-151076657D01*
X120716095Y-151076657D02*
X120716095Y-151171895D01*
X120716095Y-151171895D02*
X120763714Y-151267133D01*
X120763714Y-151267133D02*
X120811333Y-151314752D01*
X120811333Y-151314752D02*
X120906571Y-151362371D01*
X120906571Y-151362371D02*
X121097047Y-151409990D01*
X121097047Y-151409990D02*
X121192285Y-151457609D01*
X121192285Y-151457609D02*
X121239904Y-151505228D01*
X121239904Y-151505228D02*
X121287523Y-151600466D01*
X121287523Y-151600466D02*
X121287523Y-151695704D01*
X121287523Y-151695704D02*
X121239904Y-151790942D01*
X121239904Y-151790942D02*
X121192285Y-151838561D01*
X121192285Y-151838561D02*
X121097047Y-151886180D01*
X121097047Y-151886180D02*
X120858952Y-151886180D01*
X120858952Y-151886180D02*
X120716095Y-151838561D01*
X120382761Y-151886180D02*
X120144666Y-150886180D01*
X120144666Y-150886180D02*
X119954190Y-151600466D01*
X119954190Y-151600466D02*
X119763714Y-150886180D01*
X119763714Y-150886180D02*
X119525619Y-151886180D01*
X118620857Y-150886180D02*
X119192285Y-150886180D01*
X118906571Y-150886180D02*
X118906571Y-151886180D01*
X118906571Y-151886180D02*
X119001809Y-151743323D01*
X119001809Y-151743323D02*
X119097047Y-151648085D01*
X119097047Y-151648085D02*
X119192285Y-151600466D01*
X118001809Y-151886180D02*
X117906571Y-151886180D01*
X117906571Y-151886180D02*
X117811333Y-151838561D01*
X117811333Y-151838561D02*
X117763714Y-151790942D01*
X117763714Y-151790942D02*
X117716095Y-151695704D01*
X117716095Y-151695704D02*
X117668476Y-151505228D01*
X117668476Y-151505228D02*
X117668476Y-151267133D01*
X117668476Y-151267133D02*
X117716095Y-151076657D01*
X117716095Y-151076657D02*
X117763714Y-150981419D01*
X117763714Y-150981419D02*
X117811333Y-150933800D01*
X117811333Y-150933800D02*
X117906571Y-150886180D01*
X117906571Y-150886180D02*
X118001809Y-150886180D01*
X118001809Y-150886180D02*
X118097047Y-150933800D01*
X118097047Y-150933800D02*
X118144666Y-150981419D01*
X118144666Y-150981419D02*
X118192285Y-151076657D01*
X118192285Y-151076657D02*
X118239904Y-151267133D01*
X118239904Y-151267133D02*
X118239904Y-151505228D01*
X118239904Y-151505228D02*
X118192285Y-151695704D01*
X118192285Y-151695704D02*
X118144666Y-151790942D01*
X118144666Y-151790942D02*
X118097047Y-151838561D01*
X118097047Y-151838561D02*
X118001809Y-151886180D01*
X115677333Y-154431819D02*
X115201143Y-154431819D01*
X115201143Y-154431819D02*
X115201143Y-153431819D01*
X116534476Y-154431819D02*
X115963048Y-154431819D01*
X116248762Y-154431819D02*
X116248762Y-153431819D01*
X116248762Y-153431819D02*
X116153524Y-153574676D01*
X116153524Y-153574676D02*
X116058286Y-153669914D01*
X116058286Y-153669914D02*
X115963048Y-153717533D01*
X124977333Y-154431819D02*
X124501143Y-154431819D01*
X124501143Y-154431819D02*
X124501143Y-153431819D01*
X125215429Y-153431819D02*
X125834476Y-153431819D01*
X125834476Y-153431819D02*
X125501143Y-153812771D01*
X125501143Y-153812771D02*
X125644000Y-153812771D01*
X125644000Y-153812771D02*
X125739238Y-153860390D01*
X125739238Y-153860390D02*
X125786857Y-153908009D01*
X125786857Y-153908009D02*
X125834476Y-154003247D01*
X125834476Y-154003247D02*
X125834476Y-154241342D01*
X125834476Y-154241342D02*
X125786857Y-154336580D01*
X125786857Y-154336580D02*
X125739238Y-154384200D01*
X125739238Y-154384200D02*
X125644000Y-154431819D01*
X125644000Y-154431819D02*
X125358286Y-154431819D01*
X125358286Y-154431819D02*
X125263048Y-154384200D01*
X125263048Y-154384200D02*
X125215429Y-154336580D01*
X195451142Y-138606819D02*
X194974952Y-138606819D01*
X194974952Y-138606819D02*
X194974952Y-137606819D01*
X196308285Y-138606819D02*
X195736857Y-138606819D01*
X196022571Y-138606819D02*
X196022571Y-137606819D01*
X196022571Y-137606819D02*
X195927333Y-137749676D01*
X195927333Y-137749676D02*
X195832095Y-137844914D01*
X195832095Y-137844914D02*
X195736857Y-137892533D01*
X197260666Y-138606819D02*
X196689238Y-138606819D01*
X196974952Y-138606819D02*
X196974952Y-137606819D01*
X196974952Y-137606819D02*
X196879714Y-137749676D01*
X196879714Y-137749676D02*
X196784476Y-137844914D01*
X196784476Y-137844914D02*
X196689238Y-137892533D01*
X154547333Y-137996819D02*
X154071143Y-137996819D01*
X154071143Y-137996819D02*
X154071143Y-136996819D01*
X154785429Y-136996819D02*
X155452095Y-136996819D01*
X155452095Y-136996819D02*
X155023524Y-137996819D01*
X169920857Y-137354209D02*
X170063714Y-137401828D01*
X170063714Y-137401828D02*
X170111333Y-137449447D01*
X170111333Y-137449447D02*
X170158952Y-137544685D01*
X170158952Y-137544685D02*
X170158952Y-137687542D01*
X170158952Y-137687542D02*
X170111333Y-137782780D01*
X170111333Y-137782780D02*
X170063714Y-137830400D01*
X170063714Y-137830400D02*
X169968476Y-137878019D01*
X169968476Y-137878019D02*
X169587524Y-137878019D01*
X169587524Y-137878019D02*
X169587524Y-136878019D01*
X169587524Y-136878019D02*
X169920857Y-136878019D01*
X169920857Y-136878019D02*
X170016095Y-136925638D01*
X170016095Y-136925638D02*
X170063714Y-136973257D01*
X170063714Y-136973257D02*
X170111333Y-137068495D01*
X170111333Y-137068495D02*
X170111333Y-137163733D01*
X170111333Y-137163733D02*
X170063714Y-137258971D01*
X170063714Y-137258971D02*
X170016095Y-137306590D01*
X170016095Y-137306590D02*
X169920857Y-137354209D01*
X169920857Y-137354209D02*
X169587524Y-137354209D01*
X170587524Y-137878019D02*
X170587524Y-136878019D01*
X170587524Y-136878019D02*
X170968476Y-136878019D01*
X170968476Y-136878019D02*
X171063714Y-136925638D01*
X171063714Y-136925638D02*
X171111333Y-136973257D01*
X171111333Y-136973257D02*
X171158952Y-137068495D01*
X171158952Y-137068495D02*
X171158952Y-137211352D01*
X171158952Y-137211352D02*
X171111333Y-137306590D01*
X171111333Y-137306590D02*
X171063714Y-137354209D01*
X171063714Y-137354209D02*
X170968476Y-137401828D01*
X170968476Y-137401828D02*
X170587524Y-137401828D01*
X171539905Y-137592304D02*
X172016095Y-137592304D01*
X171444667Y-137878019D02*
X171778000Y-136878019D01*
X171778000Y-136878019D02*
X172111333Y-137878019D01*
X172444667Y-137878019D02*
X172444667Y-136878019D01*
X172444667Y-136878019D02*
X172682762Y-136878019D01*
X172682762Y-136878019D02*
X172825619Y-136925638D01*
X172825619Y-136925638D02*
X172920857Y-137020876D01*
X172920857Y-137020876D02*
X172968476Y-137116114D01*
X172968476Y-137116114D02*
X173016095Y-137306590D01*
X173016095Y-137306590D02*
X173016095Y-137449447D01*
X173016095Y-137449447D02*
X172968476Y-137639923D01*
X172968476Y-137639923D02*
X172920857Y-137735161D01*
X172920857Y-137735161D02*
X172825619Y-137830400D01*
X172825619Y-137830400D02*
X172682762Y-137878019D01*
X172682762Y-137878019D02*
X172444667Y-137878019D01*
X169944667Y-137833200D02*
X170087524Y-137880819D01*
X170087524Y-137880819D02*
X170325619Y-137880819D01*
X170325619Y-137880819D02*
X170420857Y-137833200D01*
X170420857Y-137833200D02*
X170468476Y-137785580D01*
X170468476Y-137785580D02*
X170516095Y-137690342D01*
X170516095Y-137690342D02*
X170516095Y-137595104D01*
X170516095Y-137595104D02*
X170468476Y-137499866D01*
X170468476Y-137499866D02*
X170420857Y-137452247D01*
X170420857Y-137452247D02*
X170325619Y-137404628D01*
X170325619Y-137404628D02*
X170135143Y-137357009D01*
X170135143Y-137357009D02*
X170039905Y-137309390D01*
X170039905Y-137309390D02*
X169992286Y-137261771D01*
X169992286Y-137261771D02*
X169944667Y-137166533D01*
X169944667Y-137166533D02*
X169944667Y-137071295D01*
X169944667Y-137071295D02*
X169992286Y-136976057D01*
X169992286Y-136976057D02*
X170039905Y-136928438D01*
X170039905Y-136928438D02*
X170135143Y-136880819D01*
X170135143Y-136880819D02*
X170373238Y-136880819D01*
X170373238Y-136880819D02*
X170516095Y-136928438D01*
X170849429Y-136880819D02*
X171087524Y-137880819D01*
X171087524Y-137880819D02*
X171278000Y-137166533D01*
X171278000Y-137166533D02*
X171468476Y-137880819D01*
X171468476Y-137880819D02*
X171706572Y-136880819D01*
X171992286Y-136880819D02*
X172658952Y-136880819D01*
X172658952Y-136880819D02*
X172230381Y-137880819D01*
X183551142Y-128406819D02*
X183074952Y-128406819D01*
X183074952Y-128406819D02*
X183074952Y-127406819D01*
X184408285Y-128406819D02*
X183836857Y-128406819D01*
X184122571Y-128406819D02*
X184122571Y-127406819D01*
X184122571Y-127406819D02*
X184027333Y-127549676D01*
X184027333Y-127549676D02*
X183932095Y-127644914D01*
X183932095Y-127644914D02*
X183836857Y-127692533D01*
X185027333Y-127406819D02*
X185122571Y-127406819D01*
X185122571Y-127406819D02*
X185217809Y-127454438D01*
X185217809Y-127454438D02*
X185265428Y-127502057D01*
X185265428Y-127502057D02*
X185313047Y-127597295D01*
X185313047Y-127597295D02*
X185360666Y-127787771D01*
X185360666Y-127787771D02*
X185360666Y-128025866D01*
X185360666Y-128025866D02*
X185313047Y-128216342D01*
X185313047Y-128216342D02*
X185265428Y-128311580D01*
X185265428Y-128311580D02*
X185217809Y-128359200D01*
X185217809Y-128359200D02*
X185122571Y-128406819D01*
X185122571Y-128406819D02*
X185027333Y-128406819D01*
X185027333Y-128406819D02*
X184932095Y-128359200D01*
X184932095Y-128359200D02*
X184884476Y-128311580D01*
X184884476Y-128311580D02*
X184836857Y-128216342D01*
X184836857Y-128216342D02*
X184789238Y-128025866D01*
X184789238Y-128025866D02*
X184789238Y-127787771D01*
X184789238Y-127787771D02*
X184836857Y-127597295D01*
X184836857Y-127597295D02*
X184884476Y-127502057D01*
X184884476Y-127502057D02*
X184932095Y-127454438D01*
X184932095Y-127454438D02*
X185027333Y-127406819D01*
X193720857Y-137354209D02*
X193863714Y-137401828D01*
X193863714Y-137401828D02*
X193911333Y-137449447D01*
X193911333Y-137449447D02*
X193958952Y-137544685D01*
X193958952Y-137544685D02*
X193958952Y-137687542D01*
X193958952Y-137687542D02*
X193911333Y-137782780D01*
X193911333Y-137782780D02*
X193863714Y-137830400D01*
X193863714Y-137830400D02*
X193768476Y-137878019D01*
X193768476Y-137878019D02*
X193387524Y-137878019D01*
X193387524Y-137878019D02*
X193387524Y-136878019D01*
X193387524Y-136878019D02*
X193720857Y-136878019D01*
X193720857Y-136878019D02*
X193816095Y-136925638D01*
X193816095Y-136925638D02*
X193863714Y-136973257D01*
X193863714Y-136973257D02*
X193911333Y-137068495D01*
X193911333Y-137068495D02*
X193911333Y-137163733D01*
X193911333Y-137163733D02*
X193863714Y-137258971D01*
X193863714Y-137258971D02*
X193816095Y-137306590D01*
X193816095Y-137306590D02*
X193720857Y-137354209D01*
X193720857Y-137354209D02*
X193387524Y-137354209D01*
X194387524Y-137878019D02*
X194387524Y-136878019D01*
X194387524Y-136878019D02*
X194768476Y-136878019D01*
X194768476Y-136878019D02*
X194863714Y-136925638D01*
X194863714Y-136925638D02*
X194911333Y-136973257D01*
X194911333Y-136973257D02*
X194958952Y-137068495D01*
X194958952Y-137068495D02*
X194958952Y-137211352D01*
X194958952Y-137211352D02*
X194911333Y-137306590D01*
X194911333Y-137306590D02*
X194863714Y-137354209D01*
X194863714Y-137354209D02*
X194768476Y-137401828D01*
X194768476Y-137401828D02*
X194387524Y-137401828D01*
X195339905Y-137592304D02*
X195816095Y-137592304D01*
X195244667Y-137878019D02*
X195578000Y-136878019D01*
X195578000Y-136878019D02*
X195911333Y-137878019D01*
X196244667Y-137878019D02*
X196244667Y-136878019D01*
X196244667Y-136878019D02*
X196482762Y-136878019D01*
X196482762Y-136878019D02*
X196625619Y-136925638D01*
X196625619Y-136925638D02*
X196720857Y-137020876D01*
X196720857Y-137020876D02*
X196768476Y-137116114D01*
X196768476Y-137116114D02*
X196816095Y-137306590D01*
X196816095Y-137306590D02*
X196816095Y-137449447D01*
X196816095Y-137449447D02*
X196768476Y-137639923D01*
X196768476Y-137639923D02*
X196720857Y-137735161D01*
X196720857Y-137735161D02*
X196625619Y-137830400D01*
X196625619Y-137830400D02*
X196482762Y-137878019D01*
X196482762Y-137878019D02*
X196244667Y-137878019D01*
X193744667Y-137833200D02*
X193887524Y-137880819D01*
X193887524Y-137880819D02*
X194125619Y-137880819D01*
X194125619Y-137880819D02*
X194220857Y-137833200D01*
X194220857Y-137833200D02*
X194268476Y-137785580D01*
X194268476Y-137785580D02*
X194316095Y-137690342D01*
X194316095Y-137690342D02*
X194316095Y-137595104D01*
X194316095Y-137595104D02*
X194268476Y-137499866D01*
X194268476Y-137499866D02*
X194220857Y-137452247D01*
X194220857Y-137452247D02*
X194125619Y-137404628D01*
X194125619Y-137404628D02*
X193935143Y-137357009D01*
X193935143Y-137357009D02*
X193839905Y-137309390D01*
X193839905Y-137309390D02*
X193792286Y-137261771D01*
X193792286Y-137261771D02*
X193744667Y-137166533D01*
X193744667Y-137166533D02*
X193744667Y-137071295D01*
X193744667Y-137071295D02*
X193792286Y-136976057D01*
X193792286Y-136976057D02*
X193839905Y-136928438D01*
X193839905Y-136928438D02*
X193935143Y-136880819D01*
X193935143Y-136880819D02*
X194173238Y-136880819D01*
X194173238Y-136880819D02*
X194316095Y-136928438D01*
X194649429Y-136880819D02*
X194887524Y-137880819D01*
X194887524Y-137880819D02*
X195078000Y-137166533D01*
X195078000Y-137166533D02*
X195268476Y-137880819D01*
X195268476Y-137880819D02*
X195506572Y-136880819D01*
X196363714Y-136880819D02*
X195887524Y-136880819D01*
X195887524Y-136880819D02*
X195839905Y-137357009D01*
X195839905Y-137357009D02*
X195887524Y-137309390D01*
X195887524Y-137309390D02*
X195982762Y-137261771D01*
X195982762Y-137261771D02*
X196220857Y-137261771D01*
X196220857Y-137261771D02*
X196316095Y-137309390D01*
X196316095Y-137309390D02*
X196363714Y-137357009D01*
X196363714Y-137357009D02*
X196411333Y-137452247D01*
X196411333Y-137452247D02*
X196411333Y-137690342D01*
X196411333Y-137690342D02*
X196363714Y-137785580D01*
X196363714Y-137785580D02*
X196316095Y-137833200D01*
X196316095Y-137833200D02*
X196220857Y-137880819D01*
X196220857Y-137880819D02*
X195982762Y-137880819D01*
X195982762Y-137880819D02*
X195887524Y-137833200D01*
X195887524Y-137833200D02*
X195839905Y-137785580D01*
X181820857Y-147554209D02*
X181963714Y-147601828D01*
X181963714Y-147601828D02*
X182011333Y-147649447D01*
X182011333Y-147649447D02*
X182058952Y-147744685D01*
X182058952Y-147744685D02*
X182058952Y-147887542D01*
X182058952Y-147887542D02*
X182011333Y-147982780D01*
X182011333Y-147982780D02*
X181963714Y-148030400D01*
X181963714Y-148030400D02*
X181868476Y-148078019D01*
X181868476Y-148078019D02*
X181487524Y-148078019D01*
X181487524Y-148078019D02*
X181487524Y-147078019D01*
X181487524Y-147078019D02*
X181820857Y-147078019D01*
X181820857Y-147078019D02*
X181916095Y-147125638D01*
X181916095Y-147125638D02*
X181963714Y-147173257D01*
X181963714Y-147173257D02*
X182011333Y-147268495D01*
X182011333Y-147268495D02*
X182011333Y-147363733D01*
X182011333Y-147363733D02*
X181963714Y-147458971D01*
X181963714Y-147458971D02*
X181916095Y-147506590D01*
X181916095Y-147506590D02*
X181820857Y-147554209D01*
X181820857Y-147554209D02*
X181487524Y-147554209D01*
X182487524Y-148078019D02*
X182487524Y-147078019D01*
X182487524Y-147078019D02*
X182868476Y-147078019D01*
X182868476Y-147078019D02*
X182963714Y-147125638D01*
X182963714Y-147125638D02*
X183011333Y-147173257D01*
X183011333Y-147173257D02*
X183058952Y-147268495D01*
X183058952Y-147268495D02*
X183058952Y-147411352D01*
X183058952Y-147411352D02*
X183011333Y-147506590D01*
X183011333Y-147506590D02*
X182963714Y-147554209D01*
X182963714Y-147554209D02*
X182868476Y-147601828D01*
X182868476Y-147601828D02*
X182487524Y-147601828D01*
X183439905Y-147792304D02*
X183916095Y-147792304D01*
X183344667Y-148078019D02*
X183678000Y-147078019D01*
X183678000Y-147078019D02*
X184011333Y-148078019D01*
X184344667Y-148078019D02*
X184344667Y-147078019D01*
X184344667Y-147078019D02*
X184582762Y-147078019D01*
X184582762Y-147078019D02*
X184725619Y-147125638D01*
X184725619Y-147125638D02*
X184820857Y-147220876D01*
X184820857Y-147220876D02*
X184868476Y-147316114D01*
X184868476Y-147316114D02*
X184916095Y-147506590D01*
X184916095Y-147506590D02*
X184916095Y-147649447D01*
X184916095Y-147649447D02*
X184868476Y-147839923D01*
X184868476Y-147839923D02*
X184820857Y-147935161D01*
X184820857Y-147935161D02*
X184725619Y-148030400D01*
X184725619Y-148030400D02*
X184582762Y-148078019D01*
X184582762Y-148078019D02*
X184344667Y-148078019D01*
X181844667Y-148033200D02*
X181987524Y-148080819D01*
X181987524Y-148080819D02*
X182225619Y-148080819D01*
X182225619Y-148080819D02*
X182320857Y-148033200D01*
X182320857Y-148033200D02*
X182368476Y-147985580D01*
X182368476Y-147985580D02*
X182416095Y-147890342D01*
X182416095Y-147890342D02*
X182416095Y-147795104D01*
X182416095Y-147795104D02*
X182368476Y-147699866D01*
X182368476Y-147699866D02*
X182320857Y-147652247D01*
X182320857Y-147652247D02*
X182225619Y-147604628D01*
X182225619Y-147604628D02*
X182035143Y-147557009D01*
X182035143Y-147557009D02*
X181939905Y-147509390D01*
X181939905Y-147509390D02*
X181892286Y-147461771D01*
X181892286Y-147461771D02*
X181844667Y-147366533D01*
X181844667Y-147366533D02*
X181844667Y-147271295D01*
X181844667Y-147271295D02*
X181892286Y-147176057D01*
X181892286Y-147176057D02*
X181939905Y-147128438D01*
X181939905Y-147128438D02*
X182035143Y-147080819D01*
X182035143Y-147080819D02*
X182273238Y-147080819D01*
X182273238Y-147080819D02*
X182416095Y-147128438D01*
X182749429Y-147080819D02*
X182987524Y-148080819D01*
X182987524Y-148080819D02*
X183178000Y-147366533D01*
X183178000Y-147366533D02*
X183368476Y-148080819D01*
X183368476Y-148080819D02*
X183606572Y-147080819D01*
X184416095Y-147080819D02*
X184225619Y-147080819D01*
X184225619Y-147080819D02*
X184130381Y-147128438D01*
X184130381Y-147128438D02*
X184082762Y-147176057D01*
X184082762Y-147176057D02*
X183987524Y-147318914D01*
X183987524Y-147318914D02*
X183939905Y-147509390D01*
X183939905Y-147509390D02*
X183939905Y-147890342D01*
X183939905Y-147890342D02*
X183987524Y-147985580D01*
X183987524Y-147985580D02*
X184035143Y-148033200D01*
X184035143Y-148033200D02*
X184130381Y-148080819D01*
X184130381Y-148080819D02*
X184320857Y-148080819D01*
X184320857Y-148080819D02*
X184416095Y-148033200D01*
X184416095Y-148033200D02*
X184463714Y-147985580D01*
X184463714Y-147985580D02*
X184511333Y-147890342D01*
X184511333Y-147890342D02*
X184511333Y-147652247D01*
X184511333Y-147652247D02*
X184463714Y-147557009D01*
X184463714Y-147557009D02*
X184416095Y-147509390D01*
X184416095Y-147509390D02*
X184320857Y-147461771D01*
X184320857Y-147461771D02*
X184130381Y-147461771D01*
X184130381Y-147461771D02*
X184035143Y-147509390D01*
X184035143Y-147509390D02*
X183987524Y-147557009D01*
X183987524Y-147557009D02*
X183939905Y-147652247D01*
X148578952Y-133438019D02*
X149150380Y-133438019D01*
X148864666Y-134438019D02*
X148864666Y-133438019D01*
X149959904Y-134438019D02*
X149483714Y-134438019D01*
X149483714Y-134438019D02*
X149483714Y-133438019D01*
X150198000Y-133438019D02*
X150817047Y-133438019D01*
X150817047Y-133438019D02*
X150483714Y-133818971D01*
X150483714Y-133818971D02*
X150626571Y-133818971D01*
X150626571Y-133818971D02*
X150721809Y-133866590D01*
X150721809Y-133866590D02*
X150769428Y-133914209D01*
X150769428Y-133914209D02*
X150817047Y-134009447D01*
X150817047Y-134009447D02*
X150817047Y-134247542D01*
X150817047Y-134247542D02*
X150769428Y-134342780D01*
X150769428Y-134342780D02*
X150721809Y-134390400D01*
X150721809Y-134390400D02*
X150626571Y-134438019D01*
X150626571Y-134438019D02*
X150340857Y-134438019D01*
X150340857Y-134438019D02*
X150245619Y-134390400D01*
X150245619Y-134390400D02*
X150198000Y-134342780D01*
X151150381Y-133438019D02*
X151769428Y-133438019D01*
X151769428Y-133438019D02*
X151436095Y-133818971D01*
X151436095Y-133818971D02*
X151578952Y-133818971D01*
X151578952Y-133818971D02*
X151674190Y-133866590D01*
X151674190Y-133866590D02*
X151721809Y-133914209D01*
X151721809Y-133914209D02*
X151769428Y-134009447D01*
X151769428Y-134009447D02*
X151769428Y-134247542D01*
X151769428Y-134247542D02*
X151721809Y-134342780D01*
X151721809Y-134342780D02*
X151674190Y-134390400D01*
X151674190Y-134390400D02*
X151578952Y-134438019D01*
X151578952Y-134438019D02*
X151293238Y-134438019D01*
X151293238Y-134438019D02*
X151198000Y-134390400D01*
X151198000Y-134390400D02*
X151150381Y-134342780D01*
X152721809Y-134438019D02*
X152150381Y-134438019D01*
X152436095Y-134438019D02*
X152436095Y-133438019D01*
X152436095Y-133438019D02*
X152340857Y-133580876D01*
X152340857Y-133580876D02*
X152245619Y-133676114D01*
X152245619Y-133676114D02*
X152150381Y-133723733D01*
X153626571Y-133438019D02*
X153150381Y-133438019D01*
X153150381Y-133438019D02*
X153102762Y-133914209D01*
X153102762Y-133914209D02*
X153150381Y-133866590D01*
X153150381Y-133866590D02*
X153245619Y-133818971D01*
X153245619Y-133818971D02*
X153483714Y-133818971D01*
X153483714Y-133818971D02*
X153578952Y-133866590D01*
X153578952Y-133866590D02*
X153626571Y-133914209D01*
X153626571Y-133914209D02*
X153674190Y-134009447D01*
X153674190Y-134009447D02*
X153674190Y-134247542D01*
X153674190Y-134247542D02*
X153626571Y-134342780D01*
X153626571Y-134342780D02*
X153578952Y-134390400D01*
X153578952Y-134390400D02*
X153483714Y-134438019D01*
X153483714Y-134438019D02*
X153245619Y-134438019D01*
X153245619Y-134438019D02*
X153150381Y-134390400D01*
X153150381Y-134390400D02*
X153102762Y-134342780D01*
X154102762Y-134438019D02*
X154102762Y-133438019D01*
X154102762Y-133438019D02*
X154674190Y-134438019D01*
X154674190Y-134438019D02*
X154674190Y-133438019D01*
X155483714Y-133914209D02*
X155150381Y-133914209D01*
X155150381Y-134438019D02*
X155150381Y-133438019D01*
X155150381Y-133438019D02*
X155626571Y-133438019D01*
X156531333Y-134438019D02*
X155959905Y-134438019D01*
X156245619Y-134438019D02*
X156245619Y-133438019D01*
X156245619Y-133438019D02*
X156150381Y-133580876D01*
X156150381Y-133580876D02*
X156055143Y-133676114D01*
X156055143Y-133676114D02*
X155959905Y-133723733D01*
X157150381Y-133438019D02*
X157245619Y-133438019D01*
X157245619Y-133438019D02*
X157340857Y-133485638D01*
X157340857Y-133485638D02*
X157388476Y-133533257D01*
X157388476Y-133533257D02*
X157436095Y-133628495D01*
X157436095Y-133628495D02*
X157483714Y-133818971D01*
X157483714Y-133818971D02*
X157483714Y-134057066D01*
X157483714Y-134057066D02*
X157436095Y-134247542D01*
X157436095Y-134247542D02*
X157388476Y-134342780D01*
X157388476Y-134342780D02*
X157340857Y-134390400D01*
X157340857Y-134390400D02*
X157245619Y-134438019D01*
X157245619Y-134438019D02*
X157150381Y-134438019D01*
X157150381Y-134438019D02*
X157055143Y-134390400D01*
X157055143Y-134390400D02*
X157007524Y-134342780D01*
X157007524Y-134342780D02*
X156959905Y-134247542D01*
X156959905Y-134247542D02*
X156912286Y-134057066D01*
X156912286Y-134057066D02*
X156912286Y-133818971D01*
X156912286Y-133818971D02*
X156959905Y-133628495D01*
X156959905Y-133628495D02*
X157007524Y-133533257D01*
X157007524Y-133533257D02*
X157055143Y-133485638D01*
X157055143Y-133485638D02*
X157150381Y-133438019D01*
X158102762Y-133438019D02*
X158198000Y-133438019D01*
X158198000Y-133438019D02*
X158293238Y-133485638D01*
X158293238Y-133485638D02*
X158340857Y-133533257D01*
X158340857Y-133533257D02*
X158388476Y-133628495D01*
X158388476Y-133628495D02*
X158436095Y-133818971D01*
X158436095Y-133818971D02*
X158436095Y-134057066D01*
X158436095Y-134057066D02*
X158388476Y-134247542D01*
X158388476Y-134247542D02*
X158340857Y-134342780D01*
X158340857Y-134342780D02*
X158293238Y-134390400D01*
X158293238Y-134390400D02*
X158198000Y-134438019D01*
X158198000Y-134438019D02*
X158102762Y-134438019D01*
X158102762Y-134438019D02*
X158007524Y-134390400D01*
X158007524Y-134390400D02*
X157959905Y-134342780D01*
X157959905Y-134342780D02*
X157912286Y-134247542D01*
X157912286Y-134247542D02*
X157864667Y-134057066D01*
X157864667Y-134057066D02*
X157864667Y-133818971D01*
X157864667Y-133818971D02*
X157912286Y-133628495D01*
X157912286Y-133628495D02*
X157959905Y-133533257D01*
X157959905Y-133533257D02*
X158007524Y-133485638D01*
X158007524Y-133485638D02*
X158102762Y-133438019D01*
X159531333Y-134533257D02*
X159436095Y-134485638D01*
X159436095Y-134485638D02*
X159340857Y-134390400D01*
X159340857Y-134390400D02*
X159198000Y-134247542D01*
X159198000Y-134247542D02*
X159102762Y-134199923D01*
X159102762Y-134199923D02*
X159007524Y-134199923D01*
X159055143Y-134438019D02*
X158959905Y-134390400D01*
X158959905Y-134390400D02*
X158864667Y-134295161D01*
X158864667Y-134295161D02*
X158817048Y-134104685D01*
X158817048Y-134104685D02*
X158817048Y-133771352D01*
X158817048Y-133771352D02*
X158864667Y-133580876D01*
X158864667Y-133580876D02*
X158959905Y-133485638D01*
X158959905Y-133485638D02*
X159055143Y-133438019D01*
X159055143Y-133438019D02*
X159245619Y-133438019D01*
X159245619Y-133438019D02*
X159340857Y-133485638D01*
X159340857Y-133485638D02*
X159436095Y-133580876D01*
X159436095Y-133580876D02*
X159483714Y-133771352D01*
X159483714Y-133771352D02*
X159483714Y-134104685D01*
X159483714Y-134104685D02*
X159436095Y-134295161D01*
X159436095Y-134295161D02*
X159340857Y-134390400D01*
X159340857Y-134390400D02*
X159245619Y-134438019D01*
X159245619Y-134438019D02*
X159055143Y-134438019D01*
X152364667Y-135890400D02*
X152507524Y-135938019D01*
X152507524Y-135938019D02*
X152745619Y-135938019D01*
X152745619Y-135938019D02*
X152840857Y-135890400D01*
X152840857Y-135890400D02*
X152888476Y-135842780D01*
X152888476Y-135842780D02*
X152936095Y-135747542D01*
X152936095Y-135747542D02*
X152936095Y-135652304D01*
X152936095Y-135652304D02*
X152888476Y-135557066D01*
X152888476Y-135557066D02*
X152840857Y-135509447D01*
X152840857Y-135509447D02*
X152745619Y-135461828D01*
X152745619Y-135461828D02*
X152555143Y-135414209D01*
X152555143Y-135414209D02*
X152459905Y-135366590D01*
X152459905Y-135366590D02*
X152412286Y-135318971D01*
X152412286Y-135318971D02*
X152364667Y-135223733D01*
X152364667Y-135223733D02*
X152364667Y-135128495D01*
X152364667Y-135128495D02*
X152412286Y-135033257D01*
X152412286Y-135033257D02*
X152459905Y-134985638D01*
X152459905Y-134985638D02*
X152555143Y-134938019D01*
X152555143Y-134938019D02*
X152793238Y-134938019D01*
X152793238Y-134938019D02*
X152936095Y-134985638D01*
X153269429Y-134938019D02*
X153507524Y-135938019D01*
X153507524Y-135938019D02*
X153698000Y-135223733D01*
X153698000Y-135223733D02*
X153888476Y-135938019D01*
X153888476Y-135938019D02*
X154126572Y-134938019D01*
X154412286Y-134938019D02*
X155031333Y-134938019D01*
X155031333Y-134938019D02*
X154698000Y-135318971D01*
X154698000Y-135318971D02*
X154840857Y-135318971D01*
X154840857Y-135318971D02*
X154936095Y-135366590D01*
X154936095Y-135366590D02*
X154983714Y-135414209D01*
X154983714Y-135414209D02*
X155031333Y-135509447D01*
X155031333Y-135509447D02*
X155031333Y-135747542D01*
X155031333Y-135747542D02*
X154983714Y-135842780D01*
X154983714Y-135842780D02*
X154936095Y-135890400D01*
X154936095Y-135890400D02*
X154840857Y-135938019D01*
X154840857Y-135938019D02*
X154555143Y-135938019D01*
X154555143Y-135938019D02*
X154459905Y-135890400D01*
X154459905Y-135890400D02*
X154412286Y-135842780D01*
X162597333Y-126496819D02*
X162121143Y-126496819D01*
X162121143Y-126496819D02*
X162121143Y-125496819D01*
X163073524Y-125925390D02*
X162978286Y-125877771D01*
X162978286Y-125877771D02*
X162930667Y-125830152D01*
X162930667Y-125830152D02*
X162883048Y-125734914D01*
X162883048Y-125734914D02*
X162883048Y-125687295D01*
X162883048Y-125687295D02*
X162930667Y-125592057D01*
X162930667Y-125592057D02*
X162978286Y-125544438D01*
X162978286Y-125544438D02*
X163073524Y-125496819D01*
X163073524Y-125496819D02*
X163264000Y-125496819D01*
X163264000Y-125496819D02*
X163359238Y-125544438D01*
X163359238Y-125544438D02*
X163406857Y-125592057D01*
X163406857Y-125592057D02*
X163454476Y-125687295D01*
X163454476Y-125687295D02*
X163454476Y-125734914D01*
X163454476Y-125734914D02*
X163406857Y-125830152D01*
X163406857Y-125830152D02*
X163359238Y-125877771D01*
X163359238Y-125877771D02*
X163264000Y-125925390D01*
X163264000Y-125925390D02*
X163073524Y-125925390D01*
X163073524Y-125925390D02*
X162978286Y-125973009D01*
X162978286Y-125973009D02*
X162930667Y-126020628D01*
X162930667Y-126020628D02*
X162883048Y-126115866D01*
X162883048Y-126115866D02*
X162883048Y-126306342D01*
X162883048Y-126306342D02*
X162930667Y-126401580D01*
X162930667Y-126401580D02*
X162978286Y-126449200D01*
X162978286Y-126449200D02*
X163073524Y-126496819D01*
X163073524Y-126496819D02*
X163264000Y-126496819D01*
X163264000Y-126496819D02*
X163359238Y-126449200D01*
X163359238Y-126449200D02*
X163406857Y-126401580D01*
X163406857Y-126401580D02*
X163454476Y-126306342D01*
X163454476Y-126306342D02*
X163454476Y-126115866D01*
X163454476Y-126115866D02*
X163406857Y-126020628D01*
X163406857Y-126020628D02*
X163359238Y-125973009D01*
X163359238Y-125973009D02*
X163264000Y-125925390D01*
X119010019Y-152111475D02*
X118010019Y-152111475D01*
X118010019Y-152111475D02*
X118010019Y-151873380D01*
X118010019Y-151873380D02*
X118057638Y-151730523D01*
X118057638Y-151730523D02*
X118152876Y-151635285D01*
X118152876Y-151635285D02*
X118248114Y-151587666D01*
X118248114Y-151587666D02*
X118438590Y-151540047D01*
X118438590Y-151540047D02*
X118581447Y-151540047D01*
X118581447Y-151540047D02*
X118771923Y-151587666D01*
X118771923Y-151587666D02*
X118867161Y-151635285D01*
X118867161Y-151635285D02*
X118962400Y-151730523D01*
X118962400Y-151730523D02*
X119010019Y-151873380D01*
X119010019Y-151873380D02*
X119010019Y-152111475D01*
X119010019Y-151111475D02*
X118010019Y-151111475D01*
X118010019Y-151111475D02*
X118010019Y-150730523D01*
X118010019Y-150730523D02*
X118057638Y-150635285D01*
X118057638Y-150635285D02*
X118105257Y-150587666D01*
X118105257Y-150587666D02*
X118200495Y-150540047D01*
X118200495Y-150540047D02*
X118343352Y-150540047D01*
X118343352Y-150540047D02*
X118438590Y-150587666D01*
X118438590Y-150587666D02*
X118486209Y-150635285D01*
X118486209Y-150635285D02*
X118533828Y-150730523D01*
X118533828Y-150730523D02*
X118533828Y-151111475D01*
X118724304Y-150159094D02*
X118724304Y-149682904D01*
X119010019Y-150254332D02*
X118010019Y-149920999D01*
X118010019Y-149920999D02*
X119010019Y-149587666D01*
X119010019Y-149254332D02*
X118010019Y-149254332D01*
X118010019Y-149254332D02*
X118010019Y-149016237D01*
X118010019Y-149016237D02*
X118057638Y-148873380D01*
X118057638Y-148873380D02*
X118152876Y-148778142D01*
X118152876Y-148778142D02*
X118248114Y-148730523D01*
X118248114Y-148730523D02*
X118438590Y-148682904D01*
X118438590Y-148682904D02*
X118581447Y-148682904D01*
X118581447Y-148682904D02*
X118771923Y-148730523D01*
X118771923Y-148730523D02*
X118867161Y-148778142D01*
X118867161Y-148778142D02*
X118962400Y-148873380D01*
X118962400Y-148873380D02*
X119010019Y-149016237D01*
X119010019Y-149016237D02*
X119010019Y-149254332D01*
X118965200Y-151754332D02*
X119012819Y-151611475D01*
X119012819Y-151611475D02*
X119012819Y-151373380D01*
X119012819Y-151373380D02*
X118965200Y-151278142D01*
X118965200Y-151278142D02*
X118917580Y-151230523D01*
X118917580Y-151230523D02*
X118822342Y-151182904D01*
X118822342Y-151182904D02*
X118727104Y-151182904D01*
X118727104Y-151182904D02*
X118631866Y-151230523D01*
X118631866Y-151230523D02*
X118584247Y-151278142D01*
X118584247Y-151278142D02*
X118536628Y-151373380D01*
X118536628Y-151373380D02*
X118489009Y-151563856D01*
X118489009Y-151563856D02*
X118441390Y-151659094D01*
X118441390Y-151659094D02*
X118393771Y-151706713D01*
X118393771Y-151706713D02*
X118298533Y-151754332D01*
X118298533Y-151754332D02*
X118203295Y-151754332D01*
X118203295Y-151754332D02*
X118108057Y-151706713D01*
X118108057Y-151706713D02*
X118060438Y-151659094D01*
X118060438Y-151659094D02*
X118012819Y-151563856D01*
X118012819Y-151563856D02*
X118012819Y-151325761D01*
X118012819Y-151325761D02*
X118060438Y-151182904D01*
X118012819Y-150849570D02*
X119012819Y-150611475D01*
X119012819Y-150611475D02*
X118298533Y-150420999D01*
X118298533Y-150420999D02*
X119012819Y-150230523D01*
X119012819Y-150230523D02*
X118012819Y-149992428D01*
X119012819Y-149563856D02*
X119012819Y-149373380D01*
X119012819Y-149373380D02*
X118965200Y-149278142D01*
X118965200Y-149278142D02*
X118917580Y-149230523D01*
X118917580Y-149230523D02*
X118774723Y-149135285D01*
X118774723Y-149135285D02*
X118584247Y-149087666D01*
X118584247Y-149087666D02*
X118203295Y-149087666D01*
X118203295Y-149087666D02*
X118108057Y-149135285D01*
X118108057Y-149135285D02*
X118060438Y-149182904D01*
X118060438Y-149182904D02*
X118012819Y-149278142D01*
X118012819Y-149278142D02*
X118012819Y-149468618D01*
X118012819Y-149468618D02*
X118060438Y-149563856D01*
X118060438Y-149563856D02*
X118108057Y-149611475D01*
X118108057Y-149611475D02*
X118203295Y-149659094D01*
X118203295Y-149659094D02*
X118441390Y-149659094D01*
X118441390Y-149659094D02*
X118536628Y-149611475D01*
X118536628Y-149611475D02*
X118584247Y-149563856D01*
X118584247Y-149563856D02*
X118631866Y-149468618D01*
X118631866Y-149468618D02*
X118631866Y-149278142D01*
X118631866Y-149278142D02*
X118584247Y-149182904D01*
X118584247Y-149182904D02*
X118536628Y-149135285D01*
X118536628Y-149135285D02*
X118441390Y-149087666D01*
X181820857Y-127154209D02*
X181963714Y-127201828D01*
X181963714Y-127201828D02*
X182011333Y-127249447D01*
X182011333Y-127249447D02*
X182058952Y-127344685D01*
X182058952Y-127344685D02*
X182058952Y-127487542D01*
X182058952Y-127487542D02*
X182011333Y-127582780D01*
X182011333Y-127582780D02*
X181963714Y-127630400D01*
X181963714Y-127630400D02*
X181868476Y-127678019D01*
X181868476Y-127678019D02*
X181487524Y-127678019D01*
X181487524Y-127678019D02*
X181487524Y-126678019D01*
X181487524Y-126678019D02*
X181820857Y-126678019D01*
X181820857Y-126678019D02*
X181916095Y-126725638D01*
X181916095Y-126725638D02*
X181963714Y-126773257D01*
X181963714Y-126773257D02*
X182011333Y-126868495D01*
X182011333Y-126868495D02*
X182011333Y-126963733D01*
X182011333Y-126963733D02*
X181963714Y-127058971D01*
X181963714Y-127058971D02*
X181916095Y-127106590D01*
X181916095Y-127106590D02*
X181820857Y-127154209D01*
X181820857Y-127154209D02*
X181487524Y-127154209D01*
X182487524Y-127678019D02*
X182487524Y-126678019D01*
X182487524Y-126678019D02*
X182868476Y-126678019D01*
X182868476Y-126678019D02*
X182963714Y-126725638D01*
X182963714Y-126725638D02*
X183011333Y-126773257D01*
X183011333Y-126773257D02*
X183058952Y-126868495D01*
X183058952Y-126868495D02*
X183058952Y-127011352D01*
X183058952Y-127011352D02*
X183011333Y-127106590D01*
X183011333Y-127106590D02*
X182963714Y-127154209D01*
X182963714Y-127154209D02*
X182868476Y-127201828D01*
X182868476Y-127201828D02*
X182487524Y-127201828D01*
X183439905Y-127392304D02*
X183916095Y-127392304D01*
X183344667Y-127678019D02*
X183678000Y-126678019D01*
X183678000Y-126678019D02*
X184011333Y-127678019D01*
X184344667Y-127678019D02*
X184344667Y-126678019D01*
X184344667Y-126678019D02*
X184582762Y-126678019D01*
X184582762Y-126678019D02*
X184725619Y-126725638D01*
X184725619Y-126725638D02*
X184820857Y-126820876D01*
X184820857Y-126820876D02*
X184868476Y-126916114D01*
X184868476Y-126916114D02*
X184916095Y-127106590D01*
X184916095Y-127106590D02*
X184916095Y-127249447D01*
X184916095Y-127249447D02*
X184868476Y-127439923D01*
X184868476Y-127439923D02*
X184820857Y-127535161D01*
X184820857Y-127535161D02*
X184725619Y-127630400D01*
X184725619Y-127630400D02*
X184582762Y-127678019D01*
X184582762Y-127678019D02*
X184344667Y-127678019D01*
X181844667Y-127633200D02*
X181987524Y-127680819D01*
X181987524Y-127680819D02*
X182225619Y-127680819D01*
X182225619Y-127680819D02*
X182320857Y-127633200D01*
X182320857Y-127633200D02*
X182368476Y-127585580D01*
X182368476Y-127585580D02*
X182416095Y-127490342D01*
X182416095Y-127490342D02*
X182416095Y-127395104D01*
X182416095Y-127395104D02*
X182368476Y-127299866D01*
X182368476Y-127299866D02*
X182320857Y-127252247D01*
X182320857Y-127252247D02*
X182225619Y-127204628D01*
X182225619Y-127204628D02*
X182035143Y-127157009D01*
X182035143Y-127157009D02*
X181939905Y-127109390D01*
X181939905Y-127109390D02*
X181892286Y-127061771D01*
X181892286Y-127061771D02*
X181844667Y-126966533D01*
X181844667Y-126966533D02*
X181844667Y-126871295D01*
X181844667Y-126871295D02*
X181892286Y-126776057D01*
X181892286Y-126776057D02*
X181939905Y-126728438D01*
X181939905Y-126728438D02*
X182035143Y-126680819D01*
X182035143Y-126680819D02*
X182273238Y-126680819D01*
X182273238Y-126680819D02*
X182416095Y-126728438D01*
X182749429Y-126680819D02*
X182987524Y-127680819D01*
X182987524Y-127680819D02*
X183178000Y-126966533D01*
X183178000Y-126966533D02*
X183368476Y-127680819D01*
X183368476Y-127680819D02*
X183606572Y-126680819D01*
X184130381Y-127109390D02*
X184035143Y-127061771D01*
X184035143Y-127061771D02*
X183987524Y-127014152D01*
X183987524Y-127014152D02*
X183939905Y-126918914D01*
X183939905Y-126918914D02*
X183939905Y-126871295D01*
X183939905Y-126871295D02*
X183987524Y-126776057D01*
X183987524Y-126776057D02*
X184035143Y-126728438D01*
X184035143Y-126728438D02*
X184130381Y-126680819D01*
X184130381Y-126680819D02*
X184320857Y-126680819D01*
X184320857Y-126680819D02*
X184416095Y-126728438D01*
X184416095Y-126728438D02*
X184463714Y-126776057D01*
X184463714Y-126776057D02*
X184511333Y-126871295D01*
X184511333Y-126871295D02*
X184511333Y-126918914D01*
X184511333Y-126918914D02*
X184463714Y-127014152D01*
X184463714Y-127014152D02*
X184416095Y-127061771D01*
X184416095Y-127061771D02*
X184320857Y-127109390D01*
X184320857Y-127109390D02*
X184130381Y-127109390D01*
X184130381Y-127109390D02*
X184035143Y-127157009D01*
X184035143Y-127157009D02*
X183987524Y-127204628D01*
X183987524Y-127204628D02*
X183939905Y-127299866D01*
X183939905Y-127299866D02*
X183939905Y-127490342D01*
X183939905Y-127490342D02*
X183987524Y-127585580D01*
X183987524Y-127585580D02*
X184035143Y-127633200D01*
X184035143Y-127633200D02*
X184130381Y-127680819D01*
X184130381Y-127680819D02*
X184320857Y-127680819D01*
X184320857Y-127680819D02*
X184416095Y-127633200D01*
X184416095Y-127633200D02*
X184463714Y-127585580D01*
X184463714Y-127585580D02*
X184511333Y-127490342D01*
X184511333Y-127490342D02*
X184511333Y-127299866D01*
X184511333Y-127299866D02*
X184463714Y-127204628D01*
X184463714Y-127204628D02*
X184416095Y-127157009D01*
X184416095Y-127157009D02*
X184320857Y-127109390D01*
X119945980Y-148730524D02*
X120945980Y-148730524D01*
X120945980Y-148730524D02*
X120945980Y-148968619D01*
X120945980Y-148968619D02*
X120898361Y-149111476D01*
X120898361Y-149111476D02*
X120803123Y-149206714D01*
X120803123Y-149206714D02*
X120707885Y-149254333D01*
X120707885Y-149254333D02*
X120517409Y-149301952D01*
X120517409Y-149301952D02*
X120374552Y-149301952D01*
X120374552Y-149301952D02*
X120184076Y-149254333D01*
X120184076Y-149254333D02*
X120088838Y-149206714D01*
X120088838Y-149206714D02*
X119993600Y-149111476D01*
X119993600Y-149111476D02*
X119945980Y-148968619D01*
X119945980Y-148968619D02*
X119945980Y-148730524D01*
X119945980Y-149730524D02*
X120945980Y-149730524D01*
X120945980Y-149730524D02*
X120945980Y-150111476D01*
X120945980Y-150111476D02*
X120898361Y-150206714D01*
X120898361Y-150206714D02*
X120850742Y-150254333D01*
X120850742Y-150254333D02*
X120755504Y-150301952D01*
X120755504Y-150301952D02*
X120612647Y-150301952D01*
X120612647Y-150301952D02*
X120517409Y-150254333D01*
X120517409Y-150254333D02*
X120469790Y-150206714D01*
X120469790Y-150206714D02*
X120422171Y-150111476D01*
X120422171Y-150111476D02*
X120422171Y-149730524D01*
X120231695Y-150682905D02*
X120231695Y-151159095D01*
X119945980Y-150587667D02*
X120945980Y-150921000D01*
X120945980Y-150921000D02*
X119945980Y-151254333D01*
X119945980Y-151587667D02*
X120945980Y-151587667D01*
X120945980Y-151587667D02*
X120945980Y-151825762D01*
X120945980Y-151825762D02*
X120898361Y-151968619D01*
X120898361Y-151968619D02*
X120803123Y-152063857D01*
X120803123Y-152063857D02*
X120707885Y-152111476D01*
X120707885Y-152111476D02*
X120517409Y-152159095D01*
X120517409Y-152159095D02*
X120374552Y-152159095D01*
X120374552Y-152159095D02*
X120184076Y-152111476D01*
X120184076Y-152111476D02*
X120088838Y-152063857D01*
X120088838Y-152063857D02*
X119993600Y-151968619D01*
X119993600Y-151968619D02*
X119945980Y-151825762D01*
X119945980Y-151825762D02*
X119945980Y-151587667D01*
X119990800Y-148611476D02*
X119943180Y-148754333D01*
X119943180Y-148754333D02*
X119943180Y-148992428D01*
X119943180Y-148992428D02*
X119990800Y-149087666D01*
X119990800Y-149087666D02*
X120038419Y-149135285D01*
X120038419Y-149135285D02*
X120133657Y-149182904D01*
X120133657Y-149182904D02*
X120228895Y-149182904D01*
X120228895Y-149182904D02*
X120324133Y-149135285D01*
X120324133Y-149135285D02*
X120371752Y-149087666D01*
X120371752Y-149087666D02*
X120419371Y-148992428D01*
X120419371Y-148992428D02*
X120466990Y-148801952D01*
X120466990Y-148801952D02*
X120514609Y-148706714D01*
X120514609Y-148706714D02*
X120562228Y-148659095D01*
X120562228Y-148659095D02*
X120657466Y-148611476D01*
X120657466Y-148611476D02*
X120752704Y-148611476D01*
X120752704Y-148611476D02*
X120847942Y-148659095D01*
X120847942Y-148659095D02*
X120895561Y-148706714D01*
X120895561Y-148706714D02*
X120943180Y-148801952D01*
X120943180Y-148801952D02*
X120943180Y-149040047D01*
X120943180Y-149040047D02*
X120895561Y-149182904D01*
X120943180Y-149516238D02*
X119943180Y-149754333D01*
X119943180Y-149754333D02*
X120657466Y-149944809D01*
X120657466Y-149944809D02*
X119943180Y-150135285D01*
X119943180Y-150135285D02*
X120943180Y-150373381D01*
X119943180Y-151278142D02*
X119943180Y-150706714D01*
X119943180Y-150992428D02*
X120943180Y-150992428D01*
X120943180Y-150992428D02*
X120800323Y-150897190D01*
X120800323Y-150897190D02*
X120705085Y-150801952D01*
X120705085Y-150801952D02*
X120657466Y-150706714D01*
X119943180Y-152230523D02*
X119943180Y-151659095D01*
X119943180Y-151944809D02*
X120943180Y-151944809D01*
X120943180Y-151944809D02*
X120800323Y-151849571D01*
X120800323Y-151849571D02*
X120705085Y-151754333D01*
X120705085Y-151754333D02*
X120657466Y-151659095D01*
X117787524Y-149953019D02*
X117787524Y-148953019D01*
X117787524Y-148953019D02*
X118025619Y-148953019D01*
X118025619Y-148953019D02*
X118168476Y-149000638D01*
X118168476Y-149000638D02*
X118263714Y-149095876D01*
X118263714Y-149095876D02*
X118311333Y-149191114D01*
X118311333Y-149191114D02*
X118358952Y-149381590D01*
X118358952Y-149381590D02*
X118358952Y-149524447D01*
X118358952Y-149524447D02*
X118311333Y-149714923D01*
X118311333Y-149714923D02*
X118263714Y-149810161D01*
X118263714Y-149810161D02*
X118168476Y-149905400D01*
X118168476Y-149905400D02*
X118025619Y-149953019D01*
X118025619Y-149953019D02*
X117787524Y-149953019D01*
X118787524Y-149953019D02*
X118787524Y-148953019D01*
X118787524Y-148953019D02*
X119168476Y-148953019D01*
X119168476Y-148953019D02*
X119263714Y-149000638D01*
X119263714Y-149000638D02*
X119311333Y-149048257D01*
X119311333Y-149048257D02*
X119358952Y-149143495D01*
X119358952Y-149143495D02*
X119358952Y-149286352D01*
X119358952Y-149286352D02*
X119311333Y-149381590D01*
X119311333Y-149381590D02*
X119263714Y-149429209D01*
X119263714Y-149429209D02*
X119168476Y-149476828D01*
X119168476Y-149476828D02*
X118787524Y-149476828D01*
X119739905Y-149667304D02*
X120216095Y-149667304D01*
X119644667Y-149953019D02*
X119978000Y-148953019D01*
X119978000Y-148953019D02*
X120311333Y-149953019D01*
X120644667Y-149953019D02*
X120644667Y-148953019D01*
X120644667Y-148953019D02*
X120882762Y-148953019D01*
X120882762Y-148953019D02*
X121025619Y-149000638D01*
X121025619Y-149000638D02*
X121120857Y-149095876D01*
X121120857Y-149095876D02*
X121168476Y-149191114D01*
X121168476Y-149191114D02*
X121216095Y-149381590D01*
X121216095Y-149381590D02*
X121216095Y-149524447D01*
X121216095Y-149524447D02*
X121168476Y-149714923D01*
X121168476Y-149714923D02*
X121120857Y-149810161D01*
X121120857Y-149810161D02*
X121025619Y-149905400D01*
X121025619Y-149905400D02*
X120882762Y-149953019D01*
X120882762Y-149953019D02*
X120644667Y-149953019D01*
X117668476Y-149908200D02*
X117811333Y-149955819D01*
X117811333Y-149955819D02*
X118049428Y-149955819D01*
X118049428Y-149955819D02*
X118144666Y-149908200D01*
X118144666Y-149908200D02*
X118192285Y-149860580D01*
X118192285Y-149860580D02*
X118239904Y-149765342D01*
X118239904Y-149765342D02*
X118239904Y-149670104D01*
X118239904Y-149670104D02*
X118192285Y-149574866D01*
X118192285Y-149574866D02*
X118144666Y-149527247D01*
X118144666Y-149527247D02*
X118049428Y-149479628D01*
X118049428Y-149479628D02*
X117858952Y-149432009D01*
X117858952Y-149432009D02*
X117763714Y-149384390D01*
X117763714Y-149384390D02*
X117716095Y-149336771D01*
X117716095Y-149336771D02*
X117668476Y-149241533D01*
X117668476Y-149241533D02*
X117668476Y-149146295D01*
X117668476Y-149146295D02*
X117716095Y-149051057D01*
X117716095Y-149051057D02*
X117763714Y-149003438D01*
X117763714Y-149003438D02*
X117858952Y-148955819D01*
X117858952Y-148955819D02*
X118097047Y-148955819D01*
X118097047Y-148955819D02*
X118239904Y-149003438D01*
X118573238Y-148955819D02*
X118811333Y-149955819D01*
X118811333Y-149955819D02*
X119001809Y-149241533D01*
X119001809Y-149241533D02*
X119192285Y-149955819D01*
X119192285Y-149955819D02*
X119430381Y-148955819D01*
X120335142Y-149955819D02*
X119763714Y-149955819D01*
X120049428Y-149955819D02*
X120049428Y-148955819D01*
X120049428Y-148955819D02*
X119954190Y-149098676D01*
X119954190Y-149098676D02*
X119858952Y-149193914D01*
X119858952Y-149193914D02*
X119763714Y-149241533D01*
X120716095Y-149051057D02*
X120763714Y-149003438D01*
X120763714Y-149003438D02*
X120858952Y-148955819D01*
X120858952Y-148955819D02*
X121097047Y-148955819D01*
X121097047Y-148955819D02*
X121192285Y-149003438D01*
X121192285Y-149003438D02*
X121239904Y-149051057D01*
X121239904Y-149051057D02*
X121287523Y-149146295D01*
X121287523Y-149146295D02*
X121287523Y-149241533D01*
X121287523Y-149241533D02*
X121239904Y-149384390D01*
X121239904Y-149384390D02*
X120668476Y-149955819D01*
X120668476Y-149955819D02*
X121287523Y-149955819D01*
M02*
